<svg xmlns="http://www.w3.org/2000/svg" xmlns:xlink="http://www.w3.org/1999/xlink" width="400.289" height="283.61" viewBox="0 0 400.289 283.61">
  <defs>
    <clipPath id="clip-path">
      <rect id="Rectángulo_439136" data-name="Rectángulo 439136" width="400" height="267.781" fill="#c5d7f4"/>
    </clipPath>
    <clipPath id="clip-path-2">
      <rect id="Rectángulo_439134" data-name="Rectángulo 439134" width="83.231" height="69.799" fill="#c5d7f4"/>
    </clipPath>
    <clipPath id="clip-path-3">
      <rect id="Rectángulo_439135" data-name="Rectángulo 439135" width="334.389" height="224.919" fill="#c5d7f4"/>
    </clipPath>
    <clipPath id="clip-path-4">
      <rect id="Rectángulo_439210" data-name="Rectángulo 439210" width="21.377" height="18.641" fill="none"/>
    </clipPath>
  </defs>
  <g id="Grupo_1176753" data-name="Grupo 1176753" transform="translate(-1019.711 -4041)">
    <rect id="Rectángulo_439130" data-name="Rectángulo 439130" width="400" height="282" rx="20" transform="translate(1019.711 4041)" fill="#3571c7"/>
    <g id="Grupo_1176745" data-name="Grupo 1176745" transform="translate(1020 4056.829)">
      <g id="Grupo_1176746" data-name="Grupo 1176746">
        <g id="Grupo_1176737" data-name="Grupo 1176737">
          <g id="Grupo_1176736" data-name="Grupo 1176736" clip-path="url(#clip-path)">
            <g id="Grupo_1176732" data-name="Grupo 1176732" transform="translate(84.974 10.896)" opacity="0.49">
              <g id="Grupo_1176731" data-name="Grupo 1176731">
                <g id="Grupo_1176730" data-name="Grupo 1176730" clip-path="url(#clip-path-2)">
                  <path id="Trazado_1002974" data-name="Trazado 1002974" d="M213.6,41.631a27.366,27.366,0,0,1-8.757,21.345c-11.52,10.77-38.932,32.23-63.536,19.766-32.159-16.291,13.668-74.406,48.947-65,18.007,4.8,22.886,15.025,23.346,23.884" transform="translate(-130.406 -16.722)" fill="#c5d7f4"/>
                </g>
              </g>
            </g>
            <g id="Grupo_1176735" data-name="Grupo 1176735" transform="translate(34.774 42.862)" opacity="0.49">
              <g id="Grupo_1176734" data-name="Grupo 1176734">
                <g id="Grupo_1176733" data-name="Grupo 1176733" clip-path="url(#clip-path-3)">
                  <path id="Trazado_1002975" data-name="Trazado 1002975" d="M387.545,122.876s-3.126-60.4-75.994-56.955c-28.627,1.353-54.463,9.919-75.281,19.821a368.223,368.223,0,0,1-110.977,32.322c-29.6,3.829-61,16.572-69.364,52.009-16.905,71.642,51.63,124.655,154.183,120.383s182.3-64.282,177.434-167.581" transform="translate(-53.367 -65.779)" fill="#c5d7f4"/>
                </g>
              </g>
            </g>
          </g>
        </g>
        <rect id="Rectángulo_439137" data-name="Rectángulo 439137" width="0.566" height="16.54" transform="translate(267.918 29.994)" fill="#9eb5e8"/>
        <rect id="Rectángulo_439138" data-name="Rectángulo 439138" width="0.568" height="12.319" transform="translate(271.538 34.215)" fill="#9eb5e8"/>
        <g id="Grupo_1176743" data-name="Grupo 1176743">
          <g id="Grupo_1176747" data-name="Grupo 1176747">
            <path id="Trazado_1002976" data-name="Trazado 1002976" d="M423.911,69.631a2.074,2.074,0,1,1,2.071-2.077,2.076,2.076,0,0,1-2.071,2.077m0-3.581a1.507,1.507,0,1,0,1.5,1.5,1.5,1.5,0,0,0-1.5-1.5" transform="translate(-146.966 -22.813)" fill="#9eb5e8"/>
            <rect id="Rectángulo_439139" data-name="Rectángulo 439139" width="0.567" height="22.165" transform="translate(377.504 93.028)" fill="#9eb5e8"/>
            <rect id="Rectángulo_439140" data-name="Rectángulo 439140" width="0.568" height="17.945" transform="translate(381.131 97.249)" fill="#9eb5e8"/>
            <path id="Trazado_1002977" data-name="Trazado 1002977" d="M568.944,175a2.074,2.074,0,1,1,2.07-2.071,2.075,2.075,0,0,1-2.07,2.071m0-3.581a1.507,1.507,0,1,0,1.5,1.51,1.509,1.509,0,0,0-1.5-1.51" transform="translate(-197.494 -59.523)" fill="#9eb5e8"/>
            <rect id="Rectángulo_439141" data-name="Rectángulo 439141" width="0.56" height="12.316" transform="translate(47.001 94.339)" fill="#9eb5e8"/>
            <path id="Trazado_1002978" data-name="Trazado 1002978" d="M84.556,155.677h-.422v-1.408h.422Zm0-3.377h-.422v-1.408h.422Zm0-3.377h-.422v-1.408h.422Z" transform="translate(-29.312 -51.393)" fill="#9eb5e8"/>
            <rect id="Rectángulo_439142" data-name="Rectángulo 439142" width="0.56" height="39.444" transform="translate(50.886 74.792)" fill="#9eb5e8"/>
            <path id="Trazado_1002979" data-name="Trazado 1002979" d="M428.44,21.682a2.069,2.069,0,1,1,2.072-2.068,2.072,2.072,0,0,1-2.072,2.068m0-3.578a1.509,1.509,0,1,0,1.5,1.51,1.509,1.509,0,0,0-1.5-1.51" transform="translate(-148.544 -6.112)" fill="#9eb5e8"/>
            <path id="Trazado_1002980" data-name="Trazado 1002980" d="M341.77,151.125a2.071,2.071,0,1,1,2.071-2.071,2.075,2.075,0,0,1-2.071,2.071m0-3.574a1.5,1.5,0,1,0,1.5,1.5,1.508,1.508,0,0,0-1.5-1.5" transform="translate(-118.346 -51.208)" fill="#9eb5e8"/>
            <line id="Línea_4319" data-name="Línea 4319" y2="62.654" transform="translate(223.422 30.409)" fill="#9eb5e8"/>
            <path id="Trazado_1002981" data-name="Trazado 1002981" d="M342.98,108.848h-.422v-1.4h.422Zm0-3.377h-.422v-1.4h.422Zm0-3.377h-.422v-1.4h.422Zm0-3.377h-.422v-1.4h.422Zm0-3.377h-.422v-1.4h.422Zm0-3.377h-.422v-1.4h.422Zm0-3.377h-.422v-1.4h.422Zm0-3.377h-.422v-1.4h.422Zm0-3.377h-.422v-1.4h.422Zm0-3.377h-.422v-1.4h.422Zm0-3.377h-.422v-1.4h.422Zm0-3.377h-.422V70.3h.422Zm0-3.377h-.422v-1.4h.422Zm0-3.376h-.422v-1.4h.422Zm0-3.377h-.422v-1.4h.422Zm0-3.377h-.422v-1.4h.422Zm0-3.377h-.422v-1.4h.422Zm0-3.377h-.422v-1.4h.422Zm0-3.377h-.422v-1.4h.422Z" transform="translate(-119.344 -16.257)" fill="#9eb5e8"/>
            <path id="Trazado_1002982" data-name="Trazado 1002982" d="M444.253,96.031a2.071,2.071,0,1,1,2.071-2.071,2.072,2.072,0,0,1-2.071,2.071m0-3.581a1.51,1.51,0,1,0,1.51,1.51,1.512,1.512,0,0,0-1.51-1.51" transform="translate(-154.054 -32.013)" fill="#9eb5e8"/>
            <line id="Línea_4320" data-name="Línea 4320" y2="28.888" transform="translate(290.2 28.275)" fill="#9eb5e8"/>
            <path id="Trazado_1002983" data-name="Trazado 1002983" d="M445.456,71.815h-.422V70.406h.422Zm0-3.376h-.422V67.03h.422Zm0-3.377h-.422V63.654h.422Zm0-3.377h-.422V60.277h.422Zm0-3.377h-.422V56.9h.422Zm0-3.377h-.422V53.524h.422Zm0-3.377h-.422V50.147h.422Zm0-3.377h-.422V46.771h.422Zm0-3.377h-.422V43.394h.422Z" transform="translate(-155.046 -15.118)" fill="#9eb5e8"/>
            <path id="Trazado_1002984" data-name="Trazado 1002984" d="M390.774,108.691a2.071,2.071,0,1,1,2.071-2.071,2.071,2.071,0,0,1-2.071,2.071m0-3.575a1.5,1.5,0,1,0,1.51,1.5,1.505,1.505,0,0,0-1.51-1.5" transform="translate(-135.422 -36.424)" fill="#9eb5e8"/>
            <path id="Trazado_1002985" data-name="Trazado 1002985" d="M391.976,66.015h-.422v-1.4h.422Zm0-3.377h-.422v-1.4h.422Zm0-3.377h-.422v-1.4h.422Zm0-3.377h-.422v-1.4h.422Zm0-3.377h-.422V51.1h.422Zm0-3.377h-.422v-1.4h.422Zm0-3.377h-.422v-1.4h.422Zm0-3.377h-.422v-1.4h.422Zm0-3.377h-.422V37.6h.422Zm0-3.377h-.422v-1.4h.422Zm0-3.377h-.422v-1.4h.422Zm0-3.377h-.422v-1.4h.422Zm0-3.377h-.422v-1.4h.422Zm0-3.377h-.422v-1.4h.422Zm0-3.377h-.422v-1.4h.422Z" transform="translate(-136.414 -6.04)" fill="#9eb5e8"/>
            <path id="Trazado_1002986" data-name="Trazado 1002986" d="M367.993,4.139a2.069,2.069,0,1,1,2.071-2.071,2.076,2.076,0,0,1-2.071,2.071m0-3.578a1.509,1.509,0,1,0,1.5,1.507,1.511,1.511,0,0,0-1.5-1.507" transform="translate(-127.482 0)" fill="#9eb5e8"/>
            <path id="Trazado_1002987" data-name="Trazado 1002987" d="M369.2,33.8h-.422V32.4h.422Zm0-3.376h-.422V29.02h.422Zm0-3.377h-.422V25.643h.422Zm0-3.377h-.422V22.267h.422Zm0-3.377h-.422V18.89h.422Zm0-3.377h-.422V15.513h.422Zm0-3.377h-.422V12.137h.422Zm0-3.377h-.422V8.76h.422Z" transform="translate(-128.48 -3.052)" fill="#9eb5e8"/>
            <path id="Trazado_1002988" data-name="Trazado 1002988" d="M541.332,244.048H479.757a1,1,0,0,0-1,1V350.472a1,1,0,0,0,1,1h61.574a1,1,0,0,0,1-1V245.05a1,1,0,0,0-1-1" transform="translate(-166.794 -85.024)" fill="#cbbfda"/>
            <rect id="Rectángulo_439143" data-name="Rectángulo 439143" width="54.987" height="99.407" transform="translate(316.257 163.032)" fill="#512189"/>
            <rect id="Rectángulo_439144" data-name="Rectángulo 439144" width="49.258" height="11.169" transform="translate(319.626 182.255)" fill="#391760"/>
            <rect id="Rectángulo_439145" data-name="Rectángulo 439145" width="49.258" height="11.169" transform="translate(319.12 181.749)" fill="#7a4bb0"/>
            <path id="Trazado_1002989" data-name="Trazado 1002989" d="M497.453,284.956a1.655,1.655,0,1,0,1.654,1.654,1.655,1.655,0,0,0-1.654-1.654" transform="translate(-172.732 -99.276)" fill="#f9cf70"/>
            <path id="Trazado_1002990" data-name="Trazado 1002990" d="M507.562,284.956a1.655,1.655,0,1,0,1.654,1.654,1.655,1.655,0,0,0-1.654-1.654" transform="translate(-176.254 -99.276)" fill="#fb5415"/>
            <path id="Trazado_1002991" data-name="Trazado 1002991" d="M544.44,285.151H518.156a.382.382,0,0,0,0,.764H544.44a.382.382,0,0,0,0-.764" transform="translate(-180.388 -99.344)" fill="#391760"/>
            <path id="Trazado_1002992" data-name="Trazado 1002992" d="M544.44,288.667H518.156a.382.382,0,0,0,0,.764H544.44a.382.382,0,0,0,0-.764" transform="translate(-180.388 -100.569)" fill="#391760"/>
            <rect id="Rectángulo_439146" data-name="Rectángulo 439146" width="49.258" height="11.169" transform="translate(319.626 166.813)" fill="#391760"/>
            <rect id="Rectángulo_439147" data-name="Rectángulo 439147" width="49.258" height="11.169" transform="translate(319.12 166.307)" fill="#7a4bb0"/>
            <path id="Trazado_1002993" data-name="Trazado 1002993" d="M497.453,261.257a1.655,1.655,0,1,0,1.654,1.654,1.655,1.655,0,0,0-1.654-1.654" transform="translate(-172.732 -91.02)" fill="#f9cf70"/>
            <path id="Trazado_1002994" data-name="Trazado 1002994" d="M507.562,261.257a1.655,1.655,0,1,0,1.654,1.654,1.655,1.655,0,0,0-1.654-1.654" transform="translate(-176.254 -91.02)" fill="#fb5415"/>
            <path id="Trazado_1002995" data-name="Trazado 1002995" d="M544.44,261.452H518.156a.382.382,0,0,0,0,.764H544.44a.382.382,0,0,0,0-.764" transform="translate(-180.388 -91.088)" fill="#391760"/>
            <path id="Trazado_1002996" data-name="Trazado 1002996" d="M544.44,264.968H518.156a.382.382,0,0,0,0,.764H544.44a.382.382,0,0,0,0-.764" transform="translate(-180.388 -92.313)" fill="#391760"/>
            <rect id="Rectángulo_439148" data-name="Rectángulo 439148" width="49.258" height="11.169" transform="translate(319.626 197.698)" fill="#391760"/>
            <rect id="Rectángulo_439149" data-name="Rectángulo 439149" width="49.258" height="11.169" transform="translate(319.12 197.192)" fill="#7a4bb0"/>
            <path id="Trazado_1002997" data-name="Trazado 1002997" d="M497.453,308.2a1.655,1.655,0,1,0,1.654,1.654,1.655,1.655,0,0,0-1.654-1.654" transform="translate(-172.732 -107.373)" fill="#f9cf70"/>
            <path id="Trazado_1002998" data-name="Trazado 1002998" d="M507.562,308.2a1.655,1.655,0,1,0,1.654,1.654,1.655,1.655,0,0,0-1.654-1.654" transform="translate(-176.254 -107.373)" fill="#fb5415"/>
            <path id="Trazado_1002999" data-name="Trazado 1002999" d="M544.44,308.39H518.156a.382.382,0,0,0,0,.764H544.44a.382.382,0,0,0,0-.764" transform="translate(-180.388 -107.441)" fill="#391760"/>
            <path id="Trazado_1003000" data-name="Trazado 1003000" d="M544.44,311.906H518.156a.382.382,0,0,0,0,.764H544.44a.382.382,0,0,0,0-.764" transform="translate(-180.388 -108.666)" fill="#391760"/>
            <rect id="Rectángulo_439150" data-name="Rectángulo 439150" width="49.258" height="11.169" transform="translate(319.626 213.14)" fill="#391760"/>
            <rect id="Rectángulo_439151" data-name="Rectángulo 439151" width="49.258" height="11.169" transform="translate(319.12 212.635)" fill="#7a4bb0"/>
            <path id="Trazado_1003001" data-name="Trazado 1003001" d="M497.453,332.313a1.655,1.655,0,1,0,1.654,1.654,1.655,1.655,0,0,0-1.654-1.654" transform="translate(-172.732 -115.775)" fill="#f9cf70"/>
            <path id="Trazado_1003002" data-name="Trazado 1003002" d="M507.562,332.313a1.655,1.655,0,1,0,1.654,1.654,1.655,1.655,0,0,0-1.654-1.654" transform="translate(-176.254 -115.775)" fill="#fb5415"/>
            <path id="Trazado_1003003" data-name="Trazado 1003003" d="M544.44,332.508H518.156a.382.382,0,0,0,0,.764H544.44a.382.382,0,0,0,0-.764" transform="translate(-180.388 -115.843)" fill="#391760"/>
            <path id="Trazado_1003004" data-name="Trazado 1003004" d="M544.44,336.025H518.156a.382.382,0,0,0,0,.764H544.44a.382.382,0,0,0,0-.764" transform="translate(-180.388 -117.068)" fill="#391760"/>
            <rect id="Rectángulo_439152" data-name="Rectángulo 439152" width="49.258" height="31.216" transform="translate(319.12 227.787)" fill="#7a4bb0"/>
            <rect id="Rectángulo_439161" data-name="Rectángulo 439161" width="2.153" height="0.732" transform="translate(364.761 229.622)" fill="#cbbfda"/>
            <rect id="Rectángulo_439162" data-name="Rectángulo 439162" width="2.153" height="0.732" transform="translate(364.761 231.411)" fill="#cbbfda"/>
            <rect id="Rectángulo_439163" data-name="Rectángulo 439163" width="2.153" height="7.148" transform="translate(364.761 249.989)" fill="#cbbfda"/>
            <path id="Trazado_1003005" data-name="Trazado 1003005" d="M552.818,359.172a1.655,1.655,0,1,0,1.654,1.654,1.655,1.655,0,0,0-1.654-1.654" transform="translate(-192.021 -125.133)" fill="#cbbfda"/>
            <g id="Grupo_1176752" data-name="Grupo 1176752">
              <rect id="Rectángulo_439153" data-name="Rectángulo 439153" width="2.153" height="0.732" transform="translate(364.761 245.727)" fill="#ffc4a3"/>
              <rect id="Rectángulo_439154" data-name="Rectángulo 439154" width="2.153" height="0.732" transform="translate(364.761 243.938)" fill="#ffc4a3"/>
              <rect id="Rectángulo_439155" data-name="Rectángulo 439155" width="2.153" height="0.732" transform="translate(364.761 242.148)" fill="#ffc4a3"/>
              <rect id="Rectángulo_439156" data-name="Rectángulo 439156" width="2.153" height="0.732" transform="translate(364.761 240.359)" fill="#ffc4a3"/>
              <rect id="Rectángulo_439157" data-name="Rectángulo 439157" width="2.153" height="0.732" transform="translate(364.761 236.78)" fill="#ffc4a3"/>
              <rect id="Rectángulo_439158" data-name="Rectángulo 439158" width="2.153" height="0.732" transform="translate(364.761 238.569)" fill="#ffc4a3"/>
              <rect id="Rectángulo_439159" data-name="Rectángulo 439159" width="2.153" height="0.732" transform="translate(364.761 233.201)" fill="#ffc4a3"/>
              <rect id="Rectángulo_439160" data-name="Rectángulo 439160" width="2.153" height="0.732" transform="translate(364.761 234.991)" fill="#ffc4a3"/>
              <path id="Trazado_1003006" data-name="Trazado 1003006" d="M552.818,370.99a1.655,1.655,0,1,0,1.654,1.654,1.655,1.655,0,0,0-1.654-1.654" transform="translate(-192.021 -129.25)" fill="#ffc4a3"/>
            </g>
            <path id="Trazado_1003007" data-name="Trazado 1003007" d="M552.818,382.808a1.655,1.655,0,1,0,1.654,1.654,1.655,1.655,0,0,0-1.654-1.654" transform="translate(-192.021 -133.367)" fill="#cbbfda"/>
            <rect id="Rectángulo_439164" data-name="Rectángulo 439164" width="1.475" height="27.95" transform="translate(320.854 229.419)" fill="#7a89dd"/>
            <rect id="Rectángulo_439165" data-name="Rectángulo 439165" width="1.475" height="27.95" transform="translate(323.733 229.419)" fill="#7a89dd"/>
            <g id="Grupo_1176751" data-name="Grupo 1176751">
              <rect id="Rectángulo_439166" data-name="Rectángulo 439166" width="1.475" height="27.95" transform="translate(326.611 229.42)" fill="#391760"/>
              <rect id="Rectángulo_439167" data-name="Rectángulo 439167" width="1.475" height="27.95" transform="translate(329.489 229.42)" fill="#391760"/>
              <rect id="Rectángulo_439168" data-name="Rectángulo 439168" width="1.475" height="27.95" transform="translate(332.368 229.42)" fill="#391760"/>
              <rect id="Rectángulo_439169" data-name="Rectángulo 439169" width="1.475" height="27.95" transform="translate(335.247 229.42)" fill="#391760"/>
              <rect id="Rectángulo_439170" data-name="Rectángulo 439170" width="1.475" height="27.95" transform="translate(338.125 229.42)" fill="#391760"/>
              <rect id="Rectángulo_439171" data-name="Rectángulo 439171" width="1.475" height="27.95" transform="translate(341.003 229.42)" fill="#391760"/>
              <rect id="Rectángulo_439172" data-name="Rectángulo 439172" width="1.475" height="27.95" transform="translate(343.882 229.42)" fill="#391760"/>
              <rect id="Rectángulo_439173" data-name="Rectángulo 439173" width="1.475" height="27.95" transform="translate(346.76 229.42)" fill="#391760"/>
              <rect id="Rectángulo_439174" data-name="Rectángulo 439174" width="1.475" height="27.95" transform="translate(349.639 229.42)" fill="#391760"/>
              <rect id="Rectángulo_439175" data-name="Rectángulo 439175" width="1.475" height="27.95" transform="translate(352.518 229.42)" fill="#391760"/>
              <rect id="Rectángulo_439176" data-name="Rectángulo 439176" width="1.475" height="27.95" transform="translate(355.396 229.42)" fill="#391760"/>
            </g>
            <rect id="Rectángulo_439177" data-name="Rectángulo 439177" width="92.105" height="32.816" transform="translate(24.461 231.179)" fill="#0b489b"/>
            <rect id="Rectángulo_439178" data-name="Rectángulo 439178" width="92.105" height="4.033" transform="translate(24.461 231.179)" fill="#9cb6ef"/>
            <rect id="Rectángulo_439179" data-name="Rectángulo 439179" width="52.561" height="7.31" transform="translate(56.551 244.792)" fill="#073473"/>
            <path id="Trazado_1003008" data-name="Trazado 1003008" d="M67.233,378.807a3.907,3.907,0,1,0,3.908-3.908,3.908,3.908,0,0,0-3.908,3.908" transform="translate(-23.423 -130.612)" fill="#073473"/>
            <path id="Trazado_1003009" data-name="Trazado 1003009" d="M50.791,378.807A3.907,3.907,0,1,0,54.7,374.9a3.908,3.908,0,0,0-3.908,3.908" transform="translate(-17.695 -130.612)" fill="#fff"/>
            <rect id="Rectángulo_439180" data-name="Rectángulo 439180" width="92.105" height="32.816" transform="translate(24.461 198.363)" fill="#0b489b"/>
            <rect id="Rectángulo_439181" data-name="Rectángulo 439181" width="92.105" height="4.033" transform="translate(24.461 198.363)" fill="#9cb6ef"/>
            <rect id="Rectángulo_439182" data-name="Rectángulo 439182" width="52.561" height="7.311" transform="translate(56.551 211.976)" fill="#073473"/>
            <path id="Trazado_1003010" data-name="Trazado 1003010" d="M67.233,328.446a3.907,3.907,0,1,0,3.908-3.908,3.908,3.908,0,0,0-3.908,3.908" transform="translate(-23.423 -113.066)" fill="#073473"/>
            <path id="Trazado_1003011" data-name="Trazado 1003011" d="M50.791,328.446a3.907,3.907,0,1,0,3.908-3.908,3.908,3.908,0,0,0-3.908,3.908" transform="translate(-17.695 -113.066)" fill="#fff"/>
            <rect id="Rectángulo_439183" data-name="Rectángulo 439183" width="92.105" height="32.816" transform="translate(24.461 165.548)" fill="#0b489b"/>
            <rect id="Rectángulo_439184" data-name="Rectángulo 439184" width="92.105" height="4.033" transform="translate(24.461 165.548)" fill="#073473"/>
            <rect id="Rectángulo_439185" data-name="Rectángulo 439185" width="52.561" height="7.31" transform="translate(56.551 179.161)" fill="#073473"/>
            <path id="Trazado_1003012" data-name="Trazado 1003012" d="M67.233,278.085a3.907,3.907,0,1,0,3.908-3.908,3.908,3.908,0,0,0-3.908,3.908" transform="translate(-23.423 -95.521)" fill="#073473"/>
            <path id="Trazado_1003013" data-name="Trazado 1003013" d="M50.791,278.085a3.907,3.907,0,1,0,3.908-3.908,3.908,3.908,0,0,0-3.908,3.908" transform="translate(-17.695 -95.521)" fill="#fff"/>
            <rect id="Rectángulo_439186" data-name="Rectángulo 439186" width="92.105" height="32.816" transform="translate(24.461 132.732)" fill="#0b489b"/>
            <rect id="Rectángulo_439187" data-name="Rectángulo 439187" width="92.105" height="4.033" transform="translate(24.461 132.732)" fill="#073473"/>
            <rect id="Rectángulo_439188" data-name="Rectángulo 439188" width="52.561" height="7.31" transform="translate(56.551 146.345)" fill="#073473"/>
            <path id="Trazado_1003014" data-name="Trazado 1003014" d="M67.233,227.724a3.907,3.907,0,1,0,3.908-3.908,3.908,3.908,0,0,0-3.908,3.908" transform="translate(-23.423 -77.976)" fill="#073473"/>
            <path id="Trazado_1003015" data-name="Trazado 1003015" d="M50.791,227.724a3.907,3.907,0,1,0,3.908-3.908,3.908,3.908,0,0,0-3.908,3.908" transform="translate(-17.695 -77.976)" fill="#fff"/>
            <rect id="Rectángulo_439189" data-name="Rectángulo 439189" width="17.989" height="0.427" transform="translate(87.474 149.787)" fill="#fff"/>
            <rect id="Rectángulo_439190" data-name="Rectángulo 439190" width="17.989" height="0.427" transform="translate(87.474 182.603)" fill="#fff"/>
            <rect id="Rectángulo_439191" data-name="Rectángulo 439191" width="17.989" height="0.427" transform="translate(87.474 215.418)" fill="#fff"/>
            <rect id="Rectángulo_439192" data-name="Rectángulo 439192" width="17.989" height="0.427" transform="translate(87.474 248.233)" fill="#fff"/>
            <path id="Trazado_1003016" data-name="Trazado 1003016" d="M374.91,169.173H177.755a11.221,11.221,0,0,0-11.221,11.221V305.349a11.221,11.221,0,0,0,11.221,11.221H374.91a11.221,11.221,0,0,0,11.221-11.221V180.394a11.221,11.221,0,0,0-11.221-11.221m1.709,134.081H176.047V178.243H376.619Z" transform="translate(-58.019 -58.939)" fill="#1e6652"/>
            <path id="Trazado_1003017" data-name="Trazado 1003017" d="M345.779,277.956c0,3.186-1.894,5.77-4.23,5.77s-4.23-2.584-4.23-5.77,1.894-5.77,4.23-5.77,4.23,2.584,4.23,5.77" transform="translate(-117.519 -94.827)" fill="#20b8c4"/>
            <path id="Trazado_1003018" data-name="Trazado 1003018" d="M398.075,386.3H125.214a1.035,1.035,0,0,0-1.031,1.031v5.311c.906,4.162,10.848,6.008,17.022,6.607H382.084c6.175-.6,16.116-2.444,17.021-6.607v-5.311a1.034,1.034,0,0,0-1.03-1.031" transform="translate(-43.264 -134.583)" fill="#b4e6d2"/>
            <path id="Trazado_1003019" data-name="Trazado 1003019" d="M141.2,402.411H382.084c6.174-.6,16.116-2.444,17.021-6.607v-.425H124.183v.425c.906,4.162,10.848,6.008,17.022,6.607" transform="translate(-43.264 -137.747)" fill="#4db593"/>
            <path id="Trazado_1003020" data-name="Trazado 1003020" d="M350.415,386.3H287.707a.239.239,0,0,0-.237.24v1.233c.208.967,2.492,1.4,3.912,1.535H346.74c1.419-.139,3.7-.568,3.912-1.535v-1.233a.239.239,0,0,0-.237-.24" transform="translate(-100.152 -134.583)" fill="#4db593"/>
            <rect id="Rectángulo_439193" data-name="Rectángulo 439193" width="200.644" height="124.877" transform="translate(117.956 119.304)" fill="#b4e6d2"/>
            <path id="Trazado_1003021" data-name="Trazado 1003021" d="M291.484,280.371V309.69h25.2V287.348l-6.975-6.976Z" transform="translate(-101.551 -97.679)" fill="#cbbfda"/>
            <path id="Trazado_1003022" data-name="Trazado 1003022" d="M293.068,278.788v29.318h25.2V285.764l-6.975-6.976Z" transform="translate(-102.102 -97.127)" fill="#e9f2ff"/>
            <path id="Trazado_1003023" data-name="Trazado 1003023" d="M321.029,285.764h6.976l-6.976-6.976Z" transform="translate(-111.844 -97.127)" fill="#7a89dd"/>
            <g id="Grupo_1176748" data-name="Grupo 1176748">
              <rect id="Rectángulo_439194" data-name="Rectángulo 439194" width="17.583" height="1.379" transform="translate(194.771 189.69)" fill="#cbbfda"/>
              <rect id="Rectángulo_439195" data-name="Rectángulo 439195" width="17.583" height="1.379" transform="translate(194.771 193.136)" fill="#cbbfda"/>
              <rect id="Rectángulo_439196" data-name="Rectángulo 439196" width="17.583" height="1.379" transform="translate(194.771 196.583)" fill="#cbbfda"/>
              <rect id="Rectángulo_439197" data-name="Rectángulo 439197" width="17.583" height="1.379" transform="translate(194.771 200.029)" fill="#cbbfda"/>
              <rect id="Rectángulo_439198" data-name="Rectángulo 439198" width="9.934" height="1.379" transform="translate(198.596 203.475)" fill="#cbbfda"/>
            </g>
            <path id="Trazado_1003024" data-name="Trazado 1003024" d="M309.482,260.983v39.392h33.853v-30.02l-9.373-9.373Z" transform="translate(-107.821 -90.924)" fill="#cbbfda"/>
            <path id="Trazado_1003025" data-name="Trazado 1003025" d="M311.609,258.855v39.392h33.853v-30.02l-9.373-9.373Z" transform="translate(-108.562 -90.183)" fill="#e9f2ff"/>
            <path id="Trazado_1003026" data-name="Trazado 1003026" d="M349.178,268.228h9.373l-9.373-9.373Z" transform="translate(-121.651 -90.183)" fill="#7a89dd"/>
            <g id="Grupo_1176749" data-name="Grupo 1176749">
              <rect id="Rectángulo_439199" data-name="Rectángulo 439199" width="23.625" height="1.852" transform="translate(208.161 179.461)" fill="#cbbfda"/>
              <rect id="Rectángulo_439200" data-name="Rectángulo 439200" width="23.625" height="1.852" transform="translate(208.161 184.092)" fill="#cbbfda"/>
              <rect id="Rectángulo_439201" data-name="Rectángulo 439201" width="23.625" height="1.852" transform="translate(208.161 188.722)" fill="#cbbfda"/>
              <rect id="Rectángulo_439202" data-name="Rectángulo 439202" width="23.625" height="1.852" transform="translate(208.161 193.353)" fill="#cbbfda"/>
              <rect id="Rectángulo_439203" data-name="Rectángulo 439203" width="13.348" height="1.852" transform="translate(213.299 197.983)" fill="#cbbfda"/>
            </g>
            <path id="Trazado_1003027" data-name="Trazado 1003027" d="M340.153,242.383v47.7h40.995V253.732l-11.35-11.35Z" transform="translate(-118.507 -84.444)" fill="#cbbfda"/>
            <path id="Trazado_1003028" data-name="Trazado 1003028" d="M342.73,239.806v47.7h40.995V251.156l-11.35-11.35Z" transform="translate(-119.404 -83.547)" fill="#e9f2ff"/>
            <path id="Trazado_1003029" data-name="Trazado 1003029" d="M388.225,251.156h11.35l-11.35-11.35Z" transform="translate(-135.254 -83.547)" fill="#cbbfda"/>
            <g id="Grupo_1176750" data-name="Grupo 1176750">
              <rect id="Rectángulo_439204" data-name="Rectángulo 439204" width="28.609" height="2.243" transform="translate(229.519 169.325)" fill="#cbbfda"/>
              <rect id="Rectángulo_439205" data-name="Rectángulo 439205" width="28.609" height="2.243" transform="translate(229.519 174.932)" fill="#cbbfda"/>
              <rect id="Rectángulo_439206" data-name="Rectángulo 439206" width="28.609" height="2.243" transform="translate(229.519 180.54)" fill="#cbbfda"/>
              <rect id="Rectángulo_439207" data-name="Rectángulo 439207" width="28.609" height="2.243" transform="translate(229.519 186.146)" fill="#cbbfda"/>
              <rect id="Rectángulo_439208" data-name="Rectángulo 439208" width="16.164" height="2.243" transform="translate(235.741 191.753)" fill="#cbbfda"/>
            </g>
            <path id="Trazado_1003030" data-name="Trazado 1003030" d="M216.545,103.986c1.492.585,3.528,1.239,5.1.872.144-.034.286-.071.428-.111a18.037,18.037,0,0,0-.309,4.781,9.312,9.312,0,0,1-3.934,1.847,12.8,12.8,0,0,1-4.439-2.567c.085-2.151.346-4.336.6-6.5a7.482,7.482,0,0,0,2.551,1.673" transform="translate(-74.344 -35.645)" fill="#854e4b"/>
            <path id="Trazado_1003031" data-name="Trazado 1003031" d="M221.823,104.858c-1.572.368-3.609-.286-5.1-.872a7.467,7.467,0,0,1-2.551-1.673c-.093.782-.186,1.568-.271,2.354a10.109,10.109,0,0,0,1.1,1.211,5.664,5.664,0,0,0,3.422,1.593,5.761,5.761,0,0,0,3.592-1.174c.058-.519.136-1.036.238-1.549-.142.04-.284.077-.428.111" transform="translate(-74.521 -35.645)" fill="#542d36"/>
            <path id="Trazado_1003032" data-name="Trazado 1003032" d="M207.837,88.128a1.577,1.577,0,0,0-1.786-.526,1.333,1.333,0,0,0-.782,1.093,2.667,2.667,0,0,0,.256,1.372,2.6,2.6,0,0,0,1.047,1.3c.5.272,1.155.61,1.529.177.515,2.731,2,5.542,4.853,6.661A8.634,8.634,0,0,0,217.57,99a6.15,6.15,0,0,0,3.9-2.435,16.914,16.914,0,0,0,1.88-4.508c.708.3,1.234-.175,1.832-.56a2.741,2.741,0,0,0,1.1-1.664c.167-.672.05-1.539-.577-1.81-.663-.287-1.37.276-1.884.8a15.214,15.214,0,0,0-.515-5.425,5.879,5.879,0,0,1-5-1.717c-.246.326-.925.282-1.346.313a6.11,6.11,0,0,1-3.661-.9,3.477,3.477,0,0,1-2.337,3.1,12.012,12.012,0,0,1-1.063,2.747,11.4,11.4,0,0,1-1.473,2.113,3.45,3.45,0,0,0-.585-.917" transform="translate(-71.509 -28.25)" fill="#854e4b"/>
            <path id="Trazado_1003033" data-name="Trazado 1003033" d="M218.2,88.141l-1.35.239c-.252.044-.556.072-.721-.115-.652-.741.858-1.25,1.379-1.391.432-.117.874-.259,1.164.147a.711.711,0,0,1-.473,1.119" transform="translate(-75.242 -30.224)" fill="#302639"/>
            <path id="Trazado_1003034" data-name="Trazado 1003034" d="M217.529,92.921a.815.815,0,1,0,.814-.775.8.8,0,0,0-.814.775" transform="translate(-75.785 -32.103)" fill="#302639"/>
            <path id="Trazado_1003035" data-name="Trazado 1003035" d="M227.539,94.111a.815.815,0,1,0,.814-.775.8.8,0,0,0-.814.775" transform="translate(-79.273 -32.518)" fill="#302639"/>
            <path id="Trazado_1003036" data-name="Trazado 1003036" d="M228.466,89.55l1.35.239c.252.044.556.072.721-.115.652-.741-.858-1.25-1.379-1.391-.432-.117-.874-.259-1.164.147a.711.711,0,0,0,.473,1.119" transform="translate(-79.384 -30.715)" fill="#302639"/>
            <path id="Trazado_1003037" data-name="Trazado 1003037" d="M223.764,95.665a.144.144,0,0,1-.071-.268,2.03,2.03,0,0,1,.711-.159c.27-.03.639-.072.7-.19.072-.137-.049-.306-.226-.529-.029-.036-.057-.072-.083-.107-.607-.8-.184-2.142.126-3.119.048-.152.093-.294.13-.422a.144.144,0,1,1,.276.08c-.038.13-.083.274-.132.428-.29.917-.687,2.174-.17,2.859.025.033.051.067.079.1.187.235.42.528.255.841-.133.253-.517.3-.923.342a1.951,1.951,0,0,0-.6.122.138.138,0,0,1-.07.019" transform="translate(-77.908 -31.623)" fill="#563038"/>
            <path id="Trazado_1003038" data-name="Trazado 1003038" d="M208.133,94.076h-.01a.145.145,0,0,1-.134-.152,1.489,1.489,0,0,0-1.056-1.45.144.144,0,1,1,.081-.276,1.762,1.762,0,0,1,1.261,1.744.143.143,0,0,1-.143.134m16.477.261a1.911,1.911,0,0,1,1.145-1.2.144.144,0,0,0,.084-.185.145.145,0,0,0-.186-.084,2.206,2.206,0,0,0-1.319,1.389.145.145,0,0,0,.1.179.157.157,0,0,0,.042.006.144.144,0,0,0,.137-.1" transform="translate(-72.058 -32.119)" fill="#563038"/>
            <path id="Trazado_1003039" data-name="Trazado 1003039" d="M218.778,98.633a7.386,7.386,0,0,0,4.566.837,2.993,2.993,0,0,0-.551.818,2.718,2.718,0,0,1-.609.985,1.263,1.263,0,0,1-1.115.16,2.449,2.449,0,0,1-.97-.611,5.142,5.142,0,0,1-1.321-2.188" transform="translate(-76.221 -34.363)" fill="#fefdff"/>
            <path id="Trazado_1003040" data-name="Trazado 1003040" d="M218.778,98.633a4.806,4.806,0,0,0,.167.466,6.776,6.776,0,0,0,2.907,1.105,5.22,5.22,0,0,0,.962.042,2.867,2.867,0,0,1,.529-.776,7.386,7.386,0,0,1-4.566-.837" transform="translate(-76.221 -34.363)" fill="#e7e6e8"/>
            <path id="Trazado_1003041" data-name="Trazado 1003041" d="M225.759,83.467c-.663-.287-1.37.276-1.884.8a15.228,15.228,0,0,0-.515-5.425,5.877,5.877,0,0,1-5-1.717c-.246.326-.926.282-1.346.313a6.1,6.1,0,0,1-3.661-.9,3.478,3.478,0,0,1-2.338,3.1,12.04,12.04,0,0,1-1.062,2.747,11.434,11.434,0,0,1-1.473,2.113,3.419,3.419,0,0,0-.585-.917,1.576,1.576,0,0,0-1.786-.526,1.1,1.1,0,0,0-.455.334,4.972,4.972,0,0,1,.187-3.527,1.638,1.638,0,0,1,.574-2.423,4.283,4.283,0,0,1-.392-2.411,2.166,2.166,0,0,1,1.818-1.679,3.1,3.1,0,0,1,1.379-2.182,3.594,3.594,0,0,1,2.726-.244A1.955,1.955,0,0,1,214.4,69.89a3.547,3.547,0,0,1,3.283-1.869,4.126,4.126,0,0,1,3.223,2.548,3.823,3.823,0,0,1,2.911.147,4.5,4.5,0,0,1,2.049,2.483,2.6,2.6,0,0,1,2.267,2.053,3.478,3.478,0,0,1-.143,1.833,13.954,13.954,0,0,1-.815,1.381,3.1,3.1,0,0,1-.311,3.747,1.447,1.447,0,0,1,.412,1.549,2.449,2.449,0,0,1-.884,1.171,1.377,1.377,0,0,0-.635-1.466" transform="translate(-71.565 -23.697)" fill="#302639"/>
            <path id="Trazado_1003042" data-name="Trazado 1003042" d="M229.272,372.734l1.061,12.919,6.429,1.341,3.43-5.376-.761-9.813Z" transform="translate(-79.876 -129.534)" fill="#854e4b"/>
            <path id="Trazado_1003043" data-name="Trazado 1003043" d="M239.631,374.385s-6.914,4.431-9.977,3l-.382-4.655,10.159-.929Z" transform="translate(-79.877 -129.534)" fill="#542d36"/>
            <path id="Trazado_1003044" data-name="Trazado 1003044" d="M264.2,405.638l-30.113-.046c-.8.03-2.734.178-3.412-.371-.66-.536-.945-1.749-1.035-3.212l33.356.48a6.311,6.311,0,0,1,1.2,3.151" transform="translate(-80.005 -140.056)" fill="#efefef"/>
            <path id="Trazado_1003045" data-name="Trazado 1003045" d="M262.979,395.8l-33.356-.48c-.178-2.912.42-6.813.362-8.339a6.471,6.471,0,0,0,2.393,1.312c4.543,1.75,6.281-1.849,7.617-5.382l.161-.1c4.682,7.988,14.816,7.131,21.614,11.817a5.254,5.254,0,0,1,1.208,1.168" transform="translate(-79.987 -133.37)" fill="#1c2684"/>
            <path id="Trazado_1003046" data-name="Trazado 1003046" d="M246.8,391.394a.129.129,0,0,1-.127-.122c-.072-1.284.736-3.233,2.218-3.489a.129.129,0,1,1,.044.255c-1.323.227-2.071,2.059-2.005,3.22a.127.127,0,0,1-.121.136H246.8" transform="translate(-85.936 -135.1)" fill="#fff"/>
            <path id="Trazado_1003047" data-name="Trazado 1003047" d="M249.955,393.015a.129.129,0,0,1-.126-.12,2.919,2.919,0,0,1,2.214-2.993.129.129,0,1,1,.037.255,2.684,2.684,0,0,0-1.994,2.719.129.129,0,0,1-.12.138h-.011" transform="translate(-87.036 -135.838)" fill="#fff"/>
            <path id="Trazado_1003048" data-name="Trazado 1003048" d="M253.375,394.793a.128.128,0,0,1-.126-.12,2.921,2.921,0,0,1,2.215-2.993.129.129,0,0,1,.036.256,2.685,2.685,0,0,0-1.994,2.719.129.129,0,0,1-.12.138h-.011" transform="translate(-88.228 -136.458)" fill="#fff"/>
            <path id="Trazado_1003049" data-name="Trazado 1003049" d="M188.3,342.7l-7.959,10.23,3.826,5.337,6.163-1.637,6.08-7.741Z" transform="translate(-62.829 -119.393)" fill="#854e4b"/>
            <path id="Trazado_1003050" data-name="Trazado 1003050" d="M197.531,350.923s-8.089-1.416-9.379-4.539l2.868-3.686,8.109,6.19Z" transform="translate(-65.551 -119.393)" fill="#542d36"/>
            <path id="Trazado_1003051" data-name="Trazado 1003051" d="M195.582,390.195,173.44,369.785c-.614-.522-2.134-1.719-2.262-2.582-.124-.841.487-1.927,1.413-3.066l24.236,22.923a6.309,6.309,0,0,1-1.245,3.134" transform="translate(-59.632 -126.863)" fill="#efefef"/>
            <path id="Trazado_1003052" data-name="Trazado 1003052" d="M197.591,383.828,173.354,360.9c1.84-2.265,4.92-4.733,5.909-5.9a6.479,6.479,0,0,0,.874,2.585c2.161,4.363,5.877,2.888,9.25,1.191l.184.038c-1.957,9.05,6.085,15.276,7.92,23.326a5.249,5.249,0,0,1,.1,1.678" transform="translate(-60.395 -123.682)" fill="#1c2684"/>
            <path id="Trazado_1003053" data-name="Trazado 1003053" d="M191.892,368.564a.13.13,0,0,1-.011-.176c.816-.994,2.73-1.883,3.994-1.068a.129.129,0,1,1-.139.217c-1.128-.727-2.919.115-3.655,1.015a.129.129,0,0,1-.182.018l-.007-.006" transform="translate(-66.84 -127.86)" fill="#fff"/>
            <path id="Trazado_1003054" data-name="Trazado 1003054" d="M193.3,371.857a.129.129,0,0,1-.012-.174,2.92,2.92,0,0,1,3.656-.706.129.129,0,1,1-.145.214,2.684,2.684,0,0,0-3.309.653.129.129,0,0,1-.181.02l-.008-.007" transform="translate(-67.331 -129.111)" fill="#fff"/>
            <path id="Trazado_1003055" data-name="Trazado 1003055" d="M194.617,375.481a.129.129,0,0,1-.012-.174,2.921,2.921,0,0,1,3.656-.706.13.13,0,0,1-.146.214,2.685,2.685,0,0,0-3.308.653.129.129,0,0,1-.182.02l-.008-.007" transform="translate(-67.789 -130.374)" fill="#fff"/>
            <path id="Trazado_1003056" data-name="Trazado 1003056" d="M175.835,166.517s-4.915,1.589-15.705-12.366l5.28-6.748,8.936,12.05Z" transform="translate(-55.788 -51.354)" fill="#1c2684"/>
            <path id="Trazado_1003057" data-name="Trazado 1003057" d="M165.777,161.011s-9.12,23.469-24.644,37.482l-6.138-4.9s11.374-22.841,19.812-36.924a71.9,71.9,0,0,1,2.773-7.355Z" transform="translate(-47.031 -52.021)" fill="#854e4b"/>
            <path id="Trazado_1003058" data-name="Trazado 1003058" d="M163.849,186.647l-.068.016c-.044.011-.11.023-.193.04-.166.033-.4.073-.689.1-.143.014-.3.025-.461.031s-.336,0-.513-.005a5.4,5.4,0,0,1-.54-.059,3.81,3.81,0,0,1-.541-.132,3.511,3.511,0,0,1-.516-.2l-.12-.065a1.1,1.1,0,0,1-.119-.066c-.076-.049-.154-.091-.223-.145s-.141-.1-.2-.157a2.4,2.4,0,0,1-.186-.164c-.119-.11-.219-.225-.315-.332l-.126-.162a1.51,1.51,0,0,1-.111-.149c-.064-.1-.129-.179-.169-.252-.088-.145-.141-.227-.141-.227s.032.092.093.252c.028.081.078.173.128.281a3.926,3.926,0,0,0,.2.35c.044.06.089.123.135.188s.106.124.16.191a2.383,2.383,0,0,0,.184.19,2.174,2.174,0,0,0,.209.181,3.254,3.254,0,0,0,.485.319,3.623,3.623,0,0,0,.554.229,3.75,3.75,0,0,0,1.157.169,4.12,4.12,0,0,0,.534-.031,4.469,4.469,0,0,0,.47-.079,4.542,4.542,0,0,0,.679-.2,2.615,2.615,0,0,0,.246-.108" transform="translate(-55.26 -64.355)" fill="#542d36"/>
            <path id="Trazado_1003059" data-name="Trazado 1003059" d="M164.149,159.766s6.119,7.317,9.7,7.782l3.385-7.084-10.12-6.2Z" transform="translate(-57.188 -53.745)" fill="#542d36"/>
            <path id="Trazado_1003060" data-name="Trazado 1003060" d="M187.785,291.219c12.02,12.891,13.45,9.871,13.45,9.871l27.932-30.209c7.722-13.1,4.9-20.5,4.9-20.5l-8.4-53.006s-15.338,6.218-22.374,9.94c-1.649,11.984,2.907,19.359,11.231,39.588a488.257,488.257,0,0,0-26.745,44.316" transform="translate(-65.423 -68.764)" fill="#7a4bb0"/>
            <path id="Trazado_1003061" data-name="Trazado 1003061" d="M228.561,223.008s15.08,37.861,13.394,57.08c-1.3,14.863-13.394-57.08-13.394-57.08" transform="translate(-79.629 -77.694)" fill="#1c2684"/>
            <path id="Trazado_1003062" data-name="Trazado 1003062" d="M215.585,293.6l2.5,33.261,9.755-8.97Z" transform="translate(-75.108 -102.289)" fill="#1c2684"/>
            <path id="Trazado_1003063" data-name="Trazado 1003063" d="M189.179,206.371c-2.816,15.394,16.877,55.157,16.877,55.157l7.292,52.566c9.256,7.276,17.485,0,17.485,0,1.707-15.788-1.8-35.749-4.834-51.471-3.169-16.4-8.439-40.5-15.273-55.9Z" transform="translate(-65.812 -71.898)" fill="#7a4bb0"/>
            <path id="Trazado_1003064" data-name="Trazado 1003064" d="M219.828,317.215l.332.114-6.247-56.145-.007-.019-20.522-53.333-.3.114L213.6,261.261Z" transform="translate(-67.27 -72.407)" fill="#1c2684"/>
            <path id="Trazado_1003065" data-name="Trazado 1003065" d="M190.011,206.173s20.419,6.21,37.939,3.106l-.741-4.962Z" transform="translate(-66.198 -71.182)" fill="#1c2684"/>
            <path id="Trazado_1003066" data-name="Trazado 1003066" d="M265.921,147.1s-1.667,13.525-9.122,14.709l-2.685-15.721,9.821-.5Z" transform="translate(-88.531 -50.722)" fill="#1c2684"/>
            <path id="Trazado_1003067" data-name="Trazado 1003067" d="M248.492,137.919s2.851,2.865,15.123,9.639a48.868,48.868,0,0,0,16.393-4.1c5.6,1.007,6.11,1.566,5.558,5.339-8.1,4.32-18.867,12.495-24.963,12.368,0,0-8.076-1.453-18.387-16.12Z" transform="translate(-84.386 -48.05)" fill="#854e4b"/>
            <path id="Trazado_1003068" data-name="Trazado 1003068" d="M265.8,149.994s-5.075,10.98-7.641,11.172l-2.668-1.97,8.522-10.368Z" transform="translate(-89.011 -51.85)" fill="#542d36"/>
            <path id="Trazado_1003069" data-name="Trazado 1003069" d="M273.168,154.266s.008.093.018.255c0,.08.008.179.014.291s.005.238.008.375,0,.285-.007.442-.018.321-.031.489c-.007.085-.018.169-.028.256s-.024.173-.04.26a4.826,4.826,0,0,1-.113.521c-.021.087-.05.171-.074.256s-.058.167-.093.246a3.526,3.526,0,0,1-.223.459c-.021.036-.04.072-.063.106s-.046.067-.067.1a2.115,2.115,0,0,1-.138.19,2.181,2.181,0,0,1-.145.169,1.594,1.594,0,0,1-.145.15c-.094.1-.194.17-.278.244s-.168.122-.235.167c-.137.083-.216.136-.216.136s.088-.027.244-.079c.076-.029.167-.072.272-.121a2.682,2.682,0,0,0,.33-.206,1.747,1.747,0,0,0,.177-.137,2.065,2.065,0,0,0,.175-.166,2.539,2.539,0,0,0,.169-.19,2.023,2.023,0,0,0,.157-.215c.025-.038.051-.076.075-.115s.046-.08.068-.121a2.275,2.275,0,0,0,.125-.253c.039-.086.07-.176.106-.265s.061-.181.085-.274a5.078,5.078,0,0,0,.143-1.613c-.009-.161-.028-.313-.048-.452a5.136,5.136,0,0,0-.14-.663c-.045-.157-.079-.244-.079-.244" transform="translate(-94.523 -53.745)" fill="#542d36"/>
            <path id="Trazado_1003070" data-name="Trazado 1003070" d="M243.891,114.7c4.06,1.449,5.255,5.725,7.654,9.361,2.973,4.505,6.307,6.956,8.912,11.727a.292.292,0,0,0-.081.064c-3.91,4.673-9.862,10.683-9.04,14.645-2.611-2.232-8.32-4.661-10.438-7.369l-2.464-30.009c1.373.675,4.024,1.069,5.458,1.581" transform="translate(-83.068 -39.408)" fill="#4db593"/>
            <g id="Grupo_1176741" data-name="Grupo 1176741" transform="translate(73.52 140.023)">
              <g id="Grupo_1176740" data-name="Grupo 1176740" clip-path="url(#clip-path-4)">
                <g id="Grupo_1176739" data-name="Grupo 1176739">
                  <g id="Grupo_1176738" data-name="Grupo 1176738" clip-path="url(#clip-path-4)">
                    <path id="Trazado_1003071" data-name="Trazado 1003071" d="M113.662,231.887c-1.112,1.147-1.174-.444.19-2.15a16.61,16.61,0,0,1,2.965-2.954c4.851-3.53,8.408-5.906,11.233-11.9l6.154,5.3a32.405,32.405,0,0,1-2.694,3.295,25.552,25.552,0,0,0-1.956,2.643c-.548.924-.7,2.041-1.3,2.932a16.122,16.122,0,0,1-3.047,2.863c-.438.371-1.978,1.776-2.527,1.262-.667-.623,1.326-3.039,1.508-3.755-1.531-.336-2.489.747-3.68,1.62-.795.583-4.023,3.411-5.185,2.162-.441.363-1.053.5-1.083-.17-.379.311-1.381-.053-.582-1.157" transform="translate(-112.828 -214.889)" fill="#854e4b"/>
                  </g>
                </g>
              </g>
            </g>
            <path id="Trazado_1003072" data-name="Trazado 1003072" d="M114.41,238.293a.071.071,0,0,1-.058-.04.076.076,0,0,1,.032-.1,18.243,18.243,0,0,0,3.708-2.756c.478-.426.971-.867,1.531-1.323a.067.067,0,0,1,.1.013.078.078,0,0,1-.013.1c-.558.454-1.05.894-1.526,1.32a18.4,18.4,0,0,1-3.736,2.775.069.069,0,0,1-.037.008" transform="translate(-39.837 -81.544)" fill="#542d36"/>
            <path id="Trazado_1003073" data-name="Trazado 1003073" d="M115.493,239.2a.072.072,0,0,1-.059-.04.073.073,0,0,1,.031-.1,21.106,21.106,0,0,0,5.763-4.471.071.071,0,0,1,.1,0,.073.073,0,0,1,0,.1,21.226,21.226,0,0,1-5.8,4.5.074.074,0,0,1-.038.008" transform="translate(-40.213 -81.72)" fill="#542d36"/>
            <path id="Trazado_1003074" data-name="Trazado 1003074" d="M116.893,240.17a.072.072,0,0,1-.021-.139,18.1,18.1,0,0,0,6.074-4.55.077.077,0,0,1,.106-.012.079.079,0,0,1,.008.1h0l0,0c-.012.014-.05.059-.113.138a.068.068,0,0,1-.029.022,18.052,18.052,0,0,1-5.988,4.429.065.065,0,0,1-.033.005" transform="translate(-40.701 -82.03)" fill="#542d36"/>
            <path id="Trazado_1003075" data-name="Trazado 1003075" d="M202.9,108.045c-1.646,5.814-10.836,5.762-14.786,8.515-3.311,2.307-1.525,5.6-1.833,9.787-.446,6.054.233,12.153.585,18.2.381,6.525.131,11.86.324,18.391.038,1.306-.053,8.208,0,9.519,0,0,39.4,4.883,40.158.611h0c-.036-8.612-.938-24.446.042-39.7v0c-.848-4.738-.541-9.618-1.613-14.374a12.621,12.621,0,0,0-2.921-5.99c-2.729-3-7.713-1.608-9.589-4.033-2.713,4.318-7.593,2.348-10.366-.922" transform="translate(-64.825 -37.642)" fill="#4db593"/>
            <path id="Trazado_1003076" data-name="Trazado 1003076" d="M160.131,141.866c2.5-6.945,8.8-12.659,12.053-17.862,5.416-8.665,14.712-6.98,20.366-11.864l-8.756,20.572-.147-.043c-2.287,5.937-4.851,15.849-7.811,21.562-3.63-4.311-10.684-10.164-15.705-12.366" transform="translate(-55.788 -39.069)" fill="#4db593"/>
            <path id="Trazado_1003077" data-name="Trazado 1003077" d="M245.351,151.63a.1.1,0,0,0,.033-.006.105.105,0,0,0,.067-.133l-6.467-19.7a.106.106,0,1,0-.2.066l6.467,19.7a.107.107,0,0,0,.1.073" transform="translate(-83.189 -45.891)" fill="#1c2684"/>
            <path id="Trazado_1003078" data-name="Trazado 1003078" d="M188.283,155.934a.105.105,0,0,0,.1-.069l7.651-20.71a.106.106,0,0,0-.063-.136.105.105,0,0,0-.136.063l-7.651,20.71a.106.106,0,0,0,.1.142" transform="translate(-65.559 -47.037)" fill="#1c2684"/>
            <path id="Trazado_1003079" data-name="Trazado 1003079" d="M288.717,122.253l17.356,30.421,26.143-14.915L318.99,114.575l-11.368-3.108Z" transform="translate(-100.587 -38.834)" fill="#cbbfda"/>
            <path id="Trazado_1003080" data-name="Trazado 1003080" d="M289.422,119.672l17.356,30.421,26.143-14.915L319.7,111.995l-11.368-3.108Z" transform="translate(-100.832 -37.935)" fill="#e9f2ff"/>
            <path id="Trazado_1003081" data-name="Trazado 1003081" d="M322.565,116.124,329.8,112l-11.367-3.109Z" transform="translate(-110.941 -37.935)" fill="#cbbfda"/>
            <rect id="Rectángulo_439211" data-name="Rectángulo 439211" width="21.005" height="1.647" transform="translate(197.293 87.816) rotate(-29.706)" fill="#cbbfda"/>
            <rect id="Rectángulo_439212" data-name="Rectángulo 439212" width="21.005" height="1.647" transform="translate(199.333 91.391) rotate(-29.706)" fill="#cbbfda"/>
            <rect id="Rectángulo_439213" data-name="Rectángulo 439213" width="21.005" height="1.647" transform="translate(201.373 94.967) rotate(-29.706)" fill="#cbbfda"/>
            <rect id="Rectángulo_439214" data-name="Rectángulo 439214" width="21.005" height="1.647" transform="translate(203.413 98.543) rotate(-29.706)" fill="#cbbfda"/>
            <rect id="Rectángulo_439215" data-name="Rectángulo 439215" width="11.868" height="1.647" transform="translate(209.421 99.855) rotate(-29.704)" fill="#cbbfda"/>
            <path id="Trazado_1003082" data-name="Trazado 1003082" d="M353.068,403.158H3.074c-1.7,0-3.074.709-3.074,1.583v.758c0,.874,1.376,1.583,3.074,1.583H353.068c1.7,0,3.073-.709,3.073-1.583v-.758c0-.874-1.376-1.583-3.073-1.583" transform="translate(21.929 -140.457)" fill="#1c2684"/>
            <path id="Trazado_1003083" data-name="Trazado 1003083" d="M539.829,100.176a29,29,0,0,0-25.082-24.265,2.037,2.037,0,0,0-2.276,2.026v0a2.03,2.03,0,0,0,1.772,2.021A24.913,24.913,0,0,1,535.8,100.809a2.04,2.04,0,0,0,4.03-.633" transform="translate(-178.541 -26.442)" fill="#512189"/>
            <path id="Trazado_1003084" data-name="Trazado 1003084" d="M532.582,103.876a21.9,21.9,0,0,0-17.747-16.94,2.038,2.038,0,0,0-2.365,2.015h0a2.046,2.046,0,0,0,1.717,2.013,17.8,17.8,0,0,1,14.4,13.766,2.044,2.044,0,0,0,1.995,1.619h0a2.042,2.042,0,0,0,1.995-2.473" transform="translate(-178.54 -30.278)" fill="#512189"/>
            <path id="Trazado_1003085" data-name="Trazado 1003085" d="M524.831,107.694a14.489,14.489,0,0,0-9.772-9.085,2.042,2.042,0,0,0-2.589,1.965v0a2.023,2.023,0,0,0,1.476,1.959,10.392,10.392,0,0,1,7.026,6.483A2.06,2.06,0,0,0,522.9,110.4h0a2.035,2.035,0,0,0,1.929-2.7" transform="translate(-178.541 -34.329)" fill="#512189"/>
            <path id="Trazado_1003086" data-name="Trazado 1003086" d="M468.655,149.093a8.708,8.708,0,0,1,6.444.118,8.619,8.619,0,0,1,2.062,1.233c.038-.1.079-.208.122-.311a6.708,6.708,0,0,1,8.709-3.751,6.344,6.344,0,0,1,2.8,2.312,10.485,10.485,0,0,1,10.318-1.314,10.2,10.2,0,0,1,1.763.96v-24.3h8.391l-24.5-23.926-24.5,23.926h8.39Z" transform="translate(-160.353 -34.878)" fill="#512189"/>
            <path id="Trazado_1003087" data-name="Trazado 1003087" d="M470.826,129.718v20.538a10.205,10.205,0,0,0-1.763-.96,10.486,10.486,0,0,0-10.318,1.315,6.341,6.341,0,0,0-2.8-2.313,6.708,6.708,0,0,0-8.709,3.751c-.044.1-.084.207-.122.311a8.6,8.6,0,0,0-2.062-1.233,8.7,8.7,0,0,0-6.444-.118V125.955h-8.391l19.635-19.174a24.029,24.029,0,0,0-27.7,10.011A14.829,14.829,0,0,0,399.5,129.207q0,.36.018.715a20.377,20.377,0,0,0-5.363-.715,19.933,19.933,0,1,0,0,39.865h72.114a19.915,19.915,0,0,0,4.553-39.353" transform="translate(-130.303 -36.795)" fill="#fff"/>
            <path id="Trazado_1003088" data-name="Trazado 1003088" d="M116.655,60.69l2.507-6.121L94.984,45.39Z" transform="translate(-33.092 -15.813)" fill="#391760" fill-rule="evenodd"/>
            <path id="Trazado_1003089" data-name="Trazado 1003089" d="M115.438,56.918,94.984,45.389,109.221,59.85Z" transform="translate(-33.092 -15.813)" fill="#512189" fill-rule="evenodd"/>
            <path id="Trazado_1003090" data-name="Trazado 1003090" d="M124.7,52.077,94.984,45.389l24.178,9.18Z" transform="translate(-33.092 -15.813)" fill="#512189" fill-rule="evenodd"/>
            <path id="Trazado_1003091" data-name="Trazado 1003091" d="M125.051,63.081l1.217,3.772-3.691-2.606Z" transform="translate(-42.705 -21.977)" fill="#f6f5f4" fill-rule="evenodd"/>
            <path id="Trazado_1003092" data-name="Trazado 1003092" d="M159.593,84.49a.245.245,0,0,1,.214-.272,5.605,5.605,0,0,0,2.32-.868.245.245,0,1,1,.261.414,6.094,6.094,0,0,1-2.523.94h-.029a.245.245,0,0,1-.242-.215m-2.391-.345a2.679,2.679,0,0,1-1.25-2.249c0-.059,0-.119.006-.178a.244.244,0,1,1,.487.031c0,.05,0,.1,0,.147a2.2,2.2,0,0,0,1.031,1.842.245.245,0,0,1-.136.448.237.237,0,0,1-.134-.041m25.262-1.461a15.3,15.3,0,0,0-1.516-2.066.244.244,0,0,1,.368-.321,15.755,15.755,0,0,1,1.565,2.132.244.244,0,0,1-.081.336.241.241,0,0,1-.128.036.244.244,0,0,1-.209-.117m-18.411-.651a.245.245,0,0,1-.031-.344,7.145,7.145,0,0,0,1.25-2.173.244.244,0,1,1,.46.165A7.637,7.637,0,0,1,164.4,82a.244.244,0,0,1-.188.088.241.241,0,0,1-.156-.057m-6.865-2.4a.245.245,0,0,1,0-.346,8.728,8.728,0,0,1,2.172-1.554.244.244,0,0,1,.227.433,8.244,8.244,0,0,0-2.051,1.464.245.245,0,0,1-.345,0M179.1,78.85a13.663,13.663,0,0,0-2.139-1.4.244.244,0,0,1,.227-.432,14.162,14.162,0,0,1,2.216,1.449.244.244,0,0,1-.152.435.247.247,0,0,1-.152-.053m-13.156-1.563a.245.245,0,0,1-.242-.248v-.083a9.588,9.588,0,0,0-.327-2.427.245.245,0,0,1,.473-.124,10.091,10.091,0,0,1,.343,2.552v.089a.244.244,0,0,1-.244.242Zm-4.3-.257a.246.246,0,0,1,.154-.31c.852-.287,1.7-.535,2.521-.736a.248.248,0,0,1,.3.179.245.245,0,0,1-.18.3c-.807.2-1.641.441-2.481.725a.255.255,0,0,1-.078.013.245.245,0,0,1-.232-.166m12.957-.559a15.237,15.237,0,0,0-2.5-.549.244.244,0,0,1,.065-.484,15.726,15.726,0,0,1,2.582.567.244.244,0,0,1-.072.478.258.258,0,0,1-.073-.011m-7.907-.709a.244.244,0,0,1,.209-.276,21.538,21.538,0,0,1,2.627-.2h0a.244.244,0,0,1,0,.489,20.955,20.955,0,0,0-2.567.2.191.191,0,0,1-.033,0,.244.244,0,0,1-.242-.211m-2.221-3.619a15.482,15.482,0,0,0-1.333-2.19.244.244,0,1,1,.4-.287,15.948,15.948,0,0,1,1.375,2.259.245.245,0,0,1-.11.328.248.248,0,0,1-.108.025.245.245,0,0,1-.22-.136m-2.99-4.155a19.271,19.271,0,0,0-1.914-1.719.244.244,0,1,1,.3-.384,19.714,19.714,0,0,1,1.963,1.763.244.244,0,1,1-.351.34M137.3,65.771a.245.245,0,0,1,.055-.341c.134-.1.268-.192.4-.284a.244.244,0,0,1,.277.4q-.2.136-.394.278a.242.242,0,0,1-.143.046.246.246,0,0,1-.2-.1m20.139-.953a19.386,19.386,0,0,0-2.3-1.16.244.244,0,1,1,.191-.45,19.763,19.763,0,0,1,2.354,1.189.244.244,0,0,1-.124.455.239.239,0,0,1-.124-.035m-17.528-.7a.244.244,0,0,1,.1-.329,19.065,19.065,0,0,1,2.421-1.049.244.244,0,1,1,.162.461,18.447,18.447,0,0,0-2.358,1.022.247.247,0,0,1-.112.027.244.244,0,0,1-.217-.132m12.8-1.294a17.534,17.534,0,0,0-2.522-.482.245.245,0,0,1-.215-.271.249.249,0,0,1,.271-.214,18.046,18.046,0,0,1,2.592.5.244.244,0,0,1-.063.48.262.262,0,0,1-.063-.008m-7.922-.489a.244.244,0,0,1,.194-.286,17.366,17.366,0,0,1,2.625-.3.249.249,0,0,1,.253.235.244.244,0,0,1-.235.253,16.877,16.877,0,0,0-2.55.289.228.228,0,0,1-.046,0,.244.244,0,0,1-.24-.2" transform="translate(-47.819 -21.513)" fill="#b4e6d2"/>
          </g>
        </g>
      </g>
    </g>
  </g>
</svg>
