<svg xmlns="http://www.w3.org/2000/svg" xmlns:xlink="http://www.w3.org/1999/xlink" width="190" height="132" viewBox="0 0 190 132">
  <defs>
    <clipPath id="clip-path">
      <rect id="Rect치ngulo_439417" data-name="Rect치ngulo 439417" width="117" height="117" transform="translate(216.711 2736)" fill="#fff" stroke="#707070" stroke-width="1"/>
    </clipPath>
    <clipPath id="clip-path-2">
      <path id="path2406" d="M0-117H117V0H0Z"/>
    </clipPath>
  </defs>
  <g id="Grupo_1180955" data-name="Grupo 1180955" transform="translate(-179.711 -2728)">
    <g id="Grupo_1177314" data-name="Grupo 1177314">
      <rect id="Rect치ngulo_439415" data-name="Rect치ngulo 439415" width="190" height="132" rx="10" transform="translate(179.711 2728)" fill="#2a8d71"/>
      <g id="Enmascarar_grupo_1098933" data-name="Enmascarar grupo 1098933" clip-path="url(#clip-path)">
        <g id="g2400" transform="translate(216.711 2853)">
          <g id="g2402">
            <g id="g2404" clip-path="url(#clip-path-2)">
              <g id="g2410" transform="translate(56.331 -20.643)">
                <path id="path2412" d="M0,0H-43.264a7.571,7.571,0,0,1-7.571-7.571v-7.572H7.272Z" fill="#cbbfda"/>
              </g>
              <g id="g2414" transform="translate(103.933 -81.214)">
                <path id="path2416" d="M0,0V53H-90.865a7.571,7.571,0,0,1-7.571-7.571V0l53-18.929Z" fill="#ebf5fc"/>
              </g>
              <g id="g2418" transform="translate(18.813 -66.071)">
                <path id="path2420" d="M0,0H-3.915A1.828,1.828,0,0,1-5.744-1.828V-5.743A1.828,1.828,0,0,1-3.915-7.571H0A1.828,1.828,0,0,1,1.828-5.743v3.915A1.828,1.828,0,0,1,0,0" fill="#3c58a0"/>
              </g>
              <g id="g2422" transform="translate(33.956 -66.071)">
                <path id="path2424" d="M0,0H-3.915A1.828,1.828,0,0,1-5.743-1.828V-5.743A1.828,1.828,0,0,1-3.915-7.571H0A1.828,1.828,0,0,1,1.828-5.743v3.915A1.828,1.828,0,0,1,0,0" fill="#3c58a0"/>
              </g>
              <g id="g2426" transform="translate(49.099 -66.071)">
                <path id="path2428" d="M0,0H-3.915A1.828,1.828,0,0,1-5.743-1.828V-5.743A1.828,1.828,0,0,1-3.915-7.571H0A1.828,1.828,0,0,1,1.828-5.743v3.915A1.828,1.828,0,0,1,0,0" fill="#3c58a0"/>
              </g>
              <g id="g2430" transform="translate(64.242 -66.071)">
                <path id="path2432" d="M0,0H-3.915A1.828,1.828,0,0,1-5.743-1.828V-5.743A1.828,1.828,0,0,1-3.915-7.571H0A1.828,1.828,0,0,1,1.828-5.743v3.915A1.828,1.828,0,0,1,0,0" fill="#3c58a0"/>
              </g>
              <g id="g2434" transform="translate(79.383 -66.071)">
                <path id="path2436" d="M0,0H-3.915A1.828,1.828,0,0,1-5.743-1.828V-5.743A1.828,1.828,0,0,1-3.915-7.571H0A1.828,1.828,0,0,1,1.828-5.743v3.915A1.828,1.828,0,0,1,0,0" fill="#3c58a0"/>
              </g>
              <g id="g2438" transform="translate(94.526 -66.071)">
                <path id="path2440" d="M0,0H-3.915A1.828,1.828,0,0,1-5.743-1.828V-5.743A1.828,1.828,0,0,1-3.915-7.571H0A1.828,1.828,0,0,1,1.828-5.743v3.915A1.828,1.828,0,0,1,0,0" fill="#3c58a0"/>
              </g>
              <g id="g2442" transform="translate(18.813 -50.929)">
                <path id="path2444" d="M0,0H-3.915A1.828,1.828,0,0,1-5.744-1.828V-5.743A1.828,1.828,0,0,1-3.915-7.571H0A1.828,1.828,0,0,1,1.828-5.743v3.915A1.828,1.828,0,0,1,0,0" fill="#3c58a0"/>
              </g>
              <g id="g2446" transform="translate(33.956 -50.929)">
                <path id="path2448" d="M0,0H-3.915A1.828,1.828,0,0,1-5.743-1.828V-5.743A1.828,1.828,0,0,1-3.915-7.571H0A1.828,1.828,0,0,1,1.828-5.743v3.915A1.828,1.828,0,0,1,0,0" fill="#3c58a0"/>
              </g>
              <g id="g2450" transform="translate(49.099 -50.929)">
                <path id="path2452" d="M0,0H-3.915A1.828,1.828,0,0,1-5.743-1.828V-5.743A1.828,1.828,0,0,1-3.915-7.571H0A1.828,1.828,0,0,1,1.828-5.743v3.915A1.828,1.828,0,0,1,0,0" fill="#3c58a0"/>
              </g>
              <g id="g2454" transform="translate(66.07 -50.929)">
                <path id="path2456" d="M0,0V-5.679A1.893,1.893,0,0,0-1.893-7.571H-5.679A1.893,1.893,0,0,0-7.571-5.679v3.786A1.893,1.893,0,0,0-5.679,0Z" fill="#3c58a0"/>
              </g>
              <g id="g2458" transform="translate(18.813 -35.786)">
                <path id="path2460" d="M0,0H-3.915A1.828,1.828,0,0,1-5.744-1.828V-5.743A1.828,1.828,0,0,1-3.915-7.571H0A1.828,1.828,0,0,1,1.828-5.743v3.915A1.828,1.828,0,0,1,0,0" fill="#3c58a0"/>
              </g>
              <g id="g2462" transform="translate(33.956 -35.786)">
                <path id="path2464" d="M0,0H-3.915A1.828,1.828,0,0,1-5.743-1.828V-5.743A1.828,1.828,0,0,1-3.915-7.571H0A1.828,1.828,0,0,1,1.828-5.743v3.915A1.828,1.828,0,0,1,0,0" fill="#3c58a0"/>
              </g>
              <g id="g2466" transform="translate(49.099 -35.786)">
                <path id="path2468" d="M0,0H-3.915A1.828,1.828,0,0,1-5.743-1.828V-5.743A1.828,1.828,0,0,1-3.915-7.571H0A1.828,1.828,0,0,1,1.828-5.743v3.915A1.828,1.828,0,0,1,0,0" fill="#3c58a0"/>
              </g>
              <g id="Grupo_1177313" data-name="Grupo 1177313">
                <g id="g2470" transform="translate(94.526 -73.643)">
                  <path id="path2472" d="M0,0H-3.915a1.824,1.824,0,0,0-.67.128,1.828,1.828,0,0,1,1.158,1.7V5.743a1.828,1.828,0,0,1-1.158,1.7,1.819,1.819,0,0,0,.67.128H0A1.828,1.828,0,0,0,1.828,5.743V1.828A1.828,1.828,0,0,0,0,0" fill="#3571c7"/>
                </g>
                <g id="g2474" transform="translate(79.383 -73.643)">
                  <path id="path2476" d="M0,0H-3.915a1.824,1.824,0,0,0-.67.128,1.828,1.828,0,0,1,1.158,1.7V5.743a1.828,1.828,0,0,1-1.158,1.7,1.819,1.819,0,0,0,.67.128H0A1.828,1.828,0,0,0,1.828,5.743V1.828A1.828,1.828,0,0,0,0,0" fill="#3571c7"/>
                </g>
                <g id="g2478" transform="translate(64.242 -73.643)">
                  <path id="path2480" d="M0,0H-3.915a1.824,1.824,0,0,0-.67.128,1.828,1.828,0,0,1,1.158,1.7V5.743a1.828,1.828,0,0,1-1.158,1.7,1.819,1.819,0,0,0,.67.128H0A1.828,1.828,0,0,0,1.828,5.743V1.828A1.828,1.828,0,0,0,0,0" fill="#3571c7"/>
                </g>
                <g id="g2482" transform="translate(49.099 -73.643)">
                  <path id="path2484" d="M0,0H-3.915a1.824,1.824,0,0,0-.67.128,1.828,1.828,0,0,1,1.158,1.7V5.743a1.828,1.828,0,0,1-1.158,1.7,1.819,1.819,0,0,0,.67.128H0A1.828,1.828,0,0,0,1.828,5.743V1.828A1.828,1.828,0,0,0,0,0" fill="#3571c7"/>
                </g>
                <g id="g2486" transform="translate(33.956 -73.643)">
                  <path id="path2488" d="M0,0H-3.915a1.824,1.824,0,0,0-.67.128,1.828,1.828,0,0,1,1.158,1.7V5.743a1.828,1.828,0,0,1-1.158,1.7,1.819,1.819,0,0,0,.67.128H0A1.828,1.828,0,0,0,1.828,5.743V1.828A1.828,1.828,0,0,0,0,0" fill="#3571c7"/>
                </g>
                <g id="g2490" transform="translate(18.813 -73.643)">
                  <path id="path2492" d="M0,0H-3.915a1.824,1.824,0,0,0-.67.128,1.828,1.828,0,0,1,1.158,1.7V5.743a1.828,1.828,0,0,1-1.158,1.7,1.819,1.819,0,0,0,.67.128H0A1.828,1.828,0,0,0,1.828,5.743V1.828A1.828,1.828,0,0,0,0,0" fill="#3571c7"/>
                </g>
                <g id="g2494" transform="translate(18.813 -58.5)">
                  <path id="path2496" d="M0,0H-3.915a1.824,1.824,0,0,0-.67.128,1.828,1.828,0,0,1,1.158,1.7V5.743a1.828,1.828,0,0,1-1.158,1.7,1.819,1.819,0,0,0,.67.128H0A1.828,1.828,0,0,0,1.828,5.743V1.828A1.828,1.828,0,0,0,0,0" fill="#3571c7"/>
                </g>
                <g id="g2498" transform="translate(18.813 -43.357)">
                  <path id="path2500" d="M0,0H-3.915a1.824,1.824,0,0,0-.67.128,1.828,1.828,0,0,1,1.158,1.7V5.743a1.828,1.828,0,0,1-1.158,1.7,1.819,1.819,0,0,0,.67.128H0A1.828,1.828,0,0,0,1.828,5.743V1.828A1.828,1.828,0,0,0,0,0" fill="#3571c7"/>
                </g>
                <g id="g2502" transform="translate(33.956 -58.5)">
                  <path id="path2504" d="M0,0H-3.915a1.824,1.824,0,0,0-.67.128,1.828,1.828,0,0,1,1.158,1.7V5.743a1.828,1.828,0,0,1-1.158,1.7,1.819,1.819,0,0,0,.67.128H0A1.828,1.828,0,0,0,1.828,5.743V1.828A1.828,1.828,0,0,0,0,0" fill="#3571c7"/>
                </g>
                <g id="g2506" transform="translate(33.956 -43.357)">
                  <path id="path2508" d="M0,0H-3.915a1.824,1.824,0,0,0-.67.128,1.828,1.828,0,0,1,1.158,1.7V5.743a1.828,1.828,0,0,1-1.158,1.7,1.819,1.819,0,0,0,.67.128H0A1.828,1.828,0,0,0,1.828,5.743V1.828A1.828,1.828,0,0,0,0,0" fill="#3571c7"/>
                </g>
                <g id="g2510" transform="translate(49.099 -58.5)">
                  <path id="path2512" d="M0,0H-3.915a1.824,1.824,0,0,0-.67.128,1.828,1.828,0,0,1,1.158,1.7V5.743a1.828,1.828,0,0,1-1.158,1.7,1.819,1.819,0,0,0,.67.128H0A1.828,1.828,0,0,0,1.828,5.743V1.828A1.828,1.828,0,0,0,0,0" fill="#3571c7"/>
                </g>
                <g id="g2514" transform="translate(66.07 -50.929)">
                  <path id="path2516" d="M0,0V-5.743A1.828,1.828,0,0,0-1.828-7.571H-5.743a1.819,1.819,0,0,0-.67.128,1.828,1.828,0,0,1,1.158,1.7v3.915a1.828,1.828,0,0,1-1.158,1.7A1.824,1.824,0,0,0-5.743,0Z" fill="#3571c7"/>
                </g>
                <g id="g2518" transform="translate(49.099 -43.357)">
                  <path id="path2520" d="M0,0H-3.915a1.824,1.824,0,0,0-.67.128,1.828,1.828,0,0,1,1.158,1.7V5.743a1.828,1.828,0,0,1-1.158,1.7,1.819,1.819,0,0,0,.67.128H0A1.828,1.828,0,0,0,1.828,5.743V1.828A1.828,1.828,0,0,0,0,0" fill="#3571c7"/>
                </g>
              </g>
              <g id="g2522" transform="translate(98.673 -83.406)">
                <path id="path2524" d="M0,0V55.192H5.26v-53Z" fill="#d3dcfb"/>
              </g>
              <g id="g2526" transform="translate(103.933 -81.214)">
                <path id="path2528" d="M0,0V-18.929A7.571,7.571,0,0,0-7.571-26.5H-90.865a7.571,7.571,0,0,0-7.571,7.571V0Z" fill="#cbbfda"/>
              </g>
              <g id="g2530" transform="translate(37.675 -101.09)">
                <path id="path2532" d="M0,0A4.732,4.732,0,0,1-4.732,4.732,4.732,4.732,0,0,1-9.464,0V-9.464A4.732,4.732,0,0,1-4.732-14.2,4.732,4.732,0,0,1,0-9.464Z" fill="#ebf5fc"/>
              </g>
              <g id="g2534" transform="translate(81.213 -101.09)">
                <path id="path2536" d="M0,0A4.732,4.732,0,0,1-4.732,4.732,4.732,4.732,0,0,1-9.464,0V-9.464A4.732,4.732,0,0,1-4.732-14.2,4.732,4.732,0,0,1,0-9.464Z" fill="#ebf5fc"/>
              </g>
              <g id="g2538" transform="translate(76.481 -115.286)">
                <path id="path2540" d="M0,0A4.708,4.708,0,0,0-2.625.8,4.727,4.727,0,0,1-.519,4.732V14.2a4.727,4.727,0,0,1-2.106,3.936,4.708,4.708,0,0,0,2.625.8A4.732,4.732,0,0,0,4.732,14.2V4.732A4.732,4.732,0,0,0,0,0" fill="#d3dcfb"/>
              </g>
              <g id="g2542" transform="translate(32.943 -115.286)">
                <path id="path2544" d="M0,0A4.709,4.709,0,0,0-2.625.8,4.727,4.727,0,0,1-.519,4.732V14.2a4.726,4.726,0,0,1-2.107,3.936,4.709,4.709,0,0,0,2.625.8A4.732,4.732,0,0,0,4.732,14.2V4.732A4.732,4.732,0,0,0,0,0" fill="#d3dcfb"/>
              </g>
              <g id="g2546" transform="translate(96.362 -107.715)">
                <path id="path2548" d="M0,0H-5.258A7.571,7.571,0,0,1,2.313,7.571V26.5H7.571V7.571A7.571,7.571,0,0,0,0,0" fill="#7a4bb0"/>
              </g>
              <g id="g2550" transform="translate(54.714 -30.107)">
                <path id="path2552" d="M0,0A28.393,28.393,0,0,1,28.393-28.393,28.393,28.393,0,0,1,56.786,0,28.393,28.393,0,0,1,28.393,28.393,28.393,28.393,0,0,1,0,0" fill="#512189"/>
              </g>
              <g id="g2554" transform="translate(62.286 -30.107)">
                <path id="path2556" d="M0,0A20.822,20.822,0,0,1,20.821-20.822,20.822,20.822,0,0,1,41.643,0,20.822,20.822,0,0,1,20.821,20.822,20.822,20.822,0,0,1,0,0" fill="#ebf5fc"/>
              </g>
              <g id="g2558" transform="translate(83.107 -58.5)">
                <path id="path2560" d="M0,0C-.886,0-1.762.043-2.628.122A28.4,28.4,0,0,1,23.137,28.393,28.4,28.4,0,0,1-2.628,56.664c.866.08,1.742.122,2.628.122A28.393,28.393,0,0,0,28.393,28.393,28.393,28.393,0,0,0,0,0" fill="#391760"/>
              </g>
              <g id="g2562" transform="translate(83.107 -50.929)">
                <path id="path2564" d="M0,0A21.054,21.054,0,0,0-2.626.164a20.825,20.825,0,0,1,18.2,20.657,20.825,20.825,0,0,1-18.2,20.657A21.01,21.01,0,0,0,0,41.643,20.822,20.822,0,0,0,20.822,20.822,20.822,20.822,0,0,0,0,0" fill="#d3dcfb"/>
              </g>
              <g id="g2566" transform="translate(86.893 -30.107)">
                <path id="path2568" d="M0,0A3.786,3.786,0,0,1-3.786,3.786,3.786,3.786,0,0,1-7.571,0,3.786,3.786,0,0,1-3.786-3.786,3.786,3.786,0,0,1,0,0" fill="#fb5415"/>
              </g>
              <g id="g2570" transform="translate(103.933 -49.406)">
                <path id="path2572" d="M0,0V-50.738a7.571,7.571,0,0,0-7.571-7.571H-22.714" fill="none" stroke="#000" stroke-linecap="round" stroke-linejoin="round" stroke-miterlimit="10" stroke-width="3.428"/>
              </g>
              <g id="g2574" transform="translate(5.496 -66.429)">
                <path id="path2576" d="M0,0V30.644a7.571,7.571,0,0,0,7.571,7.571H49.3" fill="none" stroke="#000" stroke-linecap="round" stroke-linejoin="round" stroke-miterlimit="10" stroke-width="3.428"/>
              </g>
              <g id="g2578" transform="translate(28.21 -107.715)">
                <path id="path2580" d="M0,0H-15.143a7.571,7.571,0,0,0-7.571,7.571V34.43" fill="none" stroke="#000" stroke-linecap="round" stroke-linejoin="round" stroke-miterlimit="10" stroke-width="3.428"/>
              </g>
              <g id="g2582" transform="translate(71.749 -107.715)">
                <path id="path2584" d="M0,0H-34.074" fill="none" stroke="#000" stroke-linecap="round" stroke-linejoin="round" stroke-miterlimit="10" stroke-width="3.428"/>
              </g>
              <g id="g2586" transform="translate(17.214 -20.643)">
                <path id="path2588" d="M0,0H-4.146a7.571,7.571,0,0,1-7.571-7.571v-7.572" fill="none" stroke="#000" stroke-linecap="round" stroke-linejoin="round" stroke-miterlimit="10" stroke-width="3.428"/>
              </g>
              <g id="g2590" transform="translate(56.331 -20.643)">
                <path id="path2592" d="M0,0H-32.262" fill="none" stroke="#000" stroke-linecap="round" stroke-linejoin="round" stroke-miterlimit="10" stroke-width="3.428"/>
              </g>
              <g id="g2594" transform="translate(37.675 -101.09)">
                <path id="path2596" d="M0,0A4.732,4.732,0,0,1-4.732,4.732,4.732,4.732,0,0,1-9.464,0V-9.464A4.732,4.732,0,0,1-4.732-14.2,4.732,4.732,0,0,1,0-9.464Z" fill="none" stroke="#000" stroke-linecap="round" stroke-linejoin="round" stroke-miterlimit="10" stroke-width="3.428"/>
              </g>
              <g id="g2598" transform="translate(28.21 -100.143)">
                <path id="path2600" d="M0,0H-3.786" fill="none" stroke="#000" stroke-linecap="round" stroke-linejoin="round" stroke-miterlimit="10" stroke-width="3.428"/>
              </g>
              <g id="g2602" transform="translate(37.675 -100.143)">
                <path id="path2604" d="M0,0H3.786" fill="none" stroke="#000" stroke-linecap="round" stroke-linejoin="round" stroke-miterlimit="10" stroke-width="3.428"/>
              </g>
              <g id="g2606" transform="translate(5.496 -81.214)">
                <path id="path2608" d="M0,0H98.437" fill="none" stroke="#000" stroke-linecap="round" stroke-linejoin="round" stroke-miterlimit="10" stroke-width="3.428"/>
              </g>
              <g id="g2610" transform="translate(5.496 -88.786)">
                <path id="path2612" d="M0,0H98.437" fill="none" stroke="#000" stroke-linecap="round" stroke-linejoin="round" stroke-miterlimit="10" stroke-width="3.428"/>
              </g>
              <g id="g2614" transform="translate(81.213 -101.09)">
                <path id="path2616" d="M0,0A4.732,4.732,0,0,1-4.732,4.732,4.732,4.732,0,0,1-9.464,0V-9.464A4.732,4.732,0,0,1-4.732-14.2,4.732,4.732,0,0,1,0-9.464Z" fill="none" stroke="#000" stroke-linecap="round" stroke-linejoin="round" stroke-miterlimit="10" stroke-width="3.428"/>
              </g>
              <g id="g2618" transform="translate(71.749 -100.143)">
                <path id="path2620" d="M0,0H-3.786" fill="none" stroke="#000" stroke-linecap="round" stroke-linejoin="round" stroke-miterlimit="10" stroke-width="3.428"/>
              </g>
              <g id="g2622" transform="translate(81.213 -100.143)">
                <path id="path2624" d="M0,0H3.786" fill="none" stroke="#000" stroke-linecap="round" stroke-linejoin="round" stroke-miterlimit="10" stroke-width="3.428"/>
              </g>
              <g id="g2626" transform="translate(18.813 -66.071)">
                <path id="path2628" d="M0,0H-3.915A1.828,1.828,0,0,1-5.744-1.828V-5.743A1.828,1.828,0,0,1-3.915-7.571H0A1.828,1.828,0,0,1,1.828-5.743v3.915A1.828,1.828,0,0,1,0,0Z" fill="none" stroke="#000" stroke-linecap="round" stroke-linejoin="round" stroke-miterlimit="10" stroke-width="3.428"/>
              </g>
              <g id="g2630" transform="translate(33.956 -66.071)">
                <path id="path2632" d="M0,0H-3.915A1.828,1.828,0,0,1-5.743-1.828V-5.743A1.828,1.828,0,0,1-3.915-7.571H0A1.828,1.828,0,0,1,1.828-5.743v3.915A1.828,1.828,0,0,1,0,0Z" fill="none" stroke="#000" stroke-linecap="round" stroke-linejoin="round" stroke-miterlimit="10" stroke-width="3.428"/>
              </g>
              <g id="g2634" transform="translate(49.099 -66.071)">
                <path id="path2636" d="M0,0H-3.915A1.828,1.828,0,0,1-5.743-1.828V-5.743A1.828,1.828,0,0,1-3.915-7.571H0A1.828,1.828,0,0,1,1.828-5.743v3.915A1.828,1.828,0,0,1,0,0Z" fill="none" stroke="#000" stroke-linecap="round" stroke-linejoin="round" stroke-miterlimit="10" stroke-width="3.428"/>
              </g>
              <g id="g2638" transform="translate(64.242 -66.071)">
                <path id="path2640" d="M0,0H-3.915A1.828,1.828,0,0,1-5.743-1.828V-5.743A1.828,1.828,0,0,1-3.915-7.571H0A1.828,1.828,0,0,1,1.828-5.743v3.915A1.828,1.828,0,0,1,0,0Z" fill="none" stroke="#000" stroke-linecap="round" stroke-linejoin="round" stroke-miterlimit="10" stroke-width="3.428"/>
              </g>
              <g id="g2642" transform="translate(79.383 -66.071)">
                <path id="path2644" d="M0,0H-3.915A1.828,1.828,0,0,1-5.743-1.828V-5.743A1.828,1.828,0,0,1-3.915-7.571H0A1.828,1.828,0,0,1,1.828-5.743v3.915A1.828,1.828,0,0,1,0,0Z" fill="none" stroke="#000" stroke-linecap="round" stroke-linejoin="round" stroke-miterlimit="10" stroke-width="3.428"/>
              </g>
              <g id="g2646" transform="translate(94.526 -66.071)">
                <path id="path2648" d="M0,0H-3.915A1.828,1.828,0,0,1-5.743-1.828V-5.743A1.828,1.828,0,0,1-3.915-7.571H0A1.828,1.828,0,0,1,1.828-5.743v3.915A1.828,1.828,0,0,1,0,0Z" fill="none" stroke="#000" stroke-linecap="round" stroke-linejoin="round" stroke-miterlimit="10" stroke-width="3.428"/>
              </g>
              <g id="g2650" transform="translate(18.813 -50.929)">
                <path id="path2652" d="M0,0H-3.915A1.828,1.828,0,0,1-5.744-1.828V-5.743A1.828,1.828,0,0,1-3.915-7.571H0A1.828,1.828,0,0,1,1.828-5.743v3.915A1.828,1.828,0,0,1,0,0Z" fill="none" stroke="#000" stroke-linecap="round" stroke-linejoin="round" stroke-miterlimit="10" stroke-width="3.428"/>
              </g>
              <g id="g2654" transform="translate(33.956 -50.929)">
                <path id="path2656" d="M0,0H-3.915A1.828,1.828,0,0,1-5.743-1.828V-5.743A1.828,1.828,0,0,1-3.915-7.571H0A1.828,1.828,0,0,1,1.828-5.743v3.915A1.828,1.828,0,0,1,0,0Z" fill="none" stroke="#000" stroke-linecap="round" stroke-linejoin="round" stroke-miterlimit="10" stroke-width="3.428"/>
              </g>
              <g id="g2658" transform="translate(49.099 -50.929)">
                <path id="path2660" d="M0,0H-3.915A1.828,1.828,0,0,1-5.743-1.828V-5.743A1.828,1.828,0,0,1-3.915-7.571H0A1.828,1.828,0,0,1,1.828-5.743v3.915A1.828,1.828,0,0,1,0,0Z" fill="none" stroke="#000" stroke-linecap="round" stroke-linejoin="round" stroke-miterlimit="10" stroke-width="3.428"/>
              </g>
              <g id="g2662" transform="translate(63.804 -50.929)">
                <path id="path2664" d="M0,0H-3.412A1.893,1.893,0,0,1-5.3-1.893V-5.679A1.893,1.893,0,0,1-3.412-7.571H.374A1.893,1.893,0,0,1,2.267-5.679v3.786" fill="none" stroke="#000" stroke-linecap="round" stroke-linejoin="round" stroke-miterlimit="10" stroke-width="3.428"/>
              </g>
              <g id="g2666" transform="translate(18.813 -35.786)">
                <path id="path2668" d="M0,0H-3.915A1.828,1.828,0,0,1-5.744-1.828V-5.743A1.828,1.828,0,0,1-3.915-7.571H0A1.828,1.828,0,0,1,1.828-5.743v3.915A1.828,1.828,0,0,1,0,0Z" fill="none" stroke="#000" stroke-linecap="round" stroke-linejoin="round" stroke-miterlimit="10" stroke-width="3.428"/>
              </g>
              <g id="g2670" transform="translate(33.956 -35.786)">
                <path id="path2672" d="M0,0H-3.915A1.828,1.828,0,0,1-5.743-1.828V-5.743A1.828,1.828,0,0,1-3.915-7.571H0A1.828,1.828,0,0,1,1.828-5.743v3.915A1.828,1.828,0,0,1,0,0Z" fill="none" stroke="#000" stroke-linecap="round" stroke-linejoin="round" stroke-miterlimit="10" stroke-width="3.428"/>
              </g>
              <g id="g2674" transform="translate(49.099 -35.786)">
                <path id="path2676" d="M0,0H-3.915A1.828,1.828,0,0,1-5.743-1.828V-5.743A1.828,1.828,0,0,1-3.915-7.571H0A1.828,1.828,0,0,1,1.828-5.743v3.915A1.828,1.828,0,0,1,0,0Z" fill="none" stroke="#000" stroke-linecap="round" stroke-linejoin="round" stroke-miterlimit="10" stroke-width="3.428"/>
              </g>
              <g id="g2678" transform="translate(54.714 -30.107)">
                <path id="path2680" d="M0,0A28.393,28.393,0,0,1,28.393-28.393,28.393,28.393,0,0,1,56.786,0,28.393,28.393,0,0,1,28.393,28.393,28.393,28.393,0,0,1,0,0Z" fill="none" stroke="#000" stroke-linecap="round" stroke-linejoin="round" stroke-miterlimit="10" stroke-width="3.428"/>
              </g>
              <g id="g2682" transform="translate(62.286 -30.107)">
                <path id="path2684" d="M0,0A20.822,20.822,0,0,1,20.821-20.822,20.822,20.822,0,0,1,41.643,0,20.822,20.822,0,0,1,20.821,20.822,20.822,20.822,0,0,1,0,0Z" fill="none" stroke="#000" stroke-linecap="round" stroke-linejoin="round" stroke-miterlimit="10" stroke-width="3.428"/>
              </g>
              <g id="g2686" transform="translate(86.893 -30.107)">
                <path id="path2688" d="M0,0A3.786,3.786,0,0,1-3.786,3.786,3.786,3.786,0,0,1-7.571,0,3.786,3.786,0,0,1-3.786-3.786,3.786,3.786,0,0,1,0,0Z" fill="none" stroke="#000" stroke-linecap="round" stroke-linejoin="round" stroke-miterlimit="10" stroke-width="3.428"/>
              </g>
              <g id="g2690" transform="translate(83.107 -33.893)">
                <path id="path2692" d="M0,0V-9.464" fill="none" stroke="#000" stroke-linecap="round" stroke-linejoin="round" stroke-miterlimit="10" stroke-width="3.428"/>
              </g>
              <g id="g2694" transform="translate(86.893 -30.107)">
                <path id="path2696" d="M0,0H5.679" fill="none" stroke="#000" stroke-linecap="round" stroke-linejoin="round" stroke-miterlimit="10" stroke-width="3.428"/>
              </g>
            </g>
          </g>
        </g>
      </g>
    </g>
  </g>
</svg>
