<svg xmlns="http://www.w3.org/2000/svg" width="69.289" height="69.193" viewBox="0 0 69.289 69.193">
  <g id="eficaz" transform="translate(-8 -8.343)">
    <g id="Grupo_1177315" data-name="Grupo 1177315" transform="translate(9.056 9.667)">
      <path id="Trazado_1003722" data-name="Trazado 1003722" d="M388.77,145.782l-2.629-5.4,7.235-7.235,2.629,5.4,5.4,2.629-7.235,7.235Z" transform="translate(-334.159 -116.963)" fill="#efc7a4" fill-rule="evenodd"/>
      <path id="Trazado_1003723" data-name="Trazado 1003723" d="M172.133,224.684a4.59,4.59,0,0,0-3.244,7.832,1.364,1.364,0,0,1,0,1.927l-2.93,2.931a1.364,1.364,0,0,1-1.927,0,4.59,4.59,0,0,0-7.832,3.244,1.36,1.36,0,0,1-1.361,1.361h-4.145a1.36,1.36,0,0,1-1.361-1.361,4.588,4.588,0,0,0-7.832-3.244,1.361,1.361,0,0,1-1.924,0l-2.933-2.931a1.364,1.364,0,0,1,0-1.927,4.59,4.59,0,0,0-3.244-7.832,1.361,1.361,0,0,1-1.361-1.361v-4.145a1.361,1.361,0,0,1,1.361-1.361,4.59,4.59,0,0,0,3.244-7.832,1.361,1.361,0,0,1,0-1.924l2.933-2.933a1.361,1.361,0,0,1,1.924,0,4.59,4.59,0,0,0,7.832-3.244,1.361,1.361,0,0,1,1.361-1.361h4.145a1.361,1.361,0,0,1,1.361,1.361,4.59,4.59,0,0,0,7.832,3.244,1.364,1.364,0,0,1,1.927,0l2.93,2.933a1.361,1.361,0,0,1,0,1.924,4.59,4.59,0,0,0,3.244,7.832,1.36,1.36,0,0,1,1.361,1.361v4.145A1.36,1.36,0,0,1,172.133,224.684Z" transform="translate(-115.697 -174.891)" fill="#fdcd56" fill-rule="evenodd"/>
      <path id="Trazado_1003724" data-name="Trazado 1003724" d="M208.236,288.4a11.68,11.68,0,1,0-11.68-11.68A11.7,11.7,0,0,0,208.236,288.4Z" transform="translate(-171.165 -230.36)" fill="#f76c82" fill-rule="evenodd"/>
      <path id="Trazado_1003725" data-name="Trazado 1003725" d="M224.4,301.928a9.043,9.043,0,1,0-9.043-9.043A9.062,9.062,0,0,0,224.4,301.928Z" transform="translate(-187.331 -246.525)" fill="#e4e8eb" fill-rule="evenodd"/>
      <path id="Trazado_1003726" data-name="Trazado 1003726" d="M241.008,315.825a6.334,6.334,0,1,0-6.333-6.334A6.347,6.347,0,0,0,241.008,315.825Z" transform="translate(-203.937 -263.131)" fill="#f76c82" fill-rule="evenodd"/>
      <path id="Trazado_1003727" data-name="Trazado 1003727" d="M258.221,330.231a3.525,3.525,0,1,0-3.525-3.525A3.533,3.533,0,0,0,258.221,330.231Z" transform="translate(-221.15 -280.345)" fill="#e4e8eb" fill-rule="evenodd"/>
      <path id="Trazado_1003728" data-name="Trazado 1003728" d="M49.779,81.07,51.9,83.192a.985.985,0,0,1,0,1.392L48.58,87.905a.985.985,0,0,1-1.392,0l-2.122-2.122a.985.985,0,0,1,0-1.392l3.321-3.321A.985.985,0,0,1,49.779,81.07ZM17.842,83.192l2.122-2.122a.985.985,0,0,1,1.392,0l3.323,3.321a.99.99,0,0,1,0,1.392L22.555,87.9a.982.982,0,0,1-1.39,0l-3.323-3.321a.985.985,0,0,1,0-1.392Z" transform="translate(-17.27 -71.946)" fill="#cad0d7" fill-rule="evenodd"/>
      <path id="Trazado_1003729" data-name="Trazado 1003729" d="M123.3,43.851h4.971v8.482H123.3Z" transform="translate(-108.186 -40.195)" fill="#cad0d7" fill-rule="evenodd"/>
      <path id="Trazado_1003730" data-name="Trazado 1003730" d="M100.52,17.786h9.671a.984.984,0,0,1,.982.985v2.942a.984.984,0,0,1-.982.985H100.52a.985.985,0,0,1-.985-.985V18.771a.985.985,0,0,1,.985-.985Z" transform="translate(-87.752 -17.786)" fill="#66d4f1" fill-rule="evenodd"/>
      <path id="Trazado_1003731" data-name="Trazado 1003731" d="M33.133,115.946a17.6,17.6,0,1,0-17.6-17.6A17.637,17.637,0,0,0,33.133,115.946Z" transform="translate(-15.531 -71.91)" fill="#f4f6f8" fill-rule="evenodd"/>
    </g>
    <path id="Trazado_1003732" data-name="Trazado 1003732" d="M63.867,39.476,46.821,56.522a.982.982,0,1,1-1.388-1.389L62.479,38.087l-2.323-4.776a.982.982,0,0,1,.189-1.124l7.235-7.235a.982.982,0,0,1,1.577.265l2.026,4.166L72.669,27.9a.982.982,0,0,1,1.388,1.389l-1.486,1.486L76.737,32.8A.982.982,0,0,1,77,34.376L69.767,41.61a.982.982,0,0,1-1.124.189Zm5.846-8.623-1.72-3.537-5.766,5.766,1.72,3.537Zm-4.377,7.154,3.537,1.72,5.766-5.765L71.1,32.241ZM24.416,54.425A18.643,18.643,0,0,1,11.251,25.4L8.934,23.08a1.968,1.968,0,0,1,0-2.781l2.122-2.122a1.967,1.967,0,0,1,2.78,0l2.318,2.316a18.558,18.558,0,0,1,7.037-2.928V15.218H21.824a1.967,1.967,0,0,1-1.967-1.967V10.31a1.967,1.967,0,0,1,1.967-1.967h9.671a1.967,1.967,0,0,1,1.964,1.967v2.942a1.967,1.967,0,0,1-1.964,1.967h-1.37v2.347a18.564,18.564,0,0,1,7.039,2.928l2.315-2.315a1.968,1.968,0,0,1,2.781,0L44.381,20.3a1.967,1.967,0,0,1,0,2.781L42.066,25.4a18.542,18.542,0,0,1,3.167,8.721H48.2a2.343,2.343,0,0,1,2.343,2.343,3.607,3.607,0,0,0,6.156,2.55,2.348,2.348,0,0,1,2.774-.4.982.982,0,1,1-.935,1.727.381.381,0,0,0-.451.065,5.572,5.572,0,0,1-9.508-3.938.379.379,0,0,0-.379-.379H45.317a18.516,18.516,0,0,1-1.573,7.311,12.641,12.641,0,0,1,9.331,1.86.982.982,0,0,1-1.081,1.639,10.667,10.667,0,0,0-9.512-1.12,18.841,18.841,0,0,1-6.325,6.18,10.7,10.7,0,1,0,18.871-2.044.982.982,0,1,1,1.633-1.091A12.657,12.657,0,1,1,33.75,53.156a18.533,18.533,0,0,1-7.092,1.4l-.278,0V57.9a.379.379,0,0,0,.379.379A5.572,5.572,0,0,1,30.7,67.786a.381.381,0,0,0,0,.538l2.933,2.93a.379.379,0,0,0,.536,0,5.57,5.57,0,0,1,9.508,3.938.379.379,0,0,0,.379.379H48.2a.379.379,0,0,0,.379-.379,5.573,5.573,0,0,1,9.508-3.938.381.381,0,0,0,.538,0l2.931-2.93a.381.381,0,0,0,0-.538,5.573,5.573,0,0,1,3.938-9.508.379.379,0,0,0,.379-.379V53.754a.379.379,0,0,0-.379-.379,5.573,5.573,0,0,1-3.938-9.508.379.379,0,0,0,.051-.472.982.982,0,0,1,1.65-1.065,2.344,2.344,0,0,1-.313,2.926,3.608,3.608,0,0,0,2.55,6.156,2.341,2.341,0,0,1,2.343,2.343V57.9a2.341,2.341,0,0,1-2.343,2.343,3.608,3.608,0,0,0-2.55,6.156,2.347,2.347,0,0,1,0,3.315l-2.93,2.93a2.347,2.347,0,0,1-3.315,0,3.608,3.608,0,0,0-6.156,2.55A2.341,2.341,0,0,1,48.2,77.536H44.053a2.341,2.341,0,0,1-2.343-2.343,3.606,3.606,0,0,0-6.156-2.55,2.343,2.343,0,0,1-3.313,0l-2.933-2.931a2.347,2.347,0,0,1,0-3.315,3.607,3.607,0,0,0-2.55-6.156A2.343,2.343,0,0,1,24.416,57.9Zm-11.961-30.6A18.857,18.857,0,0,1,14.58,21.7l-2.132-2.131h0l-2.122,2.122a0,0,0,0,0,0,0Zm12.7-6.521q.744-.06,1.5-.06t1.5.06V15.218H25.154Zm13.583,4.4a18.868,18.868,0,0,1,2.126,2.126l2.13-2.13a0,0,0,0,0,0,0l-2.122-2.122a0,0,0,0,0,0,0Zm4.6,13.443A16.7,16.7,0,1,0,25.475,52.554h.016q.578.04,1.167.041a16.578,16.578,0,0,0,8.21-2.166l.041-.023a16.853,16.853,0,0,0,6.059-5.919l.026-.044a16.575,16.575,0,0,0,2.36-8.542q0-.38-.017-.755S43.337,35.142,43.337,35.14Zm-6.119,4.11a.982.982,0,0,1,1.872.594A13.042,13.042,0,1,1,22.754,23.457a.982.982,0,1,1,.588,1.874A11.078,11.078,0,1,0,37.219,39.25Zm-7.573-2.366a3.145,3.145,0,1,1-3.969-3.969V22.088a.982.982,0,1,1,1.964,0V32.914a3.165,3.165,0,0,1,2.006,2.006H40.452a.982.982,0,1,1,0,1.964Zm-2.988.2A1.18,1.18,0,1,0,25.477,35.9,1.182,1.182,0,0,0,26.658,37.08ZM21.824,10.307a0,0,0,0,0,0,0v2.942a0,0,0,0,0,0,0h9.671s0,0,0,0V10.31s0,0,0,0ZM48.983,49.094a.982.982,0,0,1-.77,1.806,5.355,5.355,0,1,0,2.851,2.864A.982.982,0,0,1,52.874,53a7.32,7.32,0,1,1-3.891-3.909Z" fill-rule="evenodd"/>
  </g>
</svg>
