<svg xmlns="http://www.w3.org/2000/svg" xmlns:xlink="http://www.w3.org/1999/xlink" width="92.954" height="92.954" viewBox="0 0 92.954 92.954">
  <defs>
    <clipPath id="clip-path">
      <rect id="Rectángulo_439442" data-name="Rectángulo 439442" width="92.954" height="92.954" transform="translate(1218.711 5032.193)" fill="#0b489b" stroke="#0b489b" stroke-width="1"/>
    </clipPath>
  </defs>
  <g id="Enmascarar_grupo_1098944" data-name="Enmascarar grupo 1098944" transform="translate(-1218.711 -5032.193)" clip-path="url(#clip-path)">
    <g id="herramientas-para-reparar" transform="translate(1218.711 5032.2)">
      <circle id="Elipse_13490" data-name="Elipse 13490" cx="3.106" cy="3.106" r="3.106" transform="translate(66.569 78.963)" fill="#0b489b"/>
      <path id="Trazado_1003901" data-name="Trazado 1003901" d="M85.208,6.2h-3.1V4.648a4.648,4.648,0,1,0-9.3,0V6.2h-6.2V4.648a4.648,4.648,0,1,0-9.3,0V6.2h-6.2V4.648a4.648,4.648,0,1,0-9.3,0V6.2h-6.2V4.648a4.648,4.648,0,1,0-9.3,0V6.2h-6.2V4.648a4.648,4.648,0,1,0-9.3,0V6.2h-3.1A7.755,7.755,0,0,0,0,13.943V72.814A7.755,7.755,0,0,0,7.746,80.56h3.1a1.549,1.549,0,0,0,0-3.1h-3.1A4.648,4.648,0,0,1,3.1,72.814V21.689H89.856V72.814a4.648,4.648,0,0,1-4.648,4.648H79.539a10.725,10.725,0,0,0-2.7-3.543L56.014,55.878l9.261-9.26,4.564-1.094a3.348,3.348,0,0,0,2.1-1.565l5.077-8.7a3.122,3.122,0,0,0-.431-3.78l-2.711-2.71a3.116,3.116,0,0,0-3.78-.431l-8.7,5.075a3.354,3.354,0,0,0-1.566,2.1l-1.084,4.559L49.01,49.8l-6.129-5.3a15.516,15.516,0,0,0-19.2-19.111,3,3,0,0,0-2.1,2.132,2.9,2.9,0,0,0,.775,2.823l6.677,6.693a1.574,1.574,0,0,1,0,2.209l-2.186,2.184a1.608,1.608,0,0,1-2.209,0l-6.679-6.662a2.919,2.919,0,0,0-2.835-.793,2.99,2.99,0,0,0-2.129,2.084A15.517,15.517,0,0,0,32.1,55.272L37.4,61.4l-2.733,2.733a4.638,4.638,0,0,0-5.292.885L14.657,79.736a7.78,7.78,0,0,0-2.263,5.673,7.687,7.687,0,0,0,2.567,5.559,7.518,7.518,0,0,0,5.066,1.921,8.262,8.262,0,0,0,5.845-2.454l9.87-9.875H54.006l7.518,8.676a10.663,10.663,0,0,0,7.746,3.706h.381A10.917,10.917,0,0,0,80.56,81.671q-.022-.562-.1-1.111h4.744a7.755,7.755,0,0,0,7.746-7.746V13.943A7.755,7.755,0,0,0,85.208,6.2ZM61.23,41.955a1.549,1.549,0,0,0,.412-.736l1.194-4.984a.242.242,0,0,1,.113-.146l8.73-5.131L74.337,33.7,69.26,42.4a.24.24,0,0,1-.144.115l-4.987,1.194a1.549,1.549,0,0,0-.736.412L39.225,68.286l-2.169-2.169ZM33.786,52.466a1.566,1.566,0,0,0-1.695-.445A12.419,12.419,0,0,1,15.925,37.107l6.53,6.516a4.782,4.782,0,0,0,6.59,0l2.184-2.183a4.674,4.674,0,0,0,0-6.59l-6.518-6.533A12.419,12.419,0,0,1,39.626,44.485a1.549,1.549,0,0,0,.445,1.695L46.8,52l-7.2,7.2ZM23.677,88.244a4.892,4.892,0,0,1-6.635.42,4.648,4.648,0,0,1-.183-6.745L31.577,67.2a1.549,1.549,0,0,1,2.191,0l4.381,4.38a1.549,1.549,0,0,1,0,2.192ZM38.841,77.462l1.5-1.5a4.648,4.648,0,0,0,.885-5.3l2.263-2.263,7.839,9.054Zm36.33,10.1a7.813,7.813,0,0,1-5.783,2.291,7.591,7.591,0,0,1-5.52-2.634L45.679,66.213l8.14-8.14,21,18.188a7.591,7.591,0,0,1,2.645,5.52A7.712,7.712,0,0,1,75.17,87.564Zm.742-82.917a1.549,1.549,0,0,1,3.1,0v6.2a1.549,1.549,0,0,1-3.1,0Zm-15.492,0a1.549,1.549,0,1,1,3.1,0v6.2a1.549,1.549,0,1,1-3.1,0Zm-15.492,0a1.549,1.549,0,1,1,3.1,0v6.2a1.549,1.549,0,1,1-3.1,0Zm-15.492,0a1.549,1.549,0,0,1,3.1,0v6.2a1.549,1.549,0,1,1-3.1,0Zm-15.492,0a1.549,1.549,0,1,1,3.1,0v6.2a1.549,1.549,0,1,1-3.1,0ZM3.1,18.591V13.943A4.648,4.648,0,0,1,7.746,9.3h3.1v1.549a4.648,4.648,0,0,0,9.3,0V9.3h6.2v1.549a4.648,4.648,0,0,0,9.3,0V9.3h6.2v1.549a4.648,4.648,0,0,0,9.3,0V9.3h6.2v1.549a4.648,4.648,0,0,0,9.3,0V9.3h6.2v1.549a4.648,4.648,0,0,0,9.3,0V9.3h3.1a4.648,4.648,0,0,1,4.648,4.648v4.648Z" fill="#0b489b"/>
      <path id="Trazado_1003902" data-name="Trazado 1003902" d="M66.385,78.779a4.648,4.648,0,1,0,6.583,0A4.767,4.767,0,0,0,66.385,78.779Zm4.391,4.392a1.593,1.593,0,0,1-2.2,0,1.558,1.558,0,1,1,2.2,0Z" fill="#0b489b"/>
      <path id="Trazado_1003903" data-name="Trazado 1003903" d="M31.573,71.584,20.14,83.014a1.551,1.551,0,0,0,2.194,2.194l11.43-11.43a1.549,1.549,0,1,0-2.191-2.191Z" fill="#0b489b"/>
    </g>
  </g>
</svg>
