<svg xmlns="http://www.w3.org/2000/svg" xmlns:xlink="http://www.w3.org/1999/xlink" width="83" height="83" viewBox="0 0 83 83">
  <defs>
    <clipPath id="clip-path">
      <rect id="Rectángulo_439410" data-name="Rectángulo 439410" width="83" height="83" transform="translate(-1533.5 -10281.279)" fill="#fff" stroke="#0b489b" stroke-width="1"/>
    </clipPath>
  </defs>
  <g id="Enmascarar_grupo_1098938" data-name="Enmascarar grupo 1098938" transform="translate(1533.5 10281.279)" clip-path="url(#clip-path)">
    <g id="rutina-diaria" transform="translate(-1527.603 -10281.788)">
      <g id="Grupo_1177340" data-name="Grupo 1177340">
        <g id="Grupo_1177339" data-name="Grupo 1177339">
          <g id="Grupo_1177336" data-name="Grupo 1177336">
            <circle id="Elipse_13488" data-name="Elipse 13488" cx="27.847" cy="27.847" r="27.847" transform="translate(-5.863 44.127) rotate(-45)" fill="#512189"/>
            <path id="Trazado_1003809" data-name="Trazado 1003809" d="M60.366,36.713H53.548A21.363,21.363,0,0,1,25.8,64.042v6.846A27.86,27.86,0,0,0,60.366,36.713Z" fill="#512189"/>
            <g id="Grupo_1177335" data-name="Grupo 1177335">
              <circle id="Elipse_13489" data-name="Elipse 13489" cx="21.352" cy="21.352" r="21.352" transform="translate(3.322 44.127) rotate(-45)" fill="#fff"/>
              <path id="Trazado_1003810" data-name="Trazado 1003810" d="M46.419,27.113a21.352,21.352,0,0,1-29.607,30.31,21.352,21.352,0,1,0,29.607-30.31Z" fill="#f5f8f9"/>
            </g>
          </g>
          <g id="Grupo_1177337" data-name="Grupo 1177337">
            <path id="Trazado_1003811" data-name="Trazado 1003811" d="M72.177,36.713H44.628a3.763,3.763,0,0,1-3.763-3.763V5.4a3.763,3.763,0,0,1,3.763-3.763H72.177A3.763,3.763,0,0,1,75.94,5.4V32.95A3.763,3.763,0,0,1,72.177,36.713Z" fill="#b4e6d2"/>
            <path id="Trazado_1003812" data-name="Trazado 1003812" d="M72.177,1.638h-.753V30.692A1.505,1.505,0,0,1,69.919,32.2H40.865v.753a3.763,3.763,0,0,0,3.763,3.763H72.177A3.763,3.763,0,0,0,75.94,32.95V5.4A3.763,3.763,0,0,0,72.177,1.638Z" fill="#4db593"/>
          </g>
          <g id="Grupo_1177338" data-name="Grupo 1177338">
            <path id="Trazado_1003813" data-name="Trazado 1003813" d="M25.8,50.907V46.786a3.763,3.763,0,0,0-3.763-3.763H4.892a3.763,3.763,0,0,0-3.763,3.763v4.122Z" fill="#ffc4a3"/>
            <path id="Trazado_1003814" data-name="Trazado 1003814" d="M1.129,50.757V71.668a3.763,3.763,0,0,0,3.763,3.763H22.041A3.763,3.763,0,0,0,25.8,71.668V50.757Z" fill="#e8edf2"/>
            <path id="Trazado_1003815" data-name="Trazado 1003815" d="M22.036,50.757v19.4a1.505,1.505,0,0,1-1.505,1.505H1.129v0a3.763,3.763,0,0,0,3.763,3.763H22.041A3.763,3.763,0,0,0,25.8,71.668V50.757Z" fill="#d9e7ec"/>
          </g>
        </g>
        <path id="Trazado_1003816" data-name="Trazado 1003816" d="M22.041,43.022h0v3.566a1.505,1.505,0,0,1-1.505,1.505H1.129v2.814H25.8V46.785A3.763,3.763,0,0,0,22.041,43.022Z" fill="#fb5415"/>
      </g>
      <g id="Grupo_1177353" data-name="Grupo 1177353">
        <path id="Trazado_1003817" data-name="Trazado 1003817" d="M33.519,33.631v10.5L40.7,48.274" fill="none" stroke="#000" stroke-linecap="round" stroke-linejoin="round" stroke-miterlimit="10" stroke-width="2.258"/>
        <g id="Grupo_1177345" data-name="Grupo 1177345">
          <g id="Grupo_1177341" data-name="Grupo 1177341">
            <line id="Línea_4324" data-name="Línea 4324" y2="0.535" transform="translate(33.519 27.554)" fill="none" stroke="#000" stroke-linecap="round" stroke-linejoin="round" stroke-miterlimit="10" stroke-width="2.258"/>
            <line id="Línea_4325" data-name="Línea 4325" y2="0.535" transform="translate(33.519 60.166)" fill="none" stroke="#000" stroke-linecap="round" stroke-linejoin="round" stroke-miterlimit="10" stroke-width="2.258"/>
          </g>
          <g id="Grupo_1177342" data-name="Grupo 1177342">
            <line id="Línea_4326" data-name="Línea 4326" x2="0.535" transform="translate(49.558 44.127)" fill="none" stroke="#000" stroke-linecap="round" stroke-linejoin="round" stroke-miterlimit="10" stroke-width="2.258"/>
          </g>
          <g id="Grupo_1177343" data-name="Grupo 1177343">
            <line id="Línea_4327" data-name="Línea 4327" x2="0.267" y2="0.463" transform="translate(25.233 29.775)" fill="none" stroke="#000" stroke-linecap="round" stroke-linejoin="round" stroke-miterlimit="10" stroke-width="2.258"/>
            <line id="Línea_4328" data-name="Línea 4328" x2="0.267" y2="0.463" transform="translate(41.538 58.017)" fill="none" stroke="#000" stroke-linecap="round" stroke-linejoin="round" stroke-miterlimit="10" stroke-width="2.258"/>
          </g>
          <g id="Grupo_1177344" data-name="Grupo 1177344">
            <line id="Línea_4329" data-name="Línea 4329" x2="0.463" y2="0.267" transform="translate(19.166 35.841)" fill="none" stroke="#000" stroke-linecap="round" stroke-linejoin="round" stroke-miterlimit="10" stroke-width="2.258"/>
            <line id="Línea_4330" data-name="Línea 4330" x2="0.463" y2="0.267" transform="translate(47.409 52.147)" fill="none" stroke="#000" stroke-linecap="round" stroke-linejoin="round" stroke-miterlimit="10" stroke-width="2.258"/>
          </g>
        </g>
        <g id="Grupo_1177349" data-name="Grupo 1177349">
          <g id="Grupo_1177346" data-name="Grupo 1177346">
            <path id="Trazado_1003818" data-name="Trazado 1003818" d="M47.17,9.8l2.344,2.344L53.15,8.508" fill="none" stroke="#000" stroke-linecap="round" stroke-linejoin="round" stroke-miterlimit="10" stroke-width="2.258"/>
            <line id="Línea_4331" data-name="Línea 4331" x2="12.284" transform="translate(57.352 10.609)" fill="none" stroke="#000" stroke-linecap="round" stroke-linejoin="round" stroke-miterlimit="10" stroke-width="2.258"/>
          </g>
          <g id="Grupo_1177347" data-name="Grupo 1177347">
            <path id="Trazado_1003819" data-name="Trazado 1003819" d="M47.17,18.655,49.513,21l3.637-3.637" fill="none" stroke="#000" stroke-linecap="round" stroke-linejoin="round" stroke-miterlimit="10" stroke-width="2.258"/>
            <line id="Línea_4332" data-name="Línea 4332" x2="12.284" transform="translate(57.352 19.463)" fill="none" stroke="#000" stroke-linecap="round" stroke-linejoin="round" stroke-miterlimit="10" stroke-width="2.258"/>
          </g>
          <g id="Grupo_1177348" data-name="Grupo 1177348">
            <path id="Trazado_1003820" data-name="Trazado 1003820" d="M47.17,27.644l2.344,2.344,3.637-3.637" fill="none" stroke="#000" stroke-linecap="round" stroke-linejoin="round" stroke-miterlimit="10" stroke-width="2.258"/>
            <line id="Línea_4333" data-name="Línea 4333" x2="12.284" transform="translate(57.352 28.452)" fill="none" stroke="#000" stroke-linecap="round" stroke-linejoin="round" stroke-miterlimit="10" stroke-width="2.258"/>
          </g>
        </g>
        <g id="Grupo_1177352" data-name="Grupo 1177352">
          <g id="Grupo_1177350" data-name="Grupo 1177350">
            <path id="Trazado_1003821" data-name="Trazado 1003821" d="M17.219,56.977h2.615V69.211" fill="none" stroke="#000" stroke-linecap="round" stroke-linejoin="round" stroke-miterlimit="10" stroke-width="2.258"/>
          </g>
          <g id="Grupo_1177351" data-name="Grupo 1177351">
            <path id="Trazado_1003822" data-name="Trazado 1003822" d="M7.158,59.357a3.131,3.131,0,1,1,3.072,3.737" fill="none" stroke="#000" stroke-linecap="round" stroke-linejoin="round" stroke-miterlimit="10" stroke-width="2.258"/>
            <path id="Trazado_1003823" data-name="Trazado 1003823" d="M10.229,63.094a3.13,3.13,0,1,1-3.1,3.567,3.164,3.164,0,0,1-.03-.437" fill="none" stroke="#000" stroke-linecap="round" stroke-linejoin="round" stroke-miterlimit="10" stroke-width="2.258"/>
          </g>
        </g>
        <line id="Línea_4334" data-name="Línea 4334" x2="24.675" transform="translate(1.129 50.907)" fill="none" stroke="#000" stroke-linejoin="round" stroke-miterlimit="10" stroke-width="2.258"/>
        <path id="Trazado_1003824" data-name="Trazado 1003824" d="M25.8,64.042A21.364,21.364,0,0,0,53.548,36.713" fill="none" stroke="#000" stroke-linejoin="round" stroke-miterlimit="10" stroke-width="2.258"/>
        <path id="Trazado_1003825" data-name="Trazado 1003825" d="M40.865,24.073A21.367,21.367,0,0,0,12.2,43.023" fill="none" stroke="#000" stroke-linejoin="round" stroke-miterlimit="10" stroke-width="2.258"/>
        <path id="Trazado_1003826" data-name="Trazado 1003826" d="M40.865,12.92V32.95a3.763,3.763,0,0,0,3.763,3.763H72.177A3.763,3.763,0,0,0,75.94,32.95V5.4a3.763,3.763,0,0,0-3.763-3.763H44.628A3.763,3.763,0,0,0,40.865,5.4V7.652" fill="none" stroke="#000" stroke-linecap="round" stroke-linejoin="round" stroke-miterlimit="10" stroke-width="2.258"/>
        <path id="Trazado_1003827" data-name="Trazado 1003827" d="M1.129,64.833v6.835a3.763,3.763,0,0,0,3.763,3.763H22.041A3.763,3.763,0,0,0,25.8,71.668V46.786a3.763,3.763,0,0,0-3.763-3.763H4.892a3.763,3.763,0,0,0-3.763,3.763V59.565" fill="none" stroke="#000" stroke-linecap="round" stroke-linejoin="round" stroke-miterlimit="10" stroke-width="2.258"/>
        <path id="Trazado_1003828" data-name="Trazado 1003828" d="M25.8,70.891a27.888,27.888,0,0,0,26.4-6.115" fill="none" stroke="#000" stroke-linecap="round" stroke-linejoin="round" stroke-miterlimit="10" stroke-width="2.258"/>
        <path id="Trazado_1003829" data-name="Trazado 1003829" d="M40.865,17.261A27.863,27.863,0,0,0,5.7,43.022" fill="none" stroke="#000" stroke-linejoin="round" stroke-miterlimit="10" stroke-width="2.258"/>
        <path id="Trazado_1003830" data-name="Trazado 1003830" d="M55.761,60.884a27.891,27.891,0,0,0,4.606-24.171" fill="none" stroke="#000" stroke-linecap="round" stroke-linejoin="round" stroke-miterlimit="10" stroke-width="2.258"/>
      </g>
    </g>
  </g>
</svg>
