<svg xmlns="http://www.w3.org/2000/svg" xmlns:xlink="http://www.w3.org/1999/xlink" width="81" height="88.667" viewBox="0 0 81 88.667">
  <defs>
    <clipPath id="clip-path">
      <rect id="Rectángulo_434176" data-name="Rectángulo 434176" width="81" height="81" transform="translate(395.711 874)" fill="#fff" stroke="#707070" stroke-width="1"/>
    </clipPath>
  </defs>
  <g id="Grupo_1173226" data-name="Grupo 1173226" transform="translate(-395.711 -870)">
    <g id="Grupo_1150935" data-name="Grupo 1150935" transform="translate(404.167 870)">
      <path id="Trazado_987198" data-name="Trazado 987198" d="M62.042,128.667H13.922C5.223,128.667,0,125.951,0,114.382V41.535C0,40.687.517,40,1.154,40H49.337c8.7,0,13.859,5.031,13.859,16.6v70.531c0,.848-.517,1.535-1.154,1.535" transform="translate(0 -40)" fill="#3571c7"/>
    </g>
    <g id="Enmascarar_grupo_1098925" data-name="Enmascarar grupo 1098925" clip-path="url(#clip-path)">
      <g id="reunion" transform="translate(395.711 874)">
        <g id="Grupo_1176702" data-name="Grupo 1176702">
          <path id="Trazado_1002828" data-name="Trazado 1002828" d="M40.5,14.238A6.327,6.327,0,0,0,46.828,7.91,6.329,6.329,0,1,0,40.5,14.238Z" fill="#6d91ac" fill-rule="evenodd"/>
          <path id="Trazado_1002829" data-name="Trazado 1002829" d="M36.7,12.973a6.338,6.338,0,0,1-2.4-6.328H31.008a3.173,3.173,0,0,0-3.164,3.164v3.164H36.7Z" fill="#a7bdcd" fill-rule="evenodd"/>
          <path id="Trazado_1002830" data-name="Trazado 1002830" d="M46.828,7.91A6.318,6.318,0,0,1,44.3,12.973h8.86V9.809a3.174,3.174,0,0,0-3.164-3.164H46.7A6.342,6.342,0,0,1,46.828,7.91Z" fill="#a7bdcd" fill-rule="evenodd"/>
          <path id="Trazado_1002831" data-name="Trazado 1002831" d="M25.136,23.4a4.095,4.095,0,0,0-8.19,0v2.047a4.095,4.095,0,0,0,8.19,0Z" fill="#ffdcd5" fill-rule="evenodd"/>
          <path id="Trazado_1002832" data-name="Trazado 1002832" d="M24.085,28.174a4.08,4.08,0,0,1-6.089,0,7.188,7.188,0,0,0-4.121,6.482V36.7H28.207V34.656a7.188,7.188,0,0,0-4.121-6.482Z" fill="#ffc144" fill-rule="evenodd"/>
          <path id="Trazado_1002833" data-name="Trazado 1002833" d="M25.136,47.126a4.095,4.095,0,0,0-8.19,0v2.047a4.095,4.095,0,0,0,8.19,0Z" fill="#ffdcd5" fill-rule="evenodd"/>
          <path id="Trazado_1002834" data-name="Trazado 1002834" d="M24.085,51.9A4.08,4.08,0,0,1,18,51.9a7.188,7.188,0,0,0-4.121,6.482v2.047H28.207V58.386A7.188,7.188,0,0,0,24.085,51.9Z" fill="#00ccf2" fill-rule="evenodd"/>
          <path id="Trazado_1002835" data-name="Trazado 1002835" d="M64.054,23.4a4.095,4.095,0,1,0-8.19,0v2.047a4.095,4.095,0,0,0,8.19,0Z" fill="#ffdcd5" fill-rule="evenodd"/>
          <path id="Trazado_1002836" data-name="Trazado 1002836" d="M63,28.174a4.08,4.08,0,0,1-6.089,0,7.189,7.189,0,0,0-4.121,6.482V36.7H67.125V34.656A7.188,7.188,0,0,0,63,28.174Z" fill="#88df8e" fill-rule="evenodd"/>
          <path id="Trazado_1002837" data-name="Trazado 1002837" d="M64.054,47.126a4.095,4.095,0,1,0-8.19,0v2.047a4.095,4.095,0,0,0,8.19,0Z" fill="#ffdcd5" fill-rule="evenodd"/>
          <path id="Trazado_1002838" data-name="Trazado 1002838" d="M63,51.9a4.08,4.08,0,0,1-6.089,0,7.189,7.189,0,0,0-4.121,6.482v2.047H67.125V58.386A7.189,7.189,0,0,0,63,51.9Z" fill="#ff5d7d" fill-rule="evenodd"/>
          <path id="Trazado_1002839" data-name="Trazado 1002839" d="M40.5,60.434H1.582V63.6a3.173,3.173,0,0,0,3.164,3.164H67.125V60.434H40.5Z" fill="#512189" fill-rule="evenodd"/>
          <path id="Trazado_1002840" data-name="Trazado 1002840" d="M67.125,60.434v6.328h9.129A3.173,3.173,0,0,0,79.418,63.6V60.434H67.125Z" fill="#391760" fill-rule="evenodd"/>
          <path id="Trazado_1002841" data-name="Trazado 1002841" d="M28.207,36.7H40.5V14.238a6.3,6.3,0,0,1-3.8-1.265H4.746a3.173,3.173,0,0,0-3.164,3.164V36.7H13.875V34.656A7.188,7.188,0,0,1,18,28.174a4.077,4.077,0,0,1-1.05-2.731V23.4a4.095,4.095,0,1,1,8.19,0v2.047a4.076,4.076,0,0,1-1.05,2.731,7.188,7.188,0,0,1,4.121,6.482V36.7Z" fill="#ffc4a3" fill-rule="evenodd"/>
          <path id="Trazado_1002842" data-name="Trazado 1002842" d="M40.5,36.7H1.582v23.73H13.875V58.386A7.188,7.188,0,0,1,18,51.9a4.077,4.077,0,0,1-1.05-2.731V47.126a4.095,4.095,0,0,1,8.19,0v2.047a4.076,4.076,0,0,1-1.05,2.731,7.188,7.188,0,0,1,4.121,6.482v2.047H40.5V36.7Z" fill="#b4e6d2" fill-rule="evenodd"/>
          <path id="Trazado_1002843" data-name="Trazado 1002843" d="M40.5,14.238V36.7H52.793V34.656a7.188,7.188,0,0,1,4.121-6.482,4.077,4.077,0,0,1-1.05-2.731V23.4a4.095,4.095,0,1,1,8.19,0v2.047A4.076,4.076,0,0,1,63,28.174a7.188,7.188,0,0,1,4.121,6.482V36.7H79.418V16.137a3.173,3.173,0,0,0-3.164-3.164H44.3a6.3,6.3,0,0,1-3.8,1.265Z" fill="#32deff" fill-rule="evenodd"/>
          <path id="Trazado_1002844" data-name="Trazado 1002844" d="M52.793,36.7H40.5v23.73H52.793V58.386A7.188,7.188,0,0,1,56.914,51.9a4.077,4.077,0,0,1-1.05-2.731V47.126a4.095,4.095,0,0,1,8.19,0v2.047A4.076,4.076,0,0,1,63,51.9a7.188,7.188,0,0,1,4.121,6.482v2.047H79.418V36.7H52.793Z" fill="#cbbfda" fill-rule="evenodd"/>
          <path id="Trazado_1002845" data-name="Trazado 1002845" d="M32.489,66.762H48.516L51.65,79.418H29.35Z" fill="#b5b3ee" fill-rule="evenodd"/>
        </g>
        <g id="Grupo_1176703" data-name="Grupo 1176703">
          <path id="Trazado_1002846" data-name="Trazado 1002846" d="M76.254,11.391H54.738V9.809a4.751,4.751,0,0,0-4.746-4.746H47.878a7.907,7.907,0,0,0-14.756,0H31.008a4.751,4.751,0,0,0-4.746,4.746v1.582H4.746A4.751,4.751,0,0,0,0,16.137V63.6a4.751,4.751,0,0,0,4.746,4.746H30.47l-2.355,9.492H26.261a1.582,1.582,0,0,0,0,3.164H54.739a1.582,1.582,0,0,0,0-3.164H52.89l-2.359-9.492H76.254A4.751,4.751,0,0,0,81,63.6V16.137a4.751,4.751,0,0,0-4.746-4.746ZM62.472,49.173a2.513,2.513,0,0,1-5.026,0V47.126a2.513,2.513,0,0,1,5.026,0Zm-5.738,4.668a5.66,5.66,0,0,0,6.452,0,5.552,5.552,0,0,1,2.356,4.547v.465H54.375v-.465a5.635,5.635,0,0,1,2.359-4.545Zm8.455-2.461a5.645,5.645,0,0,0,.447-2.207V47.126a5.677,5.677,0,0,0-11.354,0v2.047a5.647,5.647,0,0,0,.447,2.207,8.694,8.694,0,0,0-3.517,7.006v.465H42.082v-7.91a1.582,1.582,0,0,0-3.164,0v7.91H29.789v-.465a8.7,8.7,0,0,0-3.518-7.006,5.645,5.645,0,0,0,.447-2.207V47.126a5.677,5.677,0,1,0-11.354,0v2.047a5.647,5.647,0,0,0,.447,2.207,8.694,8.694,0,0,0-3.518,7.006v.465H3.164V38.285H77.836V58.851H68.707v-.465A8.7,8.7,0,0,0,65.189,51.381ZM23.554,49.173a2.513,2.513,0,0,1-5.025,0V47.126a2.513,2.513,0,0,1,5.025,0Zm-5.738,4.668a5.66,5.66,0,0,0,6.452,0,5.552,5.552,0,0,1,2.356,4.547v.465H15.457v-.465A5.635,5.635,0,0,1,17.816,53.842Zm5.738-28.4a2.513,2.513,0,0,1-5.025,0V23.4a2.513,2.513,0,0,1,5.025,0Zm-5.738,4.668a5.66,5.66,0,0,0,6.452,0,5.552,5.552,0,0,1,2.356,4.547v.465H15.457v-.465a5.635,5.635,0,0,1,2.359-4.545Zm44.656-4.668a2.513,2.513,0,0,1-5.026,0V23.4a2.513,2.513,0,0,1,5.026,0Zm-5.738,4.668a5.66,5.66,0,0,0,6.452,0,5.552,5.552,0,0,1,2.356,4.547v.465H54.375v-.465a5.635,5.635,0,0,1,2.359-4.545Zm21.1-13.974V35.121H68.707v-.465a8.7,8.7,0,0,0-3.517-7.006,5.645,5.645,0,0,0,.447-2.207V23.4a5.677,5.677,0,0,0-11.354,0v2.047a5.647,5.647,0,0,0,.447,2.207,8.694,8.694,0,0,0-3.517,7.006v.465H42.082V15.661a7.863,7.863,0,0,0,2.7-1.106H76.254A1.584,1.584,0,0,1,77.836,16.137ZM51.574,9.809v1.582H47.6a7.853,7.853,0,0,0,.8-3.164h1.59A1.584,1.584,0,0,1,51.574,9.809ZM40.5,3.164A4.746,4.746,0,1,1,35.754,7.91,4.751,4.751,0,0,1,40.5,3.164ZM29.426,11.391V9.809a1.584,1.584,0,0,1,1.582-1.582H32.6a7.853,7.853,0,0,0,.8,3.164ZM3.164,16.137a1.584,1.584,0,0,1,1.582-1.582H36.217a7.863,7.863,0,0,0,2.7,1.106v19.46H29.789v-.465a8.7,8.7,0,0,0-3.518-7.006,5.645,5.645,0,0,0,.447-2.207V23.4a5.677,5.677,0,0,0-11.354,0v2.047a5.647,5.647,0,0,0,.447,2.207,8.694,8.694,0,0,0-3.518,7.006v.465H3.164Zm0,47.461V62.016H65.543V65.18H4.746A1.584,1.584,0,0,1,3.164,63.6ZM49.63,77.836H31.375l2.355-9.492H47.271ZM76.254,65.18H68.707V62.016h9.129V63.6a1.584,1.584,0,0,1-1.582,1.582Z"/>
          <path id="Trazado_1002847" data-name="Trazado 1002847" d="M40.5,9.492a1.582,1.582,0,0,0,0-3.164h0a1.582,1.582,0,1,0,0,3.164Z"/>
          <path id="Trazado_1002848" data-name="Trazado 1002848" d="M40.5,42.24a1.582,1.582,0,1,0,1.582,1.582h0A1.582,1.582,0,0,0,40.5,42.24Z"/>
        </g>
      </g>
    </g>
  </g>
</svg>
