<svg xmlns="http://www.w3.org/2000/svg" xmlns:xlink="http://www.w3.org/1999/xlink" width="81" height="88.667" viewBox="0 0 81 88.667">
  <defs>
    <clipPath id="clip-path">
      <rect id="Rectángulo_434176" data-name="Rectángulo 434176" width="81" height="81" transform="translate(395.711 874)" fill="#fff" stroke="#707070" stroke-width="1"/>
    </clipPath>
  </defs>
  <g id="Grupo_1166373" data-name="Grupo 1166373" transform="translate(-395.711 -870)">
    <g id="Grupo_1150935" data-name="Grupo 1150935" transform="translate(404.167 870)">
      <path id="Trazado_987198" data-name="Trazado 987198" d="M62.042,128.667H13.922C5.223,128.667,0,125.951,0,114.382V41.535C0,40.687.517,40,1.154,40H49.337c8.7,0,13.859,5.031,13.859,16.6v70.531c0,.848-.517,1.535-1.154,1.535" transform="translate(0 -40)" fill="#3571c7"/>
    </g>
    <g id="Enmascarar_grupo_1098922" data-name="Enmascarar grupo 1098922" clip-path="url(#clip-path)">
      <g id="media-monitor-screen-Digital_Marketing" data-name="media-monitor-screen-Digital Marketing" transform="translate(393.012 871.301)">
        <path id="Trazado_1002752" data-name="Trazado 1002752" d="M6.75,21.6h72.9a2.7,2.7,0,0,1,2.7,2.7V64.8H4.05V24.3a2.7,2.7,0,0,1,2.7-2.7Z" fill="#c5d7f4"/>
        <path id="Trazado_1002753" data-name="Trazado 1002753" d="M9.45,37.8h35.1V59.4H9.45Z" fill="#7a4bb0"/>
        <path id="Trazado_1002754" data-name="Trazado 1002754" d="M56.7,76.949v5.4h-27v-5.4h27Z" fill="#e8e5fb"/>
        <path id="Trazado_1002755" data-name="Trazado 1002755" d="M39.149,68.849h8.1v8.1h-8.1Z" fill="#8e95a3"/>
        <path id="Trazado_1002756" data-name="Trazado 1002756" d="M82.349,66.149V67.5a2.708,2.708,0,0,1-2.7,2.7H6.75a2.708,2.708,0,0,1-2.7-2.7V64.8h78.3Z" fill="#e8e5fb"/>
        <path id="Trazado_1002757" data-name="Trazado 1002757" d="M29.7,18.9l-8.1,4.05v-8.1Z" fill="#fb5415"/>
        <path id="Trazado_1002758" data-name="Trazado 1002758" d="M10.8,21.6V8.1h27V29.7h-27Zm10.8,1.35,8.1-4.05-8.1-4.05Z" fill="#32deff"/>
        <path id="Trazado_1002759" data-name="Trazado 1002759" d="M44.549,37.8,27,48.6,9.45,37.8Z" fill="#391760"/>
        <path id="Trazado_1002760" data-name="Trazado 1002760" d="M48.6,9.45h9.45v10.8H48.6Z" fill="#e8e5fb"/>
        <path id="Trazado_1002761" data-name="Trazado 1002761" d="M55.349,20.25,54,29.7h-4.05V20.25Z" fill="#c7bec5"/>
        <path id="Trazado_1002762" data-name="Trazado 1002762" d="M80.2,12.946a2.639,2.639,0,0,1,.8,1.9,2.708,2.708,0,0,1-2.7,2.7H75.6v-5.4h2.7a2.639,2.639,0,0,1,1.9.8Z" fill="#fb5415"/>
        <path id="Trazado_1002763" data-name="Trazado 1002763" d="M75.6,4.05v21.6l-17.55-5.4V9.45Z" fill="#ffc4a3"/>
        <path id="Trazado_1002764" data-name="Trazado 1002764" d="M44.549,12.15H48.6v5.4h-4.05Z" fill="#fb5415"/>
        <path id="Trazado_1002765" data-name="Trazado 1002765" d="M49.949,35.1h24.3V51.3h-24.3Z" fill="#1e6652"/>
        <path id="Trazado_1002766" data-name="Trazado 1002766" d="M76.949,40.5V56.7H54V40.5h22.95Z" fill="#4db593"/>
        <path id="Trazado_1002767" data-name="Trazado 1002767" d="M79.649,20.25h-2.7V18.9H78.3a4.05,4.05,0,1,0,0-8.1h-1.35V4.05A1.307,1.307,0,0,0,76.4,2.97a1.338,1.338,0,0,0-1.188-.216L57.847,8.1H48.6a1.35,1.35,0,0,0-1.35,1.35V10.8h-2.7a1.35,1.35,0,0,0-1.35,1.35v5.4a1.35,1.35,0,0,0,1.35,1.35h2.7v1.35h-8.1V8.1A1.35,1.35,0,0,0,37.8,6.75h-27A1.35,1.35,0,0,0,9.45,8.1V20.25H6.75A4.062,4.062,0,0,0,2.7,24.3V67.5a4.062,4.062,0,0,0,4.05,4.05H37.8V75.6H29.7a1.35,1.35,0,0,0-1.35,1.35v5.4A1.35,1.35,0,0,0,29.7,83.7h27a1.35,1.35,0,0,0,1.35-1.35v-5.4A1.35,1.35,0,0,0,56.7,75.6H48.6v-4.05h31.05A4.062,4.062,0,0,0,83.7,67.5V24.3a4.062,4.062,0,0,0-4.05-4.05Zm-2.7-6.75H78.3a1.35,1.35,0,1,1,0,2.7h-1.35ZM59.4,10.449l14.85-4.576V23.827L59.4,19.251Zm-9.45.351H56.7v8.1h-6.75ZM53.8,21.6l-.972,6.75H51.3V21.6Zm-7.9-5.4V13.5h1.35v2.7ZM12.15,9.45h24.3v18.9H12.15ZM55.349,78.3V81H31.05V78.3ZM40.5,75.6v-4.05h5.4V75.6ZM81,67.5a1.35,1.35,0,0,1-1.35,1.35H6.75A1.35,1.35,0,0,1,5.4,67.5v-1.35H81Zm0-4.05H5.4V24.3a1.35,1.35,0,0,1,1.35-1.35h2.7V29.7a1.35,1.35,0,0,0,1.35,1.35h27a1.35,1.35,0,0,0,1.35-1.35V22.95H48.6V29.7a1.35,1.35,0,0,0,1.35,1.35H54a1.35,1.35,0,0,0,1.336-1.161L56.524,21.6h1.323l17.361,5.346A1.249,1.249,0,0,0,75.6,27a1.37,1.37,0,0,0,1.35-1.35v-2.7h2.7A1.35,1.35,0,0,1,81,24.3Z"/>
        <path id="Trazado_1002768" data-name="Trazado 1002768" d="M9.45,60.749h35.1A1.35,1.35,0,0,0,45.9,59.4V37.8a1.35,1.35,0,0,0-1.35-1.35H9.45A1.35,1.35,0,0,0,8.1,37.8V59.4A1.35,1.35,0,0,0,9.45,60.749Zm1.35-2.7V40.215l15.492,9.535a1.35,1.35,0,0,0,1.415,0L43.2,40.215V58.049Zm3.419-18.9H39.78L27,47.014Z"/>
        <path id="Trazado_1002769" data-name="Trazado 1002769" d="M49.949,52.649h2.7V56.7A1.35,1.35,0,0,0,54,58.049h22.95A1.35,1.35,0,0,0,78.3,56.7V40.5a1.35,1.35,0,0,0-1.35-1.35H75.6V35.1a1.35,1.35,0,0,0-1.35-1.35h-24.3A1.35,1.35,0,0,0,48.6,35.1V51.3A1.35,1.35,0,0,0,49.949,52.649Zm25.65,2.7H55.349v-13.5H75.6Zm-24.3-18.9H72.9v2.7H54a1.35,1.35,0,0,0-1.35,1.35v9.45H51.3Z"/>
        <path id="Trazado_1002770" data-name="Trazado 1002770" d="M58.049,44.549h2.7v2.7h-2.7Z"/>
        <path id="Trazado_1002771" data-name="Trazado 1002771" d="M63.449,44.549H72.9v2.7h-9.45Z"/>
        <path id="Trazado_1002772" data-name="Trazado 1002772" d="M58.049,49.949h5.4v2.7h-5.4Z"/>
        <path id="Trazado_1002773" data-name="Trazado 1002773" d="M66.149,49.949H72.9v2.7h-6.75Z"/>
        <path id="Trazado_1002774" data-name="Trazado 1002774" d="M20.89,24.1a1.35,1.35,0,0,0,1.314.059l8.1-4.05a1.35,1.35,0,0,0,0-2.416l-8.1-4.05A1.35,1.35,0,0,0,20.25,14.85v8.1A1.35,1.35,0,0,0,20.89,24.1Zm2.06-7.064L26.681,18.9,22.95,20.765Z"/>
      </g>
    </g>
  </g>
</svg>
