<svg xmlns="http://www.w3.org/2000/svg" xmlns:xlink="http://www.w3.org/1999/xlink" width="81" height="88.667" viewBox="0 0 81 88.667">
  <defs>
    <clipPath id="clip-path">
      <rect id="Rectángulo_434176" data-name="Rectángulo 434176" width="81" height="81" transform="translate(395.711 874)" fill="#fff" stroke="#707070" stroke-width="1"/>
    </clipPath>
  </defs>
  <g id="Grupo_1174938" data-name="Grupo 1174938" transform="translate(-395.711 -870)">
    <g id="Grupo_1150935" data-name="Grupo 1150935" transform="translate(404.167 870)">
      <path id="Trazado_987198" data-name="Trazado 987198" d="M62.042,128.667H13.922C5.223,128.667,0,125.951,0,114.382V41.535C0,40.687.517,40,1.154,40H49.337c8.7,0,13.859,5.031,13.859,16.6v70.531c0,.848-.517,1.535-1.154,1.535" transform="translate(0 -40)" fill="#3571c7"/>
    </g>
    <g id="Enmascarar_grupo_1098923" data-name="Enmascarar grupo 1098923" clip-path="url(#clip-path)">
      <g id="certificado" transform="translate(393.011 871.3)">
        <path id="Trazado_1002775" data-name="Trazado 1002775" d="M52.65,76.95H33.75l1.628-2.036A9.436,9.436,0,0,0,36.45,64.8h13.5a9.436,9.436,0,0,0,1.072,10.114Z" fill="#5c98e6"/>
        <path id="Trazado_1002776" data-name="Trazado 1002776" d="M78.975,66.15H7.425A3.375,3.375,0,0,1,4.05,62.775V18.225A3.375,3.375,0,0,1,7.425,14.85h71.55a3.375,3.375,0,0,1,3.375,3.375v44.55A3.375,3.375,0,0,1,78.975,66.15Z" fill="#c5d7f4"/>
        <path id="Trazado_1002777" data-name="Trazado 1002777" d="M78.975,66.15H7.425A3.375,3.375,0,0,1,4.05,62.775V58.05h78.3v4.725A3.375,3.375,0,0,1,78.975,66.15Z" fill="#3e6599"/>
        <path id="Trazado_1002778" data-name="Trazado 1002778" d="M53.143,74.25H33.257a7.289,7.289,0,0,0-4.044,1.224l-7.821,5.214a.907.907,0,0,0,.5,1.662H64.5a.907.907,0,0,0,.5-1.662l-7.821-5.214A7.288,7.288,0,0,0,53.143,74.25Z" fill="#3e6599"/>
        <path id="Trazado_1002779" data-name="Trazado 1002779" d="M9.45,4.05h67.5v43.2H9.45Z" fill="#ffc4a3"/>
        <circle id="Elipse_13475" data-name="Elipse 13475" cx="4.05" cy="4.05" r="4.05" transform="translate(39.15 58.05)" fill="#e6ac5c"/>
        <path id="Trazado_1002780" data-name="Trazado 1002780" d="M67.5,54l-5.4-2.7L56.7,54l1.35-16.2h8.1Z" fill="#391760"/>
        <path id="Trazado_1002781" data-name="Trazado 1002781" d="M63.64,23.5a1.981,1.981,0,0,0,2.25.6,1.981,1.981,0,0,1,2.667,1.54A1.981,1.981,0,0,0,70.2,27.293a1.981,1.981,0,0,1,1.54,2.667,1.981,1.981,0,0,0,.6,2.25,1.981,1.981,0,0,1,0,3.08,1.981,1.981,0,0,0-.6,2.25,1.981,1.981,0,0,1-1.54,2.667,1.981,1.981,0,0,0-1.647,1.647,1.981,1.981,0,0,1-2.667,1.54,1.981,1.981,0,0,0-2.25.6,1.981,1.981,0,0,1-3.08,0,1.981,1.981,0,0,0-2.25-.6,1.981,1.981,0,0,1-2.667-1.54A1.981,1.981,0,0,0,54,40.207a1.981,1.981,0,0,1-1.54-2.667,1.981,1.981,0,0,0-.6-2.25,1.981,1.981,0,0,1,0-3.08,1.981,1.981,0,0,0,.6-2.25A1.981,1.981,0,0,1,54,27.293a1.981,1.981,0,0,0,1.647-1.647,1.981,1.981,0,0,1,2.667-1.54,1.981,1.981,0,0,0,2.25-.6A1.981,1.981,0,0,1,63.64,23.5Z" fill="#512189"/>
        <circle id="Elipse_13476" data-name="Elipse 13476" cx="5.4" cy="5.4" r="5.4" transform="translate(56.7 28.35)" fill="#cbbfda"/>
        <path id="Trazado_1002782" data-name="Trazado 1002782" d="M14.85,9.45H56.7v5.4H14.85Z" fill="#fb5415"/>
        <g id="Grupo_1176676" data-name="Grupo 1176676">
          <path id="Trazado_1002783" data-name="Trazado 1002783" d="M54,21.6H14.85a1.35,1.35,0,0,1,0-2.7H54a1.35,1.35,0,0,1,0,2.7Z" fill="#273f5f"/>
        </g>
        <g id="Grupo_1176677" data-name="Grupo 1176677">
          <path id="Trazado_1002784" data-name="Trazado 1002784" d="M51.3,25.65H14.85a1.35,1.35,0,0,1,0-2.7H51.3a1.35,1.35,0,1,1,0,2.7Z" fill="#273f5f"/>
        </g>
        <g id="Grupo_1176678" data-name="Grupo 1176678">
          <path id="Trazado_1002785" data-name="Trazado 1002785" d="M47.25,29.7H14.85a1.35,1.35,0,1,1,0-2.7h32.4a1.35,1.35,0,1,1,0,2.7Z" fill="#273f5f"/>
        </g>
        <g id="Grupo_1176679" data-name="Grupo 1176679">
          <path id="Trazado_1002786" data-name="Trazado 1002786" d="M45.9,33.75H14.85a1.35,1.35,0,1,1,0-2.7H45.9a1.35,1.35,0,1,1,0,2.7Z" fill="#273f5f"/>
        </g>
        <g id="Grupo_1176680" data-name="Grupo 1176680">
          <path id="Trazado_1002787" data-name="Trazado 1002787" d="M15.96,43.2a1.35,1.35,0,0,1-1.223-1.92,54.26,54.26,0,0,1,2.933-5.463,1.35,1.35,0,0,1,2.248-.082q.877,1.221,1.642,2.523l.034-.071a1.35,1.35,0,0,1,2.063-.479,16.247,16.247,0,0,1,1.873,1.756l1.564-1.338a1.35,1.35,0,0,1,2.156.592,1.116,1.116,0,0,0,.825.7,3.83,3.83,0,0,0,1.02-.048l6.563-.837A1.35,1.35,0,0,1,38,41.217l-6.563.837a6.049,6.049,0,0,1-1.815.032,3.774,3.774,0,0,1-1.9-.939l-1.472,1.259A1.35,1.35,0,0,1,24.3,42.2a13.536,13.536,0,0,0-.993-1.162q-.166.421-.318.846a1.35,1.35,0,0,1-2.491.125,30.456,30.456,0,0,0-1.6-2.937c-.611,1.1-1.183,2.217-1.71,3.35a1.351,1.351,0,0,1-1.225.781Z" fill="#5f2627"/>
        </g>
        <circle id="Elipse_13477" data-name="Elipse 13477" cx="5.4" cy="5.4" r="5.4" transform="translate(62.1 9.45)" fill="#32deff"/>
        <g id="Grupo_1176681" data-name="Grupo 1176681">
          <path id="Trazado_1002788" data-name="Trazado 1002788" d="M10.8,63.45a1.35,1.35,0,0,1,0-2.7h0a1.35,1.35,0,1,1,0,2.7Z" fill="#e6ac5c"/>
        </g>
        <g id="Grupo_1176682" data-name="Grupo 1176682">
          <path id="Trazado_1002789" data-name="Trazado 1002789" d="M14.853,63.45a1.35,1.35,0,1,1,0-2.7h0a1.35,1.35,0,1,1,0,2.7Z" fill="#e6ac5c"/>
        </g>
        <g id="Grupo_1176683" data-name="Grupo 1176683">
          <path id="Trazado_1002790" data-name="Trazado 1002790" d="M18.9,63.45a1.35,1.35,0,0,1,0-2.7h0a1.35,1.35,0,1,1,0,2.7Z" fill="#e6ac5c"/>
        </g>
        <g id="Grupo_1176684" data-name="Grupo 1176684">
          <path id="Trazado_1002791" data-name="Trazado 1002791" d="M76.95,63.45H72.9a1.35,1.35,0,1,1,0-2.7h4.05a1.35,1.35,0,1,1,0,2.7Z" fill="#273f5f"/>
        </g>
        <g id="Grupo_1176685" data-name="Grupo 1176685">
          <path id="Trazado_1002792" data-name="Trazado 1002792" d="M67.5,63.45H63.45a1.35,1.35,0,0,1,0-2.7H67.5a1.35,1.35,0,1,1,0,2.7Z" fill="#273f5f"/>
        </g>
        <g id="Grupo_1176686" data-name="Grupo 1176686">
          <path id="Trazado_1002793" data-name="Trazado 1002793" d="M78.975,13.5H78.3V4.05A1.35,1.35,0,0,0,76.95,2.7H9.45A1.35,1.35,0,0,0,8.1,4.05V13.5H7.425A4.73,4.73,0,0,0,2.7,18.225v44.55A4.73,4.73,0,0,0,7.425,67.5h28.52a8.124,8.124,0,0,1-.847,5.4H33.257a8.613,8.613,0,0,0-4.792,1.451l-7.821,5.214A2.257,2.257,0,0,0,21.9,83.7H64.5a2.257,2.257,0,0,0,1.252-4.135l-7.821-5.214A8.613,8.613,0,0,0,53.143,72.9H51.3a8.125,8.125,0,0,1-.846-5.4H78.975A4.73,4.73,0,0,0,83.7,62.775V18.225A4.73,4.73,0,0,0,78.975,13.5ZM10.8,5.4H75.6V45.9h-7.42l-.114-1.364c.067-.033.134-.068.2-.106a3.317,3.317,0,0,0,1.624-2.364.629.629,0,0,1,.525-.525A3.331,3.331,0,0,0,73,37.056a.629.629,0,0,1,.192-.717,3.331,3.331,0,0,0,0-5.178A.629.629,0,0,1,73,30.444a3.331,3.331,0,0,0-2.589-4.485.629.629,0,0,1-.525-.524,3.331,3.331,0,0,0-4.485-2.589.629.629,0,0,1-.717-.192,3.331,3.331,0,0,0-5.178,0,.629.629,0,0,1-.717.192,3.331,3.331,0,0,0-4.485,2.589.629.629,0,0,1-.525.525A3.331,3.331,0,0,0,51.2,30.444a.629.629,0,0,1-.192.717,3.331,3.331,0,0,0,0,5.178.629.629,0,0,1,.192.717,3.331,3.331,0,0,0,2.589,4.485.629.629,0,0,1,.525.524,3.317,3.317,0,0,0,1.624,2.365c.066.038.133.073.2.106L56.02,45.9H10.8ZM52.7,34.24a.631.631,0,0,1,0-.981,3.322,3.322,0,0,0,1.014-3.784.631.631,0,0,1,.49-.849,3.323,3.323,0,0,0,2.77-2.77.631.631,0,0,1,.849-.49,3.323,3.323,0,0,0,3.784-1.014.631.631,0,0,1,.981,0,3.322,3.322,0,0,0,3.784,1.014.631.631,0,0,1,.85.491,3.322,3.322,0,0,0,2.77,2.77.631.631,0,0,1,.491.85A3.323,3.323,0,0,0,71.5,33.26a.631.631,0,0,1,0,.981,3.322,3.322,0,0,0-1.014,3.784.631.631,0,0,1-.49.849,3.323,3.323,0,0,0-2.77,2.77.631.631,0,0,1-.849.49,3.322,3.322,0,0,0-3.784,1.014.631.631,0,0,1-.981,0,3.323,3.323,0,0,0-3.784-1.014.631.631,0,0,1-.85-.491,3.322,3.322,0,0,0-2.77-2.77.631.631,0,0,1-.491-.85A3.323,3.323,0,0,0,52.7,34.24Zm6.132,10.4a.627.627,0,0,1,.676.2,3.331,3.331,0,0,0,5.178,0,.628.628,0,0,1,.676-.2l.59,7.076L62.7,50.092a1.349,1.349,0,0,0-1.207,0l-3.251,1.626ZM7.425,16.2H8.1V47.25A1.35,1.35,0,0,0,9.45,48.6H55.8l-.441,5.288A1.35,1.35,0,0,0,57.3,55.207l4.8-2.4,4.8,2.4a1.35,1.35,0,0,0,1.949-1.319L68.4,48.6H76.95a1.35,1.35,0,0,0,1.35-1.35V16.2h.675A2.027,2.027,0,0,1,81,18.225V56.7H5.4V18.225A2.027,2.027,0,0,1,7.425,16.2ZM45.9,62.1a2.7,2.7,0,1,1-2.7-2.7A2.7,2.7,0,0,1,45.9,62.1Zm-40.5.675V59.4H38.526a5.381,5.381,0,0,0,0,5.4H7.425A2.027,2.027,0,0,1,5.4,62.775ZM56.437,76.6l6.6,4.4H23.359l6.6-4.4a5.921,5.921,0,0,1,3.295-1H53.143a5.921,5.921,0,0,1,3.295,1Zm-8.1-3.7H38.068a10.856,10.856,0,0,0,.613-5.4h9.037A10.855,10.855,0,0,0,48.334,72.9Zm30.641-8.1h-31.1a5.381,5.381,0,0,0,0-5.4H81v3.375A2.027,2.027,0,0,1,78.975,64.8Z"/>
          <path id="Trazado_1002794" data-name="Trazado 1002794" d="M62.1,40.5a6.75,6.75,0,1,0-6.75-6.75A6.758,6.758,0,0,0,62.1,40.5Zm0-10.8a4.05,4.05,0,1,1-4.05,4.05A4.055,4.055,0,0,1,62.1,29.7Z"/>
          <path id="Trazado_1002795" data-name="Trazado 1002795" d="M14.85,16.2H56.7a1.35,1.35,0,0,0,1.35-1.35V9.45A1.35,1.35,0,0,0,56.7,8.1H14.85A1.35,1.35,0,0,0,13.5,9.45v5.4A1.35,1.35,0,0,0,14.85,16.2Zm1.35-5.4H55.35v2.7H16.2Z"/>
          <path id="Trazado_1002796" data-name="Trazado 1002796" d="M14.85,21.6H54a1.35,1.35,0,0,0,0-2.7H14.85a1.35,1.35,0,0,0,0,2.7Z"/>
          <path id="Trazado_1002797" data-name="Trazado 1002797" d="M14.85,25.65H51.3a1.35,1.35,0,1,0,0-2.7H14.85a1.35,1.35,0,0,0,0,2.7Z"/>
          <path id="Trazado_1002798" data-name="Trazado 1002798" d="M47.25,27H14.85a1.35,1.35,0,1,0,0,2.7h32.4a1.35,1.35,0,1,0,0-2.7Z"/>
          <path id="Trazado_1002799" data-name="Trazado 1002799" d="M45.9,31.05H14.85a1.35,1.35,0,1,0,0,2.7H45.9a1.35,1.35,0,1,0,0-2.7Z"/>
          <path id="Trazado_1002800" data-name="Trazado 1002800" d="M37.658,38.539l-6.563.837a3.831,3.831,0,0,1-1.02.048,1.116,1.116,0,0,1-.825-.7,1.35,1.35,0,0,0-2.156-.592L25.53,39.466a16.233,16.233,0,0,0-1.873-1.756,1.35,1.35,0,0,0-2.063.479l-.034.071q-.764-1.3-1.642-2.523a1.35,1.35,0,0,0-2.248.082,54.26,54.26,0,0,0-2.933,5.463,1.35,1.35,0,1,0,2.448,1.139c.527-1.133,1.1-2.254,1.71-3.35a30.383,30.383,0,0,1,1.6,2.937,1.35,1.35,0,0,0,2.491-.125q.152-.424.318-.846a13.541,13.541,0,0,1,.993,1.162,1.35,1.35,0,0,0,1.952.208l1.472-1.259a3.773,3.773,0,0,0,1.9.939,6.054,6.054,0,0,0,1.815-.032L38,41.217a1.35,1.35,0,0,0-.341-2.678Z"/>
          <path id="Trazado_1002801" data-name="Trazado 1002801" d="M67.5,21.6a6.75,6.75,0,1,0-6.75-6.75A6.758,6.758,0,0,0,67.5,21.6Zm0-10.8a4.05,4.05,0,1,1-4.05,4.05A4.055,4.055,0,0,1,67.5,10.8Z"/>
          <path id="Trazado_1002802" data-name="Trazado 1002802" d="M10.8,60.75h0a1.35,1.35,0,1,0,1.352,1.35A1.349,1.349,0,0,0,10.8,60.75Z"/>
          <path id="Trazado_1002803" data-name="Trazado 1002803" d="M14.853,60.75h0A1.35,1.35,0,1,0,16.2,62.1a1.349,1.349,0,0,0-1.352-1.35Z"/>
          <path id="Trazado_1002804" data-name="Trazado 1002804" d="M18.9,60.75h0a1.35,1.35,0,1,0,1.352,1.35A1.349,1.349,0,0,0,18.9,60.75Z"/>
          <path id="Trazado_1002805" data-name="Trazado 1002805" d="M76.95,60.75H72.9a1.35,1.35,0,1,0,0,2.7h4.05a1.35,1.35,0,1,0,0-2.7Z"/>
          <path id="Trazado_1002806" data-name="Trazado 1002806" d="M67.5,60.75H63.45a1.35,1.35,0,0,0,0,2.7H67.5a1.35,1.35,0,1,0,0-2.7Z"/>
        </g>
      </g>
    </g>
  </g>
</svg>
