<svg xmlns="http://www.w3.org/2000/svg" xmlns:xlink="http://www.w3.org/1999/xlink" width="83" height="83" viewBox="0 0 83 83">
  <defs>
    <clipPath id="clip-path">
      <rect id="Rectángulo_441144" data-name="Rectángulo 441144" width="83" height="83" transform="translate(-1804 -10281.279)" fill="#fff" stroke="#0b489b" stroke-width="1"/>
    </clipPath>
  </defs>
  <g id="Enmascarar_grupo_1098957" data-name="Enmascarar grupo 1098957" transform="translate(1804 10281.279)" clip-path="url(#clip-path)">
    <g id="de-igual-a-igual" transform="translate(-1806.767 -10284.045)">
      <circle id="Elipse_13504" data-name="Elipse 13504" cx="20.75" cy="20.75" r="20.75" transform="translate(42.883 42.883)" fill="#fff"/>
      <path id="Trazado_1005701" data-name="Trazado 1005701" d="M84.31,65.041a19.354,19.354,0,1,0-31.932,16.01A20.709,20.709,0,0,0,84.31,65.041Z" fill="#c5d7f4"/>
      <path id="Trazado_1005702" data-name="Trazado 1005702" d="M74.815,73.877l-7.033-2.526V69.138a6.889,6.889,0,0,0,2.767-5.5V60.868c0-3.821,0-8.3-6.917-8.3s-6.917,4.479-6.917,8.3v2.767a6.889,6.889,0,0,0,2.767,5.5v2.213L52.45,73.877a3.8,3.8,0,0,0-2.119,1.832,17.922,17.922,0,0,0,26.6,0,3.79,3.79,0,0,0-2.119-1.832Z" fill="#ffc4a3"/>
      <path id="Trazado_1005703" data-name="Trazado 1005703" d="M74.815,73.872l-7.033-2.526V69.132a6.889,6.889,0,0,0,2.767-5.5V60.863c0-3.821,0-8.3-6.917-8.3a11.906,11.906,0,0,0-2.075.172c4.831.838,4.842,4.739,4.842,8.128V63.63c0,2.255-.689,5.5-2.767,5.5-3.541,0-3.456-.924-3.456-.924l-.694,3.137L52.45,73.872A3.8,3.8,0,0,0,50.33,75.7a17.922,17.922,0,0,0,26.6,0,3.79,3.79,0,0,0-2.119-1.832Z" fill="#dba588"/>
      <path id="Trazado_1005704" data-name="Trazado 1005704" d="M74.815,73.877l-7.033-2.526L63.632,74.7l-4.15-3.35L52.45,73.874c-.891.268-3.27,2.8-3.746,3.646,3.29,3.622,9.711,6.917,14.99,6.917a21.874,21.874,0,0,0,14.812-6.4c-.476-.847-2.8-3.9-3.691-4.161Z" fill="#2a8d71"/>
      <path id="Trazado_1005705" data-name="Trazado 1005705" d="M63.632,85.765a21.931,21.931,0,0,1-16.08-6.953,1.381,1.381,0,0,1-.232-1.569c.595-1.187,2.6-4.006,4.717-4.665L58.1,70.4v-.617a8.2,8.2,0,0,1-2.767-6.159V62.246c0-.393-.014-.805-.025-1.231-.072-2.479-.166-5.564,1.9-7.683,1.405-1.45,3.505-2.15,6.427-2.15s5.021.7,6.427,2.15c2.061,2.122,1.97,5.207,1.9,7.683-.011.426-.025.841-.025,1.234v1.383a8.208,8.208,0,0,1-2.767,6.158v.617l6.117,2.2c2.094.667,4.15,3.635,4.659,4.64a1.383,1.383,0,0,1-.23,1.574A21.936,21.936,0,0,1,63.632,85.765ZM50.3,77.654a19.293,19.293,0,0,0,26.656,0,7.273,7.273,0,0,0-2.567-2.437l-7.08-2.543a1.383,1.383,0,0,1-.913-1.3V69.132a1.375,1.375,0,0,1,.551-1.1,5.475,5.475,0,0,0,2.216-4.4V62.249c0-.415.014-.858.028-1.314.058-2.058.13-4.393-1.118-5.677-.844-.869-2.338-1.309-4.443-1.309s-3.6.44-4.44,1.311c-1.248,1.284-1.179,3.619-1.118,5.677.011.454.025.894.025,1.311v1.383a5.48,5.48,0,0,0,2.216,4.4,1.375,1.375,0,0,1,.551,1.1v2.244a1.389,1.389,0,0,1-.916,1.3l-7.033,2.526A6.9,6.9,0,0,0,50.3,77.654Z"/>
      <path id="Trazado_1005706" data-name="Trazado 1005706" d="M44.966,74.007a1.378,1.378,0,0,1-1.245-.78A21.9,21.9,0,0,1,41.5,63.632a22.133,22.133,0,1,1,44.266,0,21.914,21.914,0,0,1-2.18,9.592,1.382,1.382,0,1,1-2.49-1.2A19.2,19.2,0,0,0,83,63.632a19.366,19.366,0,0,0-38.733,0,19.132,19.132,0,0,0,1.945,8.388,1.386,1.386,0,0,1-1.245,1.986Z"/>
      <circle id="Elipse_13505" data-name="Elipse 13505" cx="20.75" cy="20.75" r="20.75" transform="translate(4.15 4.15)" fill="#fff"/>
      <path id="Trazado_1005707" data-name="Trazado 1005707" d="M45.58,26.311a19.355,19.355,0,1,0-31.935,16,20.708,20.708,0,0,0,31.935-16Z" fill="#c5d7f4"/>
      <path id="Trazado_1005708" data-name="Trazado 1005708" d="M36.082,35.144,29.05,32.618V30.405a6.883,6.883,0,0,0,2.767-5.5V22.133c0-3.821,0-8.3-6.917-8.3s-6.917,4.482-6.917,8.3V24.9a6.889,6.889,0,0,0,2.767,5.5v2.213l-7.033,2.526A3.8,3.8,0,0,0,11.6,36.973a17.922,17.922,0,0,0,26.6,0A3.8,3.8,0,0,0,36.082,35.144Z" fill="#ffc4a3"/>
      <path id="Trazado_1005709" data-name="Trazado 1005709" d="M36.082,35.144,29.05,32.618V30.405a6.883,6.883,0,0,0,2.767-5.5V22.133c0-3.821,0-8.3-6.917-8.3A12.207,12.207,0,0,0,22.825,14c4.831.838,4.842,4.739,4.842,8.128V24.9c0,2.255-.689,5.5-2.767,5.5-3.541,0-3.456-.921-3.456-.921l-.694,3.137-7.033,2.526A3.8,3.8,0,0,0,11.6,36.976a17.922,17.922,0,0,0,26.6,0A3.79,3.79,0,0,0,36.082,35.144Z" fill="#dba588"/>
      <path id="Trazado_1005710" data-name="Trazado 1005710" d="M36.082,35.144,29.05,32.618,24.9,35.966l-4.15-3.348-7.033,2.526c-.891.268-3.267,2.8-3.743,3.646,3.29,3.624,9.708,6.917,14.984,6.917a21.851,21.851,0,0,0,14.812-6.4C39.3,38.459,36.973,35.41,36.082,35.144Z" fill="#0b489b"/>
      <path id="Trazado_1005711" data-name="Trazado 1005711" d="M24.9,47.033A21.934,21.934,0,0,1,8.817,40.077a1.375,1.375,0,0,1-.23-1.569c.595-1.187,2.606-4.006,4.72-4.662l6.059-2.175v-.617A8.206,8.206,0,0,1,16.6,24.9V23.516c0-.393-.011-.805-.025-1.231-.072-2.479-.166-5.564,1.9-7.686,1.405-1.447,3.505-2.15,6.427-2.15s5.021.7,6.427,2.15c2.061,2.125,1.97,5.207,1.9,7.686-.014.426-.025.838-.025,1.231V24.9a8.206,8.206,0,0,1-2.767,6.156v.617l6.117,2.2c2.1.67,4.155,3.635,4.659,4.64a1.383,1.383,0,0,1-.227,1.571A21.925,21.925,0,0,1,24.9,47.033ZM11.57,38.921a19.293,19.293,0,0,0,26.656,0,7.257,7.257,0,0,0-2.565-2.435l-7.083-2.543a1.386,1.386,0,0,1-.913-1.3V30.4a1.378,1.378,0,0,1,.551-1.1,5.478,5.478,0,0,0,2.216-4.4V23.516c0-.418.011-.858.028-1.314.058-2.058.13-4.393-1.118-5.677C28.5,15.656,27,15.216,24.9,15.216s-3.6.44-4.44,1.311c-1.251,1.284-1.179,3.616-1.12,5.674.017.456.028.9.028,1.314V24.9a5.488,5.488,0,0,0,2.216,4.4,1.378,1.378,0,0,1,.551,1.1v2.244a1.389,1.389,0,0,1-.916,1.3l-7.033,2.526a6.875,6.875,0,0,0-2.614,2.446Z"/>
      <path id="Trazado_1005712" data-name="Trazado 1005712" d="M6.233,35.274a1.375,1.375,0,0,1-1.245-.783A21.9,21.9,0,0,1,2.767,24.9a22.133,22.133,0,1,1,42.089,9.589,1.384,1.384,0,0,1-2.5-1.2A19.369,19.369,0,1,0,5.533,24.9a19.149,19.149,0,0,0,1.945,8.388,1.386,1.386,0,0,1-1.245,1.986Z"/>
      <path id="Trazado_1005713" data-name="Trazado 1005713" d="M12.45,48.507l8.3,13.833H15.216v8.211c0,14.353,19.452,13.833,22.133,13.833-11.932,0-27.666,2.6-27.666-13.833V62.34H4.15Zm63.632-8.388-8.3-13.833h5.533v-8.3c0-14.353-19.452-13.833-22.133-13.833,11.932,0,27.666-2.6,27.666,13.833v8.3h5.533Z" fill="#512189"/>
      <path id="Trazado_1005714" data-name="Trazado 1005714" d="M15.216,67.785v0Z" fill="#fff"/>
      <path id="Trazado_1005715" data-name="Trazado 1005715" d="M15.216,69.168a1.383,1.383,0,0,1-1.383-1.383V62.34a1.383,1.383,0,1,1,2.767,0v5.445A1.383,1.383,0,0,1,15.216,69.168Z"/>
      <path id="Trazado_1005716" data-name="Trazado 1005716" d="M73.315,26.286v0Z" fill="#fff"/>
      <path id="Trazado_1005717" data-name="Trazado 1005717" d="M73.315,27.669a1.383,1.383,0,0,1-1.383-1.383V20.752a1.383,1.383,0,0,1,2.767,0v5.533A1.383,1.383,0,0,1,73.315,27.669Z"/>
      <circle id="Elipse_13506" data-name="Elipse 13506" cx="1.383" cy="1.383" r="1.383" transform="translate(13.833 71.932)"/>
      <circle id="Elipse_13507" data-name="Elipse 13507" cx="1.383" cy="1.383" r="1.383" transform="translate(71.932 13.833)"/>
      <path id="Trazado_1005718" data-name="Trazado 1005718" d="M84.382,24.9h-4.15V17.875c0-4.723-1.206-8.222-3.685-10.7-4.468-4.463-12.04-4.4-19.383-4.413l-11.515.008a1.378,1.378,0,1,0,0,2.753H57.169c6.739,0,13.764-.044,17.424,3.61,1.931,1.928,2.872,4.786,2.872,8.737v8.3a1.478,1.478,0,0,0,1.383,1.491h3.09l-5.857,9.761-5.857-9.761h3.09a1.383,1.383,0,0,0,0-2.767H67.782a1.342,1.342,0,0,0-1.206.647,1.286,1.286,0,0,0,.019,1.339l8.3,13.833a1.389,1.389,0,0,0,2.374.014l8.3-13.819A1.317,1.317,0,0,0,84.382,24.9Zm-41.5,58.107-12.453.047c-6.466.1-12.79-.21-16.334-3.666-2.042-1.989-3.032-4.93-3.032-8.986V62.191a1.26,1.26,0,0,0-1.383-1.228H6.593l5.857-9.81,5.857,9.808h-3.09A1.344,1.344,0,0,0,13.833,62.3a1.425,1.425,0,0,0,1.383,1.43H20.75a1.509,1.509,0,0,0,1.187-2.244l-8.3-13.83a1.439,1.439,0,0,0-2.371.008l-8.3,13.852a1.48,1.48,0,0,0,1.187,2.211H8.3V70.4c0,4.775,1.3,8.466,3.868,10.967,3.876,3.782,10.106,4.4,16.293,4.4H42.88a1.379,1.379,0,1,0,.006-2.758Z"/>
    </g>
  </g>
</svg>
