<svg xmlns="http://www.w3.org/2000/svg" xmlns:xlink="http://www.w3.org/1999/xlink" width="83" height="83" viewBox="0 0 83 83">
  <defs>
    <clipPath id="clip-path">
      <rect id="Rectángulo_439414" data-name="Rectángulo 439414" width="83" height="83" transform="translate(-992.5 -10281.279)" fill="#fff" stroke="#0b489b" stroke-width="1"/>
    </clipPath>
  </defs>
  <g id="Enmascarar_grupo_1098940" data-name="Enmascarar grupo 1098940" transform="translate(992.5 10281.279)" clip-path="url(#clip-path)">
    <g id="carpeta-confidencial" transform="translate(-992.5 -10281.279)">
      <path id="Trazado_1003844" data-name="Trazado 1003844" d="M76.083,24.9H41.5L23.518,6.917H6.918A2.775,2.775,0,0,0,4.151,9.684V23.517H23.518l9.5,9.5,3.942,3.943L41.5,41.5H78.85V27.667A2.775,2.775,0,0,0,76.083,24.9Zm0,0" fill="#512189"/>
      <path id="Trazado_1003845" data-name="Trazado 1003845" d="M78.85,41.5V78.849a2.775,2.775,0,0,1-2.767,2.767H6.918a2.775,2.775,0,0,1-2.767-2.767V23.517H23.518L41.5,41.5Zm0,0" fill="#7a4bb0"/>
      <path id="Trazado_1003846" data-name="Trazado 1003846" d="M38.886,38.885a5.257,5.257,0,0,0-.152,1.231v5.81a13.433,13.433,0,0,0-2.767.885v-6.7a5.544,5.544,0,0,1,1-3.154Zm0,0" fill="#ffde55"/>
      <path id="Trazado_1003847" data-name="Trazado 1003847" d="M67.784,1.384H15.218a2.775,2.775,0,0,0-2.767,2.767V23.517H23.518l9.5,9.5,3.942,3.943L41.5,41.5H70.55V4.151a2.775,2.775,0,0,0-2.767-2.767Zm0,0" fill="#c5d7f4"/>
      <path id="Trazado_1003848" data-name="Trazado 1003848" d="M78.85,56.716H76.083a2.767,2.767,0,0,0,0,5.533H78.85a2.767,2.767,0,1,0,0-5.533Zm0,0" fill="#e6e7e8"/>
      <path id="Trazado_1003849" data-name="Trazado 1003849" d="M65.017,56.716a2.767,2.767,0,1,1,0,5.533H62.25a2.767,2.767,0,1,1,0-5.533Zm0,0" fill="#e6e7e8"/>
      <path id="Trazado_1003850" data-name="Trazado 1003850" d="M70.55,59.483a2.788,2.788,0,0,1-2.767,2.767H65.017a2.767,2.767,0,1,0,0-5.533h2.767A2.775,2.775,0,0,1,70.55,59.483Zm0,0" fill="#391760"/>
      <path id="Trazado_1003851" data-name="Trazado 1003851" d="M62.25,1.384V15.217L58.1,9.684l-4.15,5.533V1.384Zm0,0" fill="#fb5415"/>
      <path id="Trazado_1003852" data-name="Trazado 1003852" d="M58.1,9.684l1.383,1.84-2.767,3.693V11.524Zm0,0" fill="#78b9eb"/>
      <path id="Trazado_1003853" data-name="Trazado 1003853" d="M65.017,1.384V15.217L62.25,11.524V1.384Zm0,0" fill="#78b9eb"/>
      <path id="Trazado_1003854" data-name="Trazado 1003854" d="M55.334,59.483A13.833,13.833,0,1,1,41.5,45.65,13.833,13.833,0,0,1,55.334,59.483Zm0,0" fill="#b4e6d2"/>
      <path id="Trazado_1003855" data-name="Trazado 1003855" d="M49.8,59.483a8.3,8.3,0,1,1-8.3-8.3A8.3,8.3,0,0,1,49.8,59.483Zm0,0" fill="#2a8d71"/>
      <path id="Trazado_1003856" data-name="Trazado 1003856" d="M41.5,29.05a11.087,11.087,0,0,0-7.83,3.237,6.443,6.443,0,0,0-.65.734,10.979,10.979,0,0,0-2.587,7.1V51.2a13.659,13.659,0,0,1,5.533-4.385v-6.7a5.533,5.533,0,1,1,11.066,0v6.7A13.659,13.659,0,0,1,52.567,51.2V40.117A11.066,11.066,0,0,0,41.5,29.05Zm0,0" fill="#d8d7da"/>
      <path id="Trazado_1003857" data-name="Trazado 1003857" d="M55.334,40.117A11.066,11.066,0,0,0,44.267,29.05a11.266,11.266,0,0,0-1.383.083,11.066,11.066,0,0,1,9.683,10.983V41.5h2.767Zm0,0" fill="#78b9eb"/>
      <path id="Trazado_1003858" data-name="Trazado 1003858" d="M42.87,34.763a5.556,5.556,0,0,0-3.14,2.2,5.344,5.344,0,0,0-.844,1.922l-1.923-1.922a5.509,5.509,0,0,1,4.538-2.38,5.038,5.038,0,0,1,1.369.18Zm0,0" fill="#78b9eb"/>
      <g id="Grupo_1177355" data-name="Grupo 1177355">
        <path id="Trazado_1003859" data-name="Trazado 1003859" d="M38.886,38.885a5.257,5.257,0,0,0-.152,1.231v5.81a13.433,13.433,0,0,0-2.767.885v-6.7a5.544,5.544,0,0,1,1-3.154Zm0,0" fill="#391760"/>
        <path id="Trazado_1003860" data-name="Trazado 1003860" d="M47.034,45.927a14.1,14.1,0,0,0-2.767-.277,11.265,11.265,0,0,0-1.383.083,13.394,13.394,0,0,1,4.15,1.079Zm0,0" fill="#391760"/>
        <path id="Trazado_1003861" data-name="Trazado 1003861" d="M55.334,51.2V41.5H52.567v9.7a13.825,13.825,0,0,1-9.655,22.051c.442.041.9.069,1.356.069A13.823,13.823,0,0,0,55.334,51.2Zm0,0" fill="#391760"/>
      </g>
      <path id="Trazado_1003862" data-name="Trazado 1003862" d="M20.751,56.716a2.767,2.767,0,1,1,0,5.533H17.984a2.767,2.767,0,1,1,0-5.533Zm0,0" fill="#e6e7e8"/>
      <path id="Trazado_1003863" data-name="Trazado 1003863" d="M26.284,59.483a2.788,2.788,0,0,1-2.767,2.767H20.751a2.767,2.767,0,1,0,0-5.533h2.767A2.775,2.775,0,0,1,26.284,59.483Zm0,0" fill="#391760"/>
      <path id="Trazado_1003864" data-name="Trazado 1003864" d="M6.918,56.716H4.151a2.767,2.767,0,1,0,0,5.533H6.918a2.767,2.767,0,1,0,0-5.533Zm0,0" fill="#e6e7e8"/>
      <path id="Trazado_1003865" data-name="Trazado 1003865" d="M12.451,59.483A2.788,2.788,0,0,1,9.685,62.25H6.918a2.767,2.767,0,1,0,0-5.533H9.685A2.775,2.775,0,0,1,12.451,59.483Zm0,0" fill="#391760"/>
      <path id="Trazado_1003866" data-name="Trazado 1003866" d="M70.55,24.9h2.767V41.5H70.55Zm0,0" fill="#391760"/>
      <path id="Trazado_1003867" data-name="Trazado 1003867" d="M19.368,8.3h8.3v2.767h-8.3Zm0,0"/>
      <path id="Trazado_1003868" data-name="Trazado 1003868" d="M30.434,8.3H41.5v2.767H30.434Zm0,0"/>
      <path id="Trazado_1003869" data-name="Trazado 1003869" d="M19.368,13.834H41.5V16.6H19.368Zm0,0"/>
      <path id="Trazado_1003870" data-name="Trazado 1003870" d="M30.434,22.134h24.9V24.9h-24.9Zm0,0"/>
      <path id="Trazado_1003871" data-name="Trazado 1003871" d="M55.334,27.667h8.3v2.767h-8.3Zm0,0"/>
      <path id="Trazado_1003872" data-name="Trazado 1003872" d="M58.1,22.134h5.533V24.9H58.1Zm0,0"/>
      <path id="Trazado_1003873" data-name="Trazado 1003873" d="M55.334,33.2h8.3v2.767h-8.3Zm0,0"/>
      <path id="Trazado_1003874" data-name="Trazado 1003874" d="M83,59.483a4.15,4.15,0,0,0-2.767-3.9V27.667a4.15,4.15,0,0,0-4.15-4.15h-4.15V4.151A4.15,4.15,0,0,0,67.784,0H15.218a4.15,4.15,0,0,0-4.15,4.15V5.534H6.918a4.15,4.15,0,0,0-4.15,4.15v45.9a4.125,4.125,0,0,0,0,7.791V78.849A4.15,4.15,0,0,0,6.918,83H76.083a4.15,4.15,0,0,0,4.15-4.15V63.378A4.15,4.15,0,0,0,83,59.483ZM72.188,58.1H68.912a4.15,4.15,0,0,0-3.9-2.767H62.25a4.15,4.15,0,0,0-3.9,2.767H56.646a15.116,15.116,0,0,0-2.7-7.331V42.883H77.467v12.45H76.083a4.15,4.15,0,0,0-3.9,2.767ZM66.4,59.483a1.383,1.383,0,0,1-1.383,1.383H62.25a1.383,1.383,0,1,1,0-2.767h2.767A1.383,1.383,0,0,1,66.4,59.483ZM26.354,58.1H24.646a4.15,4.15,0,0,0-3.9-2.767H17.984a4.15,4.15,0,0,0-3.9,2.767H10.813a4.15,4.15,0,0,0-3.9-2.767H5.535V24.9h17.41l8.242,8.242a12.4,12.4,0,0,0-2.136,6.975V50.768a15.124,15.124,0,0,0-2.7,7.331Zm-4.22,1.383a1.383,1.383,0,0,1-1.383,1.383H17.984a1.383,1.383,0,0,1,0-2.767h2.767A1.383,1.383,0,0,1,22.134,59.483Zm29.05-11.729a15.241,15.241,0,0,0-2.767-1.808V40.117a6.917,6.917,0,0,0-13.833,0v5.829a15.241,15.241,0,0,0-2.767,1.808V40.117a9.683,9.683,0,0,1,19.366,0ZM37.351,40.117a4.087,4.087,0,0,1,.075-.736l3.1,3.1a1.383,1.383,0,0,0,.978.405h4.15v1.972a14.91,14.91,0,0,0-8.3,0Zm1.53-3.193a4.127,4.127,0,0,1,6.77,3.193H42.073ZM41.5,47.033a12.45,12.45,0,1,1-12.45,12.45A12.45,12.45,0,0,1,41.5,47.033Zm34.583-20.75a1.383,1.383,0,0,1,1.383,1.383v12.45H71.933V26.284ZM55.334,2.767h5.533v8.3l-1.66-2.213a1.433,1.433,0,0,0-2.213,0l-1.66,2.213Zm-40.116,0H52.567v12.45a1.383,1.383,0,0,0,2.49.83L58.1,11.99l3.044,4.057a1.383,1.383,0,0,0,1.106.553,1.433,1.433,0,0,0,.437-.07,1.384,1.384,0,0,0,.946-1.313V2.767h4.15a1.383,1.383,0,0,1,1.383,1.383V40.117H53.95a12.44,12.44,0,0,0-20.956-9.079l-8.5-8.5a1.383,1.383,0,0,0-.978-.405H13.834V4.151a1.383,1.383,0,0,1,1.383-1.383ZM6.918,8.3h4.15V22.134H5.535V9.684A1.383,1.383,0,0,1,6.918,8.3ZM4.151,58.1H6.918a1.383,1.383,0,0,1,0,2.767H4.151a1.383,1.383,0,0,1,0-2.767ZM76.083,80.233H6.918a1.383,1.383,0,0,1-1.383-1.383V63.633H6.918a4.15,4.15,0,0,0,3.9-2.767h3.276a4.15,4.15,0,0,0,3.9,2.767h2.767a4.15,4.15,0,0,0,3.9-2.767h1.708a15.208,15.208,0,0,0,30.3,0h1.708a4.15,4.15,0,0,0,3.893,2.767h2.767a4.15,4.15,0,0,0,3.9-2.767h3.276a4.15,4.15,0,0,0,3.9,2.767h1.383V78.849a1.383,1.383,0,0,1-1.383,1.383ZM78.85,60.866H76.083a1.383,1.383,0,0,1,0-2.767H78.85a1.383,1.383,0,0,1,0,2.767Zm0,0"/>
      <path id="Trazado_1003875" data-name="Trazado 1003875" d="M41.5,69.166a9.683,9.683,0,1,0-9.683-9.683A9.683,9.683,0,0,0,41.5,69.166Zm0-16.6a6.917,6.917,0,1,1-6.917,6.917A6.917,6.917,0,0,1,41.5,52.567Zm0,0"/>
      <path id="Trazado_1003876" data-name="Trazado 1003876" d="M40.117,63.633h2.767V58.1h2.767V55.333h-8.3V58.1h2.767Zm0,0"/>
    </g>
  </g>
</svg>
