<svg xmlns="http://www.w3.org/2000/svg" xmlns:xlink="http://www.w3.org/1999/xlink" width="48" height="48" viewBox="0 0 48 48">
  <defs>
    <clipPath id="clip-path">
      <rect id="Rectángulo_439133" data-name="Rectángulo 439133" width="48" height="48" transform="translate(179.711 4667)" fill="#2a8d71" stroke="#707070" stroke-width="1"/>
    </clipPath>
  </defs>
  <g id="Enmascarar_grupo_1098927" data-name="Enmascarar grupo 1098927" transform="translate(-179.711 -4667)" clip-path="url(#clip-path)">
    <g id="_28-teamwork" data-name="28-teamwork" transform="translate(179.711 4667)">
      <path id="Trazado_1003093" data-name="Trazado 1003093" d="M24,18.75A5.25,5.25,0,1,0,29.25,24,5.25,5.25,0,0,0,24,18.75Zm0,9A3.75,3.75,0,1,1,27.75,24,3.75,3.75,0,0,1,24,27.75Z" fill="#2a8d71"/>
      <path id="Trazado_1003094" data-name="Trazado 1003094" d="M24,21.75A2.25,2.25,0,1,0,26.25,24,2.25,2.25,0,0,0,24,21.75Zm0,3a.75.75,0,1,1,.75-.75A.75.75,0,0,1,24,24.75Z" fill="#2a8d71"/>
      <path id="Trazado_1003095" data-name="Trazado 1003095" d="M32.485,30.364a.75.75,0,0,0,0-1.061l-1.4-1.4a.931.931,0,0,1-.152-1.047.916.916,0,0,1,.836-.6H33.75a.75.75,0,0,0,.75-.75v-3a.75.75,0,0,0-.75-.75H31.767a.927.927,0,0,1-.845-.628.918.918,0,0,1,.162-1.023l1.4-1.4a.75.75,0,0,0,0-1.061l-2.121-2.121a.75.75,0,0,0-1.061,0l-1.4,1.4a.93.93,0,0,1-1.047.152.916.916,0,0,1-.6-.836V14.25a.75.75,0,0,0-.75-.75h-3a.75.75,0,0,0-.75.75v1.983a1.009,1.009,0,0,1-1.652.683l-1.4-1.4a.75.75,0,0,0-1.061,0l-2.121,2.121a.75.75,0,0,0,0,1.061l1.4,1.4a.931.931,0,0,1,.152,1.047.916.916,0,0,1-.836.6H14.25a.75.75,0,0,0-.75.75v3a.75.75,0,0,0,.75.75h1.983a.927.927,0,0,1,.845.628.918.918,0,0,1-.162,1.023l-1.4,1.4a.75.75,0,0,0,0,1.061l2.121,2.121a.75.75,0,0,0,1.061,0l1.4-1.4a.93.93,0,0,1,1.047-.152.916.916,0,0,1,.6.836V33.75a.75.75,0,0,0,.75.75h3a.75.75,0,0,0,.75-.75V31.767a1.009,1.009,0,0,1,1.652-.683l1.4,1.4a.75.75,0,0,0,1.061,0Zm-3.523-.341a2.5,2.5,0,0,0-4.212,1.744V33h-1.5V31.767a2.5,2.5,0,0,0-4.212-1.744l-.872.872-1.061-1.061.872-.872a2.5,2.5,0,0,0-1.744-4.212H15v-1.5h1.233a2.5,2.5,0,0,0,1.744-4.212l-.872-.872,1.061-1.061.872.872a2.5,2.5,0,0,0,4.212-1.744V15h1.5v1.233a2.5,2.5,0,0,0,4.212,1.744l.872-.872,1.061,1.061-.872.872a2.5,2.5,0,0,0,1.744,4.212H33v1.5H31.767a2.5,2.5,0,0,0-1.744,4.212l.872.872-1.061,1.061Z" fill="#2a8d71"/>
      <path id="Trazado_1003096" data-name="Trazado 1003096" d="M24,12a.75.75,0,0,0,.75-.75V.75a.75.75,0,0,0-1.5,0v10.5A.75.75,0,0,0,24,12Z" fill="#2a8d71"/>
      <path id="Trazado_1003097" data-name="Trazado 1003097" d="M24,36a.75.75,0,0,0-.75.75v10.5a.75.75,0,0,0,1.5,0V36.75A.75.75,0,0,0,24,36Z" fill="#2a8d71"/>
      <path id="Trazado_1003098" data-name="Trazado 1003098" d="M47.25,23.25H36.75a.75.75,0,0,0,0,1.5h10.5a.75.75,0,0,0,0-1.5Z" fill="#2a8d71"/>
      <path id="Trazado_1003099" data-name="Trazado 1003099" d="M12,24a.75.75,0,0,0-.75-.75H.75a.75.75,0,0,0,0,1.5h10.5A.75.75,0,0,0,12,24Z" fill="#2a8d71"/>
      <path id="Trazado_1003100" data-name="Trazado 1003100" d="M2.25,8.634V11.25a5.941,5.941,0,0,0,.681,2.677L.3,15.9a.75.75,0,1,0,.9,1.2l2.624-1.968a4.456,4.456,0,0,0,.676.551v.068a3,3,0,0,0,6,0v-.068a4.453,4.453,0,0,0,.676-.551L13.8,17.1a.75.75,0,1,0,.9-1.2l-2.631-1.973a5.941,5.941,0,0,0,.681-2.677V9a.75.75,0,0,0,.75-.75V6A3.754,3.754,0,0,0,9.75,2.25H7.5V.75A.75.75,0,0,0,6.75,0,3.013,3.013,0,0,0,4.274,1.713L3.53.97a.75.75,0,0,0-1.154.114A3.952,3.952,0,0,0,1.738,4.5H.75A.75.75,0,0,0,0,5.25C0,6.753,1.535,8.092,2.25,8.634ZM7.5,17.25a1.5,1.5,0,0,1-1.369-.893,6.626,6.626,0,0,0,2.738,0A1.5,1.5,0,0,1,7.5,17.25Zm3.75-6A3.6,3.6,0,0,1,7.5,15a3.6,3.6,0,0,1-3.75-3.75V8.459A1.918,1.918,0,0,1,5.25,7.5,2.044,2.044,0,0,1,6.829,8.588.749.749,0,0,0,7.5,9H7.5a.755.755,0,0,0,.667-.408A2.045,2.045,0,0,1,9.75,7.5a1.918,1.918,0,0,1,1.5.956ZM3,6a.75.75,0,0,0,.53-1.28A1.968,1.968,0,0,1,3.2,2.764l.766.766a.749.749,0,0,0,1.241-.293A4.161,4.161,0,0,1,6,1.894V3a.75.75,0,0,0,.75.75h3A2.252,2.252,0,0,1,12,6V7A3.023,3.023,0,0,0,7.5,7,3.118,3.118,0,0,0,5.25,6,3.187,3.187,0,0,0,2.838,7.181,5.623,5.623,0,0,1,1.765,6Z" fill="#2a8d71"/>
      <rect id="Rectángulo_439216" data-name="Rectángulo 439216" width="1.5" height="1.5" transform="translate(5.25 9)" fill="#2a8d71"/>
      <rect id="Rectángulo_439217" data-name="Rectángulo 439217" width="1.5" height="1.5" transform="translate(8.25 9)" fill="#2a8d71"/>
      <rect id="Rectángulo_439218" data-name="Rectángulo 439218" width="1.5" height="1.5" transform="translate(38.25 9)" fill="#2a8d71"/>
      <rect id="Rectángulo_439219" data-name="Rectángulo 439219" width="1.5" height="1.5" transform="translate(41.25 9)" fill="#2a8d71"/>
      <path id="Trazado_1003101" data-name="Trazado 1003101" d="M33.75,15a.75.75,0,0,0,.75-.75V6c0-.184.1-4.5,5.25-4.5,3.108,0,3.766,1.677,3.789,1.737a.752.752,0,0,0,.709.513c.092,0,2.252.031,2.252,1.5v9a.75.75,0,0,0,1.5,0v-9c0-2.108-1.936-2.838-3.278-2.975C44.241,1.48,42.92,0,39.75,0,33.077,0,33,5.94,33,6v8.25a.75.75,0,0,0,.75.75Z" fill="#2a8d71"/>
      <path id="Trazado_1003102" data-name="Trazado 1003102" d="M43.421,7.835a.75.75,0,0,0-.335-1.006A1.918,1.918,0,0,1,42,5.25a.75.75,0,0,0-1.421-.335,5,5,0,0,1-2.567,1.874.75.75,0,0,0,.475,1.422A7.958,7.958,0,0,0,40.949,6.8a3.389,3.389,0,0,0,1.466,1.367.751.751,0,0,0,1.006-.335Z" fill="#2a8d71"/>
      <path id="Trazado_1003103" data-name="Trazado 1003103" d="M40.5,18.75a3,3,0,0,0,3-3v-.068a4.454,4.454,0,0,0,.676-.551L46.8,17.1a.75.75,0,1,0,.9-1.2l-2.631-1.973a5.941,5.941,0,0,0,.682-2.677v-3a.75.75,0,0,0-1.5,0v3a3.75,3.75,0,1,1-7.5,0v-3a.75.75,0,0,0-1.5,0v3a5.941,5.941,0,0,0,.681,2.677L33.3,15.9a.75.75,0,1,0,.9,1.2l2.624-1.968a4.456,4.456,0,0,0,.676.551v.068a3,3,0,0,0,3,3Zm0-2.25a6.372,6.372,0,0,0,1.369-.143,1.5,1.5,0,0,1-2.738,0A6.372,6.372,0,0,0,40.5,16.5Z" fill="#2a8d71"/>
      <path id="Trazado_1003104" data-name="Trazado 1003104" d="M17.636,45.107l-3.293-1.976A5.943,5.943,0,0,0,15,40.5V35.25a3.754,3.754,0,0,0-3.75-3.75H8.173A2.938,2.938,0,0,0,5.25,29.25a3.75,3.75,0,0,0-3.732,4.115A3.8,3.8,0,0,0,4.5,36.64V40.5a5.943,5.943,0,0,0,.657,2.631L1.864,45.107a.75.75,0,0,0-.364.643v1.5a.75.75,0,0,0,1.5,0V46.175L6.042,44.35a4.46,4.46,0,0,0,.708.583V45a3,3,0,0,0,6,0v-.068a4.458,4.458,0,0,0,.708-.583L16.5,46.175V47.25a.75.75,0,0,0,1.5,0v-1.5a.75.75,0,0,0-.364-.643ZM9.75,46.5a1.5,1.5,0,0,1-1.369-.893,6.626,6.626,0,0,0,2.738,0A1.5,1.5,0,0,1,9.75,46.5Zm3.75-9v3A3.6,3.6,0,0,1,9.75,44.25,3.6,3.6,0,0,1,6,40.5V36.75h5.25a.75.75,0,0,0,0-1.5H5.379A2.339,2.339,0,0,1,3.01,33.223,2.251,2.251,0,0,1,5.244,30.75a1.414,1.414,0,0,1,1.506,1.5A.75.75,0,0,0,7.5,33h3.75a2.252,2.252,0,0,1,2.25,2.25Z" fill="#2a8d71"/>
      <rect id="Rectángulo_439220" data-name="Rectángulo 439220" width="1.5" height="1.5" transform="translate(7.5 38.25)" fill="#2a8d71"/>
      <rect id="Rectángulo_439221" data-name="Rectángulo 439221" width="1.5" height="1.5" transform="translate(10.5 38.25)" fill="#2a8d71"/>
      <path id="Trazado_1003105" data-name="Trazado 1003105" d="M46.136,45.107l-3.293-1.976A5.943,5.943,0,0,0,43.5,40.5V36c0-1.556-1.1-4.5-5.25-4.5S33,34.444,33,36v4.5a5.944,5.944,0,0,0,.657,2.631l-3.293,1.976A.75.75,0,0,0,30,45.75v1.5a.75.75,0,0,0,1.5,0V46.175l3.042-1.825a4.459,4.459,0,0,0,.708.583V45a3,3,0,0,0,6,0v-.068a4.458,4.458,0,0,0,.708-.583L45,46.175V47.25a.75.75,0,0,0,1.5,0v-1.5a.75.75,0,0,0-.364-.643ZM38.25,46.5a1.5,1.5,0,0,1-1.369-.893,6.626,6.626,0,0,0,2.738,0A1.5,1.5,0,0,1,38.25,46.5Zm3.75-6a3.75,3.75,0,1,1-7.5,0V36.005c0-.308.144-3.005,3.75-3.005S42,35.688,42,36Z" fill="#2a8d71"/>
      <rect id="Rectángulo_439222" data-name="Rectángulo 439222" width="1.5" height="1.5" transform="translate(36 38.25)" fill="#2a8d71"/>
      <rect id="Rectángulo_439223" data-name="Rectángulo 439223" width="1.5" height="1.5" transform="translate(39 38.25)" fill="#2a8d71"/>
    </g>
  </g>
</svg>
