<svg xmlns="http://www.w3.org/2000/svg" width="85.047" height="82.375" viewBox="0 0 85.047 82.375">
  <g id="Grupo_1180946" data-name="Grupo 1180946" transform="translate(-705 -2916.631)">
    <g id="sistema-operacional" transform="translate(703.747 2914.381)">
      <g id="Grupo_1150915" data-name="Grupo 1150915" transform="translate(3.593 3.255)">
        <g id="Grupo_1150911" data-name="Grupo 1150911">
          <path id="Trazado_998294" data-name="Trazado 998294" d="M35.682,21.752a14.623,14.623,0,0,0-.643-4.286l3.844-2.478-4.34-6.764L30.686,10.7a14.876,14.876,0,0,0-5.719-3.107V3H16.93V7.581A14.728,14.728,0,0,0,11.211,10.7L7.353,8.224,3,14.988l3.844,2.478a15.077,15.077,0,0,0-.63,4.286,14.623,14.623,0,0,0,.643,4.286L3,28.516,7.353,35.28,11.211,32.8a14.728,14.728,0,0,0,5.719,3.121V40.5h8.037V35.923A14.728,14.728,0,0,0,30.686,32.8l3.858,2.478L38.9,28.516l-3.844-2.478a15.077,15.077,0,0,0,.63-4.286ZM20.948,29.789a8.037,8.037,0,1,1,8.037-8.037A8.043,8.043,0,0,1,20.948,29.789Z" transform="translate(-3 -3)" fill="#b4e6d2"/>
        </g>
        <g id="Grupo_1150912" data-name="Grupo 1150912" transform="translate(44.469 42.862)">
          <path id="Trazado_998295" data-name="Trazado 998295" d="M68.882,53.752a14.624,14.624,0,0,0-.643-4.286L72.1,46.988l-4.353-6.764L63.886,42.7a14.728,14.728,0,0,0-5.719-3.121V35H50.13v4.581A14.728,14.728,0,0,0,44.411,42.7l-3.858-2.478L36.2,46.988l3.844,2.478a14.609,14.609,0,0,0,0,8.572L36.2,60.516l4.353,6.764L44.411,64.8a14.728,14.728,0,0,0,5.719,3.121V72.5h8.037V67.923A14.728,14.728,0,0,0,63.886,64.8l3.858,2.478L72.1,60.516l-3.844-2.478a15.077,15.077,0,0,0,.63-4.286ZM54.148,61.789a8.037,8.037,0,1,1,8.037-8.037A8.043,8.043,0,0,1,54.148,61.789Z" transform="translate(-36.2 -35)" fill="#c5d7f4"/>
        </g>
        <g id="Grupo_1150913" data-name="Grupo 1150913" transform="translate(14.734 14.734)">
          <path id="Trazado_998296" data-name="Trazado 998296" d="M19.384,43.856a20.377,20.377,0,0,0,2.759,6.67L18.9,54.906,23.992,60l4.38-3.241a20.378,20.378,0,0,0,6.67,2.759l.8,5.385h7.193l.8-5.385a20.377,20.377,0,0,0,6.67-2.759L54.893,60l5.09-5.09-3.241-4.38a20.377,20.377,0,0,0,2.759-6.67l5.385-.8V35.859l-5.385-.8a20.377,20.377,0,0,0-2.759-6.67l3.241-4.38-5.09-5.09-4.38,3.241a20.378,20.378,0,0,0-6.67-2.759l-.79-5.4H35.859l-.8,5.384a20.377,20.377,0,0,0-6.67,2.759L24.006,18.9l-5.09,5.09,3.241,4.38a20.378,20.378,0,0,0-2.759,6.67l-5.4.8v7.193Zm10.354-4.407a9.711,9.711,0,1,1,9.711,9.711A9.709,9.709,0,0,1,29.738,39.449Z" transform="translate(-14 -14)" fill="#7a4bb0"/>
        </g>
      </g>
      <g id="Grupo_1150925" data-name="Grupo 1150925" transform="translate(1.253 2.25)">
        <g id="Grupo_1150916" data-name="Grupo 1150916" transform="translate(16.056 14.72)">
          <path id="Trazado_998298" data-name="Trazado 998298" d="M43.31,66.161H36.117a1,1,0,0,1-.991-.857l-.71-4.715a21.431,21.431,0,0,1-5.733-2.371l-3.831,2.826a1.017,1.017,0,0,1-1.313-.094l-5.09-5.09a1.016,1.016,0,0,1-.094-1.313l2.826-3.831a21.252,21.252,0,0,1-2.371-5.733l-4.715-.7a1,1,0,0,1-.857-.991V36.1a1,1,0,0,1,.857-.991l4.715-.7a21.69,21.69,0,0,1,2.371-5.733l-2.826-3.831a1.017,1.017,0,0,1,.094-1.313l5.09-5.09a1.016,1.016,0,0,1,1.313-.094l3.831,2.826a21.252,21.252,0,0,1,5.733-2.371l.71-4.715a1.007,1.007,0,0,1,.991-.857H43.31a1,1,0,0,1,.991.857l.71,4.715a21.431,21.431,0,0,1,5.733,2.371l3.831-2.826a1.017,1.017,0,0,1,1.313.094l5.09,5.09a1.016,1.016,0,0,1,.094,1.313l-2.826,3.831a21.252,21.252,0,0,1,2.371,5.733l4.715.7a1,1,0,0,1,.857.991V43.3a1,1,0,0,1-.857.991l-4.715.7a21.431,21.431,0,0,1-2.371,5.733l2.826,3.831a1.017,1.017,0,0,1-.094,1.313l-5.09,5.09a1.016,1.016,0,0,1-1.313.094l-3.831-2.826a21.252,21.252,0,0,1-5.733,2.371L44.3,65.3A1.007,1.007,0,0,1,43.31,66.161Zm-6.335-2.009h5.465l.67-4.527a1,1,0,0,1,.777-.83,19.677,19.677,0,0,0,6.349-2.625.987.987,0,0,1,1.139.04l3.683,2.719,3.858-3.871L56.2,51.373a.987.987,0,0,1-.04-1.139,19.1,19.1,0,0,0,2.625-6.349,1,1,0,0,1,.83-.777l4.527-.67V36.975l-4.527-.67a1,1,0,0,1-.83-.777,19.555,19.555,0,0,0-2.625-6.349.987.987,0,0,1,.04-1.139l2.719-3.683L55.057,20.5l-3.683,2.719a1.01,1.01,0,0,1-1.139.04,19.555,19.555,0,0,0-6.349-2.625,1,1,0,0,1-.777-.83l-.67-4.527H36.975L36.3,19.8a1,1,0,0,1-.777.83,19.677,19.677,0,0,0-6.349,2.625.987.987,0,0,1-1.139-.04L24.357,20.5l-3.871,3.858,2.719,3.683a.987.987,0,0,1,.04,1.139,19.555,19.555,0,0,0-2.625,6.349,1,1,0,0,1-.83.777l-4.527.67v5.465l4.527.67a1,1,0,0,1,.83.777,19.677,19.677,0,0,0,2.625,6.349.987.987,0,0,1-.04,1.139l-2.719,3.683,3.871,3.871,3.683-2.719a.987.987,0,0,1,1.139-.04,19.555,19.555,0,0,0,6.349,2.625,1,1,0,0,1,.777.83Zm2.732-13.729A10.715,10.715,0,1,1,50.422,39.707,10.73,10.73,0,0,1,39.707,50.422Zm0-19.422a8.706,8.706,0,1,0,8.706,8.706A8.715,8.715,0,0,0,39.707,31Z" transform="translate(-13.24 -13.24)"/>
        </g>
        <g id="Grupo_1150917" data-name="Grupo 1150917" transform="translate(4.015 40.183)">
          <path id="Trazado_998299" data-name="Trazado 998299" d="M42.758,71.763A38.557,38.557,0,0,1,4.25,33.255a1,1,0,0,1,2.009,0,36.533,36.533,0,0,0,36.5,36.5,1,1,0,0,1,0,2.009Z" transform="translate(-4.25 -32.25)"/>
        </g>
        <g id="Grupo_1150918" data-name="Grupo 1150918" transform="translate(41.519 2.679)">
          <path id="Trazado_998300" data-name="Trazado 998300" d="M70.759,43.763a1.012,1.012,0,0,1-1-1,36.533,36.533,0,0,0-36.5-36.5,1,1,0,0,1,0-2.009A38.557,38.557,0,0,1,71.763,42.758,1.012,1.012,0,0,1,70.759,43.763Z" transform="translate(-32.25 -4.25)"/>
        </g>
        <g id="Grupo_1150919" data-name="Grupo 1150919" transform="translate(75.008 37.507)">
          <path id="Trazado_998301" data-name="Trazado 998301" d="M62.272,36.277a.993.993,0,0,1-.71-.295l-4.018-4.018a1,1,0,1,1,1.42-1.42l3.308,3.308,3.308-3.308A1,1,0,0,1,67,31.964l-4.018,4.018a.993.993,0,0,1-.71.295Z" transform="translate(-57.253 -30.252)"/>
        </g>
        <g id="Grupo_1150920" data-name="Grupo 1150920" transform="translate(0 38.847)">
          <path id="Trazado_998302" data-name="Trazado 998302" d="M10.29,37.277a.993.993,0,0,1-.71-.295L6.272,33.674,2.964,36.982a1,1,0,0,1-1.42-1.42l4.018-4.018a1.011,1.011,0,0,1,1.42,0L11,35.562a1.011,1.011,0,0,1,0,1.42.993.993,0,0,1-.71.295Z" transform="translate(-1.253 -31.252)"/>
        </g>
        <g id="Grupo_1150921" data-name="Grupo 1150921" transform="translate(1.327)">
          <path id="Trazado_998303" data-name="Trazado 998303" d="M16.624,36.981a.786.786,0,0,1-.308-.054,15.754,15.754,0,0,1-4.929-2.639l-3.241,2.09a1.016,1.016,0,0,1-1.393-.308L2.4,29.306a.994.994,0,0,1-.134-.75,1,1,0,0,1,.442-.63l3.228-2.076a15.5,15.5,0,0,1-.482-3.844,16.163,16.163,0,0,1,.482-3.844L2.708,16.086a1,1,0,0,1-.442-.63,1.046,1.046,0,0,1,.134-.75L6.766,7.943a1,1,0,0,1,1.38-.308l3.241,2.09a16.1,16.1,0,0,1,4.8-2.625V3.255a1.012,1.012,0,0,1,1-1h8.037a1.012,1.012,0,0,1,1,1V7.1a15.808,15.808,0,0,1,4.8,2.625l3.241-2.09a1.016,1.016,0,0,1,1.393.308l3.536,5.492a1,1,0,1,1-1.688,1.085L34.519,9.871l-3.014,1.942A1.008,1.008,0,0,1,30.3,11.72a13.664,13.664,0,0,0-5.331-2.907,1.017,1.017,0,0,1-.737-.964V4.259H18.2V7.835a.989.989,0,0,1-.737.964,13.664,13.664,0,0,0-5.331,2.907,1.008,1.008,0,0,1-1.205.094L7.9,9.871,4.65,14.934l3,1.929A1,1,0,0,1,8.065,18a14.073,14.073,0,0,0-.589,4A13.477,13.477,0,0,0,8.079,26a1,1,0,0,1-.415,1.139l-3,1.929,3.255,5.063,3.014-1.942a1.008,1.008,0,0,1,1.205.094,13.573,13.573,0,0,0,4.809,2.732,1.01,1.01,0,0,1-.321,1.969Z" transform="translate(-2.243 -2.25)"/>
        </g>
        <g id="Grupo_1150922" data-name="Grupo 1150922" transform="translate(11.248 10.715)">
          <path id="Trazado_998304" data-name="Trazado 998304" d="M16.722,28.078a1.476,1.476,0,0,1-.241-.027,9.038,9.038,0,1,1,10.072-13.22,1,1,0,0,1-1.741.991A7.025,7.025,0,1,0,16.99,26.1a.994.994,0,0,1,.723,1.219A1.025,1.025,0,0,1,16.722,28.078Z" transform="translate(-9.65 -10.25)"/>
        </g>
        <g id="Grupo_1150923" data-name="Grupo 1150923" transform="translate(46.613 47.66)">
          <path id="Trazado_998305" data-name="Trazado 998305" d="M58.216,72.547H50.18a1.012,1.012,0,0,1-1-1V67.7a15.525,15.525,0,0,1-4.8-2.625l-3.241,2.09a.959.959,0,0,1-.763.134,1,1,0,0,1-.63-.442L36.21,61.363A1,1,0,1,1,37.9,60.278l2.987,4.648L43.9,62.984a1.008,1.008,0,0,1,1.205.094,13.494,13.494,0,0,0,5.331,2.907,1.017,1.017,0,0,1,.737.964v3.576H57.2V66.948a.989.989,0,0,1,.737-.964,13.758,13.758,0,0,0,5.331-2.907,1.008,1.008,0,0,1,1.205-.094l3.014,1.942,3.255-5.063-3-1.929a1,1,0,0,1-.415-1.139,13.518,13.518,0,0,0,0-7.983,1,1,0,0,1,.415-1.139l3-1.929-3.255-5.063-3.014,1.942a1.008,1.008,0,0,1-1.205-.094A13.574,13.574,0,0,0,58.458,39.8a1.008,1.008,0,1,1,.63-1.915,15.754,15.754,0,0,1,4.929,2.639l3.241-2.09a.994.994,0,0,1,.75-.134,1,1,0,0,1,.63.442L72.99,45.5a1.016,1.016,0,0,1-.308,1.393l-3.215,2.049a15.564,15.564,0,0,1,0,7.688L72.7,58.711A1,1,0,0,1,72.99,60.1l-4.353,6.764a1,1,0,0,1-.63.442,1.046,1.046,0,0,1-.75-.134l-3.241-2.09a15.808,15.808,0,0,1-4.8,2.625v3.831a1,1,0,0,1-1,1Z" transform="translate(-36.053 -37.833)"/>
        </g>
        <g id="Grupo_1150924" data-name="Grupo 1150924" transform="translate(56.766 53.841)">
          <path id="Trazado_998306" data-name="Trazado 998306" d="M51.625,60.265a9.067,9.067,0,0,1-7.862-4.581,1,1,0,0,1,.375-1.366.992.992,0,0,1,1.366.375A7.025,7.025,0,1,0,53.326,44.42.993.993,0,0,1,52.6,43.2a1,1,0,0,1,1.219-.723,9.03,9.03,0,0,1-2.2,17.788Z" transform="translate(-43.634 -42.447)"/>
        </g>
      </g>
    </g>
  </g>
</svg>
