<svg xmlns="http://www.w3.org/2000/svg" xmlns:xlink="http://www.w3.org/1999/xlink" width="295" height="267" viewBox="0 0 295 267">
  <defs>
    <clipPath id="clip-path">
      <rect id="Rectángulo_425057" data-name="Rectángulo 425057" width="269.462" height="230.995" fill="none"/>
    </clipPath>
  </defs>
  <g id="Grupo_1180947" data-name="Grupo 1180947" transform="translate(-704.711 -3279)">
    <rect id="Rectángulo_35929" data-name="Rectángulo 35929" width="295" height="267" transform="translate(704.711 3279)" fill="#3571c7"/>
    <g id="Grupo_1142218" data-name="Grupo 1142218" transform="translate(717.479 3296.995)">
      <g id="Grupo_1142217" data-name="Grupo 1142217" clip-path="url(#clip-path)">
        <path id="Trazado_994562" data-name="Trazado 994562" d="M235.035,186.539H47.045V75.321a4.445,4.445,0,0,1,4.445-4.445h179.1a4.445,4.445,0,0,1,4.445,4.445Z" fill="#0b489b"/>
        <path id="Trazado_994646" data-name="Trazado 994646" d="M0,0H166.885V97.5H0Z" transform="translate(57.598 79.956)" fill="#f3f9ff"/>
        <path id="Trazado_994563" data-name="Trazado 994563" d="M254.341,227.946h0c0,.026,0,.052,0,.077Z" fill="#003ca6"/>
        <path id="Trazado_994564" data-name="Trazado 994564" d="M253.338,228.971l-223.154.021a1,1,0,0,1-1-.982h-.007v2h0a1.008,1.008,0,0,0,1.007.986l223.154-.021a1.007,1.007,0,0,0,1-1.087v-1.828a1.007,1.007,0,0,1-1,.912" fill="#003ca6"/>
        <path id="Trazado_994565" data-name="Trazado 994565" d="M45.856,186,29.249,227.612a.98.98,0,0,0-.066.4,1,1,0,0,0,1,.982l223.154-.021a1.007,1.007,0,0,0,1-.912.2.2,0,0,0,0-.035c0-.026,0-.052,0-.078a1,1,0,0,0-.082-.4L235.562,186Zm187.193,18.748-8.051.009-8.918.01-8.463.009a.6.6,0,0,1-.578-.438l-1.538-5.5a.586.586,0,0,1,.024-.387l-.024-.087a.6.6,0,0,1,.576-.76l7.906-.01,8.7-.011,8.281-.011a.6.6,0,0,1,.561.387l2.088,5.505a.591.591,0,0,1-.011.446l.011.028a.6.6,0,0,1-.56.812m-40.695,8.225a.59.59,0,0,1-.029.34l.029.133a.6.6,0,0,1-.586.727l-14.8.013a.6.6,0,0,1-.593-.5l-.877-5.5a.6.6,0,0,1,.029-.293l-.029-.181a.6.6,0,0,1,.592-.693L190.572,207a.6.6,0,0,1,.586.472Zm-22.417.066a.593.593,0,0,1-.027.273l.027.2a.6.6,0,0,1-.593.68l-14.818.014a.6.6,0,0,1-.6-.553l-.431-5.494a.587.587,0,0,1,.021-.2l-.021-.272a.6.6,0,0,1,.6-.646l14.5-.016a.6.6,0,0,1,.594.519Zm-22.424.069a.571.571,0,0,1-.017.166l.017.307a.6.6,0,0,1-.6.632l-14.824.014a.6.6,0,0,1-.6-.6l0-.468,0-.006.015-5.491a.6.6,0,0,1,.6-.6l14.506-.016a.6.6,0,0,1,.6.567Zm-105.692-.06,1.8-5.48a.6.6,0,0,1,.569-.413l21.505-.022,2.324,0,12.623-.013a.6.6,0,0,1,.59.71l-.03.157a.593.593,0,0,1,.03.317l-1.033,5.485a.6.6,0,0,1-.588.488l-13.181.012-2.381,0-21.654.02a.6.6,0,0,1-.57-.786l.017-.054a.592.592,0,0,1-.017-.42m3.065-9.351,1.8-5.48a.6.6,0,0,1,.569-.412l8.33-.011,8.764-.011,8.013-.01a.6.6,0,0,1,.585.731l-.028.126a.593.593,0,0,1,.028.348L71.7,204.461a.6.6,0,0,1-.584.467l-8.511.01-8.988.01-8.161.009a.6.6,0,0,1-.57-.786l.017-.054a.592.592,0,0,1-.017-.42M70.77,188.423l13.392-.02a.6.6,0,0,1,.589.71l-.029.157a.589.589,0,0,1,.029.316l-1.032,5.485a.6.6,0,0,1-.588.489l-13.711.018a.6.6,0,0,1-.582-.743l.027-.111a.584.584,0,0,1-.027-.362l1.351-5.483a.6.6,0,0,1,.581-.456m116.311.3,1.2,5.5a.592.592,0,0,1-.029.34l.029.133a.6.6,0,0,1-.585.727l-13.718.018a.6.6,0,0,1-.593-.5l-.877-5.5a.6.6,0,0,1,.029-.293l-.029-.181a.6.6,0,0,1,.591-.694l13.4-.02a.6.6,0,0,1,.587.472m-7.593,14.912a.587.587,0,0,1-.03.307l.03.166a.6.6,0,0,1-.59.7l-14.269.016a.6.6,0,0,1-.6-.528l-.655-5.5a.611.611,0,0,1,.026-.257l-.026-.216a.6.6,0,0,1,.6-.67l13.95-.018a.6.6,0,0,1,.591.495Zm-58.807.616.014-.325a.559.559,0,0,1-.014-.148l.237-5.491a.6.6,0,0,1,.6-.573l13.963-.018a.6.6,0,0,1,.6.59l.081,5.493c0,.012-.006.022-.007.034l.007.439a.6.6,0,0,1-.6.608l-14.281.016a.6.6,0,0,1-.6-.625m21.672.025-.208-5.494a.528.528,0,0,1,.015-.087l-.015-.386a.6.6,0,0,1,.6-.622l13.96-.018a.6.6,0,0,1,.6.542l.527,5.495a.613.613,0,0,1-.024.227l.024.247a.6.6,0,0,1-.6.656l-14.279.016a.6.6,0,0,1-.6-.576M166.631,188.8l.749,5.5a.593.593,0,0,1-.027.273l.027.2a.6.6,0,0,1-.593.68l-13.732.018a.6.6,0,0,1-.6-.552l-.431-5.495a.584.584,0,0,1,.021-.2l-.021-.272a.6.6,0,0,1,.6-.647l13.414-.02a.6.6,0,0,1,.6.519m-20.458.078.3,5.494a.546.546,0,0,1-.017.167l.017.307a.6.6,0,0,1-.6.632l-13.738.019a.6.6,0,0,1-.6-.6l0-.468,0-.006.015-5.492a.6.6,0,0,1,.6-.6l13.42-.021a.6.6,0,0,1,.6.566M99.016,203.75l.683-5.488a.6.6,0,0,1,.594-.525l13.957-.018a.6.6,0,0,1,.6.639l-.019.29a.623.623,0,0,1,.019.184l-.364,5.489a.6.6,0,0,1-.6.559l-14.276.017a.6.6,0,0,1-.6-.674l.026-.211a.6.6,0,0,1-.026-.262m-5.4-4.843-.81,5.486a.6.6,0,0,1-.592.512l-14.263.016a.6.6,0,0,1-.587-.721l.029-.142a.587.587,0,0,1-.029-.331l1.128-5.484a.6.6,0,0,1,.586-.479l13.945-.018a.6.6,0,0,1,.593.687l-.028.191a.583.583,0,0,1,.028.283m-6.377,15.36a.6.6,0,0,1-.592-.7l.029-.176a.581.581,0,0,1-.029-.3l.9-5.486a.6.6,0,0,1,.591-.5l14.5-.015a.6.6,0,0,1,.6.663l-.024.231a.613.613,0,0,1,.024.243l-.587,5.487a.6.6,0,0,1-.6.536Zm21.829-.669.022-.265a.58.58,0,0,1-.022-.209l.46-5.489a.6.6,0,0,1,.6-.549l14.5-.015a.6.6,0,0,1,.6.615l-.01.413c0,.021.011.039.01.06l-.142,5.491a.6.6,0,0,1-.6.584l-14.823.013a.6.6,0,0,1-.6-.649m77.247-8.8a.6.6,0,0,1-.588-.482l-1.1-5.5a.587.587,0,0,1,.029-.326l-.029-.148a.6.6,0,0,1,.587-.717l13.932-.017a.6.6,0,0,1,.581.449l1.419,5.5a.594.594,0,0,1-.027.372l.027.1a.6.6,0,0,1-.58.749Zm41.652-16.228,2.088,5.5a.6.6,0,0,1-.01.446l.01.028a.6.6,0,0,1-.56.812l-13.668.018a.6.6,0,0,1-.571-.416l-1.769-5.5a.6.6,0,0,1,.018-.417l-.018-.057a.6.6,0,0,1,.57-.783l13.349-.02a.6.6,0,0,1,.561.387m-34.39-.336,13.377-.02a.6.6,0,0,1,.576.428l1.641,5.5a.593.593,0,0,1-.021.4l.021.073a.6.6,0,0,1-.573.771l-13.7.018a.6.6,0,0,1-.583-.459l-1.323-5.5a.587.587,0,0,1,.027-.358l-.027-.115a.6.6,0,0,1,.582-.74m-67.865.719-.011.414c0,.021.011.039.011.06l-.142,5.491a.6.6,0,0,1-.6.583l-13.737.019a.6.6,0,0,1-.6-.65l.022-.264a.6.6,0,0,1-.022-.209l.46-5.489a.6.6,0,0,1,.6-.549l13.419-.021a.6.6,0,0,1,.6.615m-20.474.08-.025.231a.591.591,0,0,1,.025.242L104.646,195a.6.6,0,0,1-.6.535l-13.728.019a.6.6,0,0,1-.592-.7l.029-.176a.6.6,0,0,1-.029-.3l.906-5.485a.6.6,0,0,1,.59-.5l13.409-.021a.6.6,0,0,1,.6.664m-57.282,5.312,1.8-5.48a.6.6,0,0,1,.569-.413l13.367-.02a.6.6,0,0,1,.58.755l-.025.094a.591.591,0,0,1,.025.38l-1.478,5.481a.6.6,0,0,1-.578.444l-13.686.018a.6.6,0,0,1-.57-.786l.017-.053a.593.593,0,0,1-.017-.42M56.7,217.722,55.219,223.2a.6.6,0,0,1-.578.443l-15.315.011a.6.6,0,0,1-.57-.786l.018-.053a.587.587,0,0,1-.018-.42l1.8-5.48a.6.6,0,0,1,.569-.413l15-.013a.6.6,0,0,1,.579.756l-.025.093a.591.591,0,0,1,.025.38m22.769-.064-1.033,5.485a.6.6,0,0,1-.588.488l-15.34.011a.6.6,0,0,1-.582-.743l.027-.111a.591.591,0,0,1-.027-.362l1.351-5.483a.6.6,0,0,1,.581-.456l15.021-.013a.6.6,0,0,1,.59.71l-.03.157a.593.593,0,0,1,.03.317m114.926,5.166a.6.6,0,0,1-.585.726l-15.858.011-6.641,0-16.6.012-6.641,0-16.6.012-6.64.005-16.6.011-22.534.016a.6.6,0,0,1-.592-.7l.029-.176a.6.6,0,0,1-.029-.3l.9-5.486a.6.6,0,0,1,.591-.5l22.191-.019L125,216.435l6.486-.005,16.213-.014,6.486-.005L170.4,216.4l6.485-.005,15.73-.013a.6.6,0,0,1,.587.472l1.195,5.5a.591.591,0,0,1-.029.34Zm4.432-9.117-1.323-5.5a.6.6,0,0,1,.028-.359l-.028-.115a.6.6,0,0,1,.582-.74l12.522-.013,2.389,0,21.525-.023a.6.6,0,0,1,.561.387l2.087,5.505a.587.587,0,0,1-.01.446l.01.028a.6.6,0,0,1-.559.812l-21.615.019-2.448,0-13.138.011a.6.6,0,0,1-.583-.459m18.738,9.056a.6.6,0,0,1-.574.771l-15.325.011a.6.6,0,0,1-.583-.459l-1.323-5.5a.586.586,0,0,1,.028-.358l-.028-.115a.6.6,0,0,1,.582-.74l15.007-.013a.6.6,0,0,1,.575.428l1.641,5.5a.587.587,0,0,1-.022.4Zm23.164-.057a.6.6,0,0,1-.56.812l-15.3.011a.6.6,0,0,1-.571-.416l-1.77-5.5a.592.592,0,0,1,.019-.416l-.019-.057a.6.6,0,0,1,.571-.783l14.978-.013a.6.6,0,0,1,.56.387l2.088,5.5a.594.594,0,0,1-.01.447Z" fill="#0b489b"/>
        <path id="Trazado_994566" data-name="Trazado 994566" d="M54.64,223.174l-15.315.011a.6.6,0,0,1-.552-.366l-.018.053a.6.6,0,0,0,.57.786l15.315-.01a.6.6,0,0,0,.578-.444l1.478-5.482a.591.591,0,0,0-.025-.38l-1.453,5.389a.6.6,0,0,1-.578.443" fill="#0f3872"/>
        <path id="Trazado_994567" data-name="Trazado 994567" d="M77.844,223.157l-15.339.011a.6.6,0,0,1-.555-.38l-.027.111a.6.6,0,0,0,.582.742l15.339-.01a.6.6,0,0,0,.589-.489l1.032-5.485a.594.594,0,0,0-.029-.317l-1,5.328a.6.6,0,0,1-.589.489" fill="#0f3872"/>
        <path id="Trazado_994568" data-name="Trazado 994568" d="M193.807,223.076l-15.858.011-6.641,0-16.6.011-6.64.005-16.6.012-6.64,0-16.6.012-22.535.016a.6.6,0,0,1-.563-.4l-.029.176a.6.6,0,0,0,.592.7l22.535-.016,16.6-.011,6.64-.005,16.6-.011,6.64-.005,16.6-.012,6.641,0,15.858-.011a.6.6,0,0,0,.585-.727l-.029-.133a.6.6,0,0,1-.556.386" fill="#0f3872"/>
        <path id="Trazado_994569" data-name="Trazado 994569" d="M216.988,223.06l-15.325.011a.6.6,0,0,1-.583-.459l-1.295-5.386a.59.59,0,0,0-.028.359l1.323,5.5a.6.6,0,0,0,.583.459l15.325-.01a.6.6,0,0,0,.574-.771l-.022-.073a.6.6,0,0,1-.552.37" fill="#0f3872"/>
        <path id="Trazado_994570" data-name="Trazado 994570" d="M240.166,223.044l-15.3.011a.6.6,0,0,1-.571-.416l-1.751-5.447a.6.6,0,0,0-.019.417l1.77,5.5a.6.6,0,0,0,.571.416l15.3-.01a.6.6,0,0,0,.56-.812l-.01-.028a.6.6,0,0,1-.55.366" fill="#0f3872"/>
        <path id="Trazado_994571" data-name="Trazado 994571" d="M42.391,214.307l21.654-.02,2.381,0,13.181-.011a.6.6,0,0,0,.588-.489l1.033-5.485a.594.594,0,0,0-.03-.317l-1,5.328a.6.6,0,0,1-.588.489l-13.181.012-2.381,0-21.654.019a.6.6,0,0,1-.553-.365l-.017.053a.6.6,0,0,0,.57.786" fill="#0f3872"/>
        <path id="Trazado_994572" data-name="Trazado 994572" d="M102.642,213.718l.587-5.488a.593.593,0,0,0-.025-.242l-.562,5.256a.6.6,0,0,1-.6.536l-14.814.013a.6.6,0,0,1-.562-.4l-.03.176a.6.6,0,0,0,.592.7l14.814-.013a.6.6,0,0,0,.6-.536" fill="#0f3872"/>
        <path id="Trazado_994573" data-name="Trazado 994573" d="M109.66,214.247l14.823-.013a.6.6,0,0,0,.6-.584l.142-5.491c0-.021-.009-.039-.011-.06l-.131,5.077a.6.6,0,0,1-.6.584l-14.823.013a.6.6,0,0,1-.576-.44l-.022.265a.6.6,0,0,0,.6.649" fill="#0f3872"/>
        <path id="Trazado_994574" data-name="Trazado 994574" d="M146.915,213.74l-14.824.014a.6.6,0,0,1-.6-.6v.467a.6.6,0,0,0,.6.6l14.824-.013a.6.6,0,0,0,.6-.633l-.017-.306a.6.6,0,0,1-.581.465" fill="#0f3872"/>
        <path id="Trazado_994575" data-name="Trazado 994575" d="M169.344,213.719l-14.818.013a.6.6,0,0,1-.6-.552l-.41-5.223a.592.592,0,0,0-.021.2l.431,5.5a.6.6,0,0,0,.6.552l14.818-.013a.6.6,0,0,0,.593-.681l-.027-.2a.6.6,0,0,1-.566.407" fill="#0f3872"/>
        <path id="Trazado_994576" data-name="Trazado 994576" d="M191.768,213.7l-14.8.013a.6.6,0,0,1-.592-.505l-.848-5.316a.583.583,0,0,0-.029.292l.877,5.5a.6.6,0,0,0,.592.505l14.8-.013a.6.6,0,0,0,.585-.727l-.029-.133a.6.6,0,0,1-.556.386" fill="#0f3872"/>
        <path id="Trazado_994577" data-name="Trazado 994577" d="M214.993,214.152l21.614-.019a.6.6,0,0,0,.56-.812l-.01-.028a.6.6,0,0,1-.55.366l-21.614.019-2.448,0-13.138.011a.6.6,0,0,1-.583-.459l-1.295-5.385a.594.594,0,0,0-.028.358l1.323,5.5a.6.6,0,0,0,.583.459l13.138-.012Z" fill="#0f3872"/>
        <path id="Trazado_994578" data-name="Trazado 994578" d="M45.456,204.957l8.16-.009,8.989-.01,8.511-.01a.6.6,0,0,0,.584-.466l1.243-5.484a.582.582,0,0,0-.029-.347L71.7,203.988a.6.6,0,0,1-.584.467l-8.511.009-8.989.01-8.16.009a.6.6,0,0,1-.553-.365l-.017.053a.6.6,0,0,0,.57.786" fill="#0f3872"/>
        <path id="Trazado_994579" data-name="Trazado 994579" d="M92.209,204.431l-14.263.016a.6.6,0,0,1-.558-.389l-.029.142a.6.6,0,0,0,.587.721l14.263-.016a.6.6,0,0,0,.592-.512l.81-5.486a.583.583,0,0,0-.028-.283l-.782,5.3a.6.6,0,0,1-.592.512" fill="#0f3872"/>
        <path id="Trazado_994580" data-name="Trazado 994580" d="M99.611,204.9l14.276-.016a.6.6,0,0,0,.6-.56l.365-5.489a.613.613,0,0,0-.019-.183l-.346,5.2a.6.6,0,0,1-.6.559l-14.276.016a.6.6,0,0,1-.569-.411l-.027.212a.6.6,0,0,0,.6.673" fill="#0f3872"/>
        <path id="Trazado_994581" data-name="Trazado 994581" d="M121.28,204.872l14.281-.016a.6.6,0,0,0,.6-.608l-.007-.439a.6.6,0,0,1-.592.573l-14.281.016a.6.6,0,0,1-.585-.476l-.014.325a.6.6,0,0,0,.6.625" fill="#0f3872"/>
        <path id="Trazado_994582" data-name="Trazado 994582" d="M142.952,204.848l14.28-.016a.6.6,0,0,0,.6-.656l-.024-.247a.6.6,0,0,1-.571.429l-14.28.016a.6.6,0,0,1-.6-.576l-.192-5.107a.417.417,0,0,0-.015.087l.207,5.493a.6.6,0,0,0,.6.577" fill="#0f3872"/>
        <path id="Trazado_994583" data-name="Trazado 994583" d="M178.9,204.334l-14.269.016a.6.6,0,0,1-.6-.529l-.629-5.28a.617.617,0,0,0-.026.258l.655,5.5a.6.6,0,0,0,.6.529l14.269-.016a.6.6,0,0,0,.59-.7l-.03-.166a.6.6,0,0,1-.56.4" fill="#0f3872"/>
        <path id="Trazado_994584" data-name="Trazado 994584" d="M201.141,204.035l-.026-.1a.6.6,0,0,1-.554.377l-14.251.016a.6.6,0,0,1-.589-.482l-1.071-5.352a.6.6,0,0,0-.028.327l1.1,5.5a.6.6,0,0,0,.589.482l14.251-.016a.6.6,0,0,0,.58-.749" fill="#0f3872"/>
        <path id="Trazado_994585" data-name="Trazado 994585" d="M233.608,203.936l-.01-.027a.6.6,0,0,1-.55.365l-8.051.009-8.918.01-8.463.01a.6.6,0,0,1-.578-.439l-1.514-5.415a.593.593,0,0,0-.024.387l1.538,5.5a.6.6,0,0,0,.578.438l8.463-.009,8.918-.01,8.051-.009a.6.6,0,0,0,.56-.812" fill="#0f3872"/>
        <path id="Trazado_994586" data-name="Trazado 994586" d="M48.521,195.606l13.686-.018a.6.6,0,0,0,.578-.444l1.478-5.481a.591.591,0,0,0-.026-.38l-1.452,5.388a.6.6,0,0,1-.578.443l-13.686.018a.6.6,0,0,1-.553-.365l-.017.053a.6.6,0,0,0,.57.786" fill="#0f3872"/>
        <path id="Trazado_994587" data-name="Trazado 994587" d="M83.718,194.6a.6.6,0,0,1-.588.488l-13.71.019a.6.6,0,0,1-.556-.38l-.027.111a.6.6,0,0,0,.583.743l13.71-.019a.6.6,0,0,0,.588-.488l1.033-5.485a.593.593,0,0,0-.03-.317Z" fill="#0f3872"/>
        <path id="Trazado_994588" data-name="Trazado 994588" d="M104.645,194.522a.6.6,0,0,1-.595.535l-13.727.019a.6.6,0,0,1-.564-.4l-.029.176a.6.6,0,0,0,.593.7l13.727-.019a.6.6,0,0,0,.595-.535l.587-5.488a.6.6,0,0,0-.025-.243Z" fill="#0f3872"/>
        <path id="Trazado_994589" data-name="Trazado 994589" d="M125.565,194.446a.6.6,0,0,1-.6.584l-13.737.018a.6.6,0,0,1-.576-.44l-.022.264a.6.6,0,0,0,.6.65l13.737-.019a.6.6,0,0,0,.6-.583l.142-5.491c0-.021-.009-.039-.011-.06Z" fill="#0f3872"/>
        <path id="Trazado_994590" data-name="Trazado 994590" d="M145.878,195l-13.738.019a.6.6,0,0,1-.6-.6v.467a.6.6,0,0,0,.6.6l13.738-.018a.6.6,0,0,0,.6-.633l-.018-.306a.6.6,0,0,1-.581.465" fill="#0f3872"/>
        <path id="Trazado_994591" data-name="Trazado 994591" d="M166.787,194.973l-13.732.018a.6.6,0,0,1-.6-.552l-.41-5.223a.616.616,0,0,0-.022.2l.432,5.495a.6.6,0,0,0,.6.552l13.732-.018a.6.6,0,0,0,.593-.681l-.027-.2a.6.6,0,0,1-.566.408" fill="#0f3872"/>
        <path id="Trazado_994592" data-name="Trazado 994592" d="M187.691,194.945l-13.718.018a.6.6,0,0,1-.593-.505l-.848-5.316a.6.6,0,0,0-.029.292l.877,5.5a.6.6,0,0,0,.593.5l13.718-.018a.6.6,0,0,0,.585-.727l-.029-.133a.6.6,0,0,1-.556.386" fill="#0f3872"/>
        <path id="Trazado_994593" data-name="Trazado 994593" d="M208.592,194.917l-13.7.018a.6.6,0,0,1-.582-.459l-1.295-5.385a.579.579,0,0,0-.028.358l1.323,5.5a.6.6,0,0,0,.582.459l13.7-.018a.6.6,0,0,0,.573-.771l-.02-.073a.6.6,0,0,1-.553.37" fill="#0f3872"/>
        <path id="Trazado_994594" data-name="Trazado 994594" d="M229.49,194.889l-13.668.018a.6.6,0,0,1-.571-.416l-1.751-5.446a.587.587,0,0,0-.018.416l1.769,5.5a.6.6,0,0,0,.571.416l13.668-.018a.6.6,0,0,0,.56-.812l-.011-.028a.594.594,0,0,1-.549.366" fill="#0f3872"/>
        <path id="Trazado_994595" data-name="Trazado 994595" d="M56.118,216.493l-15,.013a.6.6,0,0,0-.569.412l-1.8,5.48a.6.6,0,0,0,.57.786l15.315-.01a.6.6,0,0,0,.578-.444l1.453-5.388.025-.094a.6.6,0,0,0-.579-.755" fill="#fff"/>
        <path id="Trazado_994596" data-name="Trazado 994596" d="M78.876,216.474l-15.021.013a.6.6,0,0,0-.581.456l-1.351,5.483a.6.6,0,0,0,.582.742l15.339-.01a.6.6,0,0,0,.589-.489l1-5.328.03-.157a.6.6,0,0,0-.59-.71" fill="#fff"/>
        <path id="Trazado_994597" data-name="Trazado 994597" d="M194.392,222.35l-1.195-5.5a.6.6,0,0,0-.587-.472l-15.73.013-6.485.005-16.214.014-6.485.005-16.213.014-6.486.005-16.213.014-22.191.019a.6.6,0,0,0-.591.5l-.9,5.486a.584.584,0,0,0,.029.3.6.6,0,0,0,.562.4l22.535-.016,16.6-.011,6.641-.005,16.6-.011,6.641,0,16.6-.011,6.641-.005,15.858-.011a.607.607,0,0,0,.585-.727" fill="#fff"/>
        <path id="Trazado_994598" data-name="Trazado 994598" d="M217.562,222.289l-1.641-5.5a.6.6,0,0,0-.575-.428l-15.007.012a.6.6,0,0,0-.582.74l.028.115,1.295,5.385a.6.6,0,0,0,.583.46l15.325-.011a.6.6,0,0,0,.552-.37.59.59,0,0,0,.022-.4" fill="#fff"/>
        <path id="Trazado_994599" data-name="Trazado 994599" d="M240.726,222.232l-2.088-5.5a.6.6,0,0,0-.56-.387l-14.978.012a.6.6,0,0,0-.571.783l.019.057,1.751,5.447a.6.6,0,0,0,.571.416l15.3-.011a.6.6,0,0,0,.56-.812" fill="#fff"/>
        <path id="Trazado_994600" data-name="Trazado 994600" d="M42.391,213.834l21.654-.02,2.381,0,13.181-.012a.6.6,0,0,0,.588-.488l1-5.328.03-.157a.6.6,0,0,0-.59-.71l-12.623.013-2.324,0-21.505.022a.6.6,0,0,0-.569.413l-1.8,5.48a.592.592,0,0,0,.017.42.6.6,0,0,0,.553.366" fill="#fff"/>
        <path id="Trazado_994601" data-name="Trazado 994601" d="M87.233,213.793l14.813-.013a.6.6,0,0,0,.6-.536l.562-5.256.025-.232a.6.6,0,0,0-.6-.663l-14.5.015a.6.6,0,0,0-.59.5l-.906,5.486a.591.591,0,0,0,.029.3.6.6,0,0,0,.563.4" fill="#fff"/>
        <path id="Trazado_994602" data-name="Trazado 994602" d="M109.66,213.773l14.823-.013a.6.6,0,0,0,.6-.584l.131-5.077.011-.414a.6.6,0,0,0-.6-.615l-14.5.016a.6.6,0,0,0-.6.549l-.46,5.489a.606.606,0,0,0,.022.209.6.6,0,0,0,.576.44" fill="#fff"/>
        <path id="Trazado_994603" data-name="Trazado 994603" d="M146.61,207.047l-14.506.015a.6.6,0,0,0-.6.6l-.015,5.492v.006a.6.6,0,0,0,.6.6l14.824-.014a.6.6,0,0,0,.581-.465.616.616,0,0,0,.017-.167l-.3-5.494a.6.6,0,0,0-.6-.566" fill="#fff"/>
        <path id="Trazado_994604" data-name="Trazado 994604" d="M168.593,207.024l-14.5.015a.6.6,0,0,0-.6.646l.021.273.41,5.222a.6.6,0,0,0,.6.552l14.818-.013a.6.6,0,0,0,.593-.68l-.75-5.5a.6.6,0,0,0-.594-.518" fill="#fff"/>
        <path id="Trazado_994605" data-name="Trazado 994605" d="M190.572,207l-14.485.015a.6.6,0,0,0-.592.694l.028.181.849,5.316a.6.6,0,0,0,.593.505l14.8-.013a.606.606,0,0,0,.585-.727l-1.2-5.5a.6.6,0,0,0-.586-.472" fill="#fff"/>
        <path id="Trazado_994606" data-name="Trazado 994606" d="M198.824,213.233a.6.6,0,0,0,.583.459l13.138-.012,2.448,0,21.614-.019a.6.6,0,0,0,.56-.812l-2.087-5.506a.6.6,0,0,0-.561-.386l-21.525.022-2.389,0-12.522.013a.6.6,0,0,0-.582.739l.028.116Z" fill="#fff"/>
        <path id="Trazado_994607" data-name="Trazado 994607" d="M45.456,204.483l8.16-.009,8.989-.01,8.511-.01a.6.6,0,0,0,.584-.466l1.214-5.358.029-.126a.6.6,0,0,0-.585-.732l-8.013.011-8.764.011-8.33.01a.6.6,0,0,0-.569.413l-1.8,5.48a.592.592,0,0,0,.017.42.6.6,0,0,0,.553.366" fill="#fff"/>
        <path id="Trazado_994608" data-name="Trazado 994608" d="M93.017,197.746l-13.944.018a.6.6,0,0,0-.587.478l-1.128,5.485a.605.605,0,0,0,.588.72l14.262-.016a.6.6,0,0,0,.593-.512l.782-5.3.028-.191a.6.6,0,0,0-.594-.687" fill="#fff"/>
        <path id="Trazado_994609" data-name="Trazado 994609" d="M99.611,204.423l14.276-.016a.6.6,0,0,0,.6-.56l.346-5.2.019-.29a.6.6,0,0,0-.6-.639l-13.958.018a.6.6,0,0,0-.594.525l-.683,5.488a.6.6,0,0,0,.6.673" fill="#fff"/>
        <path id="Trazado_994610" data-name="Trazado 994610" d="M121.28,204.4l14.281-.016a.6.6,0,0,0,.592-.574c0-.012.007-.022.007-.034l-.081-5.492a.6.6,0,0,0-.6-.591l-13.963.018a.6.6,0,0,0-.6.574l-.237,5.49a.56.56,0,0,0,.014.148.6.6,0,0,0,.585.477" fill="#fff"/>
        <path id="Trazado_994611" data-name="Trazado 994611" d="M142.353,203.8a.6.6,0,0,0,.6.577l14.278-.016a.6.6,0,0,0,.573-.43.592.592,0,0,0,.023-.227l-.526-5.495a.6.6,0,0,0-.6-.542l-13.96.018a.6.6,0,0,0-.6.622l.014.386Z" fill="#fff"/>
        <path id="Trazado_994612" data-name="Trazado 994612" d="M177.924,197.638l-13.95.018a.6.6,0,0,0-.6.67l.026.216.629,5.28a.6.6,0,0,0,.6.529l14.269-.016a.6.6,0,0,0,.56-.4.591.591,0,0,0,.03-.308l-.973-5.5a.6.6,0,0,0-.591-.495" fill="#fff"/>
        <path id="Trazado_994613" data-name="Trazado 994613" d="M185.721,203.844a.6.6,0,0,0,.588.482l14.252-.016a.6.6,0,0,0,.58-.749l-1.42-5.5a.6.6,0,0,0-.58-.45l-13.933.018a.6.6,0,0,0-.587.717l.029.147Z" fill="#fff"/>
        <path id="Trazado_994614" data-name="Trazado 994614" d="M207.616,204.3l8.463-.009,8.918-.01,8.051-.009a.6.6,0,0,0,.56-.812l-2.088-5.506a.6.6,0,0,0-.561-.386l-8.281.01-8.695.011-7.907.01a.6.6,0,0,0-.576.761l.024.086,1.514,5.416a.6.6,0,0,0,.578.438" fill="#fff"/>
        <path id="Trazado_994615" data-name="Trazado 994615" d="M48.521,195.132l13.686-.018a.6.6,0,0,0,.578-.444l1.452-5.388.026-.093a.6.6,0,0,0-.58-.756l-13.368.021a.6.6,0,0,0-.568.412l-1.8,5.48a.6.6,0,0,0,.57.786" fill="#fff"/>
        <path id="Trazado_994616" data-name="Trazado 994616" d="M68.837,194.361a.6.6,0,0,0,.583.743l13.71-.019a.6.6,0,0,0,.588-.488l1-5.328.03-.157a.6.6,0,0,0-.59-.71l-13.392.02a.6.6,0,0,0-.581.456Z" fill="#fff"/>
        <path id="Trazado_994617" data-name="Trazado 994617" d="M90.636,188.893l-.906,5.486a.608.608,0,0,0,.593.7l13.727-.019a.6.6,0,0,0,.595-.535l.563-5.257.024-.231a.6.6,0,0,0-.6-.663l-13.409.02a.6.6,0,0,0-.59.5" fill="#fff"/>
        <path id="Trazado_994618" data-name="Trazado 994618" d="M111.092,188.91l-.46,5.489a.607.607,0,0,0,.6.649l13.737-.018a.6.6,0,0,0,.6-.584l.131-5.077.011-.414a.6.6,0,0,0-.6-.615l-13.419.021a.6.6,0,0,0-.6.549" fill="#fff"/>
        <path id="Trazado_994619" data-name="Trazado 994619" d="M131.555,188.927l-.014,5.492v.006a.6.6,0,0,0,.6.6L145.879,195a.6.6,0,0,0,.581-.465.616.616,0,0,0,.017-.167l-.3-5.494a.6.6,0,0,0-.6-.566l-13.42.02a.6.6,0,0,0-.6.6" fill="#fff"/>
        <path id="Trazado_994620" data-name="Trazado 994620" d="M152.025,188.945l.021.272.41,5.223a.6.6,0,0,0,.6.552l13.732-.018a.6.6,0,0,0,.565-.408.58.58,0,0,0,.027-.273l-.749-5.5a.6.6,0,0,0-.6-.519l-13.414.021a.6.6,0,0,0-.6.646" fill="#fff"/>
        <path id="Trazado_994621" data-name="Trazado 994621" d="M172.5,188.961l.029.181.848,5.317a.6.6,0,0,0,.593.505l13.718-.019a.6.6,0,0,0,.555-.386.586.586,0,0,0,.03-.341l-1.2-5.5a.6.6,0,0,0-.587-.472l-13.4.02a.6.6,0,0,0-.591.694" fill="#fff"/>
        <path id="Trazado_994622" data-name="Trazado 994622" d="M192.989,188.976l.028.115,1.295,5.386a.6.6,0,0,0,.584.459l13.7-.019a.6.6,0,0,0,.573-.77l-1.641-5.5a.6.6,0,0,0-.575-.428l-13.378.021a.6.6,0,0,0-.582.739" fill="#fff"/>
        <path id="Trazado_994623" data-name="Trazado 994623" d="M214.051,188.205a.6.6,0,0,0-.57.783l.019.057,1.75,5.446a.6.6,0,0,0,.572.416l13.668-.018a.6.6,0,0,0,.549-.366.587.587,0,0,0,.01-.446l-2.087-5.5a.6.6,0,0,0-.562-.387Z" fill="#fff"/>
        <path id="Trazado_994624" data-name="Trazado 994624" d="M151.094,144.124A2.851,2.851,0,0,1,148.262,147l-78.761.577a2.851,2.851,0,0,1-2.873-2.832l-.4-55.133a2.854,2.854,0,0,1,2.832-2.873l78.761-.577a2.851,2.851,0,0,1,2.874,2.83Z" fill="#7a4bb0"/>
        <path id="Trazado_994625" data-name="Trazado 994625" d="M82.3,95.943a4.346,4.346,0,1,1-4.377-4.314A4.347,4.347,0,0,1,82.3,95.943" fill="#f1f4ff"/>
        <path id="Trazado_994626" data-name="Trazado 994626" d="M129.982,98.717l-42.912.316a.951.951,0,0,1-.014-1.9l42.912-.316a.951.951,0,0,1,.014,1.9" fill="#d1d8fe"/>
        <path id="Trazado_994627" data-name="Trazado 994627" d="M110.4,94.516l-23.358.17a.951.951,0,1,1-.013-1.9l23.357-.171a.951.951,0,0,1,.014,1.9" fill="#d1d8fe"/>
        <path id="Trazado_994628" data-name="Trazado 994628" d="M141.923,139.957l-65.408.48a2.347,2.347,0,0,1-2.365-2.33l-.229-31.126a2.349,2.349,0,0,1,2.331-2.365l65.409-.479a2.348,2.348,0,0,1,2.365,2.331l.227,31.124a2.348,2.348,0,0,1-2.33,2.365" fill="#f3f9ff"/>
        <path id="Trazado_994629" data-name="Trazado 994629" d="M111.454,121.617a.754.754,0,0,1,.009,1.306l-3.255,1.91-3.257,1.914a.754.754,0,0,1-1.136-.644l-.028-3.776-.028-3.776a.754.754,0,0,1,1.126-.661l3.285,1.862Z" fill="#512189"/>
        <path id="Trazado_994630" data-name="Trazado 994630" d="M148.707,167.225H69.537a2.528,2.528,0,0,1-2.528-2.528v-5.734a2.528,2.528,0,0,1,2.528-2.528h79.17a2.528,2.528,0,0,1,2.528,2.528V164.7a2.528,2.528,0,0,1-2.528,2.528" fill="#cbbfda"/>
        <path id="Trazado_994631" data-name="Trazado 994631" d="M215.548,168.724h-56.09a2.528,2.528,0,0,1-2.528-2.528V153.867a2.528,2.528,0,0,1,2.528-2.528h56.09a2.528,2.528,0,0,1,2.528,2.528V166.2a2.528,2.528,0,0,1-2.528,2.528" fill="#512189"/>
        <path id="Trazado_994632" data-name="Trazado 994632" d="M215.249,142.947h-56.09a2.528,2.528,0,0,1-2.528-2.528V128.09a2.528,2.528,0,0,1,2.528-2.528h56.09a2.528,2.528,0,0,1,2.528,2.528v12.329a2.528,2.528,0,0,1-2.528,2.528" fill="#512189"/>
        <path id="Trazado_994633" data-name="Trazado 994633" d="M261.749,131.124l-91.537,18.062a3.332,3.332,0,0,1-3.913-2.625L153.01,79.216a3.331,3.331,0,0,1,2.623-3.914L247.17,57.239a3.333,3.333,0,0,1,3.915,2.625l13.287,67.345a3.332,3.332,0,0,1-2.624,3.914" transform="translate(-6.465 -16.687)" fill="#cbbfda"/>
        <rect id="Rectángulo_425034" data-name="Rectángulo 425034" width="79.973" height="47.318" transform="translate(157.579 66.805) rotate(-11.162)" fill="#fefefe"/>
        <path id="Trazado_994634" data-name="Trazado 994634" d="M179.165,125.526s3.143-27.361,16.593-30.082,11.052,9.8,17.576,5.165,7.141-17.572,11.764-16.779c6.517,1.118,14.481,29.436,14.481,29.436Z" transform="translate(-3.536 -13.713)" fill="#512189"/>
        <path id="Trazado_994635" data-name="Trazado 994635" d="M173.268,89.233a5.528,5.528,0,1,1,6.857,3.753,5.528,5.528,0,0,1-6.857-3.753" transform="translate(-4.22 -13.896)" fill="#ffc4a3"/>
        <path id="Trazado_994636" data-name="Trazado 994636" d="M150.177,26.789l19.3,7.75A20.8,20.8,0,0,0,150.517,6Z" fill="#ffc4a3"/>
        <path id="Trazado_994637" data-name="Trazado 994637" d="M148.409,5.914a20.791,20.791,0,0,0-20.82,24.413l20.48-3.62Z" fill="#f3f9ff"/>
        <path id="Trazado_994638" data-name="Trazado 994638" d="M128.607,32.74a21.02,21.02,0,0,0,40.165,3.965l-19.505-7.831Z" fill="#0b489b"/>
        <rect id="Rectángulo_425035" data-name="Rectángulo 425035" width="4.427" height="4.062" transform="translate(1.672 63.642)" fill="#bce4fd"/>
        <rect id="Rectángulo_425036" data-name="Rectángulo 425036" width="20.88" height="2.031" transform="translate(7.665 64.658)" fill="#b6d3f1"/>
        <rect id="Rectángulo_425037" data-name="Rectángulo 425037" width="4.427" height="4.062" transform="translate(34.506 63.642)" fill="#88cdc8"/>
        <rect id="Rectángulo_425038" data-name="Rectángulo 425038" width="18.172" height="2.031" transform="translate(40.498 64.658)" fill="#b6d3f1"/>
        <rect id="Rectángulo_425039" data-name="Rectángulo 425039" width="4.426" height="4.062" transform="translate(65.308 63.642)" fill="#97beed"/>
        <rect id="Rectángulo_425040" data-name="Rectángulo 425040" width="18.173" height="2.031" transform="translate(71.3 64.658)" fill="#b6d3f1"/>
        <rect id="Rectángulo_425041" data-name="Rectángulo 425041" width="3.371" height="11.095" transform="translate(98.826 47.157)" fill="#0b489b"/>
        <rect id="Rectángulo_425042" data-name="Rectángulo 425042" width="3.368" height="14.662" transform="translate(92.362 43.59)" fill="#f3f9ff"/>
        <rect id="Rectángulo_425043" data-name="Rectángulo 425043" width="3.374" height="8.882" transform="translate(85.895 49.37)" fill="#0b489b"/>
        <rect id="Rectángulo_425044" data-name="Rectángulo 425044" width="3.372" height="20.65" transform="translate(79.431 37.602)" fill="#88cdc8"/>
        <rect id="Rectángulo_425045" data-name="Rectángulo 425045" width="3.372" height="16.915" transform="translate(72.967 41.337)" fill="#0b489b"/>
        <rect id="Rectángulo_425046" data-name="Rectángulo 425046" width="3.369" height="22.922" transform="translate(66.504 35.33)" fill="#88cdc8"/>
        <rect id="Rectángulo_425047" data-name="Rectángulo 425047" width="3.372" height="9.235" transform="translate(60.038 49.017)" fill="#f3f9ff"/>
        <rect id="Rectángulo_425048" data-name="Rectángulo 425048" width="3.367" height="15.014" transform="translate(53.576 43.238)" fill="#88cdc8"/>
        <rect id="Rectángulo_425049" data-name="Rectángulo 425049" width="3.368" height="19.86" transform="translate(47.11 38.392)" fill="#f3f9ff"/>
        <rect id="Rectángulo_425050" data-name="Rectángulo 425050" width="3.376" height="25.182" transform="translate(40.642 33.07)" fill="#0b489b"/>
        <rect id="Rectángulo_425051" data-name="Rectángulo 425051" width="3.371" height="21.585" transform="translate(34.18 36.667)" fill="#88cdc8"/>
        <rect id="Rectángulo_425052" data-name="Rectángulo 425052" width="3.372" height="28.183" transform="translate(27.715 30.069)" fill="#f3f9ff"/>
        <rect id="Rectángulo_425053" data-name="Rectángulo 425053" width="3.37" height="17.289" transform="translate(21.251 40.963)" fill="#0b489b"/>
        <rect id="Rectángulo_425054" data-name="Rectángulo 425054" width="3.37" height="14.472" transform="translate(14.787 43.78)" fill="#88cdc8"/>
        <rect id="Rectángulo_425055" data-name="Rectángulo 425055" width="3.372" height="22.288" transform="translate(8.32 35.964)" fill="#f3f9ff"/>
        <rect id="Rectángulo_425056" data-name="Rectángulo 425056" width="3.372" height="19.516" transform="translate(1.856 38.736)" fill="#0b489b"/>
        <path id="Trazado_994639" data-name="Trazado 994639" d="M45.076,25.668a10.986,10.986,0,0,1-7.3-2.747l7.664-7.665H56.12A11.064,11.064,0,0,1,45.076,25.668" fill="#bce4fd"/>
        <path id="Trazado_994640" data-name="Trazado 994640" d="M45.8,13.574V3.563A10.985,10.985,0,0,1,56.088,13.574Z" fill="#ffc4a3"/>
        <path id="Trazado_994641" data-name="Trazado 994641" d="M45.076,25.668a10.986,10.986,0,0,1-7.3-2.747l7.664-7.665H56.12A11.064,11.064,0,0,1,45.076,25.668" fill="#f3f9ff"/>
        <path id="Trazado_994642" data-name="Trazado 994642" d="M43.45,0a14.052,14.052,0,0,0-9.533,23.336L43.45,13.6Z" fill="#0b489b"/>
        <path id="Trazado_994643" data-name="Trazado 994643" d="M14.048,12.908V2.9A10.989,10.989,0,0,1,24.34,12.908Z" fill="#cbbfda"/>
        <path id="Trazado_994644" data-name="Trazado 994644" d="M11.522,14.366V.688A13.371,13.371,0,1,0,20.057,25.51Z" fill="#0b489b"/>
        <path id="Trazado_994645" data-name="Trazado 994645" d="M15.174,14.59c1.327,1.708,3.583,4.613,5.737,7.4.079-.074.162-.145.24-.223A10.973,10.973,0,0,0,24.37,14.59Z" fill="#f3f9ff"/>
      </g>
    </g>
  </g>
</svg>
