<svg xmlns="http://www.w3.org/2000/svg" xmlns:xlink="http://www.w3.org/1999/xlink" width="295" height="139.748" viewBox="0 0 295 139.748">
  <defs>
    <clipPath id="clip-path">
      <rect id="Rectángulo_439119" data-name="Rectángulo 439119" width="175.604" height="139.748" fill="none"/>
    </clipPath>
  </defs>
  <g id="Grupo_1180948" data-name="Grupo 1180948" transform="translate(-179.711 -3912.667)">
    <path id="Rectángulo_439112" data-name="Rectángulo 439112" d="M10,0H285a10,10,0,0,1,10,10v96a0,0,0,0,1,0,0H0a0,0,0,0,1,0,0V10A10,10,0,0,1,10,0Z" transform="translate(179.711 3942)" fill="#b4e6d2"/>
    <g id="Grupo_1176705" data-name="Grupo 1176705" transform="translate(239.408 3912.667)">
      <g id="Grupo_1176704" data-name="Grupo 1176704" clip-path="url(#clip-path)">
        <path id="Trazado_1002849" data-name="Trazado 1002849" d="M216.739,109.43a15.518,15.518,0,0,0-14.525-15.485A18.8,18.8,0,0,0,183.608,72.42a18.718,18.718,0,0,0-10.642,3.3,25.066,25.066,0,0,0-46.95,11.687c-.5-.039-1-.065-1.506-.065a18.8,18.8,0,0,0-.3,37.6v.007h78.5l-.012-.072a15.521,15.521,0,0,0,14.04-15.448" transform="translate(-67.109 -39.912)" fill="#3571c7"/>
        <path id="Trazado_1002850" data-name="Trazado 1002850" d="M170.128,147.751a17.679,17.679,0,0,0-16.547-17.641,21.417,21.417,0,0,0-21.195-24.521,21.318,21.318,0,0,0-12.123,3.762A28.555,28.555,0,0,0,66.78,122.664c-.566-.045-1.137-.074-1.715-.074a21.418,21.418,0,0,0-.338,42.833l0,.008h89.423l-.013-.082a17.681,17.681,0,0,0,15.994-17.6" transform="translate(-27.707 -60.126)" fill="#0b489b"/>
        <path id="Trazado_1002851" data-name="Trazado 1002851" d="M199.959,147.947l-.13,36.979-31.322-.089.107-30.536,7.173-6.423Z" transform="translate(-106.977 -93.88)" fill="#c5d7f4"/>
        <path id="Trazado_1002852" data-name="Trazado 1002852" d="M168.8,154.3l7.173-6.423-.023,6.443Z" transform="translate(-107.163 -93.88)" fill="#3571c7"/>
        <path id="Trazado_1002853" data-name="Trazado 1002853" d="M206.154,154.142l-.13,36.979-31.322-.089.107-30.536,7.173-6.423Z" transform="translate(-110.91 -97.813)" fill="#32deff"/>
        <path id="Trazado_1002854" data-name="Trazado 1002854" d="M175,160.5l7.173-6.423-.023,6.443Z" transform="translate(-111.096 -97.813)" fill="#3571c7"/>
        <path id="Trazado_1002855" data-name="Trazado 1002855" d="M213.867,159.927l-.13,36.979-31.322-.089.107-30.536,7.173-6.423Z" transform="translate(-115.807 -101.486)" fill="#fefefe"/>
        <path id="Trazado_1002856" data-name="Trazado 1002856" d="M190.78,175.819l26.206.076,0-1.047-26.206-.076Z" transform="translate(-121.117 -110.954)" fill="#e6e8ff"/>
        <path id="Trazado_1002857" data-name="Trazado 1002857" d="M190.783,185.461l26.206.076,0-1.047-26.206-.076Z" transform="translate(-121.119 -117.075)" fill="#e6e8ff"/>
        <path id="Trazado_1002858" data-name="Trazado 1002858" d="M190.78,197.031l26.206.076,0-1.047-26.206-.076Z" transform="translate(-121.117 -124.421)" fill="#e6e8ff"/>
        <path id="Trazado_1002859" data-name="Trazado 1002859" d="M190.783,206.673l26.206.076,0-1.047-26.206-.076Z" transform="translate(-121.119 -130.542)" fill="#e6e8ff"/>
        <path id="Trazado_1002860" data-name="Trazado 1002860" d="M190.78,218.886l26.206.076,0-1.047-26.206-.076Z" transform="translate(-121.117 -138.295)" fill="#e6e8ff"/>
        <path id="Trazado_1002861" data-name="Trazado 1002861" d="M190.783,228.528l26.206.076,0-1.047-26.206-.076Z" transform="translate(-121.119 -144.417)" fill="#e6e8ff"/>
        <path id="Trazado_1002862" data-name="Trazado 1002862" d="M190.78,240.1l26.206.076,0-1.047-26.206-.076Z" transform="translate(-121.117 -151.762)" fill="#e6e8ff"/>
        <path id="Trazado_1002863" data-name="Trazado 1002863" d="M190.783,249.741l26.206.076,0-1.047-26.206-.076Z" transform="translate(-121.119 -157.883)" fill="#e6e8ff"/>
        <path id="Trazado_1002864" data-name="Trazado 1002864" d="M182.709,166.281l7.173-6.423-.023,6.443Z" transform="translate(-115.993 -101.486)" fill="#dbd7d7"/>
        <rect id="Rectángulo_439117" data-name="Rectángulo 439117" width="25.02" height="53.801" transform="translate(144.603 60.868)" fill="#7a4bb0"/>
        <path id="Trazado_1002865" data-name="Trazado 1002865" d="M398.12,320.622l-9.246-14.43-9.246-14.43h36.983l-9.246,14.43Z" transform="translate(-241.008 -185.226)" fill="#7a4bb0"/>
        <path id="Trazado_1002866" data-name="Trazado 1002866" d="M403.295,172.927l.183,28.482-7.467-.668V166.694h23.015c-4.9,2.03-15.731,6.233-15.731,6.233" transform="translate(-251.407 -105.826)" fill="#4150d9"/>
        <path id="Trazado_1002867" data-name="Trazado 1002867" d="M343.544,56.077c-.327-.091-.667-.143-1-.229a3.274,3.274,0,0,0-.957-.16h-.046c.165-.043.269-.066.269-.066s-3.111-.237-3.021-.639,2.648.008,2.648.008-2.948-1.348-2.791-1.747,3.173.953,3.173.953-2.185-1.646-1.9-1.97,5.02,2.581,5.116,2.688-1.195.961-1.495,1.163" transform="translate(-214.986 -33.14)" fill="#613235"/>
        <path id="Trazado_1002868" data-name="Trazado 1002868" d="M351.569,54.826a10.774,10.774,0,0,1-.279-1.382s.048-.413-.538-.945-1.55-.644-1.779-.839-.316.5.513.914a1.165,1.165,0,0,1,.582,1.33Z" transform="translate(-221.447 -32.775)" fill="#613235"/>
        <path id="Trazado_1002869" data-name="Trazado 1002869" d="M343.035,60.209s.091.251-.593.388-1.734.137-1.711.411,2.191.205,2.282.205,1.962.959,2.464.707a5.241,5.241,0,0,0,1.324-1.8,5.158,5.158,0,0,1-.639-.479Z" transform="translate(-216.313 -37.862)" fill="#613235"/>
        <path id="Trazado_1002870" data-name="Trazado 1002870" d="M351.482,61.666s12.32,7.184,15.433,7.168,3.078-4.6-.9-5.618-12.912-2.8-12.912-2.8Z" transform="translate(-223.139 -38.358)" fill="#613235"/>
        <path id="Trazado_1002871" data-name="Trazado 1002871" d="M383.639,51.982c-2.017,0-14.513,5.625-14.965,5.9l-.038.026L367.1,57.5c-3.112-.732-7.593-1.657-9.907-2.128-.312.722-1.653,2.828-1.653,2.828s9.326,4.248,12.943,5.123a7.046,7.046,0,0,0,.859.292C370.6,64,383.573,59.7,383.573,59.7s2.084-7.718.067-7.717" transform="translate(-225.714 -33.001)" fill="#1b193b"/>
        <path id="Trazado_1002872" data-name="Trazado 1002872" d="M398.175,218.1l.716,9.6-3.123,1.244-1.9-9.795Z" transform="translate(-250.048 -138.458)" fill="#66393b"/>
        <path id="Trazado_1002873" data-name="Trazado 1002873" d="M390.339,240.889l.276,5.59s-10.915-.356-10.669-1.11c.234-.716,5.489-2.106,6.014-2.243l-.162-1.563Z" transform="translate(-241.206 -152.929)" fill="#1b193b"/>
        <path id="Trazado_1002874" data-name="Trazado 1002874" d="M391.519,172.684c-.607,0-6.067.607-6.067.607s-3.641-21.843-3.944-23.815-1.214-8.343,6.219-8.646,23.36-2.275,23.36-2.275,1.82,9.4-8.343,11.225-11.983,1.517-11.983,1.517Z" transform="translate(-242.072 -87.961)" fill="#dbd7d7"/>
        <path id="Trazado_1002875" data-name="Trazado 1002875" d="M424.828,49.9a6.07,6.07,0,0,0-4.8,3.2q-.318.909-.577,1.95l-.115,0c-.061.249-.121.5-.177.76l.11,0q-.055.257-.11.526c-.161.76-.3,1.563-.427,2.4h0l-.114,0c-.038.249-.076.5-.11.755l.114,0c0,.011,0,.018,0,.028-.04.274-.077.544-.11.825-.069.544-.135,1.1-.194,1.672h-.11c-.026.249-.049.5-.072.755h.1c-.011.1-.022.207-.033.313-.026.274-.047.548-.073.822-.047.544-.091,1.092-.135,1.647h-.1c-.019.249-.038.5-.053.755h.1c-.015.2-.029.416-.044.624-.018.27-.036.548-.051.822-.047.727-.095,1.457-.135,2.195h-.1c-.011.249-.026.5-.042.752h.1c-.018.336-.036.676-.055,1.015-.011.27-.029.54-.044.818,0,.088-.007.179-.015.267h-.1c-.015.253-.03.5-.045.755h.111c-.022.42-.044.839-.066,1.263-.015.274-.029.544-.044.822-.044.785-.084,1.57-.128,2.344h6l-.449-1.6,4.137-2.68.007-.075h0l.058-.754v0l.172-2.118v0l.062-.753.288-3.619v0l.062-.755v0l.226-2.808h0l.062-.755h0l.237-2.975v0l.062-.755v0l.219-2.716h0l.062-.752v0l.368-4.587a10.707,10.707,0,0,0-4.031-.365" transform="translate(-264.913 -31.648)" fill="#cbbfda"/>
        <path id="Trazado_1002876" data-name="Trazado 1002876" d="M443.176,74.474v-.005l0-.753v0l-.007-2.184v0l0-.754h0l-.015-3.628v0l0-.753v0l-.015-2.835h0v-.755h0l-.015-3.3v0l0-.749v-.006l-.011-2.5h0l0-.754h0l-.007-1.957A11.836,11.836,0,0,0,438.509,51l-.368,4.587v0l-.062.752h0l-.219,2.716v0l-.062.755v0l-.237,2.976h0l-.062.755h0l-.226,2.808h0l-.062.756v0l-.288,3.619-.062.754v0l-.172,2.118v0l-.058.754v0l-.007.075-4.137,2.68.449,1.6.646,2.3,9.552-2.3.062-.015Z" transform="translate(-274.563 -32.376)" fill="#7a4bb0"/>
        <path id="Trazado_1002877" data-name="Trazado 1002877" d="M463.832,83.12c-.026-.694-.047-1.395-.066-2.107-.007-.274-.011-.551-.018-.825-.011-.424-.022-.851-.026-1.278h.043c-.007-.253-.011-.506-.019-.759h-.035c0-.121-.007-.244-.007-.368-.007-.274-.011-.548-.015-.822-.007-.34-.011-.679-.015-1.019h.03c-.008-.253-.011-.506-.015-.755h-.03q-.016-1.1-.044-2.176c-.007-.278-.011-.551-.022-.825,0-.212-.011-.424-.018-.632h.042c-.008-.253-.011-.506-.023-.756h-.041c-.018-.577-.044-1.142-.073-1.7-.011-.274-.026-.551-.044-.822-.007-.106-.011-.212-.022-.318h.067c-.011-.253-.027-.506-.046-.756h-.069c-.062-.905-.142-1.785-.241-2.628-.029-.263-.066-.515-.1-.767v0l.1-.007c-.034-.253-.068-.5-.106-.748l-.1.007c-.1-.672-.219-1.317-.361-1.931-.037-.168-.073-.332-.113-.493v0l.113,0c-.061-.257-.125-.51-.2-.752l-.121,0a13.89,13.89,0,0,0-.7-1.93c-.007,0-.011-.011-.018-.015l.007,1.957h0l0,.755h0l.011,2.5v.006l0,.749v0l.015,3.3h0v.755h0l.015,2.835v0l0,.753v0l.015,3.628h0l0,.754v0l.007,2.184v0l0,.753v.005l.018,4.23-.062.015Z" transform="translate(-292.999 -36.776)" fill="#edb200"/>
        <path id="Trazado_1002878" data-name="Trazado 1002878" d="M369.775,193.831l-1.752,9.4-3.315.4.666-9.887Z" transform="translate(-231.536 -122.998)" fill="#784346"/>
        <path id="Trazado_1002879" data-name="Trazado 1002879" d="M357.328,214.767l-.582,5.566s-10.733-2.02-10.375-2.727c.34-.672,5.747-1.243,6.286-1.3l.079-1.569Z" transform="translate(-219.889 -136.327)" fill="#23204d"/>
        <path id="Trazado_1002880" data-name="Trazado 1002880" d="M437.19,53.08a2.846,2.846,0,0,0,2.819-2.859,11.671,11.671,0,0,0-3.418-.354c-.179.007-.358.018-.537.037a7.594,7.594,0,0,0-.752.11q-.153.027-.3.066c-.146,1.249.026,3,2.184,3" transform="translate(-276.14 -31.65)" fill="#784346"/>
        <path id="Trazado_1002881" data-name="Trazado 1002881" d="M441.922,43.245h-2.969l.062-.475.15-1.158.336-2.6,2.253-1.1Z" transform="translate(-278.67 -24.07)" fill="#784346"/>
        <path id="Trazado_1002882" data-name="Trazado 1002882" d="M411.317,56.947c.734-2.458,2.671-5.67,6.069-6.488-3.927,5.3-4.263,16.5-3.4,29.656a5.019,5.019,0,0,1-.087.756c-.165,0-6.705-1.036-6.705-1.036s3.389-20.43,4.123-22.888" transform="translate(-258.508 -32.034)" fill="#1b193b"/>
        <path id="Trazado_1002883" data-name="Trazado 1002883" d="M434,35.506a1.492,1.492,0,0,0,.36.6c.46.444,1.282.4,3.025.069a3.27,3.27,0,1,0-3.83-2.6A13.343,13.343,0,0,0,434,35.506" transform="translate(-275.208 -18.849)" fill="#784346"/>
        <path id="Trazado_1002884" data-name="Trazado 1002884" d="M431.643,42.135l1.645.071-.068-1.488-.783-.2Z" transform="translate(-274.029 -25.724)" fill="#784346"/>
        <path id="Trazado_1002885" data-name="Trazado 1002885" d="M444.382,37.034c.03-.006.693-1.035,1.26-.105a1.1,1.1,0,0,1-1.083,1.74" transform="translate(-282.116 -23.197)" fill="#784346"/>
        <path id="Trazado_1002886" data-name="Trazado 1002886" d="M436.278,37.2a.18.18,0,0,1-.129-.054c-.567-.57-1.589-.1-1.6-.095a.183.183,0,0,1-.156-.33c.051-.024,1.268-.584,2.013.168a.182.182,0,0,1-.13.311" transform="translate(-275.709 -23.173)" fill="#1b193b"/>
        <path id="Trazado_1002887" data-name="Trazado 1002887" d="M363.584,153.36l4.853-.153,4.55-20.174s17.447,7.887,25.484,5.612c4.813-1.362,5.711-6.744,5.66-10.845a27.679,27.679,0,0,0-.5-4.93,137.252,137.252,0,0,1-15.07.876h0a64.305,64.305,0,0,1-11.323-.876c-10.465-1.972-13.649,3.487-13.5,6.675s-.15,23.815-.15,23.815" transform="translate(-230.822 -77.738)" fill="#fb5415"/>
        <path id="Trazado_1002888" data-name="Trazado 1002888" d="M432.078,124.551a24.068,24.068,0,0,1,5.963,1.1l-.121,4.141,9.545-1.26a27.677,27.677,0,0,0-.5-4.93,137.252,137.252,0,0,1-15.07.876h0c-.1.051-.048.077.186.077" transform="translate(-274.156 -78.466)" fill="#ed4224"/>
        <path id="Trazado_1002889" data-name="Trazado 1002889" d="M454.5,54.635c2.692,6.184,3.756,26.1,3.756,26.1L449.3,81.6a192.188,192.188,0,0,1-.868-30.706,12.2,12.2,0,0,1,6.071,3.738" transform="translate(-284.511 -32.312)" fill="#1b193b"/>
        <path id="Trazado_1002890" data-name="Trazado 1002890" d="M424.091,111.4s14.234-.878,16.813-2.622,0-5.537-3.868-4.171-12.287,4.854-12.287,4.854Z" transform="translate(-269.235 -66.225)" fill="#784346"/>
        <path id="Trazado_1002891" data-name="Trazado 1002891" d="M439.209,76.471,438.3,61.228c1.364-2.224,2.883-2.615,4.542-1.345a107.294,107.294,0,0,1,3.952,15.3c0,.986.834,4.1-2.275,4.93-1.932,1.307-14.533,3.367-14.533,3.367s-.056-2.5-.2-3.27c2.185-.9,6.424-2.618,9.418-3.739" transform="translate(-272.853 -37.561)" fill="#23204d"/>
        <path id="Trazado_1002892" data-name="Trazado 1002892" d="M436.377,40.365h.019a.274.274,0,0,0,0-.548h-.019a.274.274,0,0,0,0,.548" transform="translate(-276.867 -25.278)" fill="#1b193b"/>
        <path id="Trazado_1002893" data-name="Trazado 1002893" d="M430.875,30a2.947,2.947,0,0,1-1.947-.365.955.955,0,0,1-.122-1.248,1.918,1.918,0,0,0,2.069.274c-.783.061-1.019-.207-1.187-.517a3.391,3.391,0,0,0,2.13-.031c1.187-.4,3.165-.761,4.23-.122a4.789,4.789,0,0,1,1.765,3.621c-.03,1.1-2.556,3.408-2.556,3.408V33.44a1.225,1.225,0,0,0,.73-.913c.061-.639-.274-1.156-.791-.822s-.517,1.43-.517,1.43h-.761l.67-1.7L433.4,31.1l.548-1.613Z" transform="translate(-272.111 -17.551)" fill="#1b193b"/>
        <path id="Trazado_1002894" data-name="Trazado 1002894" d="M435.087,45.4h-.04a.092.092,0,0,1-.089-.094.1.1,0,0,1,.094-.088c.241.009.907-.049,1.038-.4a.09.09,0,0,1,.118-.053.091.091,0,0,1,.054.117c-.183.487-.983.516-1.175.516" transform="translate(-276.134 -28.418)" fill="#47222c"/>
        <path id="Trazado_1002895" data-name="Trazado 1002895" d="M446.42,40.412a.091.091,0,0,1-.026-.179.46.46,0,0,0,.224-.348.387.387,0,0,0-.041-.334.078.078,0,0,0-.064-.02.529.529,0,0,0-.265.2.091.091,0,0,1-.145-.112.7.7,0,0,1,.391-.267.263.263,0,0,1,.2.064.527.527,0,0,1,.1.511.621.621,0,0,1-.35.485.084.084,0,0,1-.026,0" transform="translate(-283.198 -24.98)" fill="#47222c"/>
        <path id="Trazado_1002896" data-name="Trazado 1002896" d="M439.124,47.721l.15-1.158a3.629,3.629,0,0,0,1.844-.741c.635-.606-.792,1.468-1.994,1.9" transform="translate(-278.778 -29.021)" fill="#66393b"/>
        <path id="Trazado_1002897" data-name="Trazado 1002897" d="M384,150.959c1.031.174,9.185,4.842,20.535,6.228a14.668,14.668,0,0,1-1.794.435c-10.163,1.82-11.983,1.517-11.983,1.517l.758,21.388c-.607,0-6.067.607-6.067.607s-3.641-21.843-3.944-23.815c-.188-1.222-.607-4.132.868-6.242a3.276,3.276,0,0,1,1.626-.117" transform="translate(-242.073 -95.804)" fill="#bb3b0b"/>
        <path id="Trazado_1002898" data-name="Trazado 1002898" d="M416.243,114.739a1.019,1.019,0,0,0-.878.256,4.957,4.957,0,0,0-1.106,1.709c.031.291,1.742,1.638,2.179,1.031.409-.263.479-.5.489-.6a1.209,1.209,0,0,0,.351.889c.379.3,1.273,0,1.273,0l.236-1.758s-2.293-1.478-2.543-1.53" transform="translate(-262.992 -72.83)" fill="#784346"/>
        <path id="Trazado_1002899" data-name="Trazado 1002899" d="M419.453,119.8s-.661,1.335-.4,1.537.846.531,1.135.327-.178-.386-.178-.386l-.406-.141.519-1.038Z" transform="translate(-265.996 -76.056)" fill="#784346"/>
        <path id="Trazado_1002900" data-name="Trazado 1002900" d="M419.066,120.842l.724-1.088c.065-.1-.093-.19-.157-.092l-.725,1.088c-.065.1.093.19.158.092" transform="translate(-265.934 -75.941)" fill="#47222c"/>
        <path id="Trazado_1002901" data-name="Trazado 1002901" d="M417.338,119.54l.818-1.123c.069-.1-.089-.186-.158-.092l-.818,1.123c-.069.095.089.186.158.092" transform="translate(-264.837 -75.093)" fill="#47222c"/>
        <path id="Trazado_1002902" data-name="Trazado 1002902" d="M415.713,118.415l.818-1.123c.069-.1-.089-.186-.158-.092l-.818,1.123c-.069.095.089.186.158.092" transform="translate(-263.805 -74.379)" fill="#47222c"/>
        <path id="Trazado_1002903" data-name="Trazado 1002903" d="M71.968,221.505c.181.055.556.184,1.024.342.575.177,1.149.366,1.723.555l-4.4-14.643-1.937.767,1.209,12.226c.794.252,1.585.512,2.381.753" transform="translate(-43.41 -131.896)" fill="#f58c62"/>
        <path id="Trazado_1002904" data-name="Trazado 1002904" d="M64.85,208.158l-2.206-1.524s.149-.5,1.078-.058a14.928,14.928,0,0,1,2.22,1.465Z" transform="translate(-39.77 -131.03)" fill="#f58c62"/>
        <path id="Trazado_1002905" data-name="Trazado 1002905" d="M68.923,202.082l1.348-2.655s-.148-.567-.584-.044a7.983,7.983,0,0,0-.769,1.133s.586-2.741.217-2.766-.666,2.284-.666,2.284-.413-2.884-.8-2.849.015,2.977.015,2.977-.864-2.3-1.216-2.135.949,4.983,1.017,5.093,1.435-1.038,1.435-1.038" transform="translate(-42.161 -125.183)" fill="#f58c62"/>
        <path id="Trazado_1002906" data-name="Trazado 1002906" d="M53.636,245.851c-.074.063-.188.161-.346.3-.058.045-.122.1-.189.158-.127.112-.271.24-.428.383q-.295.263-.65.59c-.443.406-.938.884-1.459,1.408-.208.208-.418.421-.628.638-.494.519-1,1.068-1.472,1.637-.2.233-.395.473-.586.712-.232.3-.453.592-.661.888-.079.114-.155.225-.23.337a4.014,4.014,0,0,0-.311.549c-1.365,2.862.649,6.628,3.862,5.444a4.669,4.669,0,0,0,.86-.425,7.291,7.291,0,0,0,1.308-1.034c.044-.044.09-.084.13-.127.212-.209.422-.413.625-.619.561-.567,1.094-1.133,1.6-1.684q.3-.328.586-.651c.63-.709,1.213-1.392,1.735-2.038.189-.233.372-.459.543-.677.894-1.129,1.6-2.109,2.089-2.836.234-.339.418-.626.552-.843.092-.156.158-.278.2-.364a4.472,4.472,0,0,0,.323-.857,23.318,23.318,0,0,1-7.454-.889" transform="translate(-29.357 -156.079)" fill="#dbd7d7"/>
        <path id="Trazado_1002907" data-name="Trazado 1002907" d="M73.134,230.019c.767-.4.837-1.22.735-2.543s-2.07-9.449-2.07-9.449l-4.714-.563-.54,11.223s3.784,2.785,6.589,1.331" transform="translate(-42.246 -138.058)" fill="#dbd7d7"/>
        <path id="Trazado_1002908" data-name="Trazado 1002908" d="M15.4,253.008a12.508,12.508,0,0,0-4.042,2.191c-1.776,1.635-2.481,4.171-4.19,5.876-1.3,1.293-3.055,2-4.558,3.041s-2.845,2.717-2.574,4.528a1.958,1.958,0,0,1,1.456-1.361,4.994,4.994,0,0,0,.032,4.639,3.927,3.927,0,0,1,.815-1.485,6.7,6.7,0,0,0,1.96,4.209,13.147,13.147,0,0,0,5.282,4,6.889,6.889,0,0,0,6.394-.661l4.786-3.248c-.435-8.434-1.079-16.375-3.012-21.27Z" transform="translate(0 -160.622)" fill="#1b193b"/>
        <rect id="Rectángulo_439118" data-name="Rectángulo 439118" width="25.024" height="53.801" transform="translate(7.173 20.727)" fill="#512189"/>
        <path id="Trazado_1002909" data-name="Trazado 1002909" d="M21.762,0l9.246,14.43,9.246,14.43H3.271l9.246-14.43Z" transform="translate(-2.076 0)" fill="#512189"/>
        <path id="Trazado_1002910" data-name="Trazado 1002910" d="M25.895,203.76H24.434c.091-.131.34-.285.975-.139.153.037.318.084.486.139" transform="translate(-15.512 -129.231)" fill="#0e0d26"/>
        <path id="Trazado_1002911" data-name="Trazado 1002911" d="M30.438,194.958l-.6,2.3H27.521c-.617-1.267-1.267-2.72-1.1-2.855.3-.23,1.552,1.683,1.643,1.818-.051-.139-1-2.786-.65-2.9s1.388,2.614,1.388,2.614-.2-2.319.164-2.373.38,2.75.38,2.75a7.918,7.918,0,0,1,.508-1.271c.314-.606.581-.08.581-.08" transform="translate(-16.758 -122.726)" fill="#0e0d26"/>
        <path id="Trazado_1002912" data-name="Trazado 1002912" d="M53.821,339.8a100.139,100.139,0,0,1-.866,12.022l45.943-.493.337-3.266Z" transform="translate(-33.619 -215.724)" fill="#f58c62"/>
        <path id="Trazado_1002913" data-name="Trazado 1002913" d="M40.37,336.375l-.868-.112c-7.164,6.411-15.87,13.192-.916,13.6l11.989.152s0,0,0,0l.492.008,3.932.05.443.007,4.484.055.412.007,4.735.059.428.005,5.493.071.428.005,11.493.253.623-6.047S50.5,337.7,40.37,336.375" transform="translate(-19.29 -213.477)" fill="#1e6652"/>
        <path id="Trazado_1002914" data-name="Trazado 1002914" d="M136.03,364.327l-1.594-2.945s3.712-1.217,3.743-1.126,1.643,3.651,1.643,3.651l-3.2,1.339Z" transform="translate(-85.347 -228.705)" fill="#fea574"/>
        <path id="Trazado_1002915" data-name="Trazado 1002915" d="M178.036,352.569c.109-.444,1.218-4.9,1.82-5.1.633-.217,1.068,8.993,1.068,8.993l-2.723-.095-2-.069.513-3.842Z" transform="translate(-111.862 -220.586)" fill="#1b193b"/>
        <path id="Trazado_1002916" data-name="Trazado 1002916" d="M36.006,305.985c-.938.427-2.3.391-4.2-.245L19.034,301.8l1.913-4.977.781-2.037.223-.577s-.1-.854-.248-2.052c-.325-2.709-.865-7.161-.917-7.361l12.32-1.891c.256,2.954.635,5.9,1.037,8.837.215,1.581.438,3.159.65,4.74v.007c.361,2.706.676,5.415,1.03,8.121.058.464.124.92.183,1.377" transform="translate(-12.084 -179.602)" fill="#fea574"/>
        <path id="Trazado_1002917" data-name="Trazado 1002917" d="M39.435,311.844c-2.687.424-8.285-.917-9.68-1.515a7.212,7.212,0,0,0-3.385-.179l.223-.577s-.1-.854-.248-2.052l12.441-.416c.215,1.581.438,3.159.65,4.74" transform="translate(-16.725 -194.965)" fill="#f58c62"/>
        <path id="Trazado_1002918" data-name="Trazado 1002918" d="M17.762,332.167c-.019.049-.039.1-.057.145-.107,0-2.126-.427-2.126-.427a.714.714,0,0,1-.083.054l-2.17,4.679c-.949,2.554-.8,9.269,6.787,10.217s8.976-1.97,9.706-2.773a2.5,2.5,0,0,0,.31-.559c-4.378-3.464-7.139-9.3-12.367-11.335" transform="translate(-8.202 -210.697)" fill="#2a8d71"/>
        <path id="Trazado_1002919" data-name="Trazado 1002919" d="M36.006,330.186a4.808,4.808,0,0,1-3.075.077,11.505,11.505,0,0,1-1.125-.321l-8.161-2.516-1.669-.515L19.034,326l1.913-4.977,3.232.128,1.954.077,8.775.351c.3,2.337.581,4.67.887,7.007.011.073.018.15.029.223.058.464.124.92.183,1.377" transform="translate(-12.084 -203.802)" fill="#2a8d71"/>
        <path id="Trazado_1002920" data-name="Trazado 1002920" d="M37.764,288.556c-2.523.555-4.962,1.351-7.65.876-3.513-.621-7.285-1.862-10.83-.862.15-.2.34-.464.548-.8.15-.23.3-.493.456-.781a.369.369,0,0,0,.026-.055A3.3,3.3,0,0,0,20.6,285.7c.007-.113.015-.23.015-.347,0-.278-.007-.57-.029-.862-.026-.329-.058-.661-.095-.982-.04-.38-.08-.745-.11-1.084,0-.069-.011-.135-.015-.2,0-.04-.011-.084-.011-.124-.011-.248-.029-.5-.055-.752a9.967,9.967,0,0,1-.029-1.114,6.123,6.123,0,0,1,.234-1.709,8.633,8.633,0,0,1,1.406-2.53,7.845,7.845,0,0,1,2.582-1.687c.194-.026.391-.044.588-.062a33.417,33.417,0,0,1,7.2.376c.449.066.818.128,1.106.179a45.428,45.428,0,0,0,2.83,5.422,14.43,14.43,0,0,1,1.168,2.191,1.969,1.969,0,0,1,.062.215.757.757,0,0,1-.04.518l-.12.219c-.4.683-.6.544-.555.694.142.5.27,1,.387,1.5.018.069.037.139.051.208.058.237.113.475.164.708.15.668.281,1.336.409,2a.621.621,0,0,0,.015.08" transform="translate(-12.242 -174.058)" fill="#efefef"/>
        <path id="Trazado_1002921" data-name="Trazado 1002921" d="M38.839,300.038c.142.5.27,1,.387,1.5q-8.26.208-16.523.139c.007-.113.015-.23.015-.347,0-.278-.007-.57-.029-.862-.026-.329-.058-.661-.095-.982q8.4.071,16.8-.142c-.4.683-.6.544-.555.694" transform="translate(-14.344 -190.039)" fill="#4db593"/>
        <path id="Trazado_1002922" data-name="Trazado 1002922" d="M39.106,292.925q-8.506,0-17.009.011c0-.069-.011-.135-.015-.2,0-.04-.011-.084-.011-.124-.011-.248-.029-.5-.055-.752a9.966,9.966,0,0,1-.029-1.114l15.95-.011a14.431,14.431,0,0,1,1.168,2.191" transform="translate(-13.957 -184.573)" fill="#32deff"/>
        <path id="Trazado_1002923" data-name="Trazado 1002923" d="M41.46,279.109c-2.334,0-2.627-.293-3.722-2.627a4.34,4.34,0,0,0-2.575-2.238,33.423,33.423,0,0,1,7.2.376c1.174,2.1.894,4.488-.906,4.488" transform="translate(-22.323 -174.06)" fill="#fea574"/>
        <path id="Trazado_1002924" data-name="Trazado 1002924" d="M46.156,269.575l-2.855.131.34-4.093,2.118-1.158.172,2.184.091,1.2Z" transform="translate(-27.49 -167.89)" fill="#fea574"/>
        <path id="Trazado_1002925" data-name="Trazado 1002925" d="M43.009,251.961a3.371,3.371,0,0,1,3.112-.582,2.376,2.376,0,0,1,1.552,2.6,2.414,2.414,0,0,1-.991,1.411,3.986,3.986,0,0,1-1.633.628" transform="translate(-27.304 -159.482)" fill="#1b193b"/>
        <path id="Trazado_1002926" data-name="Trazado 1002926" d="M44.131,258.255v.015a1.749,1.749,0,0,1-.044.453c-.007.037-.018.073-.029.11-.215.676-.949.906-2.8,1.172a3.148,3.148,0,1,1,2.677-3.557,14.547,14.547,0,0,1,.2,1.807" transform="translate(-23.913 -161.087)" fill="#fea574"/>
        <path id="Trazado_1002927" data-name="Trazado 1002927" d="M42.195,261.847c-.03,0-.954-.726-1.18.3a1.059,1.059,0,0,0,1.529,1.246" transform="translate(-26.017 -166.076)" fill="#fea574"/>
        <path id="Trazado_1002928" data-name="Trazado 1002928" d="M51.069,259.266a.192.192,0,0,0-.093-.029.693.693,0,0,0-.161,0,1.1,1.1,0,0,0-.33.085.994.994,0,0,0-.5.458.071.071,0,0,1-.095.032.072.072,0,0,1-.034-.09,1.168,1.168,0,0,1,.541-.586,1.337,1.337,0,0,1,.387-.137.919.919,0,0,1,.215-.016.407.407,0,0,1,.26.085.137.137,0,0,1-.188.2" transform="translate(-31.647 -164.413)" fill="#1b193b"/>
        <path id="Trazado_1002929" data-name="Trazado 1002929" d="M54.614,262.713c.037-.018.925-.066.925-.066l-.923-1.378-.007,1.371" transform="translate(-34.669 -165.866)" fill="#fea574"/>
        <path id="Trazado_1002930" data-name="Trazado 1002930" d="M51.8,261.939l0,.007.337-.191-.007,0a.276.276,0,0,0-.337.191.28.28,0,0,0,.191.337l.007,0a.277.277,0,0,0,.337-.191l0-.007c.11-.336-.419-.48-.528-.146" transform="translate(-32.873 -166.164)" fill="#1b193b"/>
        <path id="Trazado_1002931" data-name="Trazado 1002931" d="M50.765,274.857l.145,2.2s.731-1.581.924-2.067Z" transform="translate(-32.228 -174.493)" fill="#f58c62"/>
        <path id="Trazado_1002932" data-name="Trazado 1002932" d="M52.832,266.074v.015a1.749,1.749,0,0,1-.044.453c-1.117.036-1.417-.486-1.417-.486Z" transform="translate(-32.613 -168.906)" fill="#fefefe"/>
        <path id="Trazado_1002933" data-name="Trazado 1002933" d="M47.735,270.885c-.913-.234-1.716-.975-1.734-1.639.435.661,1.643.435,1.643.435Z" transform="translate(-29.204 -170.931)" fill="#f58c62"/>
        <path id="Trazado_1002934" data-name="Trazado 1002934" d="M36.446,252.535a12.9,12.9,0,0,1,1.66-.947,3.23,3.23,0,0,1,1.748-.413,1.324,1.324,0,0,1,1.209,1.154,1.591,1.591,0,0,1-.38.957,3.927,3.927,0,0,1-1.027.95l.2-.753a2.7,2.7,0,0,1-1.982,1.426,6.891,6.891,0,0,0-.727.1c-.541.139-.987.575-1.542.635a1.7,1.7,0,0,1-.372-1.855,2.8,2.8,0,0,1,1.377-1.409" transform="translate(-22.288 -159.45)" fill="#1b193b"/>
        <path id="Trazado_1002935" data-name="Trazado 1002935" d="M38.571,258.076l.009.093.219,2.1-.639-.662a.553.553,0,0,0-.593.616c.046.639.89.822.89.822.093,1.68-.753,4.374-1.871,4.61l-2.419-4.907.411-2.191" transform="translate(-21.69 -163.84)" fill="#1b193b"/>
        <path id="Trazado_1002936" data-name="Trazado 1002936" d="M138.8,368.476l2.4,4.126s7.643-5.32,7.117-5.745c-.5-.4-4.9,1.041-5.343,1.186l-.609-1.193Z" transform="translate(-88.117 -232.855)" fill="#1b193b"/>
        <path id="Trazado_1002937" data-name="Trazado 1002937" d="M42.021,265.688,42,265.665a.365.365,0,0,0-.517.516l.023.023a.365.365,0,0,0,.517-.516" transform="translate(-26.266 -168.589)" fill="#fefefe"/>
        <path id="Trazado_1002938" data-name="Trazado 1002938" d="M20.754,319.062s28.116-12.172,29.333-12.9a4.358,4.358,0,0,1,5.842,1.217c1.948,2.556,9.859,19.231,9.859,19.231l-3.773,1.826-8.642-11.807S37.551,330.747,26.11,330.382s-4.99-12.415-4.99-12.415" transform="translate(-12.257 -193.963)" fill="#2a8d71"/>
        <path id="Trazado_1002939" data-name="Trazado 1002939" d="M67.26,332.506l-.314.19L56.035,315.844l-16.161,9.567-4.192,2.483-2.1,1.242-1.059.624-.555.321-.577.3a8.311,8.311,0,0,1-2.585.814A4.632,4.632,0,0,1,27.3,331.1a3.409,3.409,0,0,1-1.406-.759,4.927,4.927,0,0,1-1.391-2.545,8.343,8.343,0,0,1-.212-1.326,9.693,9.693,0,0,1-.029-1.351l.007-.12.051-.128.968-2.534,2.2-5.758,1.954.077-2.487,6.2-1,2.5c-.007.084-.007.175-.007.27,0,.23.011.475.029.7a6.969,6.969,0,0,0,.168,1.077,3.29,3.29,0,0,0,.869,1.691,1.713,1.713,0,0,0,.712.394,2.977,2.977,0,0,0,.913.051,6.645,6.645,0,0,0,2.041-.646l.511-.256.5-.288,1.044-.61,2.107-1.231,1.4-.822,2.808-1.643.055-.033,16.786-9.83.661-.365.358.624Z" transform="translate(-15.396 -199.225)" fill="#fb5415"/>
        <path id="Trazado_1002940" data-name="Trazado 1002940" d="M31.376,217.791c.18.06.551.2,1.014.37.571.192,1.139.4,1.707.6l-4-14.757-1.957.714.876,12.255c.787.273,1.571.555,2.36.817" transform="translate(-17.865 -129.513)" fill="#fea574"/>
        <path id="Trazado_1002941" data-name="Trazado 1002941" d="M24.729,204.923l-2.481-1.018s.039-.517,1.041-.287a14.937,14.937,0,0,1,2.482.957Z" transform="translate(-14.124 -129.23)" fill="#fea574"/>
        <path id="Trazado_1002942" data-name="Trazado 1002942" d="M27.689,197.84l.75-2.881s-.265-.523-.58.081a7.963,7.963,0,0,0-.509,1.271s-.012-2.8-.379-2.748-.163,2.373-.163,2.373-1.019-2.729-1.387-2.613.651,2.905.651,2.905-1.335-2.065-1.644-1.826,1.991,4.666,2.081,4.758,1.181-1.32,1.181-1.32" transform="translate(-15.49 -122.729)" fill="#fea574"/>
        <path id="Trazado_1002943" data-name="Trazado 1002943" d="M23.292,240.039c-.039.089-.1.227-.181.421-.032.066-.065.144-.1.225-.065.156-.139.334-.218.531q-.151.365-.327.815c-.221.559-.459,1.2-.7,1.9-.1.278-.193.561-.286.848-.218.682-.43,1.4-.61,2.115-.078.3-.149.6-.218.9-.079.367-.149.731-.207,1.088-.023.137-.041.27-.06.4a4,4,0,0,0-.041.63c.022,3.171,4.293,4.727,5.85,3.214a4.7,4.7,0,0,0,.589-.758,7.271,7.271,0,0,0,.725-1.5c.02-.06.045-.116.062-.172.1-.281.2-.555.293-.83.257-.755.49-1.5.7-2.213q.125-.425.243-.841c.257-.913.484-1.782.672-2.59.068-.292.134-.576.193-.846.312-1.406.52-2.6.642-3.463.063-.407.1-.745.129-1,.015-.18.021-.32.023-.416a4.516,4.516,0,0,0-.083-.912c-3.9-5.7-7.123-8.1-7.1,2.453" transform="translate(-12.916 -147.74)" fill="#efefef"/>
        <path id="Trazado_1002944" data-name="Trazado 1002944" d="M27.449,227.939l-1.1-16.067,4.382-.609,3.466,12.7-1.275,5.067Z" transform="translate(-16.731 -134.121)" fill="#efefef"/>
        <path id="Trazado_1002945" data-name="Trazado 1002945" d="M120.362,126.816a30.035,30.035,0,0,1,.994-3.652,33.925,33.925,0,0,1,1.4-3.512,27,27,0,0,1,4.059-6.364,19.768,19.768,0,0,1,2.751-2.6c.255-.188.5-.394.762-.566l.792-.523a17.283,17.283,0,0,1,1.673-.9,17.757,17.757,0,0,1,1.757-.719c.3-.1.607-.18.91-.271l.457-.131.465-.1a19.237,19.237,0,0,1,3.766-.426.155.155,0,0,1,.046.305l-.043.011a31.116,31.116,0,0,0-3.569,1.026c-.142.053-.284.1-.426.146l-.416.173c-.275.118-.552.225-.821.35-.525.284-1.068.5-1.566.818a18.5,18.5,0,0,0-2.847,2.01,21.5,21.5,0,0,0-2.478,2.457,27.543,27.543,0,0,0-2.143,2.814c-.163.249-.343.487-.5.739l-.483.758-.917,1.56c-1.181,2.117-2.261,4.336-3.308,6.649l-.018.038a.156.156,0,0,1-.294-.094" transform="translate(-76.41 -67.963)" fill="#828fff"/>
      </g>
    </g>
  </g>
</svg>
