<svg xmlns="http://www.w3.org/2000/svg" xmlns:xlink="http://www.w3.org/1999/xlink" width="85" height="85" viewBox="0 0 85 85">
  <defs>
    <clipPath id="clip-path">
      <rect id="Rectángulo_439115" data-name="Rectángulo 439115" width="85" height="85" transform="translate(179.711 5130)" fill="#2a8d71"/>
    </clipPath>
  </defs>
  <g id="Grupo_1180949" data-name="Grupo 1180949" transform="translate(-179.711 -5130)">
    <g id="Enmascarar_grupo_1098926" data-name="Enmascarar grupo 1098926" clip-path="url(#clip-path)">
      <g id="computacion-en-la-nube" transform="translate(179.711 5130)">
        <g id="Grupo_1176721" data-name="Grupo 1176721">
          <g id="Grupo_1176706" data-name="Grupo 1176706">
            <path id="Trazado_1002946" data-name="Trazado 1002946" d="M83.629,1.371V17.823L76.774,9.6Z" fill="#c5d7f4"/>
          </g>
          <g id="Grupo_1176707" data-name="Grupo 1176707">
            <path id="Trazado_1002947" data-name="Trazado 1002947" d="M61.694,1.371,68.548,9.6l-6.855,8.226Z" fill="#c5d7f4"/>
          </g>
          <g id="Grupo_1176708" data-name="Grupo 1176708">
            <path id="Trazado_1002948" data-name="Trazado 1002948" d="M76.774,9.6l6.855,8.226H61.694L68.548,9.6Z" fill="#c5d7f4"/>
          </g>
          <g id="Grupo_1176709" data-name="Grupo 1176709">
            <path id="Trazado_1002949" data-name="Trazado 1002949" d="M83.629,1.371,76.774,9.6H68.548L61.694,1.371Z" fill="#c5d7f4"/>
          </g>
          <g id="Grupo_1176710" data-name="Grupo 1176710">
            <path id="Trazado_1002950" data-name="Trazado 1002950" d="M68.548,78.145h8.226v5.484H68.548Z" fill="#aab2bd"/>
          </g>
          <g id="Grupo_1176711" data-name="Grupo 1176711">
            <path id="Trazado_1002951" data-name="Trazado 1002951" d="M83.629,72.661V75.4a2.75,2.75,0,0,1-2.742,2.742H64.435A2.75,2.75,0,0,1,61.694,75.4V72.661Z" fill="#ccd1d9"/>
          </g>
          <g id="Grupo_1176712" data-name="Grupo 1176712">
            <path id="Trazado_1002952" data-name="Trazado 1002952" d="M83.629,64.435v8.226H61.694V64.435a2.75,2.75,0,0,1,2.742-2.742H80.887A2.75,2.75,0,0,1,83.629,64.435Z" fill="#32deff"/>
          </g>
          <g id="Grupo_1176713" data-name="Grupo 1176713">
            <path id="Trazado_1002953" data-name="Trazado 1002953" d="M12.339,35.645v2.742H1.371V35.645A2.75,2.75,0,0,1,4.113,32.9H9.6A2.75,2.75,0,0,1,12.339,35.645Z" fill="#4db593"/>
          </g>
          <g id="Grupo_1176714" data-name="Grupo 1176714">
            <path id="Trazado_1002954" data-name="Trazado 1002954" d="M12.339,49.355V46.613H1.371v2.742A2.75,2.75,0,0,0,4.113,52.1H9.6A2.75,2.75,0,0,0,12.339,49.355Z" fill="#4db593"/>
          </g>
          <g id="Grupo_1176715" data-name="Grupo 1176715">
            <path id="Trazado_1002955" data-name="Trazado 1002955" d="M1.371,38.387H12.339v8.226H1.371Z" fill="#b4e6d2"/>
          </g>
          <g id="Grupo_1176716" data-name="Grupo 1176716">
            <circle id="Elipse_13482" data-name="Elipse 13482" cx="5.484" cy="5.484" r="5.484" transform="translate(1.371 64.435)" fill="#f0d0b4"/>
          </g>
          <g id="Grupo_1176717" data-name="Grupo 1176717">
            <path id="Trazado_1002956" data-name="Trazado 1002956" d="M12.339,80.887v2.742H1.371V80.887a5.484,5.484,0,1,1,10.968,0Z" fill="#ff826e"/>
          </g>
          <g id="Grupo_1176718" data-name="Grupo 1176718">
            <path id="Trazado_1002957" data-name="Trazado 1002957" d="M12.339,10.968v1.371a2.742,2.742,0,1,1-5.484,0V9.6A2.75,2.75,0,0,1,9.6,6.855,2.762,2.762,0,0,1,12.339,9.6Z" fill="#b4e6d2"/>
          </g>
          <g id="Grupo_1176719" data-name="Grupo 1176719">
            <path id="Trazado_1002958" data-name="Trazado 1002958" d="M63.777,37.235a21.47,21.47,0,0,0-2.523-6.06l1.6-3.222-5.813-5.813-3.222,1.6a21.47,21.47,0,0,0-6.06-2.523l-1.152-3.4H38.387l-1.152,3.4a21.47,21.47,0,0,0-6.06,2.523l-3.222-1.6-5.813,5.813,1.6,3.222a21.47,21.47,0,0,0-2.523,6.06l-3.4,1.152v8.226l3.4,1.152a21.47,21.47,0,0,0,2.523,6.06l-1.6,3.222,5.813,5.813,3.222-1.6a21.47,21.47,0,0,0,6.06,2.523l1.152,3.4h8.226l1.152-3.4a21.47,21.47,0,0,0,6.06-2.523l3.222,1.6,5.813-5.813-1.6-3.222a21.47,21.47,0,0,0,2.523-6.06l3.4-1.152V38.387ZM56.991,50.273v.014a16.45,16.45,0,0,1-28.982,0v-.014a5.463,5.463,0,0,1-3.085-3.4,5.407,5.407,0,0,1-.247-1.631,5.471,5.471,0,0,1,1.412-3.674,16.436,16.436,0,0,1,32.821,0,5.471,5.471,0,0,1,1.412,3.674,5.216,5.216,0,0,1-.439,2.125A5.366,5.366,0,0,1,56.991,50.273Z" fill="#fb5415"/>
          </g>
          <g id="Grupo_1176720" data-name="Grupo 1176720">
            <path id="Trazado_1002959" data-name="Trazado 1002959" d="M26.09,41.568a5.466,5.466,0,0,1,4.072-1.81,5.228,5.228,0,0,1,1.481.233,6.828,6.828,0,0,1,12.585-2.413,5.552,5.552,0,0,1,2.385-.562A5.458,5.458,0,0,1,51.768,40.7a5.391,5.391,0,0,1,3.071-.946,5.482,5.482,0,0,1,5.484,5.484,5.216,5.216,0,0,1-.439,2.125,5.525,5.525,0,0,1-5.045,3.359H30.161a5.355,5.355,0,0,1-2.152-.452,5.463,5.463,0,0,1-3.085-3.4,5.407,5.407,0,0,1-.247-1.631,5.471,5.471,0,0,1,1.412-3.674Z" fill="#c5d7f4"/>
          </g>
        </g>
        <g id="Grupo_1176722" data-name="Grupo 1176722">
          <path id="Trazado_1002960" data-name="Trazado 1002960" d="M16.452,37.4V47.6l3.637,1.226a23.153,23.153,0,0,0,2.093,5.052l-1.705,3.44,7.209,7.21,3.44-1.707a23.046,23.046,0,0,0,5.052,2.093L37.4,68.548H47.6l1.226-3.637a23.074,23.074,0,0,0,5.052-2.093l3.44,1.707,7.209-7.21-1.705-3.44a23.125,23.125,0,0,0,2.093-5.052L68.548,47.6V37.4l-3.637-1.226a23.153,23.153,0,0,0-2.093-5.052l1.705-3.44-7.209-7.21-3.44,1.705a23.093,23.093,0,0,0-5.052-2.092L47.6,16.452H37.4l-1.226,3.637a23.121,23.121,0,0,0-5.052,2.092l-3.44-1.705-7.209,7.21,1.705,3.44a23.125,23.125,0,0,0-2.093,5.052Zm5.925.9.181-.731a20.409,20.409,0,0,1,2.354-5.683l.391-.644-1.494-3.011,4.424-4.425L31.243,25.3l.644-.389a20.435,20.435,0,0,1,5.681-2.355l.731-.18,1.072-3.183h6.256L46.7,22.377l.731.18a20.353,20.353,0,0,1,5.681,2.355l.644.389,3.011-1.494,4.424,4.425L59.7,31.243l.391.644a20.392,20.392,0,0,1,2.354,5.683l.181.731,3.185,1.072v6.256L62.623,46.7l-.181.731a20.409,20.409,0,0,1-2.354,5.683l-.391.644,1.494,3.011-4.424,4.425L53.757,59.7l-.644.389a20.5,20.5,0,0,1-5.681,2.355l-.731.18-1.072,3.182H39.373L38.3,62.623l-.731-.18a20.414,20.414,0,0,1-5.681-2.355l-.644-.389-3.011,1.494L23.81,56.768,25.3,53.757l-.391-.644a20.392,20.392,0,0,1-2.354-5.683l-.181-.731-3.185-1.072V39.371Z"/>
          <path id="Trazado_1002961" data-name="Trazado 1002961" d="M80.887,60.323H64.435a4.118,4.118,0,0,0-4.113,4.113V75.4a4.118,4.118,0,0,0,4.113,4.113h2.742v2.742H64.435V85H80.887V82.258H78.145V79.516h2.742A4.118,4.118,0,0,0,85,75.4V64.435A4.118,4.118,0,0,0,80.887,60.323ZM64.435,63.065H80.887a1.372,1.372,0,0,1,1.371,1.371V71.29H63.065V64.435A1.372,1.372,0,0,1,64.435,63.065ZM75.4,82.258H69.919V79.516H75.4Zm5.484-5.484H64.435A1.372,1.372,0,0,1,63.065,75.4V74.032H82.258V75.4A1.372,1.372,0,0,1,80.887,76.774Z"/>
          <path id="Trazado_1002962" data-name="Trazado 1002962" d="M84.931,41.2a9.6,9.6,0,0,0-13.573,0L73.3,43.138a6.855,6.855,0,0,1,9.7,0Z"/>
          <path id="Trazado_1002963" data-name="Trazado 1002963" d="M75.236,45.076l1.94,1.939a1.4,1.4,0,0,1,1.937,0l1.94-1.939A4.213,4.213,0,0,0,75.236,45.076Z"/>
          <path id="Trazado_1002964" data-name="Trazado 1002964" d="M60.323,0V19.194H85V0Zm15.81,8.226H69.191L64.622,2.742H80.7ZM66.763,9.6l-3.7,4.439V5.158Zm2.428,1.371h6.941L80.7,16.452H64.621ZM78.559,9.6l3.7-4.439v8.878Z"/>
          <path id="Trazado_1002965" data-name="Trazado 1002965" d="M19.194,16.452V9.6A9.6,9.6,0,0,0,0,9.6v2.742a9.608,9.608,0,0,0,9.6,9.6h1.371V19.194H9.6a6.863,6.863,0,0,1-6.855-6.855V9.6a6.855,6.855,0,1,1,13.71,0v6.855a1.371,1.371,0,1,1-2.742,0V9.6a4.113,4.113,0,0,0-8.226,0v2.742A4.118,4.118,0,0,0,9.6,16.452a4.067,4.067,0,0,0,1.371-.252v.252a4.113,4.113,0,1,0,8.226,0ZM9.6,13.71a1.372,1.372,0,0,1-1.371-1.371V9.6a1.371,1.371,0,0,1,2.742,0v2.742A1.372,1.372,0,0,1,9.6,13.71Z"/>
          <path id="Trazado_1002966" data-name="Trazado 1002966" d="M13.71,69.919A6.855,6.855,0,1,0,2.784,75.4,6.83,6.83,0,0,0,0,80.887V85H13.71V80.887A6.83,6.83,0,0,0,10.925,75.4,6.83,6.83,0,0,0,13.71,69.919ZM10.968,80.887v1.371H2.742V80.887a4.113,4.113,0,1,1,8.226,0ZM6.855,74.032a4.113,4.113,0,1,1,4.113-4.113A4.118,4.118,0,0,1,6.855,74.032Z"/>
          <path id="Trazado_1002967" data-name="Trazado 1002967" d="M9.6,31.532H4.113A4.118,4.118,0,0,0,0,35.645v13.71a4.118,4.118,0,0,0,4.113,4.113H9.6a4.118,4.118,0,0,0,4.113-4.113V35.645A4.118,4.118,0,0,0,9.6,31.532ZM4.113,34.274H9.6a1.372,1.372,0,0,1,1.371,1.371v1.371H2.742V35.645A1.372,1.372,0,0,1,4.113,34.274Zm6.855,5.484v5.484H2.742V39.758ZM9.6,50.726H4.113a1.372,1.372,0,0,1-1.371-1.371V47.984h8.226v1.371A1.372,1.372,0,0,1,9.6,50.726Z"/>
          <path id="Trazado_1002968" data-name="Trazado 1002968" d="M27.008,51.292a17.8,17.8,0,0,0,30.984,0,6.762,6.762,0,0,0,2.235-10.236A17.782,17.782,0,0,0,24.779,41a6.815,6.815,0,0,0,2.229,10.293ZM42.5,57.581A15.039,15.039,0,0,1,30.911,52.1H54.089A15.039,15.039,0,0,1,42.5,57.581Zm12.339-8.226H30.161a4.113,4.113,0,0,1,0-8.226,4.011,4.011,0,0,1,1.112.178l1.472.42L33,40.216A5.451,5.451,0,0,1,43.057,38.3l.648,1.067,1.121-.546a4.093,4.093,0,0,1,5.648,2.333l.588,1.681,1.474-1a4.113,4.113,0,1,1,2.3,7.521ZM42.5,27.419A15.071,15.071,0,0,1,57.1,38.8a6.643,6.643,0,0,0-4.719.038,6.873,6.873,0,0,0-7.655-2.919,8.189,8.189,0,0,0-14.085,2.487,6.646,6.646,0,0,0-2.731.34A15.067,15.067,0,0,1,42.5,27.419Z"/>
          <path id="Trazado_1002969" data-name="Trazado 1002969" d="M46.613,10.968H57.581V8.226H43.871V13.71h2.742Z"/>
          <path id="Trazado_1002970" data-name="Trazado 1002970" d="M38.387,13.71h2.742V8.226H21.935v2.742H38.387Z"/>
          <path id="Trazado_1002971" data-name="Trazado 1002971" d="M46.613,71.29H43.871v5.484h13.71V74.032H46.613Z"/>
          <path id="Trazado_1002972" data-name="Trazado 1002972" d="M38.387,74.032H16.452v2.742H41.129V71.29H38.387Z"/>
        </g>
      </g>
    </g>
  </g>
</svg>
