<svg xmlns="http://www.w3.org/2000/svg" xmlns:xlink="http://www.w3.org/1999/xlink" width="92.954" height="92.954" viewBox="0 0 92.954 92.954">
  <defs>
    <clipPath id="clip-path">
      <rect id="Rectángulo_403288" data-name="Rectángulo 403288" width="92.954" height="92.954" transform="translate(285 5032.193)" fill="#0b489b" stroke="#0b489b" stroke-width="1"/>
    </clipPath>
  </defs>
  <g id="Enmascarar_grupo_1098941" data-name="Enmascarar grupo 1098941" transform="translate(-285 -5032.193)" clip-path="url(#clip-path)">
    <g id="disponibilidad" transform="translate(285 5032.193)">
      <path id="Trazado_1003877" data-name="Trazado 1003877" d="M72.053,59.085a1.363,1.363,0,0,0-1.363,1.363v5.333a4.226,4.226,0,1,0,3.228,7.793l4.534,4.534a1.363,1.363,0,1,0,1.928-1.928l-4.534-4.534a4.223,4.223,0,0,0-2.43-5.865V60.448a1.363,1.363,0,0,0-1.363-1.363Zm1.5,10.7a1.5,1.5,0,1,1-1.5-1.5A1.5,1.5,0,0,1,73.555,69.782Z" fill="#0b489b"/>
      <path id="Trazado_1003878" data-name="Trazado 1003878" d="M34.9,30.311a1.362,1.362,0,0,0-1.77.763l-4.669,11.74A1.363,1.363,0,1,0,31,43.82l4.669-11.74a1.363,1.363,0,0,0-.763-1.77Z" fill="#0b489b"/>
      <path id="Trazado_1003879" data-name="Trazado 1003879" d="M40.217,44.565a1.362,1.362,0,0,0,1.8-.7l5.161-11.74a1.363,1.363,0,0,0-1.248-1.911H39.468a1.363,1.363,0,1,0,0,2.726h4.37l-4.32,9.828a1.363,1.363,0,0,0,.7,1.8Z" fill="#0b489b"/>
      <path id="Trazado_1003880" data-name="Trazado 1003880" d="M23.069,44.357a1.363,1.363,0,0,0,1.363-1.363v-2.5h.736a1.363,1.363,0,1,0,0-2.726h-.736V31.593A1.909,1.909,0,0,0,20.91,30.57c-1.685,2.66-4.8,7.8-4.826,7.854a1.363,1.363,0,0,0,1.166,2.068h4.455v2.5A1.363,1.363,0,0,0,23.069,44.357Zm-3.4-6.59c.6-.977,1.329-2.178,2.033-3.32v3.32Z" fill="#0b489b"/>
      <path id="Trazado_1003881" data-name="Trazado 1003881" d="M11.774,36.432C9.915,39.088,8.806,40.54,8.21,41.321c-.742.972-1.081,1.416-.849,2.169a1.416,1.416,0,0,0,.921.933,9.825,9.825,0,0,0,2.646.118c.9,0,2.115-.009,3.784-.03a1.363,1.363,0,0,0-.017-2.726h-.017c-1.162.015-2.393.024-3.421.027.649-.869,1.546-2.1,2.751-3.818a8.954,8.954,0,0,0,1.459-3.022,1.308,1.308,0,0,0,.024-.135l.058-.454a1.337,1.337,0,0,0,.011-.173,4.367,4.367,0,0,0-8.652-.845,1.363,1.363,0,1,0,2.675.525,1.641,1.641,0,0,1,3.25.246l-.036.281A6.478,6.478,0,0,1,11.774,36.432Z" fill="#0b489b"/>
      <path id="Trazado_1003882" data-name="Trazado 1003882" d="M19.85,51.2a2.565,2.565,0,0,0-2.562-2.562H11.306A2.565,2.565,0,0,0,8.744,51.2v5.983a2.565,2.565,0,0,0,2.562,2.562h5.983a2.565,2.565,0,0,0,2.562-2.562Zm-2.726,5.819H11.47V51.366h5.655v5.655Z" fill="#0b489b"/>
      <path id="Trazado_1003883" data-name="Trazado 1003883" d="M34.111,51.2a2.565,2.565,0,0,0-2.562-2.562H25.567A2.565,2.565,0,0,0,23,51.2v5.983a2.565,2.565,0,0,0,2.562,2.562h5.983a2.565,2.565,0,0,0,2.562-2.562Zm-2.726,5.819H25.73V51.366h5.655Z" fill="#0b489b"/>
      <path id="Trazado_1003884" data-name="Trazado 1003884" d="M48.372,51.2A2.565,2.565,0,0,0,45.81,48.64H39.828A2.565,2.565,0,0,0,37.266,51.2v5.983a2.565,2.565,0,0,0,2.562,2.562H45.81a2.565,2.565,0,0,0,2.562-2.562Zm-2.726,5.819H39.991V51.366h5.655Z" fill="#0b489b"/>
      <path id="Trazado_1003885" data-name="Trazado 1003885" d="M59.6,41.479V35.5a2.565,2.565,0,0,0-2.562-2.562H51.056A2.565,2.565,0,0,0,48.494,35.5v5.983a2.565,2.565,0,0,0,2.562,2.562h5.983A2.565,2.565,0,0,0,59.6,41.479Zm-2.726-.164H51.22V35.66h5.655Z" fill="#0b489b"/>
      <path id="Trazado_1003886" data-name="Trazado 1003886" d="M65.235,32.934A2.565,2.565,0,0,0,62.673,35.5v5.983a2.565,2.565,0,0,0,2.562,2.562h5.983a2.565,2.565,0,0,0,2.562-2.562V35.5a2.565,2.565,0,0,0-2.562-2.562Zm5.819,8.381H65.4V35.66h5.655Z" fill="#0b489b"/>
      <path id="Trazado_1003887" data-name="Trazado 1003887" d="M11.306,73.17h5.983a2.565,2.565,0,0,0,2.562-2.562V64.626a2.565,2.565,0,0,0-2.562-2.562H11.306a2.565,2.565,0,0,0-2.562,2.562v5.983A2.565,2.565,0,0,0,11.306,73.17Zm.164-8.381h5.655v5.655H11.47Z" fill="#0b489b"/>
      <path id="Trazado_1003888" data-name="Trazado 1003888" d="M25.567,73.17h5.983a2.565,2.565,0,0,0,2.562-2.562V64.626a2.565,2.565,0,0,0-2.562-2.562H25.567A2.565,2.565,0,0,0,23,64.626v5.983a2.565,2.565,0,0,0,2.562,2.562Zm.164-8.381h5.655v5.655H25.731Z" fill="#0b489b"/>
      <path id="Trazado_1003889" data-name="Trazado 1003889" d="M45.81,62.064H39.828a2.565,2.565,0,0,0-2.562,2.562v5.983a2.565,2.565,0,0,0,2.562,2.562H45.81a2.565,2.565,0,0,0,2.562-2.562V64.626a2.565,2.565,0,0,0-2.562-2.562Zm-.164,8.381H39.991V64.79h5.655Z" fill="#0b489b"/>
      <path id="Trazado_1003890" data-name="Trazado 1003890" d="M48.523,76.834H9.419a6.7,6.7,0,0,1-6.693-6.693V58.87A1.363,1.363,0,1,0,0,58.87V70.141A9.43,9.43,0,0,0,9.419,79.56h39.1a1.363,1.363,0,1,0,0-2.726Z" fill="#0b489b"/>
      <path id="Trazado_1003891" data-name="Trazado 1003891" d="M1.363,54.425a1.363,1.363,0,0,0,1.363-1.363V25.721h61.31a1.363,1.363,0,1,0,0-2.726H2.726v-4.52a6.7,6.7,0,0,1,6.693-6.693h9.49v2.906a3.813,3.813,0,0,0,7.627,0V11.781H53.907v2.906a3.813,3.813,0,1,0,7.627,0V11.781h9.49a6.7,6.7,0,0,1,6.693,6.693v4.52H69.844a1.363,1.363,0,0,0,0,2.726h7.873V45.8a1.363,1.363,0,1,0,2.726,0V18.475a9.43,9.43,0,0,0-9.419-9.419h-9.49V6.085a3.813,3.813,0,1,0-7.627,0V9.056H26.536V6.085a3.813,3.813,0,0,0-7.627,0V9.056H9.419A9.429,9.429,0,0,0,0,18.475V53.062A1.363,1.363,0,0,0,1.363,54.425Zm55.27-48.34a1.088,1.088,0,1,1,2.175,0v8.6a1.088,1.088,0,1,1-2.175,0Zm-35,0a1.088,1.088,0,0,1,2.175,0v8.6a1.088,1.088,0,1,1-2.175,0Z" fill="#0b489b"/>
      <path id="Trazado_1003892" data-name="Trazado 1003892" d="M92.214,64.256a1.363,1.363,0,0,0-2.629.719,18.168,18.168,0,0,1,.591,3.443H88.017a1.363,1.363,0,1,0,0,2.726h2.16a18.1,18.1,0,0,1-4.351,10.483l-1.521-1.521a1.363,1.363,0,1,0-1.928,1.927L83.9,83.555a18.1,18.1,0,0,1-10.483,4.351v-2.16a1.363,1.363,0,0,0-2.726,0v2.16a18.1,18.1,0,0,1-10.483-4.351l1.521-1.521A1.363,1.363,0,0,0,59.8,80.106L58.28,81.627a18.1,18.1,0,0,1-4.351-10.483h2.16a1.363,1.363,0,1,0,0-2.726h-2.16A18.1,18.1,0,0,1,58.28,57.936L59.8,59.457a1.363,1.363,0,1,0,1.927-1.928l-1.521-1.521A18.1,18.1,0,0,1,70.69,51.658v2.16a1.363,1.363,0,1,0,2.726,0V51.659A18.067,18.067,0,0,1,83.909,56L82.378,57.53a1.363,1.363,0,0,0,1.928,1.928l1.528-1.528A18.469,18.469,0,0,1,87.4,60.035a1.363,1.363,0,0,0,2.3-1.464,20.833,20.833,0,1,0,2.519,5.685Z" fill="#0b489b"/>
    </g>
  </g>
</svg>
