<svg xmlns="http://www.w3.org/2000/svg" xmlns:xlink="http://www.w3.org/1999/xlink" width="92.954" height="92.954" viewBox="0 0 92.954 92.954">
  <defs>
    <clipPath id="clip-path">
      <rect id="Rectángulo_439440" data-name="Rectángulo 439440" width="92.954" height="92.954" transform="translate(598.711 5032.193)" fill="#0b489b" stroke="#0b489b" stroke-width="1"/>
    </clipPath>
    <clipPath id="clip-path-2">
      <path id="path5763" d="M0-92.954H92.954V0H0Z" fill="#0b489b"/>
    </clipPath>
  </defs>
  <g id="Enmascarar_grupo_1098942" data-name="Enmascarar grupo 1098942" transform="translate(-598.711 -5032.193)" clip-path="url(#clip-path)">
    <g id="g5757" transform="translate(598.711 5125.147)">
      <g id="g5759">
        <g id="g5761" clip-path="url(#clip-path-2)">
          <g id="g5767" transform="translate(74.691 -91.592)">
            <path id="path5769" d="M0,0H0A3.658,3.658,0,0,0-3.649,3.644v7.781A3.655,3.655,0,0,0,0,15.069a3.655,3.655,0,0,0,3.649-3.644V3.644A3.658,3.658,0,0,0,0,0Z" fill="none" stroke="#0b489b" stroke-linecap="round" stroke-linejoin="round" stroke-miterlimit="10" stroke-width="2.723"/>
          </g>
          <g id="g5771" transform="translate(55.882 -91.592)">
            <path id="path5773" d="M0,0H0A3.658,3.658,0,0,0-3.649,3.644v7.781A3.655,3.655,0,0,0,0,15.069a3.65,3.65,0,0,0,3.644-3.644V3.644A3.654,3.654,0,0,0,0,0Z" fill="none" stroke="#0b489b" stroke-linecap="round" stroke-linejoin="round" stroke-miterlimit="10" stroke-width="2.723"/>
          </g>
          <g id="g5775" transform="translate(37.067 -91.592)">
            <path id="path5777" d="M0,0H0A3.657,3.657,0,0,0-3.644,3.644v7.781A3.654,3.654,0,0,0,0,15.069a3.655,3.655,0,0,0,3.649-3.644V3.644A3.658,3.658,0,0,0,0,0Z" fill="none" stroke="#0b489b" stroke-linecap="round" stroke-linejoin="round" stroke-miterlimit="10" stroke-width="2.723"/>
          </g>
          <g id="g5779" transform="translate(18.258 -91.592)">
            <path id="path5781" d="M0,0H0A3.658,3.658,0,0,0-3.649,3.644v7.781A3.655,3.655,0,0,0,0,15.069a3.655,3.655,0,0,0,3.649-3.644V3.644A3.658,3.658,0,0,0,0,0Z" fill="none" stroke="#0b489b" stroke-linecap="round" stroke-linejoin="round" stroke-miterlimit="10" stroke-width="2.723"/>
          </g>
          <g id="g5783" transform="translate(86.589 -70.981)">
            <path id="path5785" d="M0,0H-80.224" fill="none" stroke="#0b489b" stroke-linecap="round" stroke-linejoin="round" stroke-miterlimit="10" stroke-width="2.723"/>
          </g>
          <g id="g5787" transform="translate(43.001 -65.109)">
            <path id="path5789" d="M0,0H-35.046a1.593,1.593,0,0,1-1.59-1.585V-16.808a1.6,1.6,0,0,1,1.59-1.59h6.654m63.731,0H42a1.594,1.594,0,0,1,1.585,1.59V-1.585A1.592,1.592,0,0,1,42,0H6.283M16.525-18.4H28.042m-30.326,0H9.232m-30.327,0H-9.577" fill="none" stroke="#0b489b" stroke-linecap="round" stroke-linejoin="round" stroke-miterlimit="10" stroke-width="2.723"/>
          </g>
          <g id="g5791" transform="translate(69.051 -11.392)">
            <path id="path5793" d="M0,0H11.44a4.5,4.5,0,0,0,4.493-4.488v-49.23m-77.018,0v49.23A4.5,4.5,0,0,0-56.593,0h11.44" fill="none" stroke="#0b489b" stroke-linecap="round" stroke-linejoin="round" stroke-miterlimit="10" stroke-width="2.723"/>
          </g>
          <g id="g5795" transform="translate(69.051 -15.566)">
            <path id="path5797" d="M0,0V5.337A1.858,1.858,0,0,1-1.853,7.189H-43.3a1.858,1.858,0,0,1-1.853-1.853V0" fill="none" stroke="#0b489b" stroke-linecap="round" stroke-linejoin="round" stroke-miterlimit="10" stroke-width="2.723"/>
          </g>
          <g id="g5799" transform="translate(51.775 -8.376)">
            <path id="path5801" d="M0,0V1.714a5.32,5.32,0,0,1-5.3,5.3,5.32,5.32,0,0,1-5.3-5.3V0" fill="none" stroke="#0b489b" stroke-linecap="round" stroke-linejoin="round" stroke-miterlimit="10" stroke-width="2.723"/>
          </g>
          <g id="g5803" transform="translate(43.165 -15.566)">
            <path id="path5805" d="M0,0H-19.267c5.4-5.028,7.863-9.8,7.863-14.77v-6.711A14.756,14.756,0,0,1,3.309-36.194,14.76,14.76,0,0,1,18.027-21.481v6.711c0,4.966,2.455,9.742,7.858,14.77H6.284" fill="none" stroke="#0b489b" stroke-linecap="round" stroke-linejoin="round" stroke-miterlimit="10" stroke-width="2.723"/>
          </g>
          <g id="g5807" transform="translate(51.657 -50.813)">
            <path id="path5809" d="M0,0V-2.393A5.2,5.2,0,0,0-5.182-7.581a5.2,5.2,0,0,0-5.182,5.187L-10.359,0" fill="none" stroke="#0b489b" stroke-linecap="round" stroke-linejoin="round" stroke-miterlimit="10" stroke-width="2.723"/>
          </g>
          <g id="g5811" transform="translate(68.341 -39.933)">
            <path id="path5813" d="M0,0A9.783,9.783,0,0,0-6.145-12.413m1.827-5.4A15.491,15.491,0,0,1,5.4,1.822" fill="none" stroke="#0b489b" stroke-linecap="round" stroke-linejoin="round" stroke-miterlimit="10" stroke-width="2.723"/>
          </g>
          <g id="g5815" transform="translate(24.608 -39.933)">
            <path id="path5817" d="M0,0A9.783,9.783,0,0,1,6.145-12.413m-1.822-5.4A15.49,15.49,0,0,0-5.4,1.822" fill="none" stroke="#0b489b" stroke-linecap="round" stroke-linejoin="round" stroke-miterlimit="10" stroke-width="2.723"/>
          </g>
          <g id="g5819" transform="translate(43.001 -65.109)">
            <path id="path5821" d="M0,0-4.837.005" fill="none" stroke="#0b489b" stroke-linecap="round" stroke-linejoin="round" stroke-miterlimit="10" stroke-width="2.723"/>
          </g>
          <g id="g5823" transform="translate(54.122 -65.109)">
            <path id="path5825" d="M0,0H-4.837" fill="none" stroke="#0b489b" stroke-linecap="round" stroke-linejoin="round" stroke-miterlimit="10" stroke-width="2.723"/>
          </g>
        </g>
      </g>
    </g>
  </g>
</svg>
