<svg xmlns="http://www.w3.org/2000/svg" xmlns:xlink="http://www.w3.org/1999/xlink" width="81" height="88.667" viewBox="0 0 81 88.667">
  <defs>
    <clipPath id="clip-path">
      <rect id="Rect치ngulo_434176" data-name="Rect치ngulo 434176" width="81" height="81" transform="translate(395.711 874)" fill="#fff" stroke="#707070" stroke-width="1"/>
    </clipPath>
  </defs>
  <g id="Grupo_1161236" data-name="Grupo 1161236" transform="translate(-395.711 -870)">
    <g id="Grupo_1150935" data-name="Grupo 1150935" transform="translate(404.167 870)">
      <path id="Trazado_987198" data-name="Trazado 987198" d="M62.042,128.667H13.922C5.223,128.667,0,125.951,0,114.382V41.535C0,40.687.517,40,1.154,40H49.337c8.7,0,13.859,5.031,13.859,16.6v70.531c0,.848-.517,1.535-1.154,1.535" transform="translate(0 -40)" fill="#3571c7"/>
    </g>
    <g id="Enmascarar_grupo_1098917" data-name="Enmascarar grupo 1098917" clip-path="url(#clip-path)">
      <g id="Filled_outline" data-name="Filled outline" transform="translate(393.011 871.3)">
        <rect id="Rect치ngulo_439116" data-name="Rect치ngulo 439116" width="40.5" height="72.9" rx="5.4" transform="translate(22.95 9.45)" fill="#e0e0de"/>
        <path id="Trazado_1002650" data-name="Trazado 1002650" d="M22.95,17.55h40.5v54H22.95Z" fill="#c5d7f4"/>
        <path id="Trazado_1002651" data-name="Trazado 1002651" d="M27.039,82.171a5.352,5.352,0,0,0,1.311.179h29.7a5.4,5.4,0,0,0,5.4-5.4v-5.4h-31.9Z" fill="#d6d6d4"/>
        <path id="Trazado_1002652" data-name="Trazado 1002652" d="M58.05,9.45h-.129l-3.44,8.1H63.45v-2.7A5.4,5.4,0,0,0,58.05,9.45Z" fill="#d6d6d4"/>
        <path id="Trazado_1002653" data-name="Trazado 1002653" d="M31.549,71.55h31.9v-54H54.481Z" fill="#c5d7f4"/>
        <path id="Trazado_1002654" data-name="Trazado 1002654" d="M39.15,63.45v-8.1a5.4,5.4,0,0,0-5.4-5.4h-2.7l1.35-5.4-9.45,5.4v18.9h10.8A5.4,5.4,0,0,0,39.15,63.45Z" fill="#3086cd"/>
        <path id="Trazado_1002655" data-name="Trazado 1002655" d="M72.261,47.871,63.45,36.45v21.6l-6.075-6.075a4.773,4.773,0,0,0-6.75,6.75L59.4,67.5l-.6.908a11.821,11.821,0,0,0,.6,13.942H75.6V56.76a13.5,13.5,0,0,0-3.339-8.889Z" fill="#ffc4a3"/>
        <path id="Trazado_1002656" data-name="Trazado 1002656" d="M33.75,31.05H22.95L24.3,37.8l-9.45-6.75H9.45a5.4,5.4,0,0,1-5.4-5.4V9.45a5.4,5.4,0,0,1,5.4-5.4h24.3a5.4,5.4,0,0,1,5.4,5.4v16.2A5.4,5.4,0,0,1,33.75,31.05Z" fill="#ffc4a3"/>
        <path id="Trazado_1002657" data-name="Trazado 1002657" d="M25.65,33.75h10.8a5.4,5.4,0,0,0,5.4-5.4V17.55H22.95V37.607L27,40.5Z" fill="#3086cd"/>
        <path id="Trazado_1002658" data-name="Trazado 1002658" d="M31.05,47.25h-2.7l1.35-5.4-9.45,5.4H9.45a5.4,5.4,0,0,0-5.4,5.4v8.1a5.4,5.4,0,0,0,5.4,5.4h21.6a5.4,5.4,0,0,0,5.4-5.4v-8.1A5.4,5.4,0,0,0,31.05,47.25Z" fill="#512189"/>
        <path id="Trazado_1002659" data-name="Trazado 1002659" d="M31.05,47.25h-.26C25.267,55.562,17.5,62,11.519,66.15H31.05a5.4,5.4,0,0,0,5.4-5.4v-8.1A5.4,5.4,0,0,0,31.05,47.25Z" fill="#7a4bb0"/>
        <path id="Trazado_1002660" data-name="Trazado 1002660" d="M68.85,64.8a1.345,1.345,0,0,1-.954-.4L62.5,59A1.35,1.35,0,1,1,64.4,57.1l5.4,5.4a1.35,1.35,0,0,1-.954,2.3Z" fill="#f7a468"/>
        <path id="Trazado_1002661" data-name="Trazado 1002661" d="M37.266,5.382C27.917,17.051,14.85,24.3,5.436,29.231A5.365,5.365,0,0,0,9.45,31.05h5.4L24.3,37.8l-1.35-6.75h10.8a5.4,5.4,0,0,0,5.4-5.4V9.45a5.363,5.363,0,0,0-1.884-4.068Z" fill="#ffc4a3"/>
        <path id="Trazado_1002662" data-name="Trazado 1002662" d="M13.5,16.2H24.3v8.1H13.5Z" fill="#fb5415"/>
        <g id="Grupo_1176664" data-name="Grupo 1176664">
          <circle id="Elipse_13460" data-name="Elipse 13460" cx="3.375" cy="3.375" r="3.375" transform="translate(12.15 9.45)" fill="#fb5415"/>
          <circle id="Elipse_13461" data-name="Elipse 13461" cx="3.375" cy="3.375" r="3.375" transform="translate(18.9 9.45)" fill="#fb5415"/>
          <path id="Trazado_1002663" data-name="Trazado 1002663" d="M24.3,18.9l5.4-2.7v8.1l-5.4-2.7Z" fill="#fb5415"/>
        </g>
        <path id="Trazado_1002664" data-name="Trazado 1002664" d="M63.45,36.45V50.573l6.838-5.26Z" fill="#fec093"/>
        <path id="Trazado_1002665" data-name="Trazado 1002665" d="M82.35,20.25v16.2a5.4,5.4,0,0,1-5.4,5.4H70.2L60.75,48.6l1.35-6.75H49.95a5.4,5.4,0,0,1-5.4-5.4V20.25a5.4,5.4,0,0,1,5.4-5.4h27a5.4,5.4,0,0,1,5.4,5.4Z" fill="#3571c7"/>
        <path id="Trazado_1002666" data-name="Trazado 1002666" d="M82.35,20.25v16.2a5.4,5.4,0,0,1-5.4,5.4H70.2L60.75,48.6l1.35-6.75H49.95a5.383,5.383,0,0,1-2.668-.7c12.609-5.97,23.942-14.3,32.354-25.583A5.4,5.4,0,0,1,82.35,20.25Z" fill="#073473"/>
        <circle id="Elipse_13462" data-name="Elipse 13462" cx="4.05" cy="4.05" r="4.05" transform="translate(62.1 20.25)" fill="#fb5415"/>
        <path id="Trazado_1002667" data-name="Trazado 1002667" d="M82.35,36.45a5.4,5.4,0,0,1-5.4,5.4H70.2L60.75,48.6l1.35-6.75H49.95a5.4,5.4,0,0,1-5.4-5.4l10.8-8.1,6.139,4.6,4.661,3.5,8.1-5.4Z" fill="#2a8d71"/>
        <path id="Trazado_1002668" data-name="Trazado 1002668" d="M82.35,36.45a5.4,5.4,0,0,1-5.4,5.4H70.2L60.75,48.6l1.35-6.75H49.95a5.383,5.383,0,0,1-2.668-.7,98.125,98.125,0,0,0,14.207-8.193l4.661,3.5,8.1-5.4Z" fill="#4db593"/>
        <path id="Trazado_1002669" data-name="Trazado 1002669" d="M41.85,75.6h2.7v2.7h-2.7Z"/>
        <path id="Trazado_1002670" data-name="Trazado 1002670" d="M9.45,32.4h4.968l9.1,6.5a1.35,1.35,0,0,0,2.108-1.364L24.6,32.4H33.75a6.758,6.758,0,0,0,6.75-6.75V9.45A6.758,6.758,0,0,0,33.75,2.7H9.45A6.758,6.758,0,0,0,2.7,9.45v16.2A6.758,6.758,0,0,0,9.45,32.4ZM5.4,9.45A4.055,4.055,0,0,1,9.45,5.4h24.3A4.055,4.055,0,0,1,37.8,9.45v16.2a4.055,4.055,0,0,1-4.05,4.05H22.95a1.35,1.35,0,0,0-1.324,1.615l.68,3.4-6.672-4.766a1.35,1.35,0,0,0-.784-.251H9.45A4.055,4.055,0,0,1,5.4,25.65Z"/>
        <path id="Trazado_1002671" data-name="Trazado 1002671" d="M12.15,16.2v8.1a1.35,1.35,0,0,0,1.35,1.35H24.3a1.35,1.35,0,0,0,1.35-1.35v-.516L29.1,25.508A1.35,1.35,0,0,0,31.05,24.3V16.2A1.35,1.35,0,0,0,29.1,14.992L25.65,16.716V16.2c0-.022-.012-.041-.013-.063A4.719,4.719,0,1,0,18.9,9.529a4.719,4.719,0,1,0-6.737,6.608c0,.022-.013.041-.013.063Zm10.8,6.75h-8.1v-5.4h8.1Zm5.4-4.566v3.731l-2.7-1.35V19.734ZM22.275,10.8a2.025,2.025,0,1,1-2.025,2.025A2.025,2.025,0,0,1,22.275,10.8Zm-6.75,0A2.025,2.025,0,1,1,13.5,12.825,2.025,2.025,0,0,1,15.525,10.8Z"/>
        <path id="Trazado_1002672" data-name="Trazado 1002672" d="M76.95,13.5H64.663A6.761,6.761,0,0,0,58.05,8.1H43.2v2.7H58.05a4.043,4.043,0,0,1,3.8,2.7H49.95a6.758,6.758,0,0,0-6.75,6.75v16.2a6.758,6.758,0,0,0,6.75,6.75h10.5l-1.027,5.135A1.35,1.35,0,0,0,61.534,49.7l.566-.4v5.5l-3.771-3.771a6.123,6.123,0,0,0-8.659,8.659l7.989,7.989A12.685,12.685,0,0,0,56.392,70.2H21.6v6.75a6.758,6.758,0,0,0,6.75,6.75H75.6a1.35,1.35,0,0,0,1.35-1.35v-25.6a14.782,14.782,0,0,0-3.615-9.708l-2.872-3.725.17-.121H76.95a6.758,6.758,0,0,0,6.75-6.75V20.25A6.758,6.758,0,0,0,76.95,13.5Zm-27,2.7h27A4.055,4.055,0,0,1,81,20.25V33.928l-6-4a1.352,1.352,0,0,0-1.5,0L66.2,34.8,56.16,27.27a1.349,1.349,0,0,0-1.619,0L45.9,33.75V20.25A4.055,4.055,0,0,1,49.95,16.2ZM24.3,76.95V72.9H55.64A13.15,13.15,0,0,0,56.957,81H28.35A4.055,4.055,0,0,1,24.3,76.95ZM71.249,48.759a12.15,12.15,0,0,1,3,8V81H60.082a10.46,10.46,0,0,1-1.466-9.066,10.128,10.128,0,0,1,1.3-2.776l.607-.9a1.35,1.35,0,0,0-.166-1.707l-8.775-8.775a3.423,3.423,0,0,1,4.841-4.84L67.9,64.405,69.8,62.5l-5-5.005V47.366l3.464-2.474Zm5.7-8.259H70.2a1.35,1.35,0,0,0-.785.251l-6.672,4.766.68-3.4A1.35,1.35,0,0,0,62.1,40.5H49.95a4.045,4.045,0,0,1-3.987-3.423l9.387-7.039,9.99,7.493a1.348,1.348,0,0,0,1.558.044l7.352-4.9,6.683,4.455A4.048,4.048,0,0,1,76.95,40.5Z"/>
        <path id="Trazado_1002673" data-name="Trazado 1002673" d="M66.15,29.7a5.4,5.4,0,1,0-5.4-5.4,5.4,5.4,0,0,0,5.4,5.4Zm0-8.1a2.7,2.7,0,1,1-2.7,2.7,2.7,2.7,0,0,1,2.7-2.7Z"/>
        <path id="Trazado_1002674" data-name="Trazado 1002674" d="M9.45,67.5h21.6a6.758,6.758,0,0,0,6.75-6.75v-8.1a6.758,6.758,0,0,0-6.75-6.75h-.97l.929-3.722a1.35,1.35,0,0,0-1.979-1.5L19.891,45.9H9.45A6.758,6.758,0,0,0,2.7,52.65v8.1A6.758,6.758,0,0,0,9.45,67.5ZM5.4,52.65A4.055,4.055,0,0,1,9.45,48.6h10.8a1.35,1.35,0,0,0,.67-.178l6.7-3.831-.583,2.331A1.35,1.35,0,0,0,28.35,48.6h2.7a4.055,4.055,0,0,1,4.05,4.05v8.1a4.055,4.055,0,0,1-4.05,4.05H9.45A4.055,4.055,0,0,1,5.4,60.75Z"/>
        <path id="Trazado_1002675" data-name="Trazado 1002675" d="M8.1,52.65H22.95v2.7H8.1Z"/>
        <path id="Trazado_1002676" data-name="Trazado 1002676" d="M25.65,52.65H32.4v2.7H25.65Z"/>
        <path id="Trazado_1002677" data-name="Trazado 1002677" d="M8.1,58.05H32.4v2.7H8.1Z"/>
      </g>
    </g>
  </g>
</svg>
