<svg xmlns="http://www.w3.org/2000/svg" width="84.999" height="82.329" viewBox="0 0 84.999 82.329">
  <g id="sistema-operacional" transform="translate(-1.253 -2.25)">
    <g id="Grupo_1150915" data-name="Grupo 1150915" transform="translate(3.592 3.254)">
      <g id="Grupo_1150911" data-name="Grupo 1150911">
        <path id="Trazado_998294" data-name="Trazado 998294" d="M35.664,21.742a14.615,14.615,0,0,0-.643-4.284l3.842-2.477-4.337-6.76L30.671,10.7a14.868,14.868,0,0,0-5.716-3.106V3H16.922V7.578A14.72,14.72,0,0,0,11.206,10.7L7.351,8.221,3,14.981l3.842,2.477a15.068,15.068,0,0,0-.629,4.284,14.615,14.615,0,0,0,.643,4.284L3,28.5l4.351,6.76,3.855-2.477A14.72,14.72,0,0,0,16.922,35.9v4.578h8.032V35.9a14.72,14.72,0,0,0,5.716-3.119l3.855,2.477,4.351-6.76-3.842-2.477a15.069,15.069,0,0,0,.629-4.284ZM20.938,29.774a8.032,8.032,0,1,1,8.032-8.032A8.038,8.038,0,0,1,20.938,29.774Z" transform="translate(-3 -3)" fill="#b4e6d2"/>
      </g>
      <g id="Grupo_1150912" data-name="Grupo 1150912" transform="translate(44.444 42.838)">
        <path id="Trazado_998295" data-name="Trazado 998295" d="M68.864,53.742a14.615,14.615,0,0,0-.643-4.284l3.855-2.477-4.351-6.76L63.871,42.7a14.72,14.72,0,0,0-5.716-3.119V35H50.122v4.578A14.72,14.72,0,0,0,44.406,42.7l-3.855-2.477L36.2,46.981l3.842,2.477a14.6,14.6,0,0,0,0,8.568L36.2,60.5l4.351,6.76,3.855-2.477A14.72,14.72,0,0,0,50.122,67.9v4.578h8.032V67.9a14.72,14.72,0,0,0,5.716-3.119l3.855,2.477,4.351-6.76-3.842-2.477a15.068,15.068,0,0,0,.629-4.284ZM54.138,61.774a8.032,8.032,0,1,1,8.032-8.032A8.038,8.038,0,0,1,54.138,61.774Z" transform="translate(-36.2 -35)" fill="#cbbfda"/>
      </g>
      <g id="Grupo_1150913" data-name="Grupo 1150913" transform="translate(14.725 14.725)">
        <path id="Trazado_998296" data-name="Trazado 998296" d="M19.381,43.839a20.366,20.366,0,0,0,2.758,6.667L18.9,54.883l5.087,5.087,4.377-3.24a20.366,20.366,0,0,0,6.667,2.758l.8,5.381h7.189l.8-5.381a20.366,20.366,0,0,0,6.667-2.758l4.377,3.24,5.087-5.087-3.24-4.377a20.366,20.366,0,0,0,2.758-6.667l5.381-.8V35.847l-5.381-.8a20.366,20.366,0,0,0-2.758-6.667L59.957,24,54.87,18.913l-4.377,3.24a20.366,20.366,0,0,0-6.667-2.758L43.036,14H35.847l-.8,5.381a20.366,20.366,0,0,0-6.667,2.758L24,18.9l-5.087,5.087,3.24,4.377a20.366,20.366,0,0,0-2.758,6.667l-5.395.8v7.189Zm10.348-4.4a9.705,9.705,0,1,1,9.705,9.705A9.7,9.7,0,0,1,29.729,39.435Z" transform="translate(-14 -14)" fill="#7a4bb0"/>
      </g>
    </g>
    <g id="Grupo_1150925" data-name="Grupo 1150925" transform="translate(1.253 2.25)">
      <g id="Grupo_1150916" data-name="Grupo 1150916" transform="translate(16.047 14.712)">
        <path id="Trazado_998298" data-name="Trazado 998298" d="M43.293,66.131H36.1a1,1,0,0,1-.991-.857l-.71-4.712a21.419,21.419,0,0,1-5.73-2.369l-3.829,2.825a1.016,1.016,0,0,1-1.312-.094l-5.087-5.087a1.015,1.015,0,0,1-.094-1.312L21.178,50.7a21.24,21.24,0,0,1-2.369-5.73l-4.712-.7a1,1,0,0,1-.857-.991V36.091A1,1,0,0,1,14.1,35.1l4.712-.7a21.678,21.678,0,0,1,2.369-5.73l-2.825-3.829a1.016,1.016,0,0,1,.094-1.312l5.087-5.087a1.015,1.015,0,0,1,1.312-.094l3.829,2.825a21.24,21.24,0,0,1,5.73-2.369l.71-4.712a1.006,1.006,0,0,1,.991-.857h7.189a1,1,0,0,1,.991.857l.709,4.712a21.419,21.419,0,0,1,5.73,2.369l3.829-2.825a1.016,1.016,0,0,1,1.312.094l5.087,5.087a1.015,1.015,0,0,1,.094,1.312L58.22,28.675a21.24,21.24,0,0,1,2.369,5.73l4.712.7a1,1,0,0,1,.857.991V43.28a1,1,0,0,1-.857.991l-4.712.7A21.419,21.419,0,0,1,58.22,50.7l2.825,3.829a1.016,1.016,0,0,1-.094,1.312l-5.087,5.087a1.015,1.015,0,0,1-1.312.094l-3.829-2.825a21.24,21.24,0,0,1-5.73,2.369l-.709,4.712A1.006,1.006,0,0,1,43.293,66.131Zm-6.332-2.008h5.462l.669-4.525a1,1,0,0,1,.776-.83,19.666,19.666,0,0,0,6.345-2.624.987.987,0,0,1,1.138.04L55.034,58.9l3.855-3.869-2.718-3.681a.987.987,0,0,1-.04-1.138,19.089,19.089,0,0,0,2.624-6.345,1,1,0,0,1,.83-.776l4.525-.669V36.961l-4.525-.669a1,1,0,0,1-.83-.776,19.544,19.544,0,0,0-2.624-6.345.987.987,0,0,1,.04-1.138l2.718-3.681L55.034,20.5l-3.681,2.718a1.01,1.01,0,0,1-1.138.04,19.544,19.544,0,0,0-6.345-2.624,1,1,0,0,1-.776-.83l-.669-4.525H36.961L36.292,19.8a1,1,0,0,1-.776.83,19.666,19.666,0,0,0-6.345,2.624.987.987,0,0,1-1.138-.04L24.351,20.5l-3.869,3.855L23.2,28.032a.987.987,0,0,1,.04,1.138,19.544,19.544,0,0,0-2.624,6.345,1,1,0,0,1-.83.776l-4.525.669v5.462l4.525.669a1,1,0,0,1,.83.776,19.666,19.666,0,0,0,2.624,6.345.987.987,0,0,1-.04,1.138l-2.718,3.681L24.351,58.9l3.681-2.718a.987.987,0,0,1,1.138-.04,19.544,19.544,0,0,0,6.345,2.624,1,1,0,0,1,.776.83ZM39.692,50.4A10.709,10.709,0,1,1,50.4,39.692,10.724,10.724,0,0,1,39.692,50.4Zm0-19.411a8.7,8.7,0,1,0,8.7,8.7A8.71,8.71,0,0,0,39.692,30.991Z" transform="translate(-13.24 -13.24)"/>
      </g>
      <g id="Grupo_1150917" data-name="Grupo 1150917" transform="translate(4.013 40.16)">
        <path id="Trazado_998299" data-name="Trazado 998299" d="M42.737,71.741A38.535,38.535,0,0,1,4.25,33.254a1,1,0,0,1,2.008,0A36.513,36.513,0,0,0,42.737,69.733a1,1,0,0,1,0,2.008Z" transform="translate(-4.25 -32.25)"/>
      </g>
      <g id="Grupo_1150918" data-name="Grupo 1150918" transform="translate(41.496 2.677)">
        <path id="Trazado_998300" data-name="Trazado 998300" d="M70.737,43.741a1.011,1.011,0,0,1-1-1A36.513,36.513,0,0,0,33.254,6.258a1,1,0,0,1,0-2.008A38.535,38.535,0,0,1,71.741,42.737,1.011,1.011,0,0,1,70.737,43.741Z" transform="translate(-32.25 -4.25)"/>
      </g>
      <g id="Grupo_1150919" data-name="Grupo 1150919" transform="translate(74.966 37.486)">
        <path id="Trazado_998301" data-name="Trazado 998301" d="M62.269,36.273a.993.993,0,0,1-.709-.295l-4.016-4.016a1,1,0,0,1,1.419-1.419l3.307,3.307,3.307-3.307a1,1,0,0,1,1.419,1.419l-4.016,4.016a.993.993,0,0,1-.709.295Z" transform="translate(-57.253 -30.252)"/>
      </g>
      <g id="Grupo_1150920" data-name="Grupo 1150920" transform="translate(0 38.825)">
        <path id="Trazado_998302" data-name="Trazado 998302" d="M10.285,37.273a.993.993,0,0,1-.71-.295L6.269,33.672,2.963,36.979A1,1,0,0,1,1.544,35.56L5.56,31.544a1.01,1.01,0,0,1,1.419,0l4.016,4.016a1.01,1.01,0,0,1,0,1.419.993.993,0,0,1-.71.295Z" transform="translate(-1.253 -31.252)"/>
      </g>
      <g id="Grupo_1150921" data-name="Grupo 1150921" transform="translate(1.326)">
        <path id="Trazado_998303" data-name="Trazado 998303" d="M16.616,36.962a.785.785,0,0,1-.308-.054,15.745,15.745,0,0,1-4.926-2.637L8.143,36.36a1.015,1.015,0,0,1-1.392-.308L2.4,29.291a.993.993,0,0,1-.134-.75,1,1,0,0,1,.442-.629l3.226-2.075A15.5,15.5,0,0,1,5.452,22a16.154,16.154,0,0,1,.482-3.842L2.707,16.079a1,1,0,0,1-.442-.629A1.045,1.045,0,0,1,2.4,14.7l4.364-6.76a1,1,0,0,1,1.379-.308l3.24,2.088A16.093,16.093,0,0,1,16.175,7.1V3.254a1.011,1.011,0,0,1,1-1h8.032a1.011,1.011,0,0,1,1,1V7.1A15.8,15.8,0,0,1,31.007,9.72l3.24-2.088a1.015,1.015,0,0,1,1.392.308l3.534,5.489a1,1,0,1,1-1.687,1.084L34.5,9.867l-3.012,1.941a1.007,1.007,0,0,1-1.2-.094,13.656,13.656,0,0,0-5.328-2.9,1.016,1.016,0,0,1-.736-.964V4.258H18.2V7.832a.989.989,0,0,1-.736.964,13.656,13.656,0,0,0-5.328,2.9,1.007,1.007,0,0,1-1.2.094L7.9,9.867l-3.253,5.06,3,1.928a1,1,0,0,1,.415,1.138,14.065,14.065,0,0,0-.589,4,13.47,13.47,0,0,0,.6,3.989,1,1,0,0,1-.415,1.138l-3,1.928,3.253,5.06,3.012-1.941a1.007,1.007,0,0,1,1.2.094,13.566,13.566,0,0,0,4.806,2.731,1.009,1.009,0,0,1-.321,1.968Z" transform="translate(-2.243 -2.25)"/>
      </g>
      <g id="Grupo_1150922" data-name="Grupo 1150922" transform="translate(11.242 10.709)">
        <path id="Trazado_998304" data-name="Trazado 998304" d="M16.718,28.068a1.475,1.475,0,0,1-.241-.027A9.033,9.033,0,1,1,26.544,14.828a1,1,0,0,1-1.74.991,7.021,7.021,0,1,0-7.818,10.268.993.993,0,0,1,.723,1.218A1.025,1.025,0,0,1,16.718,28.068Z" transform="translate(-9.65 -10.25)"/>
      </g>
      <g id="Grupo_1150923" data-name="Grupo 1150923" transform="translate(46.587 47.634)">
        <path id="Trazado_998305" data-name="Trazado 998305" d="M58.2,72.528H50.172a1.011,1.011,0,0,1-1-1V67.682a15.517,15.517,0,0,1-4.792-2.624l-3.24,2.088a.959.959,0,0,1-.763.134,1,1,0,0,1-.629-.442L36.21,61.35A1,1,0,1,1,37.9,60.265l2.985,4.645,3.012-1.941a1.007,1.007,0,0,1,1.2.094,13.486,13.486,0,0,0,5.328,2.9,1.016,1.016,0,0,1,.736.964v3.574h6.024V66.932a.989.989,0,0,1,.736-.964,13.75,13.75,0,0,0,5.328-2.9,1.007,1.007,0,0,1,1.2-.094l3.012,1.941,3.253-5.06-3-1.928a1,1,0,0,1-.415-1.138,13.51,13.51,0,0,0,0-7.979,1,1,0,0,1,.415-1.138l3-1.928-3.253-5.06-3.012,1.941a1.007,1.007,0,0,1-1.2-.094A13.566,13.566,0,0,0,58.445,39.8a1.008,1.008,0,1,1,.629-1.914A15.745,15.745,0,0,1,64,40.52l3.24-2.088a.993.993,0,0,1,.75-.134,1,1,0,0,1,.629.442L72.97,45.5a1.015,1.015,0,0,1-.308,1.392L69.449,48.94a15.556,15.556,0,0,1,0,7.684L72.675,58.7a1,1,0,0,1,.295,1.392l-4.351,6.76a1,1,0,0,1-.629.442,1.045,1.045,0,0,1-.75-.134L64,65.071A15.8,15.8,0,0,1,59.208,67.7v3.829a1,1,0,0,1-1,1Z" transform="translate(-36.053 -37.833)"/>
      </g>
      <g id="Grupo_1150924" data-name="Grupo 1150924" transform="translate(56.735 53.811)">
        <path id="Trazado_998306" data-name="Trazado 998306" d="M51.621,60.255a9.062,9.062,0,0,1-7.858-4.578,1,1,0,0,1,.375-1.365.992.992,0,0,1,1.365.375,7.021,7.021,0,1,0,7.818-10.268A.993.993,0,0,1,52.6,43.2a1,1,0,0,1,1.218-.723,9.025,9.025,0,0,1-2.2,17.778Z" transform="translate(-43.634 -42.447)"/>
      </g>
    </g>
  </g>
</svg>
