<svg xmlns="http://www.w3.org/2000/svg" xmlns:xlink="http://www.w3.org/1999/xlink" width="92.954" height="92.954" viewBox="0 0 92.954 92.954">
  <defs>
    <clipPath id="clip-path">
      <rect id="Rectángulo_439441" data-name="Rectángulo 439441" width="92.954" height="92.954" transform="translate(908.711 5032.193)" fill="#0b489b" stroke="#0b489b" stroke-width="1"/>
    </clipPath>
  </defs>
  <g id="Enmascarar_grupo_1098943" data-name="Enmascarar grupo 1098943" transform="translate(-908.711 -5032.193)" clip-path="url(#clip-path)">
    <g id="actualizar" transform="translate(908.711 5032.193)">
      <path id="Trazado_1003893" data-name="Trazado 1003893" d="M85.208,6.2h-3.1V4.648a4.648,4.648,0,1,0-9.3,0V6.2h-6.2V4.648a4.648,4.648,0,0,0-9.3,0V6.2h-6.2V4.648a4.648,4.648,0,1,0-9.3,0V6.2h-6.2V4.648a4.648,4.648,0,1,0-9.3,0V6.2h-6.2V4.648a4.648,4.648,0,1,0-9.3,0V6.2h-3.1A7.755,7.755,0,0,0,0,13.943V72.814A7.755,7.755,0,0,0,7.746,80.56h14a30.867,30.867,0,0,0,49.458,0h14a7.755,7.755,0,0,0,7.746-7.746V13.943A7.755,7.755,0,0,0,85.208,6.2Zm-9.3-1.549a1.549,1.549,0,1,1,3.1,0v6.2a1.549,1.549,0,1,1-3.1,0Zm-15.492,0a1.549,1.549,0,0,1,3.1,0v6.2a1.549,1.549,0,0,1-3.1,0Zm-15.492,0a1.549,1.549,0,0,1,3.1,0v6.2a1.549,1.549,0,0,1-3.1,0Zm-15.492,0a1.549,1.549,0,1,1,3.1,0v6.2a1.549,1.549,0,1,1-3.1,0Zm-15.492,0a1.549,1.549,0,1,1,3.1,0v6.2a1.549,1.549,0,1,1-3.1,0ZM7.746,9.3h3.1v1.549a4.648,4.648,0,0,0,9.3,0V9.3h6.2v1.549a4.648,4.648,0,1,0,9.3,0V9.3h6.2v1.549a4.648,4.648,0,1,0,9.3,0V9.3h6.2v1.549a4.648,4.648,0,0,0,9.3,0V9.3h6.2v1.549a4.648,4.648,0,0,0,9.3,0V9.3h3.1a4.648,4.648,0,0,1,4.648,4.648v4.648H3.1V13.943A4.648,4.648,0,0,1,7.746,9.3Zm38.731,80.56A27.886,27.886,0,1,1,74.363,61.969,27.886,27.886,0,0,1,46.477,89.856ZM85.208,77.462H73.269a30.985,30.985,0,1,0-53.585,0H7.746A4.648,4.648,0,0,1,3.1,72.814V21.689H89.856V72.814a4.648,4.648,0,0,1-4.648,4.648Z" fill="#0b489b"/>
      <path id="Trazado_1003894" data-name="Trazado 1003894" d="M46.477,37.182A24.788,24.788,0,1,0,71.265,61.969,24.788,24.788,0,0,0,46.477,37.182Zm0,46.477A21.689,21.689,0,1,1,68.166,61.969,21.689,21.689,0,0,1,46.477,83.659Z" fill="#0b489b"/>
      <path id="Trazado_1003895" data-name="Trazado 1003895" d="M63.424,58.307,61.8,51.8a2.944,2.944,0,0,0-4.936-1.365l-1.131,1.131a13.931,13.931,0,1,0,1.622,19.119,1.549,1.549,0,0,0-2.415-1.94,10.865,10.865,0,1,1-1.405-14.976l-1.549,1.549a2.944,2.944,0,0,0,1.362,4.934l6.507,1.627a2.931,2.931,0,0,0,3.573-3.566Zm-9.046-1,4.493-4.493,1.583,6.006Z" fill="#0b489b"/>
    </g>
  </g>
</svg>
