<svg xmlns="http://www.w3.org/2000/svg" xmlns:xlink="http://www.w3.org/1999/xlink" width="81" height="88.667" viewBox="0 0 81 88.667">
  <defs>
    <clipPath id="clip-path">
      <rect id="Rectángulo_434176" data-name="Rectángulo 434176" width="81" height="81" transform="translate(395.711 874)" fill="#fff" stroke="#707070" stroke-width="1"/>
    </clipPath>
  </defs>
  <g id="Grupo_1161237" data-name="Grupo 1161237" transform="translate(-395.711 -870)">
    <g id="Grupo_1150935" data-name="Grupo 1150935" transform="translate(404.167 870)">
      <path id="Trazado_987198" data-name="Trazado 987198" d="M62.042,128.667H13.922C5.223,128.667,0,125.951,0,114.382V41.535C0,40.687.517,40,1.154,40H49.337c8.7,0,13.859,5.031,13.859,16.6v70.531c0,.848-.517,1.535-1.154,1.535" transform="translate(0 -40)" fill="#3571c7"/>
    </g>
    <g id="Enmascarar_grupo_1098918" data-name="Enmascarar grupo 1098918" clip-path="url(#clip-path)">
      <g id="accesible" transform="translate(395.711 875.348)">
        <path id="Trazado_1002678" data-name="Trazado 1002678" d="M76.958,72.044V22.271A4.755,4.755,0,0,0,72.2,17.516H8.8a4.755,4.755,0,0,0-4.755,4.755V72.044Zm0,0" fill="#cbbfda"/>
        <path id="Trazado_1002679" data-name="Trazado 1002679" d="M10.383,23.856H70.617V61.9H10.383Zm0,0" fill="#c5d7f4"/>
        <path id="Trazado_1002680" data-name="Trazado 1002680" d="M72.2,17.515H48.109V50.328a9.522,9.522,0,0,0,9.511,9.511H75.056a9.551,9.551,0,0,0,1.9-.191V22.271A4.755,4.755,0,0,0,72.2,17.515Zm0,0" fill="#e0e0e0"/>
        <path id="Trazado_1002681" data-name="Trazado 1002681" d="M10.383,23.856v4.755H48.109V50.328a9.522,9.522,0,0,0,9.511,9.511h13V23.856Zm0,0" fill="#0b489b"/>
        <path id="Trazado_1002682" data-name="Trazado 1002682" d="M51.755,68.24a2.219,2.219,0,0,1-2.219,2.219H31.464a2.219,2.219,0,0,1-2.219-2.219H1.189v4.121a4.755,4.755,0,0,0,4.755,4.755H75.056a4.755,4.755,0,0,0,4.755-4.755V68.24Zm0,0" fill="#cbbfda"/>
        <path id="Trazado_1002683" data-name="Trazado 1002683" d="M75.056,55.083H57.619a4.755,4.755,0,0,1-4.755-4.755V5.944a4.755,4.755,0,0,1,4.755-4.755H75.056a4.755,4.755,0,0,1,4.755,4.755V50.328A4.755,4.755,0,0,1,75.056,55.083Zm0,0" fill="#b4e6d2"/>
        <path id="Trazado_1002684" data-name="Trazado 1002684" d="M52.864,10.7H79.811V40.817H52.864Zm0,0" fill="#c5d7f4"/>
        <path id="Trazado_1002685" data-name="Trazado 1002685" d="M63.96,45.572h4.755v4.755H63.96Zm0,0" fill="#90a4ae"/>
        <path id="Trazado_1002686" data-name="Trazado 1002686" d="M52.864,10.7H79.811v4.755H52.864Zm0,0" fill="#0b489b"/>
        <path id="Trazado_1002687" data-name="Trazado 1002687" d="M41.134,40.5a9.511,9.511,0,1,1-9.511-9.511A9.51,9.51,0,0,1,41.134,40.5Zm0,0" fill="#2a8d71"/>
        <path id="Trazado_1002688" data-name="Trazado 1002688" d="M75.056,25.758a8.718,8.718,0,1,1-8.718-8.718A8.718,8.718,0,0,1,75.056,25.758Zm0,0" fill="#fb5415"/>
        <path id="Trazado_1002689" data-name="Trazado 1002689" d="M29.721,25.045V22.668H9.194v40.42h8.8V60.71h-6.42V25.045Zm0,0"/>
        <path id="Trazado_1002690" data-name="Trazado 1002690" d="M5.231,22.271A3.57,3.57,0,0,1,8.8,18.7H36.99V16.327H8.8a5.951,5.951,0,0,0-5.944,5.944V46.84H5.231Zm0,0"/>
        <path id="Trazado_1002691" data-name="Trazado 1002691" d="M81,14.888V5.944A5.951,5.951,0,0,0,75.056,0H69.281V2.378h5.774a3.57,3.57,0,0,1,3.566,3.566V9.511H54.053V5.944a3.57,3.57,0,0,1,3.566-3.566H66.9V0H57.619a5.951,5.951,0,0,0-5.944,5.944V16.327H39.368V18.7H51.675v3.963H32.1v2.377H51.675V50.328a5.951,5.951,0,0,0,5.944,5.944H69.428V60.71H20.369v2.377H71.806V56.272h3.249a5.9,5.9,0,0,0,.713-.044V67.051h-25.2V68.24a1.031,1.031,0,0,1-1.03,1.03H31.464a1.031,1.031,0,0,1-1.03-1.03V67.051H13.191v2.377h15.08a3.413,3.413,0,0,0,3.194,2.219H49.536a3.413,3.413,0,0,0,3.194-2.219H78.622v2.933a3.57,3.57,0,0,1-3.566,3.566H5.944a3.57,3.57,0,0,1-3.566-3.566V69.428h8.435V67.051H5.231V49.218H2.853V67.051H0v5.31A5.95,5.95,0,0,0,5.944,78.3H75.056A5.95,5.95,0,0,0,81,72.361v-5.31H78.147V55.4A5.946,5.946,0,0,0,81,50.328V17.267H78.622V39.628H54.053V11.889H78.622v3ZM78.622,42.006v8.322a3.57,3.57,0,0,1-3.566,3.566H57.619a3.571,3.571,0,0,1-3.566-3.566V42.006Zm0,0"/>
        <path id="Trazado_1002692" data-name="Trazado 1002692" d="M69.9,44.383H62.771v7.133H69.9Zm-2.378,4.755H65.149V46.761h2.377Zm0,0"/>
        <path id="Trazado_1002693" data-name="Trazado 1002693" d="M31.623,51.2a10.7,10.7,0,1,0-10.7-10.7A10.712,10.712,0,0,0,31.623,51.2Zm0-19.021A8.322,8.322,0,1,1,23.3,40.5a8.331,8.331,0,0,1,8.322-8.322Zm0,0"/>
        <path id="Trazado_1002694" data-name="Trazado 1002694" d="M56.43,25.758a9.907,9.907,0,1,0,9.907-9.907A9.919,9.919,0,0,0,56.43,25.758Zm17.436,0a7.529,7.529,0,1,1-7.529-7.529A7.538,7.538,0,0,1,73.867,25.758Zm0,0"/>
        <path id="Trazado_1002695" data-name="Trazado 1002695" d="M63.167,4.755h6.34V7.133h-6.34Zm0,0"/>
        <path id="Trazado_1002696" data-name="Trazado 1002696" d="M71.885,4.755h2.378V7.133H71.885Zm0,0"/>
        <path id="Trazado_1002697" data-name="Trazado 1002697" d="M58.412,4.755H60.79V7.133H58.412Zm0,0"/>
        <g id="Grupo_1176665" data-name="Grupo 1176665">
          <path id="Trazado_1002698" data-name="Trazado 1002698" d="M37.568,55.955H35.19V53.577h2.378Zm-4.755,0H30.434V53.577h2.378Zm-4.755,0H25.679V53.577h2.378Zm0,0" fill="#fff"/>
          <path id="Trazado_1002699" data-name="Trazado 1002699" d="M17.04,73.867H14.662V71.489H17.04Zm-4.755,0H5.944V71.489h6.34Zm0,0" fill="#fff"/>
          <path id="Trazado_1002700" data-name="Trazado 1002700" d="M29.879,45.668l-4.011-4.011,1.682-1.681,2.329,2.33L35.7,36.489l1.682,1.681Zm0,0" fill="#fff"/>
          <path id="Trazado_1002701" data-name="Trazado 1002701" d="M64.911,30.61,60.9,26.6l1.681-1.682,2.33,2.33,5.183-5.183,1.681,1.682Zm0,0" fill="#fff"/>
        </g>
      </g>
    </g>
  </g>
</svg>
