<svg xmlns="http://www.w3.org/2000/svg" xmlns:xlink="http://www.w3.org/1999/xlink" width="400" height="229" viewBox="0 0 400 229">
  <defs>
    <clipPath id="clip-path">
      <rect id="Rectángulo_439389" data-name="Rectángulo 439389" width="400" height="229" rx="20" transform="translate(1019.711 1144)" fill="#ffc4a3"/>
    </clipPath>
    <clipPath id="clip-path-2">
      <rect id="Rectángulo_412647" data-name="Rectángulo 412647" width="323.234" height="319.859" fill="none"/>
    </clipPath>
    <clipPath id="clip-path-4">
      <rect id="Rectángulo_412644" data-name="Rectángulo 412644" width="10.073" height="16.19" fill="none"/>
    </clipPath>
  </defs>
  <g id="Grupo_1176754" data-name="Grupo 1176754" transform="translate(-1019.711 -1144)">
    <rect id="Rectángulo_439122" data-name="Rectángulo 439122" width="329" height="229" rx="20" transform="translate(1090.711 1144)" fill="#ffc4a3"/>
    <g id="Enmascarar_grupo_1098928" data-name="Enmascarar grupo 1098928" clip-path="url(#clip-path)">
      <g id="Grupo_1116380" data-name="Grupo 1116380" transform="translate(1026.711 1150.641)">
        <g id="Grupo_1116379" data-name="Grupo 1116379" transform="translate(0 0)" clip-path="url(#clip-path-2)">
          <g id="Grupo_1116378" data-name="Grupo 1116378">
            <g id="Grupo_1116377" data-name="Grupo 1116377" clip-path="url(#clip-path-2)">
              <path id="Trazado_983444" data-name="Trazado 983444" d="M264.5,86.806v60.1a9.979,9.979,0,0,0,9.978,9.978H399.746a9.973,9.973,0,0,0,9.971-9.978v-60.1Z" transform="translate(-179.904 -56.146)" fill="#a8c6f7"/>
              <path id="Trazado_983445" data-name="Trazado 983445" d="M264.5,54.889v4.82H409.717v-4.82a9.973,9.973,0,0,0-9.971-9.978H274.478a9.979,9.979,0,0,0-9.978,9.978" transform="translate(-179.904 -29.048)" fill="#0b489b"/>
              <path id="Trazado_983446" data-name="Trazado 983446" d="M352.819,58.862a2.9,2.9,0,1,0,2.9,2.9,2.9,2.9,0,0,0-2.9-2.9" transform="translate(-156.073 -38.072)" fill="#6a994e"/>
              <path id="Trazado_983447" data-name="Trazado 983447" d="M320.617,58.862a2.9,2.9,0,1,0,2.9,2.9,2.9,2.9,0,0,0-2.9-2.9" transform="translate(-112.503 -38.072)" fill="#ffd712"/>
              <path id="Trazado_983448" data-name="Trazado 983448" d="M288.433,58.862a2.9,2.9,0,1,0,2.9,2.9,2.9,2.9,0,0,0-2.9-2.9" transform="translate(-68.952 -38.072)" fill="#e75c37"/>
              <rect id="Rectángulo_412603" data-name="Rectángulo 412603" width="51.755" height="38.187" transform="translate(263.79 30.66)" fill="#dee4f0"/>
              <rect id="Rectángulo_412604" data-name="Rectángulo 412604" width="48.587" height="35.849" transform="translate(10.723 142.621)" fill="#feedda"/>
              <rect id="Rectángulo_412605" data-name="Rectángulo 412605" width="64.075" height="47.277" transform="translate(238.003 40.899)" fill="#f3f9ff"/>
              <path id="Trazado_983449" data-name="Trazado 983449" d="M360.937,580.18v25.773h11.345" transform="translate(-176.53 -375.261)" fill="none" stroke="#cfd6d9" stroke-miterlimit="10" stroke-width="1"/>
              <path id="Trazado_983450" data-name="Trazado 983450" d="M360.755,580.18v34.3L377.371,631.1" transform="translate(-181.556 -375.261)" fill="none" stroke="#cfd6d9" stroke-miterlimit="10" stroke-width="1"/>
              <path id="Trazado_983451" data-name="Trazado 983451" d="M360.754,580.18V624.33L382.236,658.5" transform="translate(-186.42 -375.261)" fill="none" stroke="#cfd6d9" stroke-miterlimit="10" stroke-width="1"/>
              <path id="Trazado_983452" data-name="Trazado 983452" d="M360.125,651.364a.976.976,0,1,1-.976-.976.976.976,0,0,1,.976.976" transform="translate(-163.397 -420.671)" fill="#cfd6d9"/>
              <path id="Trazado_983453" data-name="Trazado 983453" d="M360.125,722.562a.976.976,0,1,1-.976-.976.976.976,0,0,1,.976.976" transform="translate(-163.397 -466.722)" fill="#cfd6d9"/>
              <path id="Trazado_983454" data-name="Trazado 983454" d="M360.125,800.142a.976.976,0,1,1-.976-.976.976.976,0,0,1,.976.976" transform="translate(-163.397 -516.901)" fill="#cfd6d9"/>
              <rect id="Rectángulo_412606" data-name="Rectángulo 412606" width="32.027" height="3.075" transform="translate(199.89 229.155)" fill="#cfd6d9"/>
              <rect id="Rectángulo_412607" data-name="Rectángulo 412607" width="32.027" height="0.507" transform="translate(199.89 234.146)" fill="#cfd6d9"/>
              <rect id="Rectángulo_412608" data-name="Rectángulo 412608" width="32.027" height="0.507" transform="translate(199.89 236.356)" fill="#cfd6d9"/>
              <rect id="Rectángulo_412609" data-name="Rectángulo 412609" width="32.027" height="0.507" transform="translate(199.89 238.565)" fill="#cfd6d9"/>
              <rect id="Rectángulo_412610" data-name="Rectángulo 412610" width="32.027" height="0.507" transform="translate(199.89 240.775)" fill="#cfd6d9"/>
              <rect id="Rectángulo_412611" data-name="Rectángulo 412611" width="21.15" height="0.507" transform="translate(199.89 242.984)" fill="#cfd6d9"/>
              <rect id="Rectángulo_412612" data-name="Rectángulo 412612" width="32.027" height="3.075" transform="translate(199.89 254.42)" fill="#cfd6d9"/>
              <rect id="Rectángulo_412613" data-name="Rectángulo 412613" width="32.027" height="0.507" transform="translate(199.89 259.411)" fill="#cfd6d9"/>
              <rect id="Rectángulo_412614" data-name="Rectángulo 412614" width="32.027" height="0.507" transform="translate(199.89 261.621)" fill="#cfd6d9"/>
              <rect id="Rectángulo_412615" data-name="Rectángulo 412615" width="32.027" height="0.507" transform="translate(199.89 263.83)" fill="#cfd6d9"/>
              <rect id="Rectángulo_412616" data-name="Rectángulo 412616" width="32.027" height="0.507" transform="translate(199.89 266.04)" fill="#cfd6d9"/>
              <rect id="Rectángulo_412617" data-name="Rectángulo 412617" width="21.15" height="0.507" transform="translate(199.89 268.25)" fill="#cfd6d9"/>
              <rect id="Rectángulo_412618" data-name="Rectángulo 412618" width="32.027" height="3.075" transform="translate(199.89 281.799)" fill="#cfd6d9"/>
              <rect id="Rectángulo_412619" data-name="Rectángulo 412619" width="32.027" height="0.507" transform="translate(199.89 286.79)" fill="#cfd6d9"/>
              <rect id="Rectángulo_412620" data-name="Rectángulo 412620" width="32.027" height="0.507" transform="translate(199.89 288.999)" fill="#cfd6d9"/>
              <rect id="Rectángulo_412621" data-name="Rectángulo 412621" width="32.027" height="0.507" transform="translate(199.89 291.209)" fill="#cfd6d9"/>
              <rect id="Rectángulo_412622" data-name="Rectángulo 412622" width="32.027" height="0.507" transform="translate(199.89 293.418)" fill="#cfd6d9"/>
              <rect id="Rectángulo_412623" data-name="Rectángulo 412623" width="21.15" height="0.507" transform="translate(199.89 295.628)" fill="#cfd6d9"/>
              <path id="Trazado_983455" data-name="Trazado 983455" d="M788.626,100.446A25.754,25.754,0,0,1,784.2,111.12l5.006,5.007-6.116,6.116-5.006-5.006a25.771,25.771,0,0,1-10.674,4.424v7.076h-8.649v-7.076a25.772,25.772,0,0,1-10.674-4.424l-5.006,5.006-6.116-6.116,5.006-5.007a25.754,25.754,0,0,1-4.424-10.674H730.47V91.8h7.077a25.758,25.758,0,0,1,4.424-10.674l-5.006-5.006L743.081,70l5.006,5.006a25.763,25.763,0,0,1,10.674-4.424V63.505h8.649v7.076a25.761,25.761,0,0,1,10.674,4.424L783.091,70l6.116,6.116L784.2,81.122A25.758,25.758,0,0,1,788.626,91.8H795.7v8.65ZM777.98,96.121a14.894,14.894,0,1,0-14.894,14.894A14.893,14.893,0,0,0,777.98,96.121" transform="translate(-730.47 -41.075)" fill="#cfd6d9"/>
              <path id="Trazado_983456" data-name="Trazado 983456" d="M851.545,16.078a6.924,6.924,0,0,1-1.19,2.87l1.346,1.346-1.645,1.644-1.346-1.346a6.93,6.93,0,0,1-2.871,1.19v1.9h-2.326v-1.9a6.93,6.93,0,0,1-2.87-1.19L839.3,21.939l-1.645-1.644L839,18.948a6.924,6.924,0,0,1-1.19-2.87h-1.9V13.752h1.9a6.927,6.927,0,0,1,1.19-2.87l-1.346-1.346L839.3,7.891l1.346,1.346a6.925,6.925,0,0,1,2.87-1.19v-1.9h2.326v1.9a6.926,6.926,0,0,1,2.871,1.19l1.346-1.346L851.7,9.535l-1.346,1.346a6.927,6.927,0,0,1,1.19,2.87h1.9v2.326Zm-2.863-1.163a4.005,4.005,0,1,0-4.005,4,4.005,4.005,0,0,0,4.005-4" transform="translate(-825.455 -3.974)" fill="#cfd6d9"/>
              <path id="Trazado_983457" data-name="Trazado 983457" d="M863.708,278.343a9.587,9.587,0,0,1-1.646,3.972l1.863,1.863-2.276,2.276-1.863-1.863a9.586,9.586,0,0,1-3.972,1.646v2.633h-3.219v-2.633a9.584,9.584,0,0,1-3.972-1.646l-1.863,1.863-2.276-2.276,1.863-1.863a9.584,9.584,0,0,1-1.646-3.972h-2.633v-3.219H844.7a9.583,9.583,0,0,1,1.646-3.972l-1.863-1.863,2.276-2.276,1.863,1.863a9.581,9.581,0,0,1,3.972-1.647V264.6h3.219v2.633a9.582,9.582,0,0,1,3.972,1.647l1.863-1.863,2.276,2.276-1.863,1.863a9.587,9.587,0,0,1,1.646,3.972h2.633v3.219Zm-3.962-1.61a5.542,5.542,0,1,0-5.542,5.542,5.543,5.543,0,0,0,5.542-5.542" transform="translate(-840.525 -171.141)" fill="#cfd6d9"/>
              <path id="Trazado_983458" data-name="Trazado 983458" d="M717.609,16.2a11.3,11.3,0,0,1-1.941,4.683l2.2,2.2-2.683,2.683-2.2-2.2a11.3,11.3,0,0,1-4.682,1.94v3.1h-3.795v-3.1a11.291,11.291,0,0,1-4.682-1.94l-2.2,2.2-2.683-2.683,2.2-2.2A11.3,11.3,0,0,1,695.2,16.2h-3.1V12.41h3.1a11.3,11.3,0,0,1,1.941-4.682l-2.2-2.2,2.683-2.683,2.2,2.2A11.291,11.291,0,0,1,704.508,3.1V0H708.3V3.1a11.3,11.3,0,0,1,4.682,1.941l2.2-2.2,2.683,2.683-2.2,2.2a11.3,11.3,0,0,1,1.941,4.682h3.1V16.2Zm-4.67-1.9a6.533,6.533,0,1,0-6.533,6.533,6.533,6.533,0,0,0,6.533-6.533" transform="translate(-641.928)" fill="#cfd6d9"/>
              <path id="Trazado_983459" data-name="Trazado 983459" d="M273.606,272.361a30.408,30.408,0,1,1,30.33-32.672c.058.747.083,1.5.083,2.26a30.382,30.382,0,0,1-30.413,30.413m-.166-73.54-58.662,58.662V322.54H149.721L133.165,339.1H326.8a12.326,12.326,0,0,0,12.325-12.331V198.821Zm-1.309,114.8h50.307v2.6H272.132Zm0-6.325h50.307v2.6H272.132Zm0-6.319h50.307v2.6H272.132Zm0-6.325h50.307v2.6H272.132Zm0-6.319h50.307v2.6H272.132Zm0,31.606h37.006v2.6H272.132ZM225.45,288.33H259.66v34.21H225.45Z" transform="translate(-62.923 -128.597)" fill="#a8c6f7"/>
              <path id="Trazado_983460" data-name="Trazado 983460" d="M198.848,168.181v2.847H133.165l15.178-15.178h38.18a12.326,12.326,0,0,1,12.325,12.331" transform="translate(77.352 -100.804)" fill="#073473"/>
              <rect id="Rectángulo_412624" data-name="Rectángulo 412624" width="50.307" height="2.598" transform="translate(209.209 185.02)" fill="#fff"/>
              <rect id="Rectángulo_412625" data-name="Rectángulo 412625" width="50.307" height="2.604" transform="translate(209.209 178.695)" fill="#fff"/>
              <rect id="Rectángulo_412626" data-name="Rectángulo 412626" width="50.307" height="2.598" transform="translate(209.209 172.376)" fill="#fff"/>
              <rect id="Rectángulo_412627" data-name="Rectángulo 412627" width="50.307" height="2.604" transform="translate(209.209 166.051)" fill="#fff"/>
              <rect id="Rectángulo_412628" data-name="Rectángulo 412628" width="50.307" height="2.598" transform="translate(209.209 159.732)" fill="#fff"/>
              <rect id="Rectángulo_412629" data-name="Rectángulo 412629" width="37.006" height="2.604" transform="translate(209.209 191.339)" fill="#fff"/>
              <path id="Trazado_983461" data-name="Trazado 983461" d="M251.771,314.527c.058.747.083,1.5.083,2.259A30.333,30.333,0,0,1,241,340.07l-8.451-10.059a17.215,17.215,0,0,0,6.166-13.225c0-.434-.013-.862-.051-1.283Z" transform="translate(-10.758 -203.436)" fill="#3571c7"/>
              <path id="Trazado_983462" data-name="Trazado 983462" d="M251.1,278.668l-13.1.977a17.185,17.185,0,0,0-5.208-11.125l9.14-9.434a30.3,30.3,0,0,1,9.172,19.582" transform="translate(-10.086 -167.577)" fill="#2a8d71"/>
              <path id="Trazado_983463" data-name="Trazado 983463" d="M279.914,243.378l-9.14,9.433a17.193,17.193,0,0,0-12.018-4.876V234.8a30.274,30.274,0,0,1,21.158,8.578" transform="translate(-48.073 -151.869)" fill="#fb5415"/>
              <path id="Trazado_983464" data-name="Trazado 983464" d="M270.472,358.367l8.451,10.059a30.207,30.207,0,0,1-12.67,6.344l-2.98-12.8a17.093,17.093,0,0,0,7.2-3.6" transform="translate(-48.677 -231.792)" fill="#c5d7f4"/>
              <path id="Trazado_983465" data-name="Trazado 983465" d="M286.968,317.292c.038.421.051.849.051,1.283a17.215,17.215,0,0,1-6.166,13.225l-11.112-13.225Z" transform="translate(-59.058 -205.225)" fill="#feedda"/>
              <path id="Trazado_983466" data-name="Trazado 983466" d="M287.113,296.92,269.887,298.2,281.9,285.8a17.185,17.185,0,0,1,5.208,11.125" transform="translate(-59.203 -184.852)" fill="#feedda"/>
              <path id="Trazado_983467" data-name="Trazado 983467" d="M288.488,155.849a12.331,12.331,0,0,0-12.331,12.331v2.846h175.5l15.178-15.178Zm24.3,10.748a2.9,2.9,0,1,1,2.9-2.9,2.9,2.9,0,0,1-2.9,2.9m-11.367,0a2.9,2.9,0,1,1,2.9-2.9,2.9,2.9,0,0,1-2.9,2.9m-11.367,0a2.9,2.9,0,1,1,2.9-2.9,2.9,2.9,0,0,1-2.9,2.9" transform="translate(-241.14 -100.803)" fill="#0b489b"/>
              <path id="Trazado_983468" data-name="Trazado 983468" d="M296.651,276.865l-12.018,12.408V271.989a17.192,17.192,0,0,1,12.018,4.876" transform="translate(-73.95 -175.923)" fill="#feedda"/>
              <path id="Trazado_983469" data-name="Trazado 983469" d="M287.2,320.924l11.112,13.225a17.1,17.1,0,0,1-7.2,3.6Z" transform="translate(-76.514 -207.574)" fill="#feedda"/>
              <path id="Trazado_983470" data-name="Trazado 983470" d="M330.379,351.657l2.981,12.8a30.454,30.454,0,0,1-34.217-16.269l11.8-5.763a17.3,17.3,0,0,0,15.529,9.682,16.836,16.836,0,0,0,3.912-.453" transform="translate(-115.783 -221.483)" fill="#fff"/>
              <path id="Trazado_983471" data-name="Trazado 983471" d="M323.111,320.924l3.912,16.824a16.837,16.837,0,0,1-3.912.453,17.3,17.3,0,0,1-15.529-9.682Z" transform="translate(-112.427 -207.574)" fill="#feedda"/>
              <path id="Trazado_983472" data-name="Trazado 983472" d="M335.943,271.989v17.284l-15.529,7.6a17.289,17.289,0,0,1,15.529-24.879" transform="translate(-125.259 -175.923)" fill="#feedda"/>
              <path id="Trazado_983473" data-name="Trazado 983473" d="M349.072,234.8v13.135a17.289,17.289,0,0,0-15.529,24.879l-11.795,5.763A30.42,30.42,0,0,1,349.072,234.8" transform="translate(-138.388 -151.869)" fill="#512189"/>
              <path id="Trazado_983474" data-name="Trazado 983474" d="M494.63,198.821l-58.662,58.662V217.994H332.207V322.54h38.7L354.354,339.1H331.46a12.331,12.331,0,0,1-12.331-12.331V198.821Z" transform="translate(-284.112 -128.597)" fill="#c5d7f4"/>
              <rect id="Rectángulo_412630" data-name="Rectángulo 412630" width="34.211" height="34.21" transform="translate(162.527 159.732)" fill="#fff"/>
              <path id="Trazado_983475" data-name="Trazado 983475" d="M542.015,373.168l8.259-8.259v65.057H485.217l7.621-7.621h4.047V418.3l3.664-3.663v7.71H505.9V409.286l3.664-3.664v16.722h5.355V400.268l3.664-3.664v25.741h5.349V391.256l3.663-3.663v34.753h5.355V382.237l3.657-3.657v43.765h5.355v-49.12Z" transform="translate(-398.418 -236.023)" fill="#0b489b"/>
              <path id="Trazado_983476" data-name="Trazado 983476" d="M499.527,350.03h-5.349V322.981h5.349V350.03Zm12.682-51.367h5.348V350.03h-5.348V298.664Zm14.367,51.367h-5.355V289.811h5.355V350.03ZM503.19,309.335h5.355V350.03H503.19V309.335Zm50.428,18.618,3.664-3.664v-47.16h5.348v41.812l3.663-3.663V281.756h5.355v28.166l3.657-3.657v-7.8h5.355v2.387h.058l8.259-8.259V253.105H485.217V357.651h38.7l7.621-7.621h-1.309V294.24h5.355v51.743l3.663-3.663V300.476H544.6v36.5l3.664-3.664V296.857h5.355v31.1Z" transform="translate(-437.122 -163.708)" fill="#3571c7"/>
              <path id="Trazado_983477" data-name="Trazado 983477" d="M514.117,388.454v49.12h-5.355V393.809Z" transform="translate(-370.578 -251.252)" fill="#abb4b9"/>
              <path id="Trazado_983478" data-name="Trazado 983478" d="M514.117,388.292v.057l-5.355,5.355v-5.412Z" transform="translate(-370.578 -251.147)" fill="#cfd6d9"/>
              <rect id="Rectángulo_412631" data-name="Rectángulo 412631" width="5.355" height="2.387" transform="translate(138.185 134.758)" fill="#1e6652"/>
              <path id="Trazado_983479" data-name="Trazado 983479" d="M539.633,413.97v40.108h-5.355V419.325Z" transform="translate(-405.106 -267.756)" fill="#abb4b9"/>
              <path id="Trazado_983480" data-name="Trazado 983480" d="M539.633,374.359V388.35l-5.355,5.355V374.359h5.355Z" transform="translate(-405.106 -242.136)" fill="#cfd6d9"/>
              <path id="Trazado_983481" data-name="Trazado 983481" d="M539.633,334.224V348.4h-5.355V334.224Z" transform="translate(-405.106 -216.176)" fill="#1e6652"/>
              <path id="Trazado_983482" data-name="Trazado 983482" d="M565.16,439.5v31.089h-5.349V444.852Z" transform="translate(-439.652 -284.271)" fill="#abb4b9"/>
              <path id="Trazado_983483" data-name="Trazado 983483" d="M565.16,387.37v18.414l-5.349,5.349V387.37Z" transform="translate(-439.652 -250.551)" fill="#cfd6d9"/>
              <rect id="Rectángulo_412632" data-name="Rectángulo 412632" width="5.348" height="23.398" transform="translate(120.16 113.421)" fill="#1e6652"/>
              <path id="Trazado_983484" data-name="Trazado 983484" d="M590.682,465.019V487.1h-5.355V470.374Z" transform="translate(-474.186 -300.775)" fill="#abb4b9"/>
              <path id="Trazado_983485" data-name="Trazado 983485" d="M590.682,428.914v12.752l-5.355,5.355V428.914Z" transform="translate(-474.186 -277.422)" fill="#cfd6d9"/>
              <rect id="Rectángulo_412633" data-name="Rectángulo 412633" width="5.355" height="18.343" transform="translate(111.142 133.149)" fill="#fff5a2"/>
              <path id="Trazado_983486" data-name="Trazado 983486" d="M616.21,490.553v13.058h-5.349V495.9Z" transform="translate(-508.732 -317.29)" fill="#abb4b9"/>
              <path id="Trazado_983487" data-name="Trazado 983487" d="M616.21,444.672v16.205l-5.349,5.348V444.672Z" transform="translate(-508.732 -287.614)" fill="#cfd6d9"/>
              <rect id="Rectángulo_412634" data-name="Rectángulo 412634" width="5.348" height="20.29" transform="translate(102.13 136.768)" fill="#1e6652"/>
              <path id="Trazado_983488" data-name="Trazado 983488" d="M640.424,516.069v4.047h-4.047Z" transform="translate(-541.958 -333.793)" fill="#abb4b9"/>
              <path id="Trazado_983489" data-name="Trazado 983489" d="M641.732,420.584v33.725l-4.047,4.047h-1.308V420.584Z" transform="translate(-543.266 -272.034)" fill="#cfd6d9"/>
              <rect id="Rectángulo_412635" data-name="Rectángulo 412635" width="5.355" height="18.018" transform="translate(93.111 130.532)" fill="#fff5a2"/>
              <rect id="Rectángulo_412636" data-name="Rectángulo 412636" width="5.355" height="33.457" transform="translate(84.099 152.865)" fill="#cfd6d9"/>
              <rect id="Rectángulo_412637" data-name="Rectángulo 412637" width="5.355" height="26.762" transform="translate(84.099 126.103)" fill="#fff5a2"/>
              <rect id="Rectángulo_412638" data-name="Rectángulo 412638" width="5.348" height="38.378" transform="translate(75.087 147.944)" fill="#cfd6d9"/>
              <rect id="Rectángulo_412639" data-name="Rectángulo 412639" width="5.348" height="12.988" transform="translate(75.087 134.955)" fill="#fff5a2"/>
              <path id="Trazado_983490" data-name="Trazado 983490" d="M706.986,169.854a2.9,2.9,0,1,1-2.9,2.9,2.9,2.9,0,0,1,2.9-2.9" transform="translate(-635.339 -109.862)" fill="#6a994e"/>
              <rect id="Rectángulo_412640" data-name="Rectángulo 412640" width="5.355" height="33.783" transform="translate(66.068 152.539)" fill="#cfd6d9"/>
              <rect id="Rectángulo_412641" data-name="Rectángulo 412641" width="5.355" height="6.912" transform="translate(66.068 145.627)" fill="#fff5a2"/>
              <path id="Trazado_983491" data-name="Trazado 983491" d="M739.175,169.854a2.9,2.9,0,1,1-2.9,2.9,2.9,2.9,0,0,1,2.9-2.9" transform="translate(-678.896 -109.862)" fill="#ffd712"/>
              <rect id="Rectángulo_412642" data-name="Rectángulo 412642" width="5.348" height="19.109" transform="translate(57.056 167.213)" fill="#cfd6d9"/>
              <rect id="Rectángulo_412643" data-name="Rectángulo 412643" width="5.348" height="7.94" transform="translate(57.056 159.273)" fill="#fff5a2"/>
              <path id="Trazado_983492" data-name="Trazado 983492" d="M771.359,169.854a2.9,2.9,0,1,1-2.9,2.9,2.9,2.9,0,0,1,2.9-2.9" transform="translate(-722.447 -109.862)" fill="#e75c37"/>
              <path id="Trazado_983493" data-name="Trazado 983493" d="M658.11,275.47a3.338,3.338,0,0,1-.388.066,1.271,1.271,0,0,1-.41-.081c.1-.007.161-.015.161-.015a4.075,4.075,0,0,1,.637.029" transform="translate(-567.039 -178.154)" fill="#e29f88"/>
              <path id="Trazado_983494" data-name="Trazado 983494" d="M754.2,555.421a2.633,2.633,0,0,0-2.117-.271,2.593,2.593,0,0,0-1.545,1.26l-1.89.483-.388-1.465,9.345-1.223.058.476Z" transform="translate(-698.719 -358.46)" fill="#ffc5ae"/>
              <path id="Trazado_983495" data-name="Trazado 983495" d="M626.674,538.814c.637.791,1.348,1.37,2.007,1.318.894-.073.33-1.414.081-1.941h.007c.007,0,.007-.007.014-.014.557.8,1.179,1.384,1.78,1.362,1.787-.051-2.087-8.02-2.285-8.43a14.814,14.814,0,0,0,3.032,2.783c.432.3,1.1.037,1.033-.418a11.289,11.289,0,0,0-3.435-6.255,15.157,15.157,0,0,0-2.08-1.758l-.213-1.648-.454-3.442-.059-.476,5.588-.732-2.022-10.115-.74.073s-.205-.761-.439-2.124c1.392-.161,2.732-.256,4.021-.3a44.339,44.339,0,0,1,16.75,2.424s.923-2.922,2.138-7.961l19.131.161.088-.007q.187,1.956.359,3.992s9.016,80.052,3.1,120.02H650.946s-.725-10.166-1.568-20.456C663.4,563.291,666.122,511.9,666.122,511.9c-3.186,25.59-11.162,52.411-18.611,73.417-8.122,22.9-15.622,38.9-15.622,38.9H606.906c12.956-50.7,14.055-89.588,14.055-89.588a20.852,20.852,0,0,0,3.508,3.706,4.621,4.621,0,0,0,1.677.989.4.4,0,0,0,.351-.058.459.459,0,0,0,.1-.41.119.119,0,0,0,.066-.022c.007,0,.007-.007.014-.014" transform="translate(-567.214 -324.151)" fill="#073473"/>
              <path id="Trazado_983496" data-name="Trazado 983496" d="M538.21,289.035a2.281,2.281,0,0,0,.417.132,2.5,2.5,0,0,0,.849.366,1.638,1.638,0,0,0,.293.161l-.578.989-1.736-.864.483-.916a1.842,1.842,0,0,0,.271.132" transform="translate(-406.365 -186.863)" fill="#88939a"/>
              <path id="Trazado_983497" data-name="Trazado 983497" d="M670.036,299.524c3.3.725,8.225,2.366,11.887,5.969a15.7,15.7,0,0,1,3.494,5.061s-2.11,1.516-3.589,5.859a.058.058,0,0,0-.007-.022c-.081-.688-2.219-16.384-19.636-12.107l4.284-5.325a26.254,26.254,0,0,1,3.567.564" transform="translate(-596.066 -193.367)" fill="#512189"/>
              <path id="Trazado_983498" data-name="Trazado 983498" d="M656.584,279.72c-.843.447-1.553-.615-1.854-.264a3.122,3.122,0,0,1-.512.483,1.524,1.524,0,0,1-2.007-2.263,4.206,4.206,0,0,1,2.7-1.231,2.2,2.2,0,0,1,2.227,1.882,1.227,1.227,0,0,1-.556,1.392m1.713-2.051a3.043,3.043,0,0,0-2.952-2.168,3.33,3.33,0,0,1-.388.066,1.272,1.272,0,0,1-.41-.081c-.688.081-3.442.5-4.695,2.454a2.556,2.556,0,0,0-.168.264,6.892,6.892,0,0,0-.711,3.8,7.3,7.3,0,0,0,1.663.535,6.7,6.7,0,0,0,7.478-4.05,6.819,6.819,0,0,0,.183-.82" transform="translate(-564.275 -178.184)" fill="#4c1100"/>
              <path id="Trazado_983499" data-name="Trazado 983499" d="M756.488,557.578a1.759,1.759,0,1,1-1.143,2.183,1.741,1.741,0,0,1,1.143-2.183m3.047.923a2.743,2.743,0,0,0-1.2-1.553,2.632,2.632,0,0,0-2.117-.271,2.593,2.593,0,0,0-1.545,1.26,2.753,2.753,0,0,0,.5,3.266,2.619,2.619,0,0,0,4.27-.856,2.739,2.739,0,0,0,.1-1.846" transform="translate(-702.85 -359.988)" fill="#88939a"/>
              <path id="Trazado_983500" data-name="Trazado 983500" d="M653.734,531.561s-2.717,51.393-16.743,92.972c-.652-8.02-1.37-16.12-1.868-19.555,7.449-21.005,15.425-47.826,18.61-73.417" transform="translate(-554.826 -343.814)" fill="#073473"/>
              <path id="Trazado_983501" data-name="Trazado 983501" d="M658.027,321.257a15.708,15.708,0,0,0-3.493-5.061l.044-.688c.381.147,3.3,1.362,6.152,6.086-.608,3.962-2.7-.337-2.7-.337" transform="translate(-568.676 -204.071)" fill="#f3f9ff"/>
              <path id="Trazado_983502" data-name="Trazado 983502" d="M680.513,370.245c-.578-.1-.908-.989-.739-2s.769-1.758,1.347-1.663.9,1,.732,2.007-.769,1.75-1.34,1.655m1.941-15.124c-.571-.1-.9-1-.732-2.007s.769-1.75,1.34-1.655.9,1,.733,2.007-.769,1.75-1.34,1.655m2.307-23.335s-2.109,1.516-3.589,5.859c0,0,2.183,7.442-7.815,17.71-9.88,10.158-13.242,29.809-12.649,41.791a44.342,44.342,0,0,1,16.75,2.424s.923-2.922,2.139-7.961c2.834-11.784,7.258-35.141,5.163-59.823m-7.163,54.14c-.579-.1-.9-.989-.733-2s.769-1.75,1.34-1.655.9.989.733,2-.769,1.751-1.34,1.655" transform="translate(-595.411 -214.599)" fill="#cbbfda"/>
              <path id="Trazado_983503" data-name="Trazado 983503" d="M660.378,245.76a1.031,1.031,0,0,1,.915.842,2.687,2.687,0,0,0-.571-.132,5.14,5.14,0,0,0-2.212.2,1.859,1.859,0,0,1,1.736-.915c.044.007.088,0,.133.007m-5.252.915a8.106,8.106,0,0,0-3.706.088,2.361,2.361,0,0,1,3.706-.088m1.56,2.915a14.627,14.627,0,0,0,1.64,3.113.874.874,0,0,1,.183,1.186,1.384,1.384,0,0,1-.784.447,3.042,3.042,0,0,1,2.952,2.168c.455-2.527-.3-4.687.4-7.829a8.546,8.546,0,0,0-.689-5.91s-2.153,3.515-11,1.3c0,0-.095,3.676-2.219,4.541,0,0,.059.3.124.754a.249.249,0,0,1,.007.044c.358,1.729,1.523,5.793,4.929,7.375,1.253-1.955,4.007-2.373,4.695-2.453a.926.926,0,0,1-.652-.754,1.814,1.814,0,0,0,1.685-.088c.059-.081-.059-.227-.132-.308-1-1.055-1.136-3.479-1.143-3.581m2.468-.439c-.059-.674.292-1.267.791-1.311.483-.044.937.483,1,1.157s-.294,1.274-.784,1.319-.952-.476-1-1.165m-5.727,1.743c-.5.037-.952-.476-1-1.165s.293-1.267.791-1.311c.483-.044.93.476,1,1.157s-.3,1.274-.783,1.318" transform="translate(-566.655 -157.02)" fill="#ffc5ae"/>
              <path id="Trazado_983504" data-name="Trazado 983504" d="M551.676,298.152a3.853,3.853,0,0,1-.754,4.116c-1.787,1.721.41,1.926-.754,5.91,0,0-1.084,3.142,1.883,3.677a3.761,3.761,0,0,0,2.2-.205,18.147,18.147,0,0,1-1.875,2.058l-2.219,4.395v.007l-6.892-4.834,1.824-3.179s-1.377-5.7,1.238-7.624,5.354-4.321,5.354-4.321" transform="translate(-422.893 -192.845)" fill="#ffc5ae"/>
              <path id="Trazado_983505" data-name="Trazado 983505" d="M528.668,294.264a1.269,1.269,0,0,1,1.538-.491l.044.015.044.015,2.775.959a1.254,1.254,0,0,1,.864,1.523,1.134,1.134,0,0,1-.974.733,1.341,1.341,0,0,1-.651-.073l-2.036-.7-.821-.286a1.242,1.242,0,0,1-.864-1.523.7.7,0,0,1,.081-.169" transform="translate(-397.431 -189.96)" fill="#ffc5ae"/>
              <path id="Trazado_983506" data-name="Trazado 983506" d="M649.373,320.832a16.715,16.715,0,0,0-2.49-1.926l-.008-.007c-2.856-4.724-5.771-5.94-6.152-6.086l.1-1.472c7.463,2.878,10.935,12.385,10.935,12.385a12.474,12.474,0,0,0-2.381-2.893" transform="translate(-554.823 -201.375)" fill="#512189"/>
              <path id="Trazado_983507" data-name="Trazado 983507" d="M655.472,266.808s-.059.007-.161.014a.925.925,0,0,1-.652-.754,1.815,1.815,0,0,0,1.685-.088c.058-.081-.059-.227-.132-.308-1-1.055-1.135-3.479-1.142-3.581a14.641,14.641,0,0,0,1.64,3.113.874.874,0,0,1,.183,1.186,1.385,1.385,0,0,1-.784.447,4.078,4.078,0,0,0-.637-.029" transform="translate(-565.038 -169.521)" fill="#fca27e"/>
              <path id="Trazado_983508" data-name="Trazado 983508" d="M539.135,290.015a2.5,2.5,0,0,1-.85-.366,2.535,2.535,0,0,0,.462.088c.007,0,.007,0,.007.007a3.3,3.3,0,0,0,.381.271" transform="translate(-406.023 -187.345)" fill="#88939a"/>
              <path id="Trazado_983509" data-name="Trazado 983509" d="M741.434,581.617c-.659.051-1.37-.527-2.007-1.318a.191.191,0,0,0,.037-.242l-2.41-3.515a.193.193,0,0,0-.256-.051.186.186,0,0,0-.044.256l2.4,3.516a.191.191,0,0,0,.153.081.055.055,0,0,0,.037-.007.459.459,0,0,1-.1.411.4.4,0,0,1-.352.058,4.617,4.617,0,0,1-1.677-.989,20.871,20.871,0,0,1-3.508-3.706c-.2-.271-.4-.549-.586-.835a12.971,12.971,0,0,1-2.175-7.258l-.205-.777,1.538-.388a2.619,2.619,0,0,0,4.27-.857l2.812-.7.213,1.648a15.154,15.154,0,0,1,2.08,1.758,11.288,11.288,0,0,1,3.435,6.255c.066.454-.6.718-1.033.417a14.822,14.822,0,0,1-3.032-2.783c.2.41,4.073,8.379,2.285,8.43-.6.022-1.223-.564-1.78-1.362a.166.166,0,0,0,.059-.234l-2.336-4.365a.179.179,0,0,0-.242-.073.185.185,0,0,0-.08.249l2.336,4.365a.191.191,0,0,0,.161.1.167.167,0,0,0,.081-.022c.249.527.813,1.868-.081,1.941" transform="translate(-679.967 -365.636)" fill="#ffc5ae"/>
              <path id="Trazado_983510" data-name="Trazado 983510" d="M676.336,378.536c7.6-16.077,21.394-21,20.639-30.161,0,0,2.183,7.442-7.815,17.71-9.88,10.158-13.242,29.809-12.649,41.791-1.289.044-2.63.139-4.021.3a50.935,50.935,0,0,1,3.845-29.641" transform="translate(-611.213 -225.329)" fill="#7a4bb0"/>
              <path id="Trazado_983511" data-name="Trazado 983511" d="M510.878,260.925a1.643,1.643,0,0,1-.293-.161c2.571.659,5.962-2.044,7.793-6.335s1.428-8.621-.828-10a2.536,2.536,0,0,1,.439.139c2.607,1.113,3.157,5.691,1.223,10.224s-5.61,7.3-8.217,6.2a.892.892,0,0,1-.117-.059" transform="translate(-377.474 -158.093)" fill="#88939a"/>
              <path id="Trazado_983512" data-name="Trazado 983512" d="M520.312,244.263c2.256,1.384,2.651,5.713.828,10s-5.222,6.994-7.793,6.335a3.289,3.289,0,0,1-.381-.271c2.5.256,5.61-2.381,7.332-6.423s1.472-8.108-.447-9.734a2.557,2.557,0,0,1,.461.088" transform="translate(-380.234 -157.932)" fill="#88939a"/>
              <path id="Trazado_983513" data-name="Trazado 983513" d="M517.32,243.822l.842.352a2.544,2.544,0,0,0-.439-.139,2.621,2.621,0,0,0-.4-.213" transform="translate(-377.646 -157.704)" fill="#88939a"/>
              <g id="Grupo_1116376" data-name="Grupo 1116376" transform="translate(131.143 86.227)" opacity="0.5">
                <g id="Grupo_1116375" data-name="Grupo 1116375" transform="translate(0)">
                  <g id="Grupo_1116374" data-name="Grupo 1116374" clip-path="url(#clip-path-4)">
                    <path id="Trazado_983514" data-name="Trazado 983514" d="M523.811,244.147c1.919,1.626,2.168,5.7.447,9.734s-4.827,6.679-7.331,6.423c0-.007,0-.007-.007-.007-1.9-1.641-2.139-5.7-.425-9.726s4.812-6.665,7.309-6.423Z" transform="translate(-515.339 -244.131)" fill="#cfd6d9"/>
                  </g>
                </g>
              </g>
              <path id="Trazado_983515" data-name="Trazado 983515" d="M519,243.554a2.623,2.623,0,0,1,.4.213,2.531,2.531,0,0,0-.461-.088h-.008a2.2,2.2,0,0,0-.373-.271,3.463,3.463,0,0,1,.439.147" transform="translate(-379.329 -157.436)" fill="#88939a"/>
              <path id="Trazado_983516" data-name="Trazado 983516" d="M519.705,242.806l.842.359a3.439,3.439,0,0,0-.44-.147,2.629,2.629,0,0,0-.4-.212" transform="translate(-380.873 -157.047)" fill="#88939a"/>
              <path id="Trazado_983517" data-name="Trazado 983517" d="M529.2,243.5c-2.5-.242-5.6,2.4-7.309,6.423s-1.479,8.086.425,9.726a2.567,2.567,0,0,1-.462-.088c-2.241-1.4-2.629-5.72-.806-10s5.208-6.994,7.778-6.335a2.191,2.191,0,0,1,.374.271" transform="translate(-389.59 -157.256)" fill="#abb4b9"/>
              <path id="Trazado_983518" data-name="Trazado 983518" d="M523.066,258.638c-2.38-1.3-2.827-5.72-.959-10.093,1.933-4.526,5.61-7.3,8.218-6.189a2.642,2.642,0,0,1,.4.212c-2.571-.659-5.954,2.051-7.778,6.335s-1.435,8.6.806,10a2.3,2.3,0,0,1-.418-.132,1.852,1.852,0,0,1-.271-.132" transform="translate(-391.492 -156.597)" fill="#88939a"/>
              <path id="Trazado_983519" data-name="Trazado 983519" d="M539.478,301.686a6.074,6.074,0,0,1,.014,2.607,20.807,20.807,0,0,1-4.189,9.14,3.76,3.76,0,0,1-2.2.205c-2.966-.535-1.882-3.677-1.882-3.677s.959.681,1.509-.212a.261.261,0,0,0,.022-.044,1.387,1.387,0,0,0,.557.1l2.79-.1a1.026,1.026,0,1,0-.073-2.014l-2.329.088q.121-.274.263-.571l3.281-.125a1.279,1.279,0,1,0-.095-2.534l-2.014.073c.066-.154.139-.308.205-.469l2.761-.1a1.282,1.282,0,1,0-.1-2.542l-1.509.059c.1-.227.2-.447.293-.659l2.036.7a1.344,1.344,0,0,0,.652.073" transform="translate(-403.949 -194.629)" fill="#fca27e"/>
              <path id="Trazado_983520" data-name="Trazado 983520" d="M537.6,303.824a1.366,1.366,0,0,1-1.4,1.326l-2.761.1-.564.022a1.279,1.279,0,1,1-.095-2.534l1.816-.066,1.509-.059a1.365,1.365,0,0,1,1.494,1.216" transform="translate(-402.045 -195.726)" fill="#ffc5ae"/>
              <path id="Trazado_983521" data-name="Trazado 983521" d="M540.022,312.409a1.36,1.36,0,0,1-1.4,1.318l-3.281.125H535.3a1.282,1.282,0,1,1-.1-2.541l1.311-.044,2.014-.073a1.36,1.36,0,0,1,1.494,1.216" transform="translate(-405.328 -201.279)" fill="#ffc5ae"/>
              <path id="Trazado_983522" data-name="Trazado 983522" d="M542.884,321.048A1.125,1.125,0,0,1,541.7,322.1l-2.79.1a1.394,1.394,0,0,1-.557-.095,1,1,0,0,1-.7-.872,1.119,1.119,0,0,1,1.179-1.047l.462-.015,2.329-.088a1.12,1.12,0,0,1,1.252.959" transform="translate(-409.552 -207.032)" fill="#ffc5ae"/>
              <path id="Trazado_983523" data-name="Trazado 983523" d="M544.618,295.948c-.1.212-.19.432-.293.659l-1.816.066a1.279,1.279,0,1,0,.1,2.534l.564-.022c-.066.161-.139.315-.2.469l-1.311.044a1.282,1.282,0,1,0,.1,2.541h.044q-.143.3-.264.571l-.461.014a1.12,1.12,0,0,0-1.179,1.048,1,1,0,0,0,.7.871.229.229,0,0,1-.022.044c-.549.894-1.509.212-1.509.212,1.164-3.984-1.032-4.189.754-5.91a3.853,3.853,0,0,0,.754-4.116l.952-1.736,1.5.732a.707.707,0,0,0-.081.168,1.242,1.242,0,0,0,.864,1.523Z" transform="translate(-411.777 -189.666)" fill="#4c1100"/>
              <path id="Trazado_983524" data-name="Trazado 983524" d="M540.448,290.771l1.736.864-.007.007-.044-.014a1.27,1.27,0,0,0-1.538.491l-1.5-.732.557-1.011Z" transform="translate(-409.357 -187.815)" fill="#601200"/>
              <path id="Trazado_983525" data-name="Trazado 983525" d="M545.339,337.613,542.2,342.7l.842.527,11.448,7.426.7.484,3.193-4.373-4.468-3.135-6.892-4.834Zm9.573,11.5c-.359-.176-.4-.82-.088-1.443s.835-.989,1.194-.82.388.82.088,1.45-.842.989-1.194.813" transform="translate(-426.655 -218.368)" fill="#cbbfda"/>
              <path id="Trazado_983526" data-name="Trazado 983526" d="M549.481,363.687c.351.176.388.82.088,1.45s-.842.989-1.194.813-.4-.821-.088-1.443.835-.989,1.194-.82" transform="translate(-420.119 -235.206)" fill="#512189"/>
              <path id="Trazado_983527" data-name="Trazado 983527" d="M585.646,354.615a.055.055,0,0,1-.007.022c-.381.813-11.1,23.628-19.892,25.862,0,0-6.738-23.327-10.2-30.425,0-.014-.008-.022-.015-.036-.776-2.344-1.553-4.468-2.314-6.306L562.4,362.8l11.8-15.615Z" transform="translate(-457.807 -222.325)" fill="#cbbfda"/>
              <path id="Trazado_983528" data-name="Trazado 983528" d="M586.727,868.3a9.053,9.053,0,0,1,3.589.667s.037.015.117.051c1.516.652,15,7.7,15.209,12.458H567.574a26.932,26.932,0,0,1,1.611-9.529s10.137,2.358,14.158.417c0,0-.557-2.637.278-3.332a3.37,3.37,0,0,1,1.2-.483,8.4,8.4,0,0,1,1.9-.249" transform="translate(-482.874 -561.612)" fill="#512189"/>
              <path id="Trazado_983529" data-name="Trazado 983529" d="M563.439,392.112c8.8-2.234,19.511-25.049,19.892-25.861-.3.989-10.334,33.3-20.5,31.794-2.637-11.667-6.153-26.066-9.595-36.357,3.465,7.1,10.2,30.424,10.2,30.424" transform="translate(-455.5 -233.94)" fill="#7a4bb0"/>
              <path id="Trazado_983530" data-name="Trazado 983530" d="M614.522,379.335c2.542,11.279,4.248,20.009,4.248,20.009l-7.815-2.959q-.176-2.033-.359-3.992c-4.028-43.22-11.155-59.208-11.345-59.633a16.7,16.7,0,0,1,2.49,1.926c.279.608.564,1.252.857,1.948.761,1.838,1.538,3.962,2.314,6.306.007.014.015.022.015.036,3.442,10.29,6.958,24.69,9.595,36.357" transform="translate(-507.191 -215.23)" fill="#cbbfda"/>
              <path id="Trazado_983531" data-name="Trazado 983531" d="M638.807,862.871l.2,1.714a8.382,8.382,0,0,0-1.9.249,3.373,3.373,0,0,0-1.2.483c-.835.7-.278,3.333-.278,3.333-4.021,1.941-14.158-.418-14.158-.418l-.337-5.676c1.824.44,12.034,2.732,17.68.315" transform="translate(-535.153 -557.902)" fill="#f3f9ff"/>
              <path id="Trazado_983532" data-name="Trazado 983532" d="M639.141,852.706l.432,3.794c-5.646,2.417-15.857.125-17.68-.315l-.205-3.479Z" transform="translate(-535.919 -551.531)" fill="#ffc5ae"/>
              <path id="Trazado_983533" data-name="Trazado 983533" d="M641.611,391.763l-.088.007-19.131-.161c2.835-11.784,7.258-35.141,5.164-59.823,0,0,2.095,4.3,2.7.337l.007.007c.191.425,7.317,16.413,11.345,59.633" transform="translate(-538.205 -214.599)" fill="#391760"/>
              <path id="Trazado_983534" data-name="Trazado 983534" d="M667.048,222.552a3.877,3.877,0,0,1-4.072,4.534s-2.154,3.515-11,1.3c0,0-.095,3.677-2.219,4.541,0,0,.029.286.125.754a.263.263,0,0,1,.007.044c.205,1.487.41,4.512-1.421,3.948-1.091-.337-.652-2.285-.5-2.849.014-.052.022-.088.029-.117s.014-.022.014-.037c0-1.4-3.772-3.611-5.1-1.025a4.7,4.7,0,0,0,.454,5.361l-.095.864a2.889,2.889,0,0,1-2.761-3.413c-4.592-2.161-1.333-6.936-1.333-6.936s-1.1-3.852,2.4-4.812c0,0,.081-1.992,1.6-1.75,0,0,2.153-5.42,7.412-2.556,0,0,5.742-4.219,8.211,0,0,0,6.306-1.428,8.247,2.153" transform="translate(-569.238 -141.341)" fill="#4c1100"/>
              <path id="Trazado_983535" data-name="Trazado 983535" d="M650,252.071a2.67,2.67,0,0,0-.571-.132,5.141,5.141,0,0,0-2.212.2,1.858,1.858,0,0,1,1.736-.915c.044.007.088,0,.132.007a1.031,1.031,0,0,1,.915.842" transform="translate(-555.359 -162.489)" fill="#4c1100"/>
              <path id="Trazado_983536" data-name="Trazado 983536" d="M649.984,258.287c.059.688-.293,1.274-.784,1.318s-.952-.476-1-1.164.293-1.267.791-1.311.937.483,1,1.157" transform="translate(-555.698 -166.31)" fill="#4c1100"/>
              <path id="Trazado_983537" data-name="Trazado 983537" d="M655.205,278.2a4.207,4.207,0,0,0-2.7,1.231,1.524,1.524,0,0,0,2.007,2.263,3.135,3.135,0,0,0,.512-.483c.3-.351,1.011.71,1.854.263a1.226,1.226,0,0,0,.556-1.392,2.2,2.2,0,0,0-2.226-1.882m-.059,2.285a8.278,8.278,0,0,1-2.358-.381.186.186,0,0,1-.117-.235.182.182,0,0,1,.234-.11c.022.007,2.424.8,3.911.007a.188.188,0,0,1,.249.081.183.183,0,0,1-.074.249,4,4,0,0,1-1.845.388" transform="translate(-564.565 -179.942)" fill="#ffc5ae"/>
              <path id="Trazado_983538" data-name="Trazado 983538" d="M667.117,218.731c-1.941-3.581-8.247-2.153-8.247-2.153-2.468-4.219-8.21,0-8.21,0-5.259-2.863-7.412,2.556-7.412,2.556-1.516-.242-1.6,1.75-1.6,1.75-3.5.96-2.4,4.812-2.4,4.812-2.666-3.362.769-5.756.769-5.756-4.394-1.385.908-.718.908-.718-.74-5.09,1.143-1.113,1.143-1.113,2.366-6.7,8.54-3.53,8.54-3.53,7.068-4.79,9.009.7,9.009.7,4.959-.344,7.119,1.472,7.5,3.457" transform="translate(-569.307 -137.52)" fill="#601200"/>
              <path id="Trazado_983539" data-name="Trazado 983539" d="M657.606,282.686a.183.183,0,0,1-.073.249,4.006,4.006,0,0,1-1.845.388,8.284,8.284,0,0,1-2.358-.381.186.186,0,0,1-.117-.235.182.182,0,0,1,.234-.11c.022.007,2.424.8,3.911.007a.188.188,0,0,1,.249.081" transform="translate(-565.106 -182.777)" fill="#fca27e"/>
              <path id="Trazado_983540" data-name="Trazado 983540" d="M666.182,387.469c.571.1.9,1,.732,2.007s-.769,1.75-1.34,1.655-.9-1-.733-2.007.769-1.75,1.34-1.655" transform="translate(-578.531 -250.61)" fill="#512189"/>
              <path id="Trazado_983541" data-name="Trazado 983541" d="M669.042,259.925c.058.688-.3,1.274-.784,1.318s-.952-.475-1-1.164.293-1.267.791-1.311c.483-.044.93.476,1,1.157" transform="translate(-581.486 -167.37)" fill="#4c1100"/>
              <path id="Trazado_983542" data-name="Trazado 983542" d="M668.38,252.273a8.106,8.106,0,0,0-3.706.088,2.361,2.361,0,0,1,3.706-.088" transform="translate(-579.909 -162.618)" fill="#4c1100"/>
              <path id="Trazado_983543" data-name="Trazado 983543" d="M671.684,430.29c.571.1.9,1,.733,2.007s-.769,1.75-1.34,1.655-.908-.989-.74-2,.769-1.757,1.347-1.662" transform="translate(-585.973 -278.307)" fill="#512189"/>
              <path id="Trazado_983544" data-name="Trazado 983544" d="M680.673,282.741l-.22,3.427h-.022c-4.175,3.2-8.774-6.277-9.785-8.51l.168-.5a1.873,1.873,0,0,0,1.465-1.362s-.373,1.963,5.61,5.8a7.677,7.677,0,0,0,1.121.608,7.294,7.294,0,0,0,1.663.535" transform="translate(-594.311 -178.386)" fill="#fca27e"/>
              <path id="Trazado_983545" data-name="Trazado 983545" d="M683.294,291.758l-.1,1.472-.044.688c-3.662-3.6-8.591-5.244-11.887-5.969l1.7-4.944.667-1.941c1.01,2.234,5.61,11.711,9.785,8.51h.022Z" transform="translate(-597.298 -181.793)" fill="#ffc5ae"/>
              <path id="Trazado_983546" data-name="Trazado 983546" d="M672.319,389.983c-.11-2.746-1.531-46.339,19.716-60.087,18.449-11.938,24.733,2.827,25.012,3.5a.057.057,0,0,1,.007.022c.754,9.163-13.037,14.085-20.639,30.161a50.932,50.932,0,0,0-3.845,29.641c.234,1.362.439,2.124.439,2.124l-20.28,1.567s-.249-2.681-.454-6.929Z" transform="translate(-631.293 -210.372)" fill="#cbbfda"/>
              <path id="Trazado_983547" data-name="Trazado 983547" d="M680.479,268.927a2.623,2.623,0,0,0-.168.264,6.892,6.892,0,0,0-.71,3.8,7.65,7.65,0,0,1-1.121-.608c-5.984-3.838-5.61-5.8-5.61-5.8a37.74,37.74,0,0,1,.762-3.933c-.154.564-.593,2.512.5,2.849,1.831.564,1.626-2.461,1.421-3.948.359,1.729,1.524,5.794,4.929,7.376" transform="translate(-594.901 -169.171)" fill="#4c1100"/>
              <path id="Trazado_983548" data-name="Trazado 983548" d="M679.931,474.707c.571.1.9.989.732,2s-.769,1.751-1.34,1.655-.9-.989-.733-2,.769-1.75,1.34-1.655" transform="translate(-597.136 -307.035)" fill="#512189"/>
              <path id="Trazado_983549" data-name="Trazado 983549" d="M686.841,259.292s.059.3.124.754c-.1-.469-.124-.754-.124-.754" transform="translate(-606.323 -167.71)" fill="#4c1100"/>
              <path id="Trazado_983550" data-name="Trazado 983550" d="M717.3,868.278a9.232,9.232,0,0,1,3.538.674s.036.014.117.051c1.516.652,13.9,7.7,14.11,12.458H698.092a26.932,26.932,0,0,1,1.611-9.529s10.136,2.359,14.158.418c0,0-.557-2.637.278-3.332a3.3,3.3,0,0,1,1.2-.484,8.429,8.429,0,0,1,1.956-.256" transform="translate(-658.392 -561.602)" fill="#512189"/>
              <path id="Trazado_983551" data-name="Trazado 983551" d="M692.144,264.227c0,.015-.007.022-.015.037a.331.331,0,0,1,.015-.037" transform="translate(-613.37 -170.902)" fill="#4c1100"/>
              <path id="Trazado_983552" data-name="Trazado 983552" d="M692.752,259.136a4.7,4.7,0,0,0,.454,5.362,2.849,2.849,0,0,0,2,1.15,2,2,0,0,0,.374-.037,1.872,1.872,0,0,0,1.465-1.362,37.742,37.742,0,0,1,.762-3.933c.014-.051.022-.088.029-.117a.28.28,0,0,1,.015-.037c0-1.4-3.772-3.611-5.1-1.025m3.376,4.878a.226.226,0,0,1-.176-.1.385.385,0,0,1-.007-.447,2.448,2.448,0,0,0,.022-2.864c-.307-.439-.63-.667-.974-.637-.659.022-1.186.872-1.194.879a.215.215,0,0,1-.352.051.337.337,0,0,1-.1-.249.387.387,0,0,1,.059-.2c.022-.044.674-1.084,1.568-1.121a1.611,1.611,0,0,1,1.369.857,3.183,3.183,0,0,1-.029,3.728.228.228,0,0,1-.183.1" transform="translate(-619.076 -166.837)" fill="#ffc5ae"/>
              <path id="Trazado_983553" data-name="Trazado 983553" d="M697.72,262.739a3.184,3.184,0,0,1-.029,3.728.216.216,0,0,1-.359,0,.385.385,0,0,1-.007-.447,2.448,2.448,0,0,0,.022-2.864c-.307-.439-.63-.666-.974-.637-.659.022-1.186.872-1.194.879a.214.214,0,0,1-.351.051.335.335,0,0,1-.1-.249.392.392,0,0,1,.058-.2c.022-.044.674-1.084,1.568-1.121a1.611,1.611,0,0,1,1.37.857" transform="translate(-620.454 -169.385)" fill="#fca27e"/>
              <path id="Trazado_983554" data-name="Trazado 983554" d="M698.931,279.655l-.168.5c-.132-.293-.205-.461-.205-.461a2.02,2.02,0,0,0,.374-.037" transform="translate(-622.427 -180.881)" fill="#4c1100"/>
              <path id="Trazado_983555" data-name="Trazado 983555" d="M703.393,278.114l-.667,1.941a3.611,3.611,0,0,1-3.105.7c-1.977-.447,1.677-3.362,1.677-3.362a1.792,1.792,0,0,1-.205-.022l.1-.864a2.85,2.85,0,0,0,2,1.15s.073.168.205.462" transform="translate(-627.057 -178.842)" fill="#4c1100"/>
              <path id="Trazado_983556" data-name="Trazado 983556" d="M717.425,324.792c-.278-.674-6.562-15.439-25.012-3.5-21.247,13.747-19.826,57.341-19.716,60.087h-.044c-.564-11.4-.842-34.116,4.695-46.574,7.6-17.1,20.442-22.119,20.442-22.119,17.417-4.278,19.555,11.418,19.636,12.107" transform="translate(-631.671 -201.768)" fill="#512189"/>
              <path id="Trazado_983557" data-name="Trazado 983557" d="M756.387,533.61l-2.021-10.115-.74.073-20.28,1.568h-.74l1.655,11.367,7.193-.937,9.345-1.223Zm-19.343-1.025c-.578,0-1.055-.828-1.055-1.853s.476-1.853,1.055-1.853,1.055.828,1.055,1.853-.476,1.853-1.055,1.853" transform="translate(-691.909 -338.597)" fill="#512189"/>
              <path id="Trazado_983558" data-name="Trazado 983558" d="M743.279,597.135a.166.166,0,0,1-.059.235c-.037-.052-.073-.1-.1-.147.014.037.044.088.08.161a.164.164,0,0,1-.08.022.19.19,0,0,1-.161-.1l-2.336-4.365a.185.185,0,0,1,.081-.249.179.179,0,0,1,.242.073Z" transform="translate(-681.651 -383.343)" fill="#fca27e"/>
              <path id="Trazado_983559" data-name="Trazado 983559" d="M740.941,605.695c-.007.007-.007.015-.015.015h-.007c-.037-.073-.066-.125-.081-.161.029.051.066.1.1.147" transform="translate(-679.371 -391.669)" fill="#ec008c"/>
              <path id="Trazado_983560" data-name="Trazado 983560" d="M761.052,849.554l-1.106,3.794c-5.61,2.1-15.908-.066-16.992-.3l.725-3.493Z" transform="translate(-700.229 -549.492)" fill="#ffc5ae"/>
              <path id="Trazado_983561" data-name="Trazado 983561" d="M764.491,859.746l-.813,2.819a8.416,8.416,0,0,0-1.955.257,3.313,3.313,0,0,0-1.2.483c-.835.7-.278,3.333-.278,3.333-4.021,1.941-14.158-.418-14.158-.418l1.414-6.775c1.084.234,11.382,2.4,16.992.3" transform="translate(-704.773 -555.89)" fill="#f3f9ff"/>
              <path id="Trazado_983562" data-name="Trazado 983562" d="M749.37,600.5a.191.191,0,0,1-.037.242c-.044-.044-.081-.1-.117-.139.015.066.029.125.037.176a.054.054,0,0,1-.037.007.191.191,0,0,1-.154-.081l-2.4-3.516a.187.187,0,0,1,.044-.256.194.194,0,0,1,.257.051Z" transform="translate(-689.872 -386.079)" fill="#fca27e"/>
              <path id="Trazado_983563" data-name="Trazado 983563" d="M746.928,607.512c-.008.007-.008.015-.015.015a.118.118,0,0,1-.066.022c-.007-.052-.022-.11-.037-.176.037.044.073.1.117.139" transform="translate(-687.468 -392.849)" fill="#ec008c"/>
              <path id="Trazado_983564" data-name="Trazado 983564" d="M750.44,555.553l.454,3.442-2.813.7a2.743,2.743,0,0,0-1.106-3.4Z" transform="translate(-691.492 -359.332)" fill="#4c1100"/>
              <path id="Trazado_983565" data-name="Trazado 983565" d="M760.348,560.5a1.721,1.721,0,1,1-3.3.988,1.721,1.721,0,1,1,3.3-.988" transform="translate(-704.556 -361.711)" fill="#cfd6d9"/>
              <path id="Trazado_983566" data-name="Trazado 983566" d="M769.417,563.713l-1.538.388-.849-3.171,1.89-.483a2.752,2.752,0,0,0,.5,3.266" transform="translate(-717.097 -362.497)" fill="#4c1100"/>
              <path id="Trazado_983567" data-name="Trazado 983567" d="M785.44,538.736c.579,0,1.055.827,1.055,1.853s-.476,1.853-1.055,1.853-1.055-.828-1.055-1.853.476-1.853,1.055-1.853" transform="translate(-740.305 -348.455)" fill="#cbbfda"/>
              <path id="Trazado_983568" data-name="Trazado 983568" d="M688.386,534.3a.191.191,0,0,1-.044-.378,18.312,18.312,0,0,0,11.773-9.472.191.191,0,1,1,.35.155,18.726,18.726,0,0,1-12.035,9.69.182.182,0,0,1-.044.005" transform="translate(-620.318 -339.142)" fill="#4444d8"/>
              <path id="Trazado_983569" data-name="Trazado 983569" d="M717.834,635.356a.194.194,0,0,1-.066-.012.192.192,0,0,1-.114-.246c7.936-21.57,21.894-111.743,22.034-112.651a.191.191,0,1,1,.378.058c-.14.909-14.1,91.12-22.052,112.725a.191.191,0,0,1-.18.125" transform="translate(-670.305 -337.814)" fill="#4444d8"/>
              <path id="Trazado_983570" data-name="Trazado 983570" d="M647.241,716.246h-.024a.191.191,0,0,1-.166-.213c3.255-26.046-.783-65.756-.825-66.153a.191.191,0,0,1,.171-.21.193.193,0,0,1,.21.17c.041.4,4.084,40.151.823,66.24a.191.191,0,0,1-.19.168" transform="translate(-553.713 -420.205)" fill="#4444d8"/>
            </g>
          </g>
        </g>
      </g>
    </g>
  </g>
</svg>
