<svg xmlns="http://www.w3.org/2000/svg" xmlns:xlink="http://www.w3.org/1999/xlink" width="83" height="83" viewBox="0 0 83 83">
  <defs>
    <clipPath id="clip-path">
      <rect id="Rectángulo_403288" data-name="Rectángulo 403288" width="83" height="83" transform="translate(646.711 1418.721)" fill="#fff" stroke="#0b489b" stroke-width="1"/>
    </clipPath>
  </defs>
  <g id="Enmascarar_grupo_1098934" data-name="Enmascarar grupo 1098934" transform="translate(-646.711 -1418.721)" clip-path="url(#clip-path)">
    <g id="correo" transform="translate(646.711 1418.721)">
      <path id="Trazado_1003745" data-name="Trazado 1003745" d="M31.719,36.3l-3.9-25.989L81.1,1.218,44.714,20.71Z" fill="#391760"/>
      <path id="Trazado_1003746" data-name="Trazado 1003746" d="M34.318,16.812,31.719,36.3,81.1,1.218Z" fill="#7a4bb0"/>
      <g id="Grupo_1177331" data-name="Grupo 1177331">
        <path id="Trazado_1003747" data-name="Trazado 1003747" d="M34.318,16.812,60.307,31.106,81.1,1.218Z" fill="#7a4bb0"/>
        <path id="Trazado_1003748" data-name="Trazado 1003748" d="M27.821,10.315l-16.893-9.1H81.1Z" fill="#7a4bb0"/>
      </g>
      <path id="Trazado_1003749" data-name="Trazado 1003749" d="M82.191,1.755A1.23,1.23,0,0,0,81.09,0H10.975A1.269,1.269,0,0,0,10,.433a1.221,1.221,0,0,0,.352,1.858L26.7,11.1a.006.006,0,0,1,0,0l3.808,25.383a1.231,1.231,0,0,0,1.91.812L48.4,25.949a.006.006,0,0,1,.006,0L59.72,32.173a1.229,1.229,0,0,0,1.587-.372l11.9-17.107a1.218,1.218,0,1,0-2-1.391l-11.271,16.2a.006.006,0,0,1-.008,0L37.358,17.093a.006.006,0,0,1,0-.011L77.987,3.54a.006.006,0,0,1,.007.009L74.625,8.39a1.256,1.256,0,0,0,.247,1.724,1.218,1.218,0,0,0,1.721-.286L82.1,1.914A1.259,1.259,0,0,0,82.191,1.755Zm-15.536.693L28.031,9.043h0L15.781,2.448a.006.006,0,0,1,0-.011H66.655A.006.006,0,0,1,66.656,2.448ZM46.02,24.648,33.308,33.68a.006.006,0,0,1-.009-.006l1.991-14.929a.006.006,0,0,1,.009,0l10.722,5.9A.006.006,0,0,1,46.02,24.648ZM33.933,15.656a1.233,1.233,0,0,0-.822.995L31.654,27.577a.006.006,0,0,1-.012,0L29.2,11.32a.006.006,0,0,1,0-.007l36.316-6.2a.006.006,0,0,1,0,.012Z"/>
      <path id="Trazado_1003750" data-name="Trazado 1003750" d="M22.554,48.756c-.342.005-.69.019-1.034.041a1.218,1.218,0,0,0,.077,2.434l.08,0c.3-.02.612-.032.914-.036a1.218,1.218,0,0,0-.036-2.436Z"/>
      <path id="Trazado_1003751" data-name="Trazado 1003751" d="M28.541,49.615a17.033,17.033,0,0,0-1.972-.509A1.218,1.218,0,1,0,26.1,51.5a14.594,14.594,0,0,1,1.689.435,1.218,1.218,0,0,0,.752-2.318Z"/>
      <path id="Trazado_1003752" data-name="Trazado 1003752" d="M14.862,62.3a1.218,1.218,0,0,0,.995-1.406,11.727,11.727,0,0,1-.164-1.7,1.218,1.218,0,1,0-2.436.056,14.164,14.164,0,0,0,.2,2.058A1.23,1.23,0,0,0,14.862,62.3Z"/>
      <path id="Trazado_1003753" data-name="Trazado 1003753" d="M21.8,68.414a8.308,8.308,0,0,1-1.489-.7A1.218,1.218,0,0,0,19.06,69.8a10.764,10.764,0,0,0,1.926.908,1.218,1.218,0,1,0,.814-2.3Z"/>
      <path id="Trazado_1003754" data-name="Trazado 1003754" d="M21.824,46.93c.436-.406.894-.8,1.36-1.17a1.218,1.218,0,0,0-1.515-1.909c-.517.41-1.024.846-1.506,1.3a1.218,1.218,0,1,0,1.66,1.783Z"/>
      <path id="Trazado_1003755" data-name="Trazado 1003755" d="M16.937,64.094a1.218,1.218,0,1,0-2.153,1.14A12.271,12.271,0,0,0,15.918,67a1.218,1.218,0,1,0,1.927-1.49A9.85,9.85,0,0,1,16.937,64.094Z"/>
      <path id="Trazado_1003756" data-name="Trazado 1003756" d="M14.908,56.688a1.218,1.218,0,0,0,1.175-.9,12.676,12.676,0,0,1,.578-1.624,1.218,1.218,0,0,0-2.241-.955,15.29,15.29,0,0,0-.688,1.941,1.219,1.219,0,0,0,1.176,1.537Z"/>
      <path id="Trazado_1003757" data-name="Trazado 1003757" d="M19.19,47.864a1.218,1.218,0,0,0-1.71.212c-.408.523-.8,1.067-1.159,1.617a1.218,1.218,0,0,0,2.036,1.339c.326-.5.677-.986,1.045-1.457A1.219,1.219,0,0,0,19.19,47.864Z"/>
      <path id="Trazado_1003758" data-name="Trazado 1003758" d="M30.554,51.731a1.218,1.218,0,0,0,.3,1.7,8.667,8.667,0,0,1,1.26,1.073,1.218,1.218,0,0,0,1.755-1.69,11.123,11.123,0,0,0-1.615-1.376A1.218,1.218,0,0,0,30.554,51.731Z"/>
      <path id="Trazado_1003759" data-name="Trazado 1003759" d="M26.728,68.66a10.719,10.719,0,0,1-1.583.214l-.095.005a1.218,1.218,0,0,0,.059,2.435h.061l.124-.007a13.136,13.136,0,0,0,1.943-.263,1.218,1.218,0,0,0-.511-2.383Z"/>
      <path id="Trazado_1003760" data-name="Trazado 1003760" d="M36.081,56.506a1.218,1.218,0,1,0-2.326.725,7.237,7.237,0,0,1,.3,1.587,1.218,1.218,0,1,0,2.429-.19A9.691,9.691,0,0,0,36.081,56.506Z"/>
      <path id="Trazado_1003761" data-name="Trazado 1003761" d="M35.2,61.294a1.219,1.219,0,0,0-1.514.823,9.923,9.923,0,0,1-.612,1.567,1.218,1.218,0,0,0,2.186,1.075,12.381,12.381,0,0,0,.762-1.952A1.218,1.218,0,0,0,35.2,61.294Z"/>
      <path id="Trazado_1003762" data-name="Trazado 1003762" d="M25.562,43.915a1.213,1.213,0,0,0,.6-.158c.517-.293,1.055-.57,1.6-.825a1.218,1.218,0,1,0-1.036-2.205c-.6.281-1.191.587-1.761.91a1.218,1.218,0,0,0,.6,2.279Z"/>
      <path id="Trazado_1003763" data-name="Trazado 1003763" d="M31.107,66.375A8.957,8.957,0,0,1,29.8,67.4a1.218,1.218,0,0,0,1.322,2.047,11.4,11.4,0,0,0,1.662-1.307,1.218,1.218,0,1,0-1.678-1.767Z"/>
      <path id="Trazado_1003764" data-name="Trazado 1003764" d="M31.4,39.025c-.329.088-.658.182-.978.279a1.218,1.218,0,0,0,.711,2.331c.293-.089.595-.176.9-.256a1.218,1.218,0,1,0-.629-2.354Z"/>
      <path id="Trazado_1003765" data-name="Trazado 1003765" d="M5.105,80.4A1.218,1.218,0,0,0,2.9,81.425c.143.307.3.617.451.919a1.218,1.218,0,1,0,2.165-1.117C5.372,80.953,5.235,80.673,5.105,80.4Z"/>
      <path id="Trazado_1003766" data-name="Trazado 1003766" d="M3.9,77.162c-.157-.553-.292-1.116-.4-1.675a1.218,1.218,0,1,0-2.391.467c.122.625.273,1.255.449,1.873A1.218,1.218,0,0,0,3.9,77.162Z"/>
      <path id="Trazado_1003767" data-name="Trazado 1003767" d="M1.935,73.315a1.226,1.226,0,0,0,.95-.489,1.82,1.82,0,0,0,.237-1.191c0-.426.014-.858.041-1.284A1.218,1.218,0,0,0,.732,70.2c-.03.478-.046.962-.046,1.439a1.809,1.809,0,0,0,.273,1.224A1.224,1.224,0,0,0,1.935,73.315Z"/>
      <path id="Trazado_1003768" data-name="Trazado 1003768" d="M2.206,67.854a1.23,1.23,0,0,0,1.465-.907c.131-.556.287-1.115.463-1.661a1.218,1.218,0,0,0-2.319-.748c-.2.609-.37,1.233-.516,1.853A1.218,1.218,0,0,0,2.206,67.854Z"/>
      <path id="Trazado_1003769" data-name="Trazado 1003769" d="M7.838,54.815q-.187.178-.371.362c-.329.329-.654.677-.967,1.035a1.218,1.218,0,0,0,1.834,1.6c.277-.317.565-.625.855-.915q.164-.164.33-.322a1.218,1.218,0,0,0-1.682-1.763Z"/>
      <path id="Trazado_1003770" data-name="Trazado 1003770" d="M5.9,58.914a1.219,1.219,0,0,0-1.676.4c-.334.543-.65,1.106-.94,1.676A1.218,1.218,0,1,0,5.452,62.1c.261-.512.545-1.018.845-1.506A1.218,1.218,0,0,0,5.9,58.914Z"/>
      <path id="Trazado_1003771" data-name="Trazado 1003771" d="M13.4,52.276a1.218,1.218,0,0,0-1.671-.421c-.294.175-.587.36-.873.55a1.218,1.218,0,1,0,1.347,2.03c.254-.168.514-.333.775-.488A1.218,1.218,0,0,0,13.4,52.276Z"/>
    </g>
  </g>
</svg>
