<svg xmlns="http://www.w3.org/2000/svg" xmlns:xlink="http://www.w3.org/1999/xlink" width="81" height="88.667" viewBox="0 0 81 88.667">
  <defs>
    <clipPath id="clip-path">
      <rect id="Rectángulo_434176" data-name="Rectángulo 434176" width="81" height="81" transform="translate(395.711 874)" fill="#fff" stroke="#707070" stroke-width="1"/>
    </clipPath>
  </defs>
  <g id="Grupo_1161238" data-name="Grupo 1161238" transform="translate(-395.711 -870)">
    <g id="Grupo_1150935" data-name="Grupo 1150935" transform="translate(404.167 870)">
      <path id="Trazado_987198" data-name="Trazado 987198" d="M62.042,128.667H13.922C5.223,128.667,0,125.951,0,114.382V41.535C0,40.687.517,40,1.154,40H49.337c8.7,0,13.859,5.031,13.859,16.6v70.531c0,.848-.517,1.535-1.154,1.535" transform="translate(0 -40)" fill="#3571c7"/>
    </g>
    <g id="Enmascarar_grupo_1098919" data-name="Enmascarar grupo 1098919" clip-path="url(#clip-path)">
      <g id="transformacion-digital" transform="translate(394.412 872.693)">
        <path id="Trazado_1002702" data-name="Trazado 1002702" d="M73.161,73.161,10.452,81V11.758L73.161,2.613Z" fill="#c6dbf7"/>
        <path id="Trazado_1002703" data-name="Trazado 1002703" d="M79.693,78.011V61.825L67.609,56.177l-.012.017a10.452,10.452,0,0,0-5.032-6.532L58.79,14.371H50.951V40.5H47.032V58.79A10.381,10.381,0,0,0,59,69.12l-.012.017Z" fill="#8e9fb3"/>
        <path id="Trazado_1002704" data-name="Trazado 1002704" d="M50.951,14.371V24.822h8.962L58.79,14.371Z" fill="#8e9fb3"/>
        <path id="Trazado_1002705" data-name="Trazado 1002705" d="M50.951,24.822V35.274H61.024l-1.11-10.452Z" fill="#485666"/>
        <path id="Trazado_1002706" data-name="Trazado 1002706" d="M50.951,35.274V50.638a10.436,10.436,0,0,1,11.614-.98L61.024,35.274Z" fill="#8e9fb3"/>
        <path id="Trazado_1002707" data-name="Trazado 1002707" d="M54.871,48.665V40.5H47.032V58.79Z" fill="#485666"/>
        <circle id="Elipse_13463" data-name="Elipse 13463" cx="10.452" cy="10.452" r="10.452" transform="translate(47.032 48.339)" fill="#5a6c80"/>
        <circle id="Elipse_13464" data-name="Elipse 13464" cx="3.266" cy="3.266" r="3.266" transform="translate(54.218 55.524)" fill="#f2f2f2"/>
        <path id="Trazado_1002708" data-name="Trazado 1002708" d="M32.661,40.5V17.911a3.538,3.538,0,0,0-7.029-.588L20.172,50.076a7.745,7.745,0,0,1-3.188,5.082,2.536,2.536,0,0,1-.379.274L3.919,61.591V77.864l13.064-5.748L22.3,69.777a4.975,4.975,0,0,1,2.339-.431c5.735.366,8.753-1.555,10.308-3.423a7.423,7.423,0,0,0,1.633-4.782V44.419A3.919,3.919,0,0,0,32.661,40.5Z" fill="#ffc4a3"/>
        <path id="Trazado_1002709" data-name="Trazado 1002709" d="M36.581,44.419V61.142a7.423,7.423,0,0,1-1.633,4.782c-1.555,1.868-4.573,3.789-10.308,3.423a4.975,4.975,0,0,0-2.339.431l-5.317,2.339L10.452,74.99V58.411L16.6,55.433a2.536,2.536,0,0,0,.379-.274,7.745,7.745,0,0,0,3.188-5.082l5.461-32.753a3.539,3.539,0,0,1,7.029.588V40.5a3.919,3.919,0,0,1,3.919,3.919Z" fill="#e3ceb5"/>
        <path id="Trazado_1002710" data-name="Trazado 1002710" d="M57.484,54.218a4.573,4.573,0,1,0,4.573,4.573,4.573,4.573,0,0,0-4.573-4.573Zm0,6.532a1.96,1.96,0,1,1,1.96-1.96A1.96,1.96,0,0,1,57.484,60.75Z"/>
        <path id="Trazado_1002711" data-name="Trazado 1002711" d="M17.28,56.552a4.041,4.041,0,0,0,.507-.362,9.077,9.077,0,0,0,3.674-5.9l5.46-32.75a2.233,2.233,0,0,1,4.434.37V39.379a5.181,5.181,0,0,0-3.919,5.04V56.177h2.613V44.419a2.613,2.613,0,0,1,5.226,0V61.142a6.1,6.1,0,0,1-1.331,3.945c-1.829,2.2-5.026,3.227-9.217,2.955a6.293,6.293,0,0,0-2.95.54l-7.93,3.488,1.048,2.4,7.939-3.492a3.64,3.64,0,0,1,1.722-.32c6.413.41,9.73-1.89,11.391-3.885a8.71,8.71,0,0,0,1.941-5.628V44.419a5.226,5.226,0,0,0-3.919-5.04V17.911a4.844,4.844,0,0,0-9.623-.8L18.883,49.863a6.453,6.453,0,0,1-2.647,4.224,1.175,1.175,0,0,0-.119.094c-.055.048-.131.1-.084.076L13.8,55.341l1.142,2.352Z"/>
        <path id="Trazado_1002712" data-name="Trazado 1002712" d="M74.015,1.625A1.314,1.314,0,0,0,72.97,1.32L10.261,10.465a1.306,1.306,0,0,0-1.116,1.293V57.606l-5.8,2.8,1.139,2.352,4.656-2.254V74.137L3.4,76.669l1.045,2.392,4.7-2.069V81a1.306,1.306,0,0,0,1.306,1.306,1.125,1.125,0,0,0,.162-.01L69.261,74.96l9.917,4.249,1.029-2.4-17.5-7.5a11.758,11.758,0,0,0,6.532-10.52c0-.141-.016-.278-.021-.418L79.141,63l1.105-2.367-5.778-2.7V2.613a1.306,1.306,0,0,0-.452-.988ZM57.484,67.935a9.145,9.145,0,1,1,9.145-9.145,9.145,9.145,0,0,1-9.145,9.145Zm1.25-41.806.839,7.839H52.258V26.129Zm-6.476-2.613V15.677h5.356l.837,7.839Zm7.594,13.064,1.176,11a11.553,11.553,0,0,0-4.851-.472V40.5a1.306,1.306,0,0,0-1.306-1.306H52.258V36.58Zm-6.288,5.226v5.912a11.783,11.783,0,0,0-5.226,3.7v-9.61Zm18.29,14.912L68.692,55.24a11.8,11.8,0,0,0-4.9-6.355L60.089,14.232a1.306,1.306,0,0,0-1.3-1.168H50.951a1.306,1.306,0,0,0-1.306,1.306V39.193H47.032A1.306,1.306,0,0,0,45.726,40.5V58.79A11.771,11.771,0,0,0,57.484,70.548a11.9,11.9,0,0,0,1.306-.076l5.72,2.45-52.752,6.6V12.891l60.1-8.768Z"/>
        <path id="Trazado_1002713" data-name="Trazado 1002713" d="M40.5,31.355h2.613V40.5H40.5Z"/>
        <path id="Trazado_1002714" data-name="Trazado 1002714" d="M40.5,48.339h2.613v9.145H40.5Z"/>
        <path id="Trazado_1002715" data-name="Trazado 1002715" d="M40.5,43.113h2.613v2.613H40.5Z"/>
      </g>
    </g>
  </g>
</svg>
