<svg xmlns="http://www.w3.org/2000/svg" xmlns:xlink="http://www.w3.org/1999/xlink" width="83" height="83" viewBox="0 0 83 83">
  <defs>
    <clipPath id="clip-path">
      <rect id="Rectángulo_439405" data-name="Rectángulo 439405" width="83" height="83" transform="translate(917.211 1418.721)" fill="#fff" stroke="#0b489b" stroke-width="1"/>
    </clipPath>
    <clipPath id="clip-path-2">
      <path id="path7086" d="M0-83H83V0H0Z"/>
    </clipPath>
  </defs>
  <g id="Enmascarar_grupo_1098935" data-name="Enmascarar grupo 1098935" transform="translate(-917.211 -1418.721)" clip-path="url(#clip-path)">
    <g id="g7080" transform="translate(917.211 1501.721)">
      <g id="g7082">
        <g id="g7084" clip-path="url(#clip-path-2)">
          <g id="g7090" transform="translate(54.705 -63.208)">
            <path id="path7092" d="M0,0-1.791-3.582a.809.809,0,0,0-.723-.447h-7.952a.809.809,0,0,0-.723.447L-12.981,0A.809.809,0,0,1-13.7.447h-1.429a.809.809,0,0,0-.809.809V13.066a.809.809,0,0,0,.809.809h41.4a.809.809,0,0,0,.809-.809V1.256a.809.809,0,0,0-.809-.809H.723A.809.809,0,0,1,0,0" fill="#2a8d71"/>
          </g>
          <g id="g7094" transform="translate(80.975 -29.191)">
            <path id="path7096" d="M0,0H-41.4a.809.809,0,0,1-.809-.809V-26.047a.809.809,0,0,1,.809-.809H0a.809.809,0,0,1,.809.809V-.809A.809.809,0,0,1,0,0" fill="#b4e6d2"/>
          </g>
          <g id="g7098" transform="translate(80.975 -56.047)">
            <path id="path7100" d="M0,0H-5.676V14.939a8.674,8.674,0,0,1-8.674,8.674H-42.213v2.434a.809.809,0,0,0,.809.809H0a.809.809,0,0,0,.809-.809V.809A.809.809,0,0,0,0,0" fill="#4db593"/>
          </g>
          <g id="g7102" transform="translate(36.301 -56.494)">
            <path id="path7104" d="M0,0-1.791-3.582a.809.809,0,0,0-.723-.447h-7.952a.809.809,0,0,0-.723.447L-12.981,0A.809.809,0,0,1-13.7.447h-1.429a.809.809,0,0,0-.809.809V13.067a.809.809,0,0,0,.809.809h41.4a.809.809,0,0,0,.809-.809V1.256a.809.809,0,0,0-.809-.809H.723A.809.809,0,0,1,0,0" fill="#fb5415"/>
          </g>
          <g id="g7106" transform="translate(62.571 -22.477)">
            <path id="path7108" d="M0,0H-41.4a.809.809,0,0,1-.809-.809V-26.047a.809.809,0,0,1,.809-.809H0a.809.809,0,0,1,.809.809V-.809A.809.809,0,0,1,0,0" fill="#ffc4a3"/>
          </g>
          <g id="g7110" transform="translate(62.571 -49.333)">
            <path id="path7112" d="M0,0H-5.676V14.939a8.674,8.674,0,0,1-8.674,8.674H-42.213v2.434a.809.809,0,0,0,.809.809H0a.809.809,0,0,0,.809-.809V.809A.809.809,0,0,0,0,0" fill="#fb5415"/>
          </g>
          <g id="g7114" transform="translate(17.158 -49.78)">
            <path id="path7116" d="M0,0-1.791-3.582a.809.809,0,0,0-.723-.447h-7.952a.809.809,0,0,0-.723.447L-12.981,0A.809.809,0,0,1-13.7.447h-1.429a.809.809,0,0,0-.809.809V13.067a.809.809,0,0,0,.809.809h41.4a.809.809,0,0,0,.809-.809V1.256a.809.809,0,0,0-.809-.809H.723A.809.809,0,0,1,0,0" fill="#0b489b"/>
          </g>
          <g id="g7118" transform="translate(43.429 -15.763)">
            <path id="path7120" d="M0,0H-41.4a.809.809,0,0,1-.809-.809V-26.047a.809.809,0,0,1,.809-.809H0a.809.809,0,0,1,.809.809V-.809A.809.809,0,0,1,0,0" fill="#c5d7f4"/>
          </g>
          <g id="g7122" transform="translate(43.429 -42.619)">
            <path id="path7124" d="M0,0H-5.676V14.939a8.674,8.674,0,0,1-8.674,8.674H-42.213v2.434a.809.809,0,0,0,.809.809H0a.809.809,0,0,0,.809-.809V.809A.809.809,0,0,0,0,0" fill="#3571c7"/>
          </g>
          <g id="g7126" transform="translate(47.33 -49.333)">
            <path id="path7128" d="M0,0H-3.9" fill="none" stroke="#000" stroke-linecap="round" stroke-linejoin="round" stroke-miterlimit="10" stroke-width="2.432"/>
          </g>
          <g id="g7130" transform="translate(44.238 -22.477)">
            <path id="path7132" d="M0,0H18.334a.809.809,0,0,0,.809-.809V-26.047a.809.809,0,0,0-.809-.809H8.766" fill="none" stroke="#000" stroke-linecap="round" stroke-linejoin="round" stroke-miterlimit="10" stroke-width="2.432"/>
          </g>
          <g id="g7134" transform="translate(44.238 -27.785)">
            <path id="path7136" d="M0,0V11.213a.809.809,0,0,1-.809.809h-41.4a.809.809,0,0,1-.809-.809V-14.026a.809.809,0,0,1,.809-.809h41.4A.809.809,0,0,1,0-14.026v8.351" fill="none" stroke="#000" stroke-linecap="round" stroke-linejoin="round" stroke-miterlimit="10" stroke-width="2.432"/>
          </g>
          <g id="g7138" transform="translate(63.38 -29.191)">
            <path id="path7140" d="M0,0H17.6A.809.809,0,0,0,18.4-.809V-26.047a.809.809,0,0,0-.809-.809H-.809" fill="none" stroke="#000" stroke-linecap="round" stroke-linejoin="round" stroke-miterlimit="10" stroke-width="2.432"/>
          </g>
          <g id="g7142" transform="translate(59.14 -62.761)">
            <path id="path7144" d="M0,0H-3.712a.809.809,0,0,1-.723-.447L-6.227-4.029a.809.809,0,0,0-.723-.447H-14.9a.809.809,0,0,0-.723.447L-17.417-.447A.809.809,0,0,1-18.14,0h-1.429a.809.809,0,0,0-.809.809V6.714" fill="none" stroke="#000" stroke-linecap="round" stroke-linejoin="round" stroke-miterlimit="10" stroke-width="2.432"/>
          </g>
          <g id="g7146" transform="translate(81.784 -50.142)">
            <path id="path7148" d="M0,0V-11.81a.809.809,0,0,0-.809-.809H-16.97" fill="none" stroke="#000" stroke-linecap="round" stroke-linejoin="round" stroke-miterlimit="10" stroke-width="2.432"/>
          </g>
          <g id="g7150" transform="translate(63.38 -48.524)">
            <path id="path7152" d="M0,0V-6.714a.809.809,0,0,0-.809-.809H-26.356a.809.809,0,0,1-.723-.447l-1.791-3.582A.809.809,0,0,0-29.594-12h-7.952a.809.809,0,0,0-.723.447L-40.061-7.97a.809.809,0,0,1-.723.447h-1.429a.809.809,0,0,0-.809.809V-.809" fill="none" stroke="#000" stroke-linecap="round" stroke-linejoin="round" stroke-miterlimit="10" stroke-width="2.432"/>
          </g>
          <g id="g7154" transform="translate(43.429 -49.333)">
            <path id="path7156" d="M0,0H-25.548a.809.809,0,0,1-.723-.447l-1.791-3.582a.809.809,0,0,0-.723-.447h-7.952a.809.809,0,0,0-.723.447L-39.252-.447A.809.809,0,0,1-39.975,0H-41.4a.809.809,0,0,0-.809.809V12.619" fill="none" stroke="#000" stroke-linecap="round" stroke-linejoin="round" stroke-miterlimit="10" stroke-width="2.432"/>
          </g>
          <g id="g7158" transform="translate(44.238 -36.714)">
            <path id="path7160" d="M0,0V-11.81a.809.809,0,0,0-.809-.809H-26.356a.809.809,0,0,1-.723-.447l-1.791-3.582a.809.809,0,0,0-.723-.447h-7.952a.809.809,0,0,0-.723.447l-1.791,3.582a.809.809,0,0,1-.723.447h-1.429a.809.809,0,0,0-.809.809V0" fill="none" stroke="#000" stroke-linecap="round" stroke-linejoin="round" stroke-miterlimit="10" stroke-width="2.432"/>
          </g>
        </g>
      </g>
    </g>
  </g>
</svg>
