<svg xmlns="http://www.w3.org/2000/svg" xmlns:xlink="http://www.w3.org/1999/xlink" width="51" height="51" viewBox="0 0 51 51">
  <defs>
    <clipPath id="clip-path">
      <rect id="Rectángulo_439455" data-name="Rectángulo 439455" width="51" height="51" transform="translate(1019.711 2452)" fill="#512189" stroke="#707070" stroke-width="1"/>
    </clipPath>
  </defs>
  <g id="Grupo_1180945" data-name="Grupo 1180945" transform="translate(-1038.711 -2452)">
    <g id="Enmascarar_grupo_1098947" data-name="Enmascarar grupo 1098947" transform="translate(19)" clip-path="url(#clip-path)">
      <g id="nube" transform="translate(1019.711 2452)">
        <g id="Grupo_1177380" data-name="Grupo 1177380">
          <g id="Grupo_1177379" data-name="Grupo 1177379">
            <path id="Trazado_1004096" data-name="Trazado 1004096" d="M44.958,12.759a6.046,6.046,0,0,0-1.828.281,10.862,10.862,0,0,0,.085-1.344A11.9,11.9,0,0,0,20.271,7.486,7.325,7.325,0,0,0,9.087,13.573a6.069,6.069,0,0,0-3.045-.813,5.949,5.949,0,1,0,0,11.9.85.85,0,1,0,0-1.7A4.249,4.249,0,1,1,9.7,16.428a.85.85,0,0,0,1.5-.784,5.4,5.4,0,0,1-.411-2.035,5.586,5.586,0,0,1,5.634-5.524A5.676,5.676,0,0,1,20.144,9.5a.85.85,0,0,0,1.378-.414A10.193,10.193,0,0,1,41.51,11.7a9.858,9.858,0,0,1-.37,2.634.85.85,0,0,0,1.306.924,4.357,4.357,0,0,1,2.512-.8,4.249,4.249,0,1,1,0,8.5.85.85,0,0,0,0,1.7,5.948,5.948,0,1,0,0-11.9Z" fill="#512189"/>
          </g>
        </g>
        <g id="Grupo_1177382" data-name="Grupo 1177382">
          <g id="Grupo_1177381" data-name="Grupo 1177381">
            <path id="Trazado_1004097" data-name="Trazado 1004097" d="M39.944,32.3H11.051A2.549,2.549,0,0,0,8.5,34.854v3.4A2.549,2.549,0,0,0,11.051,40.8H39.944a2.549,2.549,0,0,0,2.549-2.549v-3.4A2.549,2.549,0,0,0,39.944,32.3Zm.85,5.949a.85.85,0,0,1-.85.85H11.051a.85.85,0,0,1-.85-.85v-3.4a.85.85,0,0,1,.85-.85H39.944a.85.85,0,0,1,.85.85Z" fill="#512189"/>
          </g>
        </g>
        <g id="Grupo_1177384" data-name="Grupo 1177384">
          <g id="Grupo_1177383" data-name="Grupo 1177383">
            <path id="Trazado_1004098" data-name="Trazado 1004098" d="M37.587,34.907a1.647,1.647,0,1,0,1.657,1.637A1.647,1.647,0,0,0,37.587,34.907Zm.02,1.7c-.025,0-.042-.028-.042-.054l.042-.053Z" fill="#512189"/>
          </g>
        </g>
        <g id="Grupo_1177386" data-name="Grupo 1177386">
          <g id="Grupo_1177385" data-name="Grupo 1177385">
            <path id="Trazado_1004099" data-name="Trazado 1004099" d="M28.727,35.7H12.581a.85.85,0,1,0,0,1.7H28.727a.85.85,0,1,0,0-1.7Z" fill="#512189"/>
          </g>
        </g>
        <g id="Grupo_1177388" data-name="Grupo 1177388">
          <g id="Grupo_1177387" data-name="Grupo 1177387">
            <path id="Trazado_1004100" data-name="Trazado 1004100" d="M33.974,35.7h-2.26a.85.85,0,1,0,0,1.7h2.26a.85.85,0,1,0,0-1.7Z" fill="#512189"/>
          </g>
        </g>
        <g id="Grupo_1177390" data-name="Grupo 1177390">
          <g id="Grupo_1177389" data-name="Grupo 1177389">
            <path id="Trazado_1004101" data-name="Trazado 1004101" d="M39.944,42.5H11.051A2.549,2.549,0,0,0,8.5,45.051v3.4A2.549,2.549,0,0,0,11.051,51H39.944a2.549,2.549,0,0,0,2.549-2.549v-3.4A2.549,2.549,0,0,0,39.944,42.5Zm.85,5.949a.85.85,0,0,1-.85.85H11.051a.85.85,0,0,1-.85-.85v-3.4a.85.85,0,0,1,.85-.85H39.944a.85.85,0,0,1,.85.85Z" fill="#512189"/>
          </g>
        </g>
        <g id="Grupo_1177392" data-name="Grupo 1177392">
          <g id="Grupo_1177391" data-name="Grupo 1177391">
            <path id="Trazado_1004102" data-name="Trazado 1004102" d="M37.587,45.1a1.647,1.647,0,1,0,1.657,1.637A1.647,1.647,0,0,0,37.587,45.1Zm.02,1.7c-.025,0-.042-.028-.042-.054l.042-.053Z" fill="#512189"/>
          </g>
        </g>
        <g id="Grupo_1177394" data-name="Grupo 1177394">
          <g id="Grupo_1177393" data-name="Grupo 1177393">
            <path id="Trazado_1004103" data-name="Trazado 1004103" d="M28.727,45.9H12.581a.85.85,0,1,0,0,1.7H28.727a.85.85,0,1,0,0-1.7Z" fill="#512189"/>
          </g>
        </g>
        <g id="Grupo_1177396" data-name="Grupo 1177396">
          <g id="Grupo_1177395" data-name="Grupo 1177395">
            <path id="Trazado_1004104" data-name="Trazado 1004104" d="M33.974,45.9h-2.26a.85.85,0,0,0,0,1.7h2.26a.85.85,0,0,0,0-1.7Z" fill="#512189"/>
          </g>
        </g>
        <g id="Grupo_1177398" data-name="Grupo 1177398">
          <g id="Grupo_1177397" data-name="Grupo 1177397">
            <path id="Trazado_1004105" data-name="Trazado 1004105" d="M39.944,22.107H11.051A2.549,2.549,0,0,0,8.5,24.657v3.4a2.549,2.549,0,0,0,2.549,2.549H39.944a2.549,2.549,0,0,0,2.549-2.549v-3.4A2.549,2.549,0,0,0,39.944,22.107Zm.85,5.949a.85.85,0,0,1-.85.85H11.051a.85.85,0,0,1-.85-.85v-3.4a.85.85,0,0,1,.85-.85H39.944a.85.85,0,0,1,.85.85Z" fill="#512189"/>
          </g>
        </g>
        <g id="Grupo_1177400" data-name="Grupo 1177400">
          <g id="Grupo_1177399" data-name="Grupo 1177399">
            <path id="Trazado_1004106" data-name="Trazado 1004106" d="M38.977,26.124a1.661,1.661,0,0,0-2.99-.664,1.626,1.626,0,0,0-.274,1.228,1.663,1.663,0,0,0,1.635,1.367,1.7,1.7,0,0,0,.277-.023,1.641,1.641,0,0,0,1.078-.68A1.62,1.62,0,0,0,38.977,26.124Zm-1.672.3.038-.067,0,.106C37.309,26.462,37.306,26.441,37.3,26.423Z" fill="#512189"/>
          </g>
        </g>
        <g id="Grupo_1177402" data-name="Grupo 1177402">
          <g id="Grupo_1177401" data-name="Grupo 1177401">
            <path id="Trazado_1004107" data-name="Trazado 1004107" d="M28.557,25.506H12.411a.85.85,0,0,0,0,1.7H28.557a.85.85,0,0,0,0-1.7Z" fill="#512189"/>
          </g>
        </g>
        <g id="Grupo_1177404" data-name="Grupo 1177404">
          <g id="Grupo_1177403" data-name="Grupo 1177403">
            <path id="Trazado_1004108" data-name="Trazado 1004108" d="M33.431,25.506h-2.26a.85.85,0,0,0,0,1.7h2.26a.85.85,0,0,0,0-1.7Z" fill="#512189"/>
          </g>
        </g>
        <g id="Grupo_1177406" data-name="Grupo 1177406">
          <g id="Grupo_1177405" data-name="Grupo 1177405">
            <path id="Trazado_1004109" data-name="Trazado 1004109" d="M21.85,13.858,19.3,11.309a.85.85,0,0,0-1.2,0l-2.549,2.549a.85.85,0,0,0,1.2,1.2l1.1-1.1v5.6a.85.85,0,1,0,1.7,0v-5.6l1.1,1.1a.85.85,0,0,0,1.2-1.2Z" fill="#512189"/>
          </g>
        </g>
        <g id="Grupo_1177408" data-name="Grupo 1177408">
          <g id="Grupo_1177407" data-name="Grupo 1177407">
            <path id="Trazado_1004110" data-name="Trazado 1004110" d="M35.425,16.408a.85.85,0,0,0-1.181,0l-1.1,1.1v-5.6a.85.85,0,1,0-1.7,0v5.6l-1.1-1.1a.85.85,0,0,0-1.2,1.2L31.7,20.159a.85.85,0,0,0,1.2,0l2.549-2.549A.85.85,0,0,0,35.425,16.408Z" fill="#512189"/>
          </g>
        </g>
      </g>
    </g>
  </g>
</svg>
