<svg xmlns="http://www.w3.org/2000/svg" xmlns:xlink="http://www.w3.org/1999/xlink" width="81" height="88.667" viewBox="0 0 81 88.667">
  <defs>
    <clipPath id="clip-path">
      <rect id="Rectángulo_434176" data-name="Rectángulo 434176" width="81" height="81" transform="translate(395.711 874)" fill="#fff" stroke="#707070" stroke-width="1"/>
    </clipPath>
  </defs>
  <g id="Grupo_1166374" data-name="Grupo 1166374" transform="translate(-395.711 -870)">
    <g id="Grupo_1150935" data-name="Grupo 1150935" transform="translate(404.167 870)">
      <path id="Trazado_987198" data-name="Trazado 987198" d="M62.042,128.667H13.922C5.223,128.667,0,125.951,0,114.382V41.535C0,40.687.517,40,1.154,40H49.337c8.7,0,13.859,5.031,13.859,16.6v70.531c0,.848-.517,1.535-1.154,1.535" transform="translate(0 -40)" fill="#3571c7"/>
    </g>
    <g id="Enmascarar_grupo_1098920" data-name="Enmascarar grupo 1098920" clip-path="url(#clip-path)">
      <g id="transformacion-de-datos" transform="translate(395.729 874.019)">
        <g id="Grupo_1176666" data-name="Grupo 1176666">
          <path id="Trazado_1002716" data-name="Trazado 1002716" d="M55.49,45.406l-3.371-2.524a11.81,11.81,0,0,0,0-4.8l3.371-2.524a1.484,1.484,0,0,0,.4-1.931L54.2,30.71a1.483,1.483,0,0,0-1.87-.622l-3.875,1.659a11.712,11.712,0,0,0-4.153-2.4l-.5-4.182a1.485,1.485,0,0,0-1.474-1.309h-3.37a1.486,1.486,0,0,0-1.474,1.309l-.5,4.182a11.71,11.71,0,0,0-4.155,2.4l-3.873-1.659a1.483,1.483,0,0,0-1.87.622L25.4,33.627a1.484,1.484,0,0,0,.4,1.931l3.372,2.524a11.81,11.81,0,0,0,0,4.8L25.8,45.406a1.485,1.485,0,0,0-.4,1.931l1.686,2.919a1.484,1.484,0,0,0,1.87.622l3.873-1.659a11.706,11.706,0,0,0,4.155,2.4l.5,4.182a1.485,1.485,0,0,0,1.474,1.307h3.37A1.484,1.484,0,0,0,43.8,55.8l.5-4.182a11.714,11.714,0,0,0,4.153-2.4l3.875,1.659a1.485,1.485,0,0,0,1.87-.622l1.684-2.919A1.485,1.485,0,0,0,55.49,45.406ZM40.644,46.59a6.108,6.108,0,1,1,6.107-6.108A6.109,6.109,0,0,1,40.644,46.59Z" fill="#8d9ca8"/>
          <path id="Trazado_1002717" data-name="Trazado 1002717" d="M36.584,29.486a11.691,11.691,0,0,0-3.753,2.26l-3.873-1.659a1.483,1.483,0,0,0-1.87.622L25.4,33.627a1.484,1.484,0,0,0,.4,1.931l3.372,2.524a11.811,11.811,0,0,0,0,4.8L25.8,45.406a1.485,1.485,0,0,0-.4,1.931l1.686,2.919a1.484,1.484,0,0,0,1.87.622l3.873-1.659a11.7,11.7,0,0,0,2.083,1.489,16.8,16.8,0,0,1,1.671-21.221Z" fill="#7a8c98"/>
          <path id="Trazado_1002718" data-name="Trazado 1002718" d="M55.49,45.406l-3.371-2.524a11.81,11.81,0,0,0,0-4.8l3.371-2.524a1.484,1.484,0,0,0,.4-1.931L54.2,30.71a1.483,1.483,0,0,0-1.87-.622l-3.875,1.659a11.712,11.712,0,0,0-4.153-2.4l-.5-4.182a1.485,1.485,0,0,0-1.474-1.309h-3.37a1.486,1.486,0,0,0-1.474,1.309l-.5,4.182a11.71,11.71,0,0,0-4.155,2.4l-3.873-1.659a1.483,1.483,0,0,0-1.87.622L25.4,33.627a1.484,1.484,0,0,0,.4,1.931l3.372,2.524a11.81,11.81,0,0,0,0,4.8L25.8,45.406a1.485,1.485,0,0,0-.4,1.931l1.686,2.919a1.484,1.484,0,0,0,1.87.622l3.873-1.659a11.706,11.706,0,0,0,4.155,2.4l.5,4.182a1.485,1.485,0,0,0,1.474,1.307h3.37A1.484,1.484,0,0,0,43.8,55.8l.5-4.182a11.714,11.714,0,0,0,4.153-2.4l3.875,1.659a1.485,1.485,0,0,0,1.87-.622l1.684-2.919A1.485,1.485,0,0,0,55.49,45.406ZM40.644,46.59a6.108,6.108,0,1,1,6.107-6.108A6.109,6.109,0,0,1,40.644,46.59Z" fill="none" stroke="#000" stroke-linecap="round" stroke-linejoin="round" stroke-miterlimit="10" stroke-width="2.372"/>
        </g>
        <g id="Grupo_1176671" data-name="Grupo 1176671">
          <path id="Trazado_1002719" data-name="Trazado 1002719" d="M29.774,78.285H4.025a2.677,2.677,0,0,1-2.677-2.677V70.375A2.677,2.677,0,0,1,4.025,67.7L16.9,62.4,29.774,67.7a2.677,2.677,0,0,1,2.677,2.677v5.234A2.677,2.677,0,0,1,29.774,78.285Z" fill="#c5d7f4"/>
          <path id="Trazado_1002720" data-name="Trazado 1002720" d="M29.774,67.7H4.025A2.677,2.677,0,0,1,1.348,65.02V59.786a2.677,2.677,0,0,1,2.677-2.677H29.774a2.677,2.677,0,0,1,2.677,2.677V65.02A2.677,2.677,0,0,1,29.774,67.7Z" fill="#c5d7f4"/>
          <path id="Trazado_1002721" data-name="Trazado 1002721" d="M8.075,67.7H4.025A2.678,2.678,0,0,1,1.348,65.02V59.786a2.678,2.678,0,0,1,2.677-2.677h4.05A2.678,2.678,0,0,0,5.4,59.786V65.02A2.677,2.677,0,0,0,8.075,67.7Z" fill="#3571c7"/>
          <path id="Trazado_1002722" data-name="Trazado 1002722" d="M8.075,78.285H4.025a2.678,2.678,0,0,1-2.677-2.677V70.375A2.678,2.678,0,0,1,4.025,67.7h4.05A2.678,2.678,0,0,0,5.4,70.375v5.234A2.677,2.677,0,0,0,8.075,78.285Z" fill="#3571c7"/>
          <path id="Trazado_1002723" data-name="Trazado 1002723" d="M29.774,67.7H4.025A2.677,2.677,0,0,1,1.348,65.02V59.786a2.677,2.677,0,0,1,2.677-2.677H29.774a2.677,2.677,0,0,1,2.677,2.677V65.02A2.677,2.677,0,0,1,29.774,67.7Z" fill="none" stroke="#000" stroke-linecap="round" stroke-linejoin="round" stroke-miterlimit="10" stroke-width="2.372"/>
          <path id="Trazado_1002724" data-name="Trazado 1002724" d="M23.37,78.285h6.4a2.677,2.677,0,0,0,2.677-2.677V70.375A2.677,2.677,0,0,0,29.774,67.7H4.025a2.677,2.677,0,0,0-2.677,2.677v5.233a2.677,2.677,0,0,0,2.677,2.677h13.81" fill="none" stroke="#000" stroke-linecap="round" stroke-linejoin="round" stroke-miterlimit="10" stroke-width="2.372"/>
          <g id="Grupo_1176667" data-name="Grupo 1176667">
            <circle id="Elipse_13465" data-name="Elipse 13465" cx="2.233" cy="2.233" r="2.233" transform="translate(12.433 60.169)" fill="#ffc4a3"/>
            <circle id="Elipse_13466" data-name="Elipse 13466" cx="2.233" cy="2.233" r="2.233" transform="translate(5.029 60.169)" fill="#b4e6d2"/>
          </g>
          <g id="Grupo_1176668" data-name="Grupo 1176668">
            <circle id="Elipse_13467" data-name="Elipse 13467" cx="2.233" cy="2.233" r="2.233" transform="translate(5.029 70.758)" fill="#ffc4a3"/>
            <circle id="Elipse_13468" data-name="Elipse 13468" cx="2.233" cy="2.233" r="2.233" transform="translate(12.433 70.758)" fill="#b4e6d2"/>
          </g>
          <g id="Grupo_1176669" data-name="Grupo 1176669">
            <circle id="Elipse_13469" data-name="Elipse 13469" cx="2.233" cy="2.233" r="2.233" transform="translate(5.029 60.169)" fill="none" stroke="#000" stroke-linecap="round" stroke-linejoin="round" stroke-miterlimit="10" stroke-width="2.372"/>
            <circle id="Elipse_13470" data-name="Elipse 13470" cx="2.233" cy="2.233" r="2.233" transform="translate(12.433 60.169)" fill="none" stroke="#000" stroke-linecap="round" stroke-linejoin="round" stroke-miterlimit="10" stroke-width="2.372"/>
          </g>
          <g id="Grupo_1176670" data-name="Grupo 1176670">
            <circle id="Elipse_13471" data-name="Elipse 13471" cx="2.233" cy="2.233" r="2.233" transform="translate(5.029 70.758)" fill="none" stroke="#000" stroke-linecap="round" stroke-linejoin="round" stroke-miterlimit="10" stroke-width="2.372"/>
            <circle id="Elipse_13472" data-name="Elipse 13472" cx="2.233" cy="2.233" r="2.233" transform="translate(12.433 70.758)" fill="none" stroke="#000" stroke-linecap="round" stroke-linejoin="round" stroke-miterlimit="10" stroke-width="2.372"/>
          </g>
          <line id="Línea_4309" data-name="Línea 4309" x2="7.006" transform="translate(21.408 62.403)" fill="none" stroke="#000" stroke-linecap="round" stroke-linejoin="round" stroke-miterlimit="10" stroke-width="2.372"/>
          <line id="Línea_4310" data-name="Línea 4310" x2="7.006" transform="translate(21.408 72.991)" fill="none" stroke="#000" stroke-linecap="round" stroke-linejoin="round" stroke-miterlimit="10" stroke-width="2.372"/>
        </g>
        <g id="Grupo_1176673" data-name="Grupo 1176673">
          <path id="Trazado_1002725" data-name="Trazado 1002725" d="M79.615,3.157V27a1.971,1.971,0,0,1-1.971,1.971H59.669A1.971,1.971,0,0,1,57.7,27V14.194A6.221,6.221,0,0,1,59.52,9.8l6.786-6.787a6.221,6.221,0,0,1,4.4-1.822h6.939A1.971,1.971,0,0,1,79.615,3.157Z" fill="#e8edf2"/>
          <path id="Trazado_1002726" data-name="Trazado 1002726" d="M71.265,1.188a3.137,3.137,0,0,0-3.137,3.137V9.646a1.97,1.97,0,0,1-1.971,1.971H60.836A3.138,3.138,0,0,0,57.7,14.756V14.2a6.221,6.221,0,0,1,1.821-4.4l6.786-6.788a6.221,6.221,0,0,1,4.4-1.821h.561Z" fill="#d9e7ec"/>
          <path id="Trazado_1002727" data-name="Trazado 1002727" d="M74.033,28.976h3.61A1.971,1.971,0,0,0,79.615,27V3.157a1.971,1.971,0,0,0-1.972-1.97H70.7a6.222,6.222,0,0,0-4.4,1.822L59.519,9.8a6.225,6.225,0,0,0-1.822,4.4V27a1.971,1.971,0,0,0,1.972,1.972H68.5" fill="none" stroke="#000" stroke-linecap="round" stroke-linejoin="round" stroke-miterlimit="10" stroke-width="2.372"/>
          <path id="Trazado_1002728" data-name="Trazado 1002728" d="M71.266,1.186a3.138,3.138,0,0,0-3.138,3.138V9.646a1.971,1.971,0,0,1-1.971,1.971h-5.32A3.138,3.138,0,0,0,57.7,14.756" fill="none" stroke="#000" stroke-linecap="round" stroke-linejoin="round" stroke-miterlimit="10" stroke-width="2.372"/>
          <g id="Grupo_1176672" data-name="Grupo 1176672">
            <line id="Línea_4311" data-name="Línea 4311" x2="9.884" transform="translate(63.714 17.3)" fill="none" stroke="#000" stroke-linecap="round" stroke-linejoin="round" stroke-miterlimit="10" stroke-width="2.372"/>
            <line id="Línea_4312" data-name="Línea 4312" x2="9.884" transform="translate(63.714 22.242)" fill="none" stroke="#000" stroke-linecap="round" stroke-linejoin="round" stroke-miterlimit="10" stroke-width="2.372"/>
          </g>
        </g>
        <g id="Grupo_1176674" data-name="Grupo 1176674">
          <path id="Trazado_1002729" data-name="Trazado 1002729" d="M77.759,35.835a2.352,2.352,0,1,0-4.668.585,32.785,32.785,0,0,1,.251,4.062A32.408,32.408,0,0,1,66.733,60.2,33.019,33.019,0,0,1,52.248,71.059l-.4-2.378a1.237,1.237,0,0,0-2.008-.748L42.3,74.168a1.237,1.237,0,0,0,.356,2.113l9.17,3.416a1.237,1.237,0,0,0,1.652-1.365l-.431-2.555A37.745,37.745,0,0,0,70.484,63.037a37.077,37.077,0,0,0,7.563-22.555A37.6,37.6,0,0,0,77.759,35.835Z" fill="#b4e6d2"/>
          <path id="Trazado_1002730" data-name="Trazado 1002730" d="M38.635,4.682l-9.17-3.416a1.237,1.237,0,0,0-1.652,1.365l.431,2.555A37.745,37.745,0,0,0,10.8,17.927,37.077,37.077,0,0,0,3.24,40.481a37.536,37.536,0,0,0,.288,4.647A2.352,2.352,0,1,0,8.2,44.544a32.786,32.786,0,0,1-.251-4.062,32.408,32.408,0,0,1,6.609-19.715A33.019,33.019,0,0,1,29.039,9.9l.4,2.378a1.237,1.237,0,0,0,2.008.748L38.992,6.8A1.237,1.237,0,0,0,38.635,4.682Z" fill="#fb5415"/>
        </g>
        <g id="Grupo_1176675" data-name="Grupo 1176675">
          <path id="Trazado_1002731" data-name="Trazado 1002731" d="M77.759,35.835a2.352,2.352,0,1,0-4.668.585,32.785,32.785,0,0,1,.251,4.062A32.408,32.408,0,0,1,66.733,60.2,33.019,33.019,0,0,1,52.248,71.059l-.4-2.378a1.237,1.237,0,0,0-2.008-.748L42.3,74.168a1.237,1.237,0,0,0,.356,2.113l9.17,3.416a1.237,1.237,0,0,0,1.652-1.365l-.431-2.555A37.745,37.745,0,0,0,70.484,63.037a37.077,37.077,0,0,0,7.563-22.555A37.6,37.6,0,0,0,77.759,35.835Z" fill="none" stroke="#000" stroke-linecap="round" stroke-linejoin="round" stroke-miterlimit="10" stroke-width="2.372"/>
          <path id="Trazado_1002732" data-name="Trazado 1002732" d="M23.609,12.579A32.531,32.531,0,0,1,29.039,9.9l.4,2.378a1.238,1.238,0,0,0,2.008.748L38.992,6.8a1.237,1.237,0,0,0-.356-2.113l-9.17-3.417A1.238,1.238,0,0,0,27.813,2.63l.43,2.555A37.744,37.744,0,0,0,10.8,17.927,37.077,37.077,0,0,0,3.241,40.481a37.5,37.5,0,0,0,.288,4.648A2.352,2.352,0,0,0,8.2,44.544a32.591,32.591,0,0,1,10.951-28.69" fill="none" stroke="#000" stroke-linecap="round" stroke-linejoin="round" stroke-miterlimit="10" stroke-width="2.372"/>
        </g>
      </g>
    </g>
  </g>
</svg>
