<svg xmlns="http://www.w3.org/2000/svg" xmlns:xlink="http://www.w3.org/1999/xlink" width="160" height="89" viewBox="0 0 160 89">
  <defs>
    <clipPath id="clip-path">
      <rect id="Rect치ngulo_439390" data-name="Rect치ngulo 439390" width="81" height="81" transform="translate(340.332 5247)" fill="#0b489b" stroke="#707070" stroke-width="1"/>
    </clipPath>
  </defs>
  <g id="Grupo_1180952" data-name="Grupo 1180952" transform="translate(-877.711 -1520)">
    <g id="Grupo_1177296" data-name="Grupo 1177296" transform="translate(577.379 -3727)">
      <g id="Grupo_1102648" data-name="Grupo 1102648" transform="translate(-89.996 4124.793)">
        <path id="Rect치ngulo_403519" data-name="Rect치ngulo 403519" d="M79,0h2a79,79,0,0,1,79,79v0a0,0,0,0,1,0,0H0a0,0,0,0,1,0,0v0A79,79,0,0,1,79,0Z" transform="translate(390.328 1132.207)" fill="#32deff"/>
      </g>
      <g id="Enmascarar_grupo_1098931" data-name="Enmascarar grupo 1098931" clip-path="url(#clip-path)">
        <path id="evaluacion" d="M81.437,48.171c0-.008,0-.016,0-.024-.277-3.6-1.16-5.222-3.634-6.673-1.82-1.067-4.91-1.856-7.636-2.552-.895-.228-1.741-.445-2.479-.654a4.21,4.21,0,0,1-1.955-2.535,11.518,11.518,0,0,0,1.727-1.75,15.265,15.265,0,0,0,3.072-7.492,17.317,17.317,0,0,0,.8-8.7,5.137,5.137,0,0,0-2.521-3.5,3.725,3.725,0,0,0-2.023-.4c-2.1-2.895-5.35-2.123-8.5-1.375a19.32,19.32,0,0,1-7.5.729,1.124,1.124,0,0,0-1.246.778c-1.283,4.123-1.388,9.982.59,12.62a15.235,15.235,0,0,0,3.051,7.338,11.512,11.512,0,0,0,1.727,1.75,4.211,4.211,0,0,1-2,2.562c-10.759,3.277-16.031.471-20.12-5.6h5.735a4.247,4.247,0,0,0,4.243-4.243V4.885A4.247,4.247,0,0,0,38.529.643H4.885A4.247,4.247,0,0,0,.642,4.885V28.457A4.247,4.247,0,0,0,4.885,32.7h15.7V49.584H4.885A4.247,4.247,0,0,0,.642,53.827V77.4a4.247,4.247,0,0,0,4.243,4.243H38.529A4.247,4.247,0,0,0,42.772,77.4V53.827a4.223,4.223,0,0,0-.947-2.667,31.717,31.717,0,0,0,4.1.506,1.2,1.2,0,0,1,1.125,1.194V69.339a1.125,1.125,0,0,0,1.125,1.125H80.1a1.125,1.125,0,0,0,1.124-1.069,196.248,196.248,0,0,0,.215-21.223ZM51.444,15.589a23.013,23.013,0,0,0,7.368-.881c3.531-.839,5.282-1.147,6.47,1a1.125,1.125,0,0,0,1.417.495,1.351,1.351,0,0,1,1.1.093,2.959,2.959,0,0,1,1.35,2.028,15.076,15.076,0,0,1-.084,5.089,10.75,10.75,0,0,0-.805-1.544,2.3,2.3,0,0,0-2.048-1.087,7.711,7.711,0,0,0-2.415.553c-2.326.807-4.723.261-6.838-.221a9.691,9.691,0,0,0-3.6-.41,3.238,3.238,0,0,0-2.338,1.942,18.48,18.48,0,0,1,.423-7.061Zm.9,10.623.017-.093c.194-1.064.554-3.045,1.391-3.2a9.029,9.029,0,0,1,2.7.389c2.169.495,5.141,1.172,8.076.153,1.287-.447,1.69-.469,1.8-.409a.245.245,0,0,1,.047.057,8.98,8.98,0,0,1,.637,1.241,9.93,9.93,0,0,0,1.232,2.175c-.657,4.235-3.351,8.74-7.929,9.083-4.693-.351-7.406-5.076-7.974-9.4Zm7.9,11.65.073,0,.073,0a9.16,9.16,0,0,0,3.384-.883,6.4,6.4,0,0,0,1.832,2.574,6.923,6.923,0,0,1-10.578,0,6.4,6.4,0,0,0,1.832-2.574A9.156,9.156,0,0,0,60.251,37.861Zm-57.358-9.4V4.885A2,2,0,0,1,4.885,2.893H38.529a2,2,0,0,1,1.993,1.993V28.457a2,2,0,0,1-1.993,1.993H31.406c-.053-.094-.107-.187-.16-.282a4.629,4.629,0,0,0-6.362-1.746,5.123,5.123,0,0,0-2.111,2.027H4.885a2,2,0,0,1-1.993-1.993ZM40.522,77.4a2,2,0,0,1-1.993,1.993H4.885A2,2,0,0,1,2.892,77.4V53.827a2,2,0,0,1,1.993-1.993H38.529a2,2,0,0,1,1.993,1.993ZM22.832,49.585V34.865c2.792,5.78,6.629,11.661,13.777,14.72ZM49.3,52.86a3.45,3.45,0,0,0-3.24-3.44c-12.475-.747-17.628-8.042-21.34-15.814a2.323,2.323,0,0,1,1.2-3.186,2.41,2.41,0,0,1,3.364.849c2.777,4.95,5.579,7.849,9.086,9.4,3.848,1.7,8.635,1.686,14.613-.046A9.654,9.654,0,0,0,59.2,44.188V68.214H49.3V52.861ZM79.027,68.213H73.559V51.527a1.125,1.125,0,1,0-2.25,0V68.214H61.448V44.188A9.66,9.66,0,0,0,67.682,40.6c.6.163,1.251.328,1.926.5a32.773,32.773,0,0,1,7.055,2.313c1.689.99,2.292,1.837,2.528,4.893A186.832,186.832,0,0,1,79.027,68.213ZM15.383,19.775a1.125,1.125,0,0,1,0,1.591l-4.46,4.46a1.125,1.125,0,0,1-1.769-.233l-1.19-2.06a1.125,1.125,0,1,1,1.948-1.125l.457.791,3.423-3.423a1.125,1.125,0,0,1,1.591,0Zm2.045-7.013a1.125,1.125,0,0,1,1.125-1.125H34.37a1.125,1.125,0,0,1,0,2.25H18.553A1.125,1.125,0,0,1,17.428,12.762Zm0-4.439A1.125,1.125,0,0,1,18.553,7.2H34.476a1.125,1.125,0,0,1,0,2.25H18.553A1.125,1.125,0,0,1,17.428,8.323Zm0,12.258a1.125,1.125,0,0,1,1.125-1.125H34.37a1.125,1.125,0,0,1,0,2.25H18.553a1.125,1.125,0,0,1-1.125-1.125Zm1.125,5.565a1.125,1.125,0,1,1,0-2.25H34.37a1.125,1.125,0,0,1,0,2.25ZM15.383,7.517a1.125,1.125,0,0,1,0,1.591l-4.46,4.46a1.125,1.125,0,0,1-1.77-.233l-1.19-2.06a1.125,1.125,0,1,1,1.948-1.125l.457.791,3.423-3.423a1.126,1.126,0,0,1,1.591,0ZM35.2,61.7a1.125,1.125,0,0,1-1.125,1.125H18.256a1.125,1.125,0,0,1,0-2.25H34.073A1.125,1.125,0,0,1,35.2,61.7Zm.105-4.44a1.125,1.125,0,0,1-1.125,1.125H18.256a1.125,1.125,0,0,1,0-2.25H34.178A1.125,1.125,0,0,1,35.3,57.264ZM35.2,69.522a1.125,1.125,0,0,1-1.125,1.125H18.256a1.125,1.125,0,1,1,0-2.25H34.073A1.125,1.125,0,0,1,35.2,69.522Zm0,4.44a1.125,1.125,0,0,1-1.125,1.125H18.256a1.125,1.125,0,1,1,0-2.25H34.073A1.125,1.125,0,0,1,35.2,73.962ZM8.44,60.918l1.434-1.434L8.44,58.05a1.125,1.125,0,1,1,1.591-1.591l1.435,1.435L12.9,56.459a1.125,1.125,0,1,1,1.591,1.591l-1.434,1.434,1.434,1.434A1.125,1.125,0,0,1,12.9,62.509l-1.435-1.435-1.435,1.435A1.125,1.125,0,0,1,8.44,60.918Zm6.051,9.389-1.434,1.434,1.434,1.434A1.125,1.125,0,0,1,12.9,74.767l-1.434-1.434-1.434,1.434A1.125,1.125,0,0,1,8.44,73.176l1.434-1.434L8.44,70.308a1.125,1.125,0,0,1,1.591-1.591l1.434,1.434L12.9,68.717a1.125,1.125,0,0,1,1.591,1.591Z" transform="translate(339.69 5246.357)" fill="#0b489b"/>
      </g>
    </g>
  </g>
</svg>
