<svg xmlns="http://www.w3.org/2000/svg" xmlns:xlink="http://www.w3.org/1999/xlink" width="81" height="88.667" viewBox="0 0 81 88.667">
  <defs>
    <clipPath id="clip-path">
      <rect id="Rectángulo_434176" data-name="Rectángulo 434176" width="81" height="81" transform="translate(395.711 874)" fill="#fff" stroke="#707070" stroke-width="1"/>
    </clipPath>
  </defs>
  <g id="Grupo_1166372" data-name="Grupo 1166372" transform="translate(-395.711 -870)">
    <g id="Grupo_1150935" data-name="Grupo 1150935" transform="translate(404.167 870)">
      <path id="Trazado_987198" data-name="Trazado 987198" d="M62.042,128.667H13.922C5.223,128.667,0,125.951,0,114.382V41.535C0,40.687.517,40,1.154,40H49.337c8.7,0,13.859,5.031,13.859,16.6v70.531c0,.848-.517,1.535-1.154,1.535" transform="translate(0 -40)" fill="#3571c7"/>
    </g>
    <g id="Enmascarar_grupo_1098921" data-name="Enmascarar grupo 1098921" clip-path="url(#clip-path)">
      <g id="digital" transform="translate(394.404 872.693)">
        <path id="Trazado_1002733" data-name="Trazado 1002733" d="M70.548,52.258v5.226H62.71V52.258Z" fill="#aab2bd"/>
        <path id="Trazado_1002734" data-name="Trazado 1002734" d="M81,47.032v2.613a2.621,2.621,0,0,1-2.613,2.613H54.871a2.621,2.621,0,0,1-2.613-2.613V47.032Z" fill="#ccd1d9"/>
        <circle id="Elipse_13473" data-name="Elipse 13473" cx="11.758" cy="11.758" r="11.758" transform="translate(57.484 2.613)" fill="#cbbfda"/>
        <path id="Trazado_1002735" data-name="Trazado 1002735" d="M81,33.968V47.032H52.258V33.968a2.621,2.621,0,0,1,2.613-2.613H78.387A2.621,2.621,0,0,1,81,33.968Z" fill="#32deff"/>
        <path id="Trazado_1002736" data-name="Trazado 1002736" d="M20.9,5.226V7.839H2.613V5.226A2.621,2.621,0,0,1,5.226,2.613H18.29A2.621,2.621,0,0,1,20.9,5.226Z" fill="#b4e6d2"/>
        <path id="Trazado_1002737" data-name="Trazado 1002737" d="M20.9,26.129v2.613a2.621,2.621,0,0,1-2.613,2.613H5.226a2.621,2.621,0,0,1-2.613-2.613V26.129Z" fill="#b4e6d2"/>
        <path id="Trazado_1002738" data-name="Trazado 1002738" d="M20.9,16.984v9.145H2.613V7.839H20.9Z" fill="#2a8d71"/>
        <path id="Trazado_1002739" data-name="Trazado 1002739" d="M15.677,36.581A13.065,13.065,0,1,1,2.613,49.645,13.069,13.069,0,0,1,15.677,36.581Z" fill="#ffc4a3"/>
        <circle id="Elipse_13474" data-name="Elipse 13474" cx="2.613" cy="2.613" r="2.613" transform="translate(13.065 52.258)" fill="#ff826e"/>
        <path id="Trazado_1002740" data-name="Trazado 1002740" d="M44.419,55.132a13.065,13.065,0,1,1-5.226,0v5.422a7.839,7.839,0,1,0,5.226,0Z" fill="#fb5415"/>
        <path id="Trazado_1002741" data-name="Trazado 1002741" d="M44.419,60.554v4.769a2.613,2.613,0,0,1-5.226,0V52.258a2.621,2.621,0,0,1,2.613-2.613,2.632,2.632,0,0,1,2.613,2.613v8.3Z" fill="#fb5415"/>
        <path id="Trazado_1002742" data-name="Trazado 1002742" d="M78.387,30.048H54.871a3.924,3.924,0,0,0-3.919,3.919V49.645a3.924,3.924,0,0,0,3.919,3.919H61.4v2.613H58.79V58.79h6.532v6.532a1.309,1.309,0,0,1-1.306,1.306h-7.9a14.418,14.418,0,0,0-10.39-12.514V52.258a3.919,3.919,0,0,0-7.839,0v1.856A14.419,14.419,0,0,0,27.5,66.629H18.29a1.309,1.309,0,0,1-1.306-1.306V63.949a14.371,14.371,0,1,0-2.613,0v1.373a3.924,3.924,0,0,0,3.919,3.919H27.5a14.363,14.363,0,0,0,28.609,0h7.905a3.924,3.924,0,0,0,3.919-3.919V58.79h6.532V56.177H71.855V53.565h6.532a3.924,3.924,0,0,0,3.919-3.919V33.968A3.924,3.924,0,0,0,78.387,30.048ZM3.919,49.645A11.758,11.758,0,1,1,15.677,61.4,11.772,11.772,0,0,1,3.919,49.645Zm37.887,19.6a3.924,3.924,0,0,0,3.919-3.919v-2.6a6.532,6.532,0,1,1-7.839,0v2.6A3.924,3.924,0,0,0,41.806,69.242ZM40.5,52.258a1.306,1.306,0,1,1,2.613,0V65.323a1.306,1.306,0,0,1-2.613,0Zm1.306,27.435a11.752,11.752,0,0,1-3.919-22.834v2.849a9.145,9.145,0,1,0,7.839,0V56.859a11.752,11.752,0,0,1-3.919,22.834ZM54.871,32.661H78.387a1.309,1.309,0,0,1,1.306,1.306V45.726H53.565V33.968A1.309,1.309,0,0,1,54.871,32.661ZM69.242,56.177H64.016V53.565h5.226Zm9.145-5.226H54.871a1.309,1.309,0,0,1-1.306-1.306V48.339H79.694v1.306A1.309,1.309,0,0,1,78.387,50.952Z"/>
        <path id="Trazado_1002743" data-name="Trazado 1002743" d="M5.226,32.661H18.29a3.924,3.924,0,0,0,3.919-3.919V18.29H35.274A1.309,1.309,0,0,1,36.581,19.6V36.581h2.613V19.6a3.924,3.924,0,0,0-3.919-3.919H22.21V5.226A3.924,3.924,0,0,0,18.29,1.306H5.226A3.924,3.924,0,0,0,1.306,5.226V28.742A3.924,3.924,0,0,0,5.226,32.661ZM18.29,30.048H5.226a1.309,1.309,0,0,1-1.306-1.306V27.435H19.6v1.306A1.309,1.309,0,0,1,18.29,30.048ZM3.919,24.823V9.145H19.6V24.823Zm1.306-20.9H18.29A1.309,1.309,0,0,1,19.6,5.226V6.532H3.919V5.226A1.309,1.309,0,0,1,5.226,3.919Z"/>
        <path id="Trazado_1002744" data-name="Trazado 1002744" d="M19.6,54.871a3.919,3.919,0,1,0-3.919,3.919A3.924,3.924,0,0,0,19.6,54.871Zm-5.226,0a1.306,1.306,0,1,1,1.306,1.306A1.309,1.309,0,0,1,14.371,54.871Z"/>
        <path id="Trazado_1002745" data-name="Trazado 1002745" d="M20.3,50.251,22.144,48.4a9.155,9.155,0,0,0-12.933,0l1.847,1.847A6.541,6.541,0,0,1,20.3,50.251Z"/>
        <path id="Trazado_1002746" data-name="Trazado 1002746" d="M23.992,46.557l1.847-1.847a14.388,14.388,0,0,0-20.324,0l1.847,1.847A11.773,11.773,0,0,1,23.992,46.557Z"/>
        <path id="Trazado_1002747" data-name="Trazado 1002747" d="M36.581,44.419h2.613v2.613H36.581Z"/>
        <path id="Trazado_1002748" data-name="Trazado 1002748" d="M36.581,39.194h2.613v2.613H36.581Z"/>
        <path id="Trazado_1002749" data-name="Trazado 1002749" d="M44.419,44.419h2.613v2.613H44.419Z"/>
        <path id="Trazado_1002750" data-name="Trazado 1002750" d="M44.419,39.194h2.613v2.613H44.419Z"/>
        <path id="Trazado_1002751" data-name="Trazado 1002751" d="M47.032,16.984a1.309,1.309,0,0,1,1.306-1.306h7.905a13.065,13.065,0,1,0,0-2.613H48.339a3.924,3.924,0,0,0-3.919,3.919v19.6h2.613ZM69.242,3.919c.409,0,1.284,1.336,1.91,3.919h-3.82C67.958,5.256,68.833,3.919,69.242,3.919Zm2.376,6.532c.1.8.175,1.668.21,2.613H66.653c.035-.945.111-1.811.21-2.613ZM69.242,24.823c-.409,0-1.284-1.337-1.91-3.919h3.82c-.626,2.583-1.5,3.919-1.91,3.919ZM66.865,18.29c-.1-.8-.175-1.668-.21-2.613h5.176c-.035.945-.111,1.811-.21,2.613Zm7.577-2.613H79.6a10.351,10.351,0,0,1-.679,2.613H74.248C74.345,17.432,74.412,16.557,74.443,15.677Zm5.16-2.613h-5.16c-.031-.879-.1-1.755-.195-2.613h4.676A10.406,10.406,0,0,1,79.6,13.065Zm-15.562,0H58.88a10.351,10.351,0,0,1,.679-2.613h4.676C64.139,11.31,64.072,12.185,64.041,13.065Zm0,2.613c.031.879.1,1.755.195,2.613H59.56a10.406,10.406,0,0,1-.679-2.613ZM61.1,20.9h3.552a17.418,17.418,0,0,0,.982,3.264A10.489,10.489,0,0,1,61.1,20.9Zm11.757,3.264a17.417,17.417,0,0,0,.982-3.264h3.552A10.489,10.489,0,0,1,72.853,24.167ZM77.388,7.839H73.835a17.418,17.418,0,0,0-.982-3.264A10.489,10.489,0,0,1,77.388,7.839ZM65.631,4.575a17.516,17.516,0,0,0-.982,3.264H61.1A10.489,10.489,0,0,1,65.631,4.575Z"/>
      </g>
    </g>
  </g>
</svg>
