<svg xmlns="http://www.w3.org/2000/svg" xmlns:xlink="http://www.w3.org/1999/xlink" width="83" height="83" viewBox="0 0 83 83">
  <defs>
    <clipPath id="clip-path">
      <rect id="Rectángulo_439406" data-name="Rectángulo 439406" width="83" height="83" transform="translate(1187.711 1418.721)" fill="#fff" stroke="#0b489b" stroke-width="1"/>
    </clipPath>
  </defs>
  <g id="Enmascarar_grupo_1098936" data-name="Enmascarar grupo 1098936" transform="translate(-1187.711 -1418.721)" clip-path="url(#clip-path)">
    <g id="busqueda-avanzada" transform="translate(1187.711 1418.721)">
      <path id="Trazado_1003772" data-name="Trazado 1003772" d="M49.92,1.218A31.479,31.479,0,0,0,23.276,48.807a3.25,3.25,0,0,1-.588,4.072l-6.526,5.959,2.678,5.2,5.323,2.8,5.959-6.526a3.249,3.249,0,0,1,4.072-.588A31.474,31.474,0,1,0,49.92,1.218Z" fill="#7a4bb0"/>
      <path id="Trazado_1003773" data-name="Trazado 1003773" d="M78.112,17.921A31.483,31.483,0,0,1,32.572,56.158a3.25,3.25,0,0,0-4.072.588L20.87,65.1l3.293,1.735,5.959-6.526a3.249,3.249,0,0,1,4.072-.588,31.481,31.481,0,0,0,43.918-41.8Z" fill="#391760"/>
      <path id="Trazado_1003774" data-name="Trazado 1003774" d="M1.48,72.243a.81.81,0,0,0-.264.6v8.133a.811.811,0,0,0,.811.811h8.133a.81.81,0,0,0,.6-.264l8.307-9.1L17.371,65.63l-6.792-1.694Z" fill="#ffc4a3"/>
      <path id="Trazado_1003775" data-name="Trazado 1003775" d="M9.137,77.954a.81.81,0,0,1-.6.264H1.216v2.756a.811.811,0,0,0,.811.811h8.133a.81.81,0,0,0,.6-.264l8.307-9.1-1.047-4.2Z" fill="#fb5415"/>
      <circle id="Elipse_13483" data-name="Elipse 13483" cx="23.919" cy="23.919" r="23.919" transform="translate(26.394 8.769)" fill="#fff"/>
      <path id="Trazado_1003776" data-name="Trazado 1003776" d="M65.527,14.231A23.919,23.919,0,0,1,31.856,47.9,23.919,23.919,0,1,0,65.527,14.231Z" fill="#f3f0f3"/>
      <path id="Trazado_1003777" data-name="Trazado 1003777" d="M16.162,58.837l-5.584,5.1,8.486,8.486,5.1-5.584Z" fill="#f3f0f3"/>
      <path id="Trazado_1003778" data-name="Trazado 1003778" d="M16.515,69.872l2.549,2.549,5.1-5.584-2.549-2.549Z" fill="#e2dee2"/>
      <path id="Trazado_1003779" data-name="Trazado 1003779" d="M78.456,54.089H72.524a.811.811,0,0,1-.811-.811V47.346a.811.811,0,0,0-.811-.811h-8.45a.811.811,0,0,0-.811.811v5.527a1.216,1.216,0,0,1-1.216,1.216H54.9a.811.811,0,0,0-.811.811v8.45a.811.811,0,0,0,.811.811h5.932a.811.811,0,0,1,.811.811V70.9a.811.811,0,0,0,.811.811H70.9a.811.811,0,0,0,.811-.811V64.97a.811.811,0,0,1,.811-.811h5.932a.811.811,0,0,0,.811-.811V54.9A.811.811,0,0,0,78.456,54.089Z" fill="#b4e6d2"/>
      <path id="Trazado_1003780" data-name="Trazado 1003780" d="M78.456,54.089H76.024v6.018a.811.811,0,0,1-.811.811H69.282a.811.811,0,0,0-.811.811V67.66a.811.811,0,0,1-.811.811H61.642V70.9a.811.811,0,0,0,.811.811H70.9a.811.811,0,0,0,.811-.811V64.97a.811.811,0,0,1,.811-.811h5.932a.811.811,0,0,0,.811-.811V54.9A.811.811,0,0,0,78.456,54.089Z" fill="#4db593"/>
      <g id="Grupo_1177332" data-name="Grupo 1177332">
        <path id="Trazado_1003781" data-name="Trazado 1003781" d="M32.054,38.982l4.727-12.411a.285.285,0,0,1,.528,0l4.684,12.412" fill="none" stroke="#000" stroke-linecap="round" stroke-linejoin="round" stroke-miterlimit="10" stroke-width="2.432"/>
        <line id="Línea_4321" data-name="Línea 4321" x2="7.014" transform="translate(33.529 35.891)" fill="none" stroke="#000" stroke-linecap="round" stroke-linejoin="round" stroke-miterlimit="10" stroke-width="2.432"/>
      </g>
      <g id="Grupo_1177333" data-name="Grupo 1177333">
        <line id="Línea_4322" data-name="Línea 4322" y2="12.005" transform="translate(47.267 26.592)" fill="none" stroke="#000" stroke-linecap="round" stroke-linejoin="round" stroke-miterlimit="10" stroke-width="2.432"/>
        <path id="Trazado_1003782" data-name="Trazado 1003782" d="M55.66,32.688c0,3.366-1.868,6.029-4.832,6.081-.987.017-3.536.027-3.536.027s-.016-4.425-.016-6.122c0-1.393-.009-6.095-.009-6.095h3.46C53.978,26.58,55.66,29.322,55.66,32.688Z" fill="none" stroke="#000" stroke-linecap="round" stroke-linejoin="round" stroke-miterlimit="10" stroke-width="2.432"/>
      </g>
      <g id="Grupo_1177334" data-name="Grupo 1177334">
        <path id="Trazado_1003783" data-name="Trazado 1003783" d="M59.619,26.394l4.3,12.4a.284.284,0,0,0,.537,0l4.11-12.373" fill="none" stroke="#000" stroke-linecap="round" stroke-linejoin="round" stroke-miterlimit="10" stroke-width="2.432"/>
      </g>
      <path id="Trazado_1003784" data-name="Trazado 1003784" d="M34.424,5.429a31.582,31.582,0,0,1,39.095,48.66" fill="none" stroke="#000" stroke-linecap="round" stroke-linejoin="round" stroke-miterlimit="10" stroke-width="2.432"/>
      <path id="Trazado_1003785" data-name="Trazado 1003785" d="M16.161,58.837l6.527-5.958a3.251,3.251,0,0,0,.588-4.072A31.65,31.65,0,0,1,29.713,8.769" fill="none" stroke="#000" stroke-linecap="round" stroke-linejoin="round" stroke-miterlimit="10" stroke-width="2.432"/>
      <path id="Trazado_1003786" data-name="Trazado 1003786" d="M24.163,66.838l5.959-6.527a3.246,3.246,0,0,1,4.071-.587,31.326,31.326,0,0,0,15.141,4.421,32.755,32.755,0,0,0,4.99-.227" fill="none" stroke="#000" stroke-linecap="round" stroke-linejoin="round" stroke-miterlimit="10" stroke-width="2.432"/>
      <path id="Trazado_1003787" data-name="Trazado 1003787" d="M3.635,70.275,1.48,72.243a.81.81,0,0,0-.264.6v8.133a.811.811,0,0,0,.811.811h8.133a.81.81,0,0,0,.6-.264L24.163,66.838l-8-8-8.219,7.5" fill="none" stroke="#000" stroke-linecap="round" stroke-linejoin="round" stroke-miterlimit="10" stroke-width="2.432"/>
      <path id="Trazado_1003788" data-name="Trazado 1003788" d="M78.456,54.089H72.524a.811.811,0,0,1-.811-.811V47.346a.811.811,0,0,0-.811-.811h-8.45a.811.811,0,0,0-.811.811v5.527a1.216,1.216,0,0,1-1.216,1.216H54.9a.811.811,0,0,0-.811.811v8.45a.811.811,0,0,0,.811.811h5.932a.811.811,0,0,1,.811.811V70.9a.811.811,0,0,0,.811.811H70.9a.811.811,0,0,0,.811-.811V64.97a.811.811,0,0,1,.811-.811h5.932a.811.811,0,0,0,.811-.811V54.9A.811.811,0,0,0,78.456,54.089Z" fill="none" stroke="#000" stroke-linecap="round" stroke-linejoin="round" stroke-miterlimit="10" stroke-width="2.432"/>
      <path id="Trazado_1003789" data-name="Trazado 1003789" d="M74.069,35.485a24.189,24.189,0,0,0,.162-2.8A23.895,23.895,0,1,0,54.089,56.31" fill="none" stroke="#000" stroke-linecap="round" stroke-linejoin="round" stroke-miterlimit="10" stroke-width="2.432"/>
      <path id="Trazado_1003790" data-name="Trazado 1003790" d="M69.817,46.536A23.861,23.861,0,0,0,72.709,41.1" fill="none" stroke="#000" stroke-linecap="round" stroke-linejoin="round" stroke-miterlimit="10" stroke-width="2.432"/>
      <line id="Línea_4323" data-name="Línea 4323" x2="8.133" y2="8.133" transform="translate(10.714 64.071)" fill="none" stroke="#000" stroke-linecap="round" stroke-linejoin="round" stroke-miterlimit="10" stroke-width="2.432"/>
    </g>
  </g>
</svg>
