<svg xmlns="http://www.w3.org/2000/svg" xmlns:xlink="http://www.w3.org/1999/xlink" width="160" height="89" viewBox="0 0 160 89">
  <defs>
    <clipPath id="clip-path">
      <rect id="Rect치ngulo_439390" data-name="Rect치ngulo 439390" width="81" height="81" transform="translate(340.332 5247)" fill="#0b489b" stroke="#707070" stroke-width="1"/>
    </clipPath>
  </defs>
  <g id="Grupo_1180953" data-name="Grupo 1180953" transform="translate(-1192.711 -1520)">
    <g id="Grupo_1177297" data-name="Grupo 1177297" transform="translate(892.379 -3727)">
      <g id="Grupo_1102648" data-name="Grupo 1102648" transform="translate(-89.996 4124.793)">
        <path id="Rect치ngulo_403519" data-name="Rect치ngulo 403519" d="M79,0h2a79,79,0,0,1,79,79v0a0,0,0,0,1,0,0H0a0,0,0,0,1,0,0v0A79,79,0,0,1,79,0Z" transform="translate(390.328 1132.207)" fill="#32deff"/>
      </g>
      <g id="Enmascarar_grupo_1098932" data-name="Enmascarar grupo 1098932" clip-path="url(#clip-path)">
        <g id="seguridad-de-datos" transform="translate(338.308 5244.975)">
          <path id="Trazado_1003686" data-name="Trazado 1003686" d="M79.676,82.024V24.86a1,1,0,0,0-1-1H76.037a1,1,0,1,0,0,2h1.639V81.024H39.8V79.7a1,1,0,0,0-2,0v2.323a1,1,0,0,0,1,1H78.676A1,1,0,0,0,79.676,82.024Z" fill="#0b489b"/>
          <path id="Trazado_1003687" data-name="Trazado 1003687" d="M32.206,76.573H72.08a1,1,0,0,0,1-1V18.408a1,1,0,0,0-1-1H69.748a1,1,0,0,0,0,2h1.331V74.572H33.207V72.552a1,1,0,1,0-2,0v3.02A1,1,0,0,0,32.206,76.573Z" fill="#0b489b"/>
          <path id="Trazado_1003688" data-name="Trazado 1003688" d="M25.884,69.733H65.757a1,1,0,0,0,1-1V11.569a1,1,0,0,0-1-1h-34.5a1,1,0,0,0,0,2h33.5V67.732H26.884V47.994a1,1,0,0,0-2,0V68.733a1,1,0,0,0,1,1Z" fill="#0b489b"/>
          <path id="Trazado_1003689" data-name="Trazado 1003689" d="M18,2.025A10.162,10.162,0,0,0,7.845,12.175v9.98H6.373a1,1,0,0,0-1,1V43.59a1,1,0,0,0,1,1H29.617a1,1,0,0,0,1-1V23.155a1,1,0,0,0-1-1H28.146v-9.98A10.162,10.162,0,0,0,18,2.025ZM9.846,12.175a8.15,8.15,0,1,1,16.3,0v9.98H24.027V12.587a6.032,6.032,0,1,0-12.064,0v9.568H9.846Zm12.18.412v9.568H13.965V12.587a4.031,4.031,0,0,1,8.062,0Zm6.59,11.569V42.589H7.374V24.156Z" fill="#0b489b"/>
          <path id="Trazado_1003690" data-name="Trazado 1003690" d="M20.607,32.629a3.121,3.121,0,1,0-5.228-.01.706.706,0,0,1,.088.617,17.586,17.586,0,0,0-.738,5.026,1,1,0,0,0,1,.989h4.532a1,1,0,0,0,1-.989,17.633,17.633,0,0,0-.738-5.026.7.7,0,0,1,.082-.607Zm-3.842,4.62a14.294,14.294,0,0,1,.6-3.385,2.707,2.707,0,0,0-.311-2.337,1.109,1.109,0,0,1-.179-.606,1.121,1.121,0,0,1,1.254-1.112,1.134,1.134,0,0,1,.976.96,1.107,1.107,0,0,1-.172.762,2.69,2.69,0,0,0-.308,2.333,14.291,14.291,0,0,1,.6,3.385Z" fill="#0b489b"/>
          <path id="Trazado_1003691" data-name="Trazado 1003691" d="M37.073,20.38a1.046,1.046,0,0,0-.173-.093,1.155,1.155,0,0,0-.188-.057A1,1,0,0,0,35.594,21.6a.957.957,0,0,0,.093.173,1.038,1.038,0,0,0,.122.153,1,1,0,0,0,.9.273.969.969,0,0,0,.188-.058.9.9,0,0,0,.173-.092.912.912,0,0,0,.152-.123,1,1,0,0,0,0-1.416.926.926,0,0,0-.152-.125Z" fill="#0b489b"/>
          <path id="Trazado_1003692" data-name="Trazado 1003692" d="M41.924,21.769a.879.879,0,0,0,.123.15.925.925,0,0,0,.152.125.983.983,0,0,0,.173.092,1.014,1.014,0,0,0,.188.058,1.031,1.031,0,0,0,.2.02,1.01,1.01,0,0,0,.195-.02.949.949,0,0,0,.188-.058.888.888,0,0,0,.173-.092.84.84,0,0,0,.152-.125,1.031,1.031,0,0,0,.125-.15,1.1,1.1,0,0,0,.093-.173,1.006,1.006,0,0,0,.055-.188.862.862,0,0,0,.02-.2.847.847,0,0,0-.02-.2.954.954,0,0,0-.055-.188,1,1,0,0,0-.093-.173.9.9,0,0,0-.125-.153,1.01,1.01,0,0,0-.9-.275,1.219,1.219,0,0,0-.188.057,1.161,1.161,0,0,0-.173.093,1.055,1.055,0,0,0-.152.125,1.008,1.008,0,0,0-.293.708.993.993,0,0,0,.078.383.927.927,0,0,0,.093.173Z" fill="#0b489b"/>
          <path id="Trazado_1003693" data-name="Trazado 1003693" d="M48.159,21.769a.984.984,0,0,0,.275.275.97.97,0,0,0,.172.092,1.02,1.02,0,0,0,.188.058,1.035,1.035,0,0,0,.2.02,1.014,1.014,0,0,0,.2-.02.958.958,0,0,0,.188-.058.9.9,0,0,0,.172-.092.843.843,0,0,0,.153-.125.944.944,0,0,0,.125-.15,1.192,1.192,0,0,0,.093-.173,1,1,0,0,0,.055-.188.875.875,0,0,0,.02-.2,1,1,0,0,0-.293-.708.95.95,0,0,0-.153-.125,1.044,1.044,0,0,0-.172-.093,1.14,1.14,0,0,0-.188-.057,1.015,1.015,0,0,0-.39,0,1.227,1.227,0,0,0-.188.057,1.142,1.142,0,0,0-.172.093,1.044,1.044,0,0,0-.153.125,1,1,0,0,0-.215,1.091A.99.99,0,0,0,48.159,21.769Z" fill="#0b489b"/>
          <path id="Trazado_1003694" data-name="Trazado 1003694" d="M55.932,21.919a1,1,0,0,0,0-1.414,1.03,1.03,0,0,0-.153-.125,1.142,1.142,0,0,0-.172-.093,1.155,1.155,0,0,0-.188-.057,1.015,1.015,0,0,0-.39,0,1,1,0,0,0-.36.15.951.951,0,0,0-.153.125,1,1,0,1,0,1.416,1.414Z" fill="#0b489b"/>
          <path id="Trazado_1003695" data-name="Trazado 1003695" d="M46.073,51.736a1.165,1.165,0,0,0-.188.058,1.039,1.039,0,0,0-.173.093,1.054,1.054,0,0,0-.152.125.9.9,0,0,0-.125.153,1,1,0,0,0-.093.173.953.953,0,0,0-.055.188.834.834,0,0,0-.02.2.847.847,0,0,0,.02.2,1,1,0,0,0,.055.188,1.1,1.1,0,0,0,.093.173,1.031,1.031,0,0,0,.125.15.8.8,0,0,0,.152.125.882.882,0,0,0,.173.093.942.942,0,0,0,.188.058,1.1,1.1,0,0,0,.39,0,.989.989,0,0,0,.188-.058.96.96,0,0,0,.173-.093.922.922,0,0,0,.153-.125.878.878,0,0,0,.122-.15.927.927,0,0,0,.093-.173,1,1,0,0,0,.058-.188,1.033,1.033,0,0,0,.02-.2,1,1,0,0,0-1.2-.983Z" fill="#0b489b"/>
          <path id="Trazado_1003696" data-name="Trazado 1003696" d="M51.4,51.739a.953.953,0,0,0-.188.055,1.143,1.143,0,0,0-.172.093,1.056,1.056,0,0,0-.153.125,1.009,1.009,0,0,0-.293.708,1.054,1.054,0,0,0,.02.2,1,1,0,0,0,.058.188.958.958,0,0,0,.093.173.9.9,0,0,0,.275.275.956.956,0,0,0,.172.093.942.942,0,0,0,.188.058,1.037,1.037,0,0,0,.2.02,1.007,1.007,0,0,0,.708-.293,1.208,1.208,0,0,0,.125-.153,1.148,1.148,0,0,0,.093-.173,1,1,0,0,0,.055-.188.847.847,0,0,0,.02-.2,1,1,0,0,0-1.2-.981Z" fill="#0b489b"/>
          <path id="Trazado_1003697" data-name="Trazado 1003697" d="M57.487,51.886a1.143,1.143,0,0,0-.172-.093,1.064,1.064,0,0,0-.188-.055.945.945,0,0,0-.393,0,.989.989,0,0,0-.185.055,1.071,1.071,0,0,0-.175.093,1.186,1.186,0,0,0-.15.125.794.794,0,0,0-.125.153.931.931,0,0,0-.093.173,1.22,1.22,0,0,0-.058.185,1.035,1.035,0,0,0-.018.2,1.009,1.009,0,0,0,.018.2,1.248,1.248,0,0,0,.058.188,1.123,1.123,0,0,0,.093.173.893.893,0,0,0,.125.15.8.8,0,0,0,.153.125.878.878,0,0,0,.172.093.98.98,0,0,0,.578.058,1.054,1.054,0,0,0,.188-.058.956.956,0,0,0,.172-.093.9.9,0,0,0,.15-.125.817.817,0,0,0,.125-.15,1.122,1.122,0,0,0,.092-.173,1,1,0,0,0,.058-.188,1.05,1.05,0,0,0,.018-.2,1,1,0,0,0-.293-.708,1.226,1.226,0,0,0-.15-.125Z" fill="#0b489b"/>
          <path id="Trazado_1003698" data-name="Trazado 1003698" d="M35.517,28.8a1,1,0,0,0,1,1H58.74a1,1,0,0,0,0-2H36.518A1,1,0,0,0,35.517,28.8Z" fill="#0b489b"/>
          <path id="Trazado_1003699" data-name="Trazado 1003699" d="M58.74,32.775H53.865a1,1,0,1,0,0,2H58.74a1,1,0,0,0,0-2Z" fill="#0b489b"/>
          <path id="Trazado_1003700" data-name="Trazado 1003700" d="M50.429,33.775a1,1,0,0,0-1-1H43.873a1,1,0,0,0,0,2h5.555A1,1,0,0,0,50.429,33.775Z" fill="#0b489b"/>
          <path id="Trazado_1003701" data-name="Trazado 1003701" d="M48.99,39.5H58.74a1,1,0,0,0,0-2H48.99a1,1,0,1,0,0,2Z" fill="#0b489b"/>
          <path id="Trazado_1003702" data-name="Trazado 1003702" d="M33.709,47.744a1,1,0,0,0,1,1H56.931a1,1,0,1,0,0-2H34.709a1,1,0,0,0-1,1Z" fill="#0b489b"/>
          <path id="Trazado_1003703" data-name="Trazado 1003703" d="M34.709,53.719h6.46a1,1,0,0,0,0-2h-6.46a1,1,0,0,0,0,2Z" fill="#0b489b"/>
          <path id="Trazado_1003704" data-name="Trazado 1003704" d="M34.709,58.443H47.628a1,1,0,1,0,0-2H34.709a1,1,0,0,0,0,2Z" fill="#0b489b"/>
        </g>
      </g>
    </g>
  </g>
</svg>
