<svg xmlns="http://www.w3.org/2000/svg" xmlns:xlink="http://www.w3.org/1999/xlink" width="81" height="88.667" viewBox="0 0 81 88.667">
  <defs>
    <clipPath id="clip-path">
      <rect id="Rectángulo_434176" data-name="Rectángulo 434176" width="81" height="81" transform="translate(395.711 874)" fill="#fff" stroke="#707070" stroke-width="1"/>
    </clipPath>
  </defs>
  <g id="Grupo_1173225" data-name="Grupo 1173225" transform="translate(-395.711 -870)">
    <g id="Grupo_1150935" data-name="Grupo 1150935" transform="translate(404.167 870)">
      <path id="Trazado_987198" data-name="Trazado 987198" d="M62.042,128.667H13.922C5.223,128.667,0,125.951,0,114.382V41.535C0,40.687.517,40,1.154,40H49.337c8.7,0,13.859,5.031,13.859,16.6v70.531c0,.848-.517,1.535-1.154,1.535" transform="translate(0 -40)" fill="#3571c7"/>
    </g>
    <g id="Enmascarar_grupo_1098924" data-name="Enmascarar grupo 1098924" clip-path="url(#clip-path)">
      <g id="transformacion" transform="translate(394.404 872.693)">
        <g id="Grupo_1176700" data-name="Grupo 1176700">
          <g id="Grupo_1176687" data-name="Grupo 1176687">
            <path id="Trazado_1002807" data-name="Trazado 1002807" d="M39.194,73.161H64.016v5.226H41.806V75.774A2.612,2.612,0,0,0,39.194,73.161Z" fill="#aab2bd"/>
          </g>
          <g id="Grupo_1176688" data-name="Grupo 1176688">
            <path id="Trazado_1002808" data-name="Trazado 1002808" d="M73.161,62.71v5.226a5.224,5.224,0,0,1-5.226,5.226H31.355A16.366,16.366,0,0,0,25.424,62.71Z" fill="#ccd1d9"/>
          </g>
          <g id="Grupo_1176689" data-name="Grupo 1176689">
            <path id="Trazado_1002809" data-name="Trazado 1002809" d="M25.424,62.71a16.366,16.366,0,0,1,5.931,10.452H20.9V64.016A3.925,3.925,0,0,0,16.984,60.1H20.9l.653.274A16.321,16.321,0,0,1,25.424,62.71Z" fill="#2a8d71"/>
          </g>
          <g id="Grupo_1176690" data-name="Grupo 1176690">
            <path id="Trazado_1002810" data-name="Trazado 1002810" d="M33.968,73.161V81H20.9a7.845,7.845,0,0,1-7.839-7.839V64.016a3.919,3.919,0,0,1,7.839,0v9.145H33.968Z" fill="#2a8d71"/>
          </g>
          <g id="Grupo_1176691" data-name="Grupo 1176691">
            <path id="Trazado_1002811" data-name="Trazado 1002811" d="M36.581,34.543v2.691A14.02,14.02,0,0,1,35.117,43.4a5.238,5.238,0,0,0-3.763-1.594V39.259a5.274,5.274,0,0,0-7.643-4.729l-3.5,1.738A27.661,27.661,0,0,1,7.839,39.194v2.613A5.238,5.238,0,0,0,4.076,43.4a13.733,13.733,0,0,1-1.463-6.166,11.112,11.112,0,0,1,11.1-11.1h3.2a4.494,4.494,0,0,0,2.508-.758,11.031,11.031,0,0,1,17.154,9.171Z" fill="#b27946"/>
          </g>
          <g id="Grupo_1176692" data-name="Grupo 1176692">
            <path id="Trazado_1002812" data-name="Trazado 1002812" d="M73.161,62.71H25.424a16.321,16.321,0,0,0-3.867-2.339L20.9,60.1a10.459,10.459,0,0,0,10.125-7.839h.327A5.23,5.23,0,0,0,35.117,43.4a13.652,13.652,0,0,0,1.32-4.233l.144.026H67.935a5.254,5.254,0,0,1,5.226,5.226Z" fill="#b4e6d2"/>
          </g>
          <g id="Grupo_1176693" data-name="Grupo 1176693">
            <path id="Trazado_1002813" data-name="Trazado 1002813" d="M71.79,40.853l-.026.026a5.129,5.129,0,0,0-3.828-1.685H46.275A20.9,20.9,0,1,1,71.79,40.853Z" fill="#32deff"/>
          </g>
          <g id="Grupo_1176694" data-name="Grupo 1176694">
            <circle id="Elipse_13478" data-name="Elipse 13478" cx="6.532" cy="6.532" r="6.532" transform="translate(54.871 44.419)" fill="#e6e9ed"/>
          </g>
          <g id="Grupo_1176695" data-name="Grupo 1176695">
            <path id="Trazado_1002814" data-name="Trazado 1002814" d="M41.806,75.774v2.613H33.968V73.161h5.226A2.612,2.612,0,0,1,41.806,75.774Z" fill="#f0d0b4"/>
          </g>
          <g id="Grupo_1176696" data-name="Grupo 1176696">
            <path id="Trazado_1002815" data-name="Trazado 1002815" d="M35.052,50.73a5.259,5.259,0,0,1-3.7,1.529h-.327a10.763,10.763,0,0,0,.327-2.613V41.806a5.229,5.229,0,0,1,3.7,8.923Z" fill="#f0d0b4"/>
          </g>
          <g id="Grupo_1176697" data-name="Grupo 1176697">
            <path id="Trazado_1002816" data-name="Trazado 1002816" d="M31.355,41.806v7.839a10.763,10.763,0,0,1-.327,2.613A10.459,10.459,0,0,1,20.9,60.1H18.29A10.459,10.459,0,0,1,8.165,52.258a10.763,10.763,0,0,1-.327-2.613V39.194a27.661,27.661,0,0,0,12.372-2.926l3.5-1.738a5.269,5.269,0,0,1,7.643,4.729Z" fill="#f0d0b4"/>
          </g>
          <g id="Grupo_1176698" data-name="Grupo 1176698">
            <path id="Trazado_1002817" data-name="Trazado 1002817" d="M8.165,52.258H7.839a5.226,5.226,0,1,1,0-10.452v7.839A10.763,10.763,0,0,0,8.165,52.258Z" fill="#f0d0b4"/>
          </g>
          <g id="Grupo_1176699" data-name="Grupo 1176699">
            <path id="Trazado_1002818" data-name="Trazado 1002818" d="M14.371,49.645H24.823a5.226,5.226,0,0,1-10.452,0Z" fill="#ff826e"/>
          </g>
        </g>
        <g id="Grupo_1176701" data-name="Grupo 1176701">
          <path id="Trazado_1002819" data-name="Trazado 1002819" d="M14.371,44.419a1.308,1.308,0,0,1,1.306,1.306H18.29a3.919,3.919,0,0,0-7.839,0h2.613A1.308,1.308,0,0,1,14.371,44.419Z"/>
          <path id="Trazado_1002820" data-name="Trazado 1002820" d="M24.823,44.419a1.308,1.308,0,0,1,1.306,1.306h2.613a3.919,3.919,0,0,0-7.839,0h2.613A1.308,1.308,0,0,1,24.823,44.419Z"/>
          <path id="Trazado_1002821" data-name="Trazado 1002821" d="M26.13,49.645V48.339H13.066v1.306a6.532,6.532,0,0,0,13.065,0ZM15.9,50.952h7.392a3.92,3.92,0,0,1-7.392,0Z"/>
          <circle id="Elipse_13479" data-name="Elipse 13479" cx="1.306" cy="1.306" r="1.306" transform="translate(43.113 66.629)"/>
          <circle id="Elipse_13480" data-name="Elipse 13480" cx="1.306" cy="1.306" r="1.306" transform="translate(48.339 66.629)"/>
          <circle id="Elipse_13481" data-name="Elipse 13481" cx="1.306" cy="1.306" r="1.306" transform="translate(53.565 66.629)"/>
          <path id="Trazado_1002822" data-name="Trazado 1002822" d="M61.4,58.79a7.839,7.839,0,1,0-7.839-7.839A7.847,7.847,0,0,0,61.4,58.79Zm0-13.065a5.226,5.226,0,1,1-5.226,5.226A5.231,5.231,0,0,1,61.4,45.726Z"/>
          <path id="Trazado_1002823" data-name="Trazado 1002823" d="M62.71,51.492V48.339H60.1v2.072l-2.23,2.23,1.847,1.847Z"/>
          <path id="Trazado_1002824" data-name="Trazado 1002824" d="M40.5,43.113H50.952v2.613H40.5Z"/>
          <path id="Trazado_1002825" data-name="Trazado 1002825" d="M40.5,48.339H50.952v2.613H40.5Z"/>
          <path id="Trazado_1002826" data-name="Trazado 1002826" d="M40.5,53.565H50.952v2.613H40.5Z"/>
          <path id="Trazado_1002827" data-name="Trazado 1002827" d="M82.306,23.516A22.21,22.21,0,1,0,43.2,37.887H37.849c.009-.218.038-.435.038-.653V34.548A12.338,12.338,0,0,0,18.706,24.282a3.207,3.207,0,0,1-1.786.541h-3.2A12.426,12.426,0,0,0,1.308,37.234,15.071,15.071,0,0,0,2.572,43.2,6.477,6.477,0,0,0,7.195,53.5a11.8,11.8,0,0,0,6.13,6.788c-.012.01-.025.018-.035.029a5.2,5.2,0,0,0-1.531,3.7V73.16A9.156,9.156,0,0,0,20.9,82.305h14.37V79.692H70.548V77.081H65.323V74.468h2.613a6.54,6.54,0,0,0,6.532-6.532V44.419a6.451,6.451,0,0,0-.9-3.248A22.19,22.19,0,0,0,82.306,23.516ZM66.21,37.887H53.983a21.672,21.672,0,0,1-1.139-2.613H67.349a21.672,21.672,0,0,1-1.139,2.613Zm-14.15-5.226a36.791,36.791,0,0,1-1.073-7.839H69.208a36.791,36.791,0,0,1-1.073,7.839ZM40.571,24.823h7.8a40.026,40.026,0,0,0,.99,7.839H42.8a19.53,19.53,0,0,1-2.226-7.839ZM60.1,3.919c2.916,0,5.558,3.118,7.246,7.839H52.851c1.688-4.72,4.33-7.839,7.246-7.839Zm8.046,10.452a37.054,37.054,0,0,1,1.066,7.839H50.983a37.055,37.055,0,0,1,1.066-7.839ZM79.627,22.21H71.821a39.737,39.737,0,0,0-.982-7.839h6.577a19.437,19.437,0,0,1,2.212,7.839Zm-31.254,0H40.567a19.437,19.437,0,0,1,2.212-7.839h6.577A39.737,39.737,0,0,0,48.373,22.21ZM71.82,24.823h7.828a19.571,19.571,0,0,1-2.218,7.839h-6.6A40.027,40.027,0,0,0,71.82,24.823Zm3.918-13.065H70.109A21.758,21.758,0,0,0,66.757,5.11,19.658,19.658,0,0,1,75.738,11.758ZM53.436,5.11a21.758,21.758,0,0,0-3.352,6.649H44.456A19.658,19.658,0,0,1,53.436,5.11Zm-9,30.165H50.1a27.265,27.265,0,0,0,.984,2.613H46.8A19.472,19.472,0,0,1,44.432,35.274Zm23.5,5.226a3.924,3.924,0,0,1,3.919,3.919V61.4h-46q-.48-.368-.986-.7A11.8,11.8,0,0,0,32,53.5,6.477,6.477,0,0,0,36.622,43.2a15.184,15.184,0,0,0,.894-2.7ZM21.784,61.955a15.206,15.206,0,0,1,7.963,9.9H22.208V64.014a5.178,5.178,0,0,0-.426-2.059ZM32.661,49.645V43.353a3.9,3.9,0,0,1-.055,7.375C32.639,50.37,32.661,50.011,32.661,49.645ZM13.719,27.435h3.2a5.817,5.817,0,0,0,3.236-.98,9.725,9.725,0,0,1,15.12,8.092v2.686a12.506,12.506,0,0,1-.719,4.14,6.471,6.471,0,0,0-1.9-.742v-1.38a6.588,6.588,0,0,0-6.59-6.591,6.626,6.626,0,0,0-2.949.7L19.631,35.1A26.5,26.5,0,0,1,7.839,37.887H6.532v2.745a6.438,6.438,0,0,0-1.894.741,12.48,12.48,0,0,1-.717-4.139,9.809,9.809,0,0,1,9.8-9.8Zm-9.8,19.6a3.914,3.914,0,0,1,2.613-3.679v6.292c0,.366.022.725.055,1.083a3.912,3.912,0,0,1-2.668-3.7Zm5.226,2.613V40.47A29.156,29.156,0,0,0,20.8,37.44l3.493-1.747a4.05,4.05,0,0,1,4.591.745,3.955,3.955,0,0,1,1.164,2.814V49.645A9.156,9.156,0,0,1,20.9,58.79H18.29a9.156,9.156,0,0,1-9.145-9.145ZM32.66,79.694H20.9a6.54,6.54,0,0,1-6.532-6.532V64.014A2.612,2.612,0,0,1,16.983,61.4h.026a2.615,2.615,0,0,1,2.588,2.61v8.6l-2.23,2.233,1.85,1.846,2.229-2.231,11.216,0Zm2.613-5.226H39.2a1.3,1.3,0,0,1,1.3,1.305v1.306H35.273ZM62.71,77.081h-19.6V75.773a3.919,3.919,0,0,0-.236-1.305H62.71Zm5.226-5.226H32.451a17.824,17.824,0,0,0-3.857-7.839H71.855v3.919A3.924,3.924,0,0,1,67.935,71.855ZM71.83,39.207A6.46,6.46,0,0,0,69.064,38,27.167,27.167,0,0,0,70.1,35.275h5.671A19.69,19.69,0,0,1,71.83,39.207Z"/>
        </g>
      </g>
    </g>
  </g>
</svg>
