<svg xmlns="http://www.w3.org/2000/svg" xmlns:xlink="http://www.w3.org/1999/xlink" width="83" height="83" viewBox="0 0 83 83">
  <defs>
    <clipPath id="clip-path">
      <rect id="Rectángulo_439408" data-name="Rectángulo 439408" width="83" height="83" transform="translate(-1263 -10281.279)" fill="#fff" stroke="#0b489b" stroke-width="1"/>
    </clipPath>
  </defs>
  <g id="Enmascarar_grupo_1098939" data-name="Enmascarar grupo 1098939" transform="translate(1263 10281.279)" clip-path="url(#clip-path)">
    <g id="responder" transform="translate(-1263 -10271.179)">
      <path id="Trazado_1003831" data-name="Trazado 1003831" d="M11.02,15.759H81.767V61.486H11.02Zm0,0" fill="#7a4bb0"/>
      <path id="Trazado_1003832" data-name="Trazado 1003832" d="M11.02,61.486,46.394,35.746,81.767,61.486Zm0,0" fill="#391760"/>
      <path id="Trazado_1003833" data-name="Trazado 1003833" d="M81.767,61.486,46.394,35.746,11.02,61.486h5.464l29.91-21.763L76.3,61.486Zm0,0" fill="#512189"/>
      <path id="Trazado_1003834" data-name="Trazado 1003834" d="M11.02,15.759v13.8L45.6,49.1a1.623,1.623,0,0,0,1.6,0l27.8-15.707a1.905,1.905,0,0,1,2.843,1.659V61.486h3.937V15.759Zm0,0" fill="#391760"/>
      <path id="Trazado_1003835" data-name="Trazado 1003835" d="M57.069,43.514,46.394,35.746,35.718,43.514,45.6,49.1a1.619,1.619,0,0,0,1.594,0Zm0,0" fill="#512189"/>
      <path id="Trazado_1003836" data-name="Trazado 1003836" d="M81.767,15.759v10.5L46.394,46.244,11.02,26.255v-10.5Zm0,0" fill="#7a4bb0"/>
      <path id="Trazado_1003837" data-name="Trazado 1003837" d="M15.72,30.287,1.233,15.8,15.72,1.313l4.649,4.649L10.53,15.8l9.838,9.838Zm0,0" fill="#b4e6d2"/>
      <path id="Trazado_1003838" data-name="Trazado 1003838" d="M20.368,5.962,15.72,1.313,13.794,3.238,15.355,4.8a1.643,1.643,0,0,1,0,2.324L7.842,14.638a1.643,1.643,0,0,0,0,2.324l7.513,7.514a1.643,1.643,0,0,1,0,2.324l-1.562,1.562,1.926,1.925,4.649-4.649L10.53,15.8Zm0,0" fill="#4db593"/>
      <path id="Trazado_1003839" data-name="Trazado 1003839" d="M55,19.252a22.859,22.859,0,0,0-16.27-6.74H29.2l6.551-6.551L31.1,1.313,16.612,15.8,31.1,30.287l4.649-4.649L29.2,19.087h9.534A16.328,16.328,0,0,1,50.353,23.9l4.413,4.414,4.649-4.649Zm0,0" fill="#b4e6d2"/>
      <g id="Grupo_1177354" data-name="Grupo 1177354">
        <path id="Trazado_1003840" data-name="Trazado 1003840" d="M27.1,20.209l4.266,4.267a1.643,1.643,0,0,1,0,2.324L29.49,28.678,31.1,30.287l4.649-4.649L29.2,19.087h-1.63a.657.657,0,0,0-.464,1.122Zm0,0" fill="#4db593"/>
        <path id="Trazado_1003841" data-name="Trazado 1003841" d="M31.368,7.125,27.1,11.391a.657.657,0,0,0,.465,1.122H29.2l6.551-6.551L31.1,1.313,29.49,2.922,31.368,4.8a1.643,1.643,0,0,1,0,2.325Zm0,0" fill="#4db593"/>
        <path id="Trazado_1003842" data-name="Trazado 1003842" d="M55,19.252a22.859,22.859,0,0,0-16.27-6.74H35.514a22.86,22.86,0,0,1,16.27,6.74L55.035,22.5a1.643,1.643,0,0,1,0,2.325l-1.878,1.878,1.608,1.608,4.649-4.649Zm0,0" fill="#4db593"/>
      </g>
      <path id="Trazado_1003843" data-name="Trazado 1003843" d="M81.767,14.527h-8.32a1.233,1.233,0,1,0,0,2.465h7.088v8.544L46.393,44.828l-27.776-15.7L21.24,26.51a1.233,1.233,0,0,0,0-1.743l-7.776-7.775h2.6L30.227,31.159a1.233,1.233,0,0,0,1.743,0l4.649-4.649a1.233,1.233,0,0,0,0-1.743L32.172,20.32h6.558a15.1,15.1,0,0,1,10.75,4.453l4.414,4.414a1.233,1.233,0,0,0,1.743,0l4.649-4.649a1.233,1.233,0,0,0,0-1.743l-4.414-4.413q-.73-.73-1.512-1.389H67.694a1.233,1.233,0,1,0,0-2.465H50.867a24.1,24.1,0,0,0-12.136-3.247H32.172L36.62,6.834a1.233,1.233,0,0,0,0-1.743L31.97.442a1.233,1.233,0,0,0-1.743,0L27.535,3.135a1.233,1.233,0,0,0,1.743,1.744L31.1,3.057,34,5.963l-5.68,5.679a1.233,1.233,0,0,0,.872,2.1h9.534a21.635,21.635,0,0,1,15.4,6.379l3.542,3.542-2.905,2.906L51.225,23.03a17.554,17.554,0,0,0-12.494-5.175H29.2a1.233,1.233,0,0,0-.872,2.1L34,25.639,31.1,28.544,18.356,15.8l6.782-6.783a1.233,1.233,0,0,0-1.743-1.743l-7.252,7.252h-2.6L21.24,6.835a1.233,1.233,0,0,0,0-1.743L16.592.442a1.233,1.233,0,0,0-1.743,0L.361,14.929a1.233,1.233,0,0,0,0,1.743L9.787,26.1V61.485a1.233,1.233,0,0,0,1.233,1.233H31.556a1.233,1.233,0,0,0,0-2.466H14.81L38.357,43.119l7.43,4.2a1.232,1.232,0,0,0,1.213,0l7.431-4.2L77.977,60.252H37.3a1.233,1.233,0,1,0,0,2.466H81.767A1.233,1.233,0,0,0,83,61.485V15.76a1.233,1.233,0,0,0-1.233-1.233ZM15.72,3.057l2.905,2.905L9.658,14.929a1.233,1.233,0,0,0,0,1.743l8.967,8.966L15.72,28.544,2.976,15.8ZM12.253,59.064v-30.5l2.6,2.6a1.233,1.233,0,0,0,1.743,0l.217-.217L36,41.786Zm68.282-30.7v30.7L56.789,41.786Zm0,0"/>
    </g>
  </g>
</svg>
